<svg xmlns="http://www.w3.org/2000/svg" width="58.168" height="57.941" viewBox="0 0 58.168 57.941"><defs><style>.a{fill:#3a88ec;}</style></defs><g transform="translate(0 -1)"><path class="a" d="M53.056,1H5.112A5.118,5.118,0,0,0,0,6.112V53.828a5.118,5.118,0,0,0,5.112,5.112H53.056a5.118,5.118,0,0,0,5.112-5.112V6.112A5.118,5.118,0,0,0,53.056,1ZM5.112,4.408H53.056a1.706,1.706,0,0,1,1.7,1.7v8.521H3.408V6.112A1.706,1.706,0,0,1,5.112,4.408ZM53.056,55.533H5.112a1.706,1.706,0,0,1-1.7-1.7V18.041H54.76V53.828A1.706,1.706,0,0,1,53.056,55.533Z"/><path class="a" d="M208.6,196.135a1.7,1.7,0,0,0-2.238.9l-10.225,23.858a1.7,1.7,0,0,0,3.133,1.343l10.225-23.858A1.7,1.7,0,0,0,208.6,196.135Z" transform="translate(-173.729 -172.843)"/><path class="a" d="M87.559,241.639a1.7,1.7,0,0,0-2.4-.266l-8.521,6.817a1.7,1.7,0,0,0,0,2.661l8.521,6.817a1.7,1.7,0,1,0,2.129-2.661l-6.857-5.486,6.857-5.486A1.7,1.7,0,0,0,87.559,241.639Z" transform="translate(-67.369 -212.733)"/><path class="a" d="M342.289,248.189l-8.521-6.817a1.7,1.7,0,1,0-2.129,2.661l6.857,5.486-6.857,5.486a1.7,1.7,0,1,0,2.129,2.661l8.521-6.817A1.7,1.7,0,0,0,342.289,248.189Z" transform="translate(-293.395 -212.733)"/><ellipse class="a" cx="2.5" cy="1" rx="2.5" ry="1" transform="translate(5.839 9.121)"/><ellipse class="a" cx="2" cy="1" rx="2" ry="1" transform="translate(13.839 9.121)"/><ellipse class="a" cx="1.5" cy="1" rx="1.5" ry="1" transform="translate(19.839 9.121)"/><path class="a" d="M332.7,64.408h10.225a1.7,1.7,0,0,0,0-3.408H332.7a1.7,1.7,0,0,0,0,3.408Z" transform="translate(-293.395 -53.183)"/></g></svg>