<svg xmlns="http://www.w3.org/2000/svg" width="190.412" height="206.316" viewBox="0 0 190.412 206.316"><defs><style>.a{fill:#f5f5f5;}.b{fill:#e0e0e0;}.c{fill:#fff;}.d{fill:#ebebeb;}.e{fill:#2d85f5;}.f{opacity:0.8;}.g{fill:#f8b257;}.h{fill:#263238;}.i{opacity:0.2;}.j{fill:#455a64;}.k{fill:none;}.l{fill:#fafafa;}.m{opacity:0.3;}.n{fill:#ffbe9d;}.o{fill:#eb996e;}.p{opacity:0.78;}.q{opacity:0.5;}.r{fill:#efefef;}</style></defs><g transform="translate(-32.905 -18.997)"><g transform="translate(34.014 45.175)"><path class="a" d="M128.64,428.39v18.622H185.9V428.39Z" transform="translate(-88.018 -267.651)"/><path class="b" d="M123.13,416.45v5.2H184.8v-5.2H123.13Z" transform="translate(-84.91 -260.916)"/><path class="b" d="M192.313,440.276h28.83V421.655h2v-5.2H191.11v4.725Z" transform="translate(-123.257 -260.916)"/><rect class="b" width="11.612" height="2.803" transform="translate(48.629 163.742)"/><rect class="c" width="14.912" height="5.92" transform="translate(47.134 170.05)"/><path class="a" d="M143.72,383.63v14.306h43.991V383.63Z" transform="translate(-96.525 -242.402)"/><path class="b" d="M139.49,374.46v4h47.369v-4H139.49Z" transform="translate(-94.139 -237.229)"/><path class="d" d="M192.634,392.763h22.148V378.457h1.534v-4H191.71v3.631Z" transform="translate(-123.596 -237.229)"/><rect class="b" width="8.919" height="2.153" transform="translate(53.35 143.538)"/><rect class="c" width="11.455" height="4.546" transform="translate(52.199 148.381)"/><path class="a" d="M328.32,384.194c-9.629-6.582-11.926-18.953-11.665-30.1.044-1.857-.183-3.818.684-5.457s2.925-2.781,4.594-2.014c1.391.636,2.01,2.236,2.794,3.557a10.9,10.9,0,0,0,4.407,4.124,4.144,4.144,0,0,0,3.823.305c1.6-.9,1.744-3.121,1.744-4.969q-.083-5.174-.174-10.344a17.361,17.361,0,0,1,.5-5.5,5.756,5.756,0,0,1,3.57-3.923,3.479,3.479,0,0,1,4.328,2.289,20.283,20.283,0,0,1,.078,2.306,1.986,1.986,0,0,0,1.159,1.818,2.262,2.262,0,0,0,2.023-.872,24.989,24.989,0,0,0,4.359-6.713,34.881,34.881,0,0,1,4.045-6.922,10,10,0,0,1,6.739-3.871c2.646-.179,5.488,1.43,6.185,4.023s-.8,5.261-2.428,7.388a41.234,41.234,0,0,1-8.513,8.282,3.448,3.448,0,0,0-1.421,1.56c-.392,1.238.789,2.45,2.014,2.842a21.549,21.549,0,0,0,4.32.436c1.443.148,3.016.772,3.574,2.132.776,1.883-.785,3.88-2.328,5.2a35.374,35.374,0,0,1-10.4,6.151,11.992,11.992,0,0,0-3.871,1.931,3.392,3.392,0,0,0-1.055,3.923,3.515,3.515,0,0,0,3.805,1.421,24.757,24.757,0,0,0,4.045-1.6c2.528-.985,5.815-.846,7.467,1.338a5.851,5.851,0,0,1,.676,5.17,13.439,13.439,0,0,1-2.755,4.6,35.639,35.639,0,0,1-15.078,10.832c-5.876,2.114-11.333,2.716-17.218.636" transform="translate(-194.066 -205.318)"/><path class="b" d="M349.87,379.187a165.84,165.84,0,0,1,6.395-17.916q.968-2.332,1.918-4.607c.632-1.513,1.26-3.012,1.962-4.442a83.392,83.392,0,0,1,4.52-7.973c1.56-2.467,3.13-4.751,4.612-6.879s2.912-4.076,4.289-5.8a66.277,66.277,0,0,1,7.083-7.646c.907-.833,1.626-1.456,2.123-1.874l.567-.471a1.374,1.374,0,0,1,.2-.148,1.3,1.3,0,0,1-.179.179l-.545.506c-.479.436-1.186,1.072-2.075,1.922a69.611,69.611,0,0,0-6.974,7.7c-1.36,1.744-2.768,3.688-4.246,5.815s-3.03,4.416-4.581,6.883a83.991,83.991,0,0,0-4.481,7.955c-.7,1.421-1.308,2.907-1.953,4.42l-1.914,4.612a170.306,170.306,0,0,0-6.408,17.872" transform="translate(-212.814 -207.315)"/><path class="b" d="M369.9,365.674a3.65,3.65,0,0,1-.192-.785c-.1-.514-.227-1.255-.366-2.18-.279-1.839-.58-4.394-.9-7.21s-.658-5.357-.963-7.188c-.153-.915-.283-1.656-.379-2.18a3.458,3.458,0,0,1-.109-.8,4.012,4.012,0,0,1,.24.776c.135.5.3,1.238.484,2.149.37,1.826.745,4.359,1.068,7.192l.8,7.214c.1.872.192,1.6.257,2.18a3.83,3.83,0,0,1,.061.833Z" transform="translate(-222.471 -220.797)"/><path class="b" d="M397.409,381.242a5.487,5.487,0,0,1-.95.122c-.61.061-1.491.144-2.581.283-2.18.257-5.165.715-8.448,1.369s-6.225,1.386-8.334,1.97c-1.059.283-1.914.536-2.5.711a4.975,4.975,0,0,1-.924.235,4.92,4.92,0,0,1,.872-.366c.575-.209,1.421-.5,2.472-.815,2.105-.645,5.048-1.408,8.339-2.07a84.146,84.146,0,0,1,8.513-1.277c1.094-.109,1.979-.153,2.594-.174a5,5,0,0,1,.95.013Z" transform="translate(-226.239 -241.038)"/><path class="b" d="M334.622,413.783a1,1,0,0,1-.166-.288c-.113-.231-.248-.514-.436-.872-.357-.745-.846-1.84-1.43-3.2-1.177-2.711-2.685-6.512-4.289-10.723s-3.064-7.99-4.176-10.741l-1.334-3.234-.357-.872a1.419,1.419,0,0,1-.1-.318,1.1,1.1,0,0,1,.166.288l.436.872c.357.745.846,1.839,1.434,3.2,1.177,2.711,2.681,6.512,4.289,10.728s3.073,8.021,4.189,10.754l1.334,3.234.357.872a1.419,1.419,0,0,1,.087.3Z" transform="translate(-197.279 -242.351)"/><path class="b" d="M382.028,428.8a1.148,1.148,0,0,1-.309.131l-.915.318-3.374,1.133c-2.846.955-6.765,2.323-11.094,3.836s-8.282,2.851-11.133,3.749c-1.434.436-2.615.8-3.409,1.024l-.933.257a1.051,1.051,0,0,1-.331.065,1.352,1.352,0,0,1,.314-.131l.911-.318,3.374-1.133c2.851-.955,6.77-2.319,11.1-3.836s8.26-2.846,11.129-3.744c1.434-.436,2.615-.8,3.409-1.029l.92-.235A1.27,1.27,0,0,1,382.028,428.8Z" transform="translate(-213.186 -267.882)"/><path class="b" d="M433.406,82.7a4.464,4.464,0,0,0,2.659-4.128,4.193,4.193,0,1,0-8.369-.039,4.451,4.451,0,0,0,2.668,4.167c-6.438.972-6.146,7.968-6.146,7.968l15.226.07S439.788,83.662,433.406,82.7Z" transform="translate(-254.752 -77.791)"/><path class="b" d="M434,214.255a6.973,6.973,0,0,1,1.678-.728l.349-1.665,2.812-.052.405,1.652a6.868,6.868,0,0,1,1.7.671l1.421-.933,2.023,1.957-.872,1.452a6.846,6.846,0,0,1,.732,1.683l1.665.344.048,2.812-1.652.405a6.8,6.8,0,0,1-.671,1.709l.933,1.421-1.94,2.023-1.456-.872a6.976,6.976,0,0,1-1.678.728l-.349,1.665-2.812.048-.405-1.648a7.038,7.038,0,0,1-1.7-.671l-1.421.928-2.023-1.953.872-1.452a6.842,6.842,0,0,1-.732-1.683l-1.665-.344-.048-2.812,1.652-.405a6.8,6.8,0,0,1,.671-1.709l-.946-1.447,1.953-2.023,1.456.872Zm1.5,3.749a1.265,1.265,0,1,0,0-.009Z" transform="translate(-258.569 -140.479)"/><path class="b" d="M442.4,224.726a2.428,2.428,0,0,1,.562-.5,3.051,3.051,0,0,1,4.664,2.066,3,3,0,0,1,0,.928,3.073,3.073,0,0,1-2.546,2.637,2.915,2.915,0,0,1-.933,0,2.8,2.8,0,0,1-.872-.248,3.051,3.051,0,0,1-1.382-4.359,2.356,2.356,0,0,1,.471-.575,3.7,3.7,0,0,0-.414.61,3,3,0,0,0-.331,1.931,2.955,2.955,0,0,0,1.722,2.232,2.8,2.8,0,0,0,.811.227,2.848,2.848,0,0,0,.872,0,2.929,2.929,0,0,0,2.406-2.493,2.706,2.706,0,0,0,0-.872,2.676,2.676,0,0,0-.253-.806,3,3,0,0,0-1.016-1.168,2.96,2.96,0,0,0-1.273-.471,3,3,0,0,0-1.887.423A6.77,6.77,0,0,0,442.4,224.726Z" transform="translate(-264.482 -152.21)"/><path class="b" d="M433.906,214.126a.37.37,0,0,1-.1-.048l-.279-.161-1.094-.645h.035l-1.944,2.031v-.052c.288.436.6.907.937,1.417v.052a6.942,6.942,0,0,0-.663,1.7v.031h-.035l-1.652.41.048-.061c0,.872.035,1.826.057,2.812l-.052-.065,1.661.344h.044v.044a6.868,6.868,0,0,0,.724,1.661l.026.039-.026.039-.872,1.452v-.1c.636.615,1.308,1.277,2.027,1.953h-.1l1.421-.933.039-.026h.044a6.739,6.739,0,0,0,1.687.663h.048v.048l.405,1.652-.083-.065,2.812-.052-.083.07.344-1.665v-.052h.048a6.821,6.821,0,0,0,1.661-.719h0l.048-.031.044.031,1.452.872h-.1q.985-1.024,1.953-2.023v.1l-.928-1.421-.031-.044.026-.044a6.77,6.77,0,0,0,.667-1.683v-.052h.052l1.648-.4-.061.083c0-.963-.031-1.9-.048-2.812l.065.074-1.665-.349h-.044v-.044a6.871,6.871,0,0,0-.719-1.665l-.026-.039.026-.039.872-1.452v.087q-1.064-1.024-2.018-1.957h.078l-1.421.928-.031.022h-.035a6.839,6.839,0,0,0-1.687-.671h-.035v-.035c-.144-.6-.275-1.142-.4-1.652l.052.039-2.812.039.035-.031c-.139.663-.257,1.207-.353,1.661h0a6.977,6.977,0,0,0-1.286.493l-.3.157a.47.47,0,0,1-.1.052l.091-.061c.065-.044.161-.1.3-.174a7.057,7.057,0,0,1,1.286-.523h0l.336-1.665v-.031h.035l2.812-.061h.039v.039l.41,1.648-.039-.039a6.724,6.724,0,0,1,1.713.715h-.065l1.421-.933.044-.031.039.039,2.027,1.948.039.039-.031.048-.872,1.456v-.078a7,7,0,0,1,.741,1.7l-.061-.057,1.665.344h.065v.065q.026,1.373.052,2.812v.065h-.065l-1.648.405.061-.061a7.117,7.117,0,0,1-.68,1.744v-.087c.31.466.619.942.933,1.421l.039.057-.048.048-1.953,2.023-.048.052-.061-.035-1.452-.872h.087a6.974,6.974,0,0,1-1.7.737l.061-.065c-.118.571-.235,1.138-.349,1.665v.065h-.074l-2.816.048h-.065v-.065l-.4-1.652.061.061a6.922,6.922,0,0,1-1.744-.68h.083l-1.421.933-.052.035-.048-.044-2.023-1.957-.044-.044.035-.052.872-1.452v.078a7.075,7.075,0,0,1-.737-1.7l.057.048-1.665-.349h-.052v-.052c0-.985-.031-1.927-.044-2.812v-.065h.048l1.652-.4-.044.044a6.729,6.729,0,0,1,.684-1.717v.052l-.924-1.425-.022-.031.026-.026,1.966-2.01h0l1.072.663.275.179Z" transform="translate(-257.479 -145.349)"/><path class="b" d="M91.271,66.771a3.287,3.287,0,0,0,3.1-.671c.536.776,1.221,1.7,1.992,2.681q.641.811,1.229,1.513a3.356,3.356,0,0,0-1.744,3.958c-.728.227-1.552.506-2.428.828-.78.283-1.5.571-2.14.837a3.365,3.365,0,1,0,0,1.983,3.308,3.308,0,0,0,.139-1.155c.706-.222,1.491-.488,2.332-.793s1.744-.663,2.437-.968a3.37,3.37,0,1,0,2.271-4.974c-.41-.562-.872-1.168-1.373-1.8-.8-1.016-1.556-1.918-2.18-2.637a3.988,3.988,0,0,0,.68-1.277,3.379,3.379,0,1,0-4.32,2.48Z" transform="translate(-63.233 -59.639)"/><path class="b" d="M43.623,257.3l3.4,4.193a.615.615,0,0,0,.527.227l5.379-.436a.623.623,0,0,1,.571.959l-2.934,4.529a.615.615,0,0,0-.052.575l2.066,4.982a.623.623,0,0,1-.728.854l-5.231-1.395a.623.623,0,0,0-.567.131l-4.1,3.487a.619.619,0,0,1-1.02-.436l-.288-5.388a.632.632,0,0,0-.3-.5l-4.6-2.816a.623.623,0,0,1,.1-1.112l5.074-1.927a.623.623,0,0,0,.384-.436l1.255-5.231a.623.623,0,0,1,1.064-.266Z" transform="translate(-35.45 -171.024)"/><path class="b" d="M330.666,286.418a6.1,6.1,0,1,0-11.333,3.077h0v.022c.231.392.523.676.819,1.085l3.535,4.682a1.094,1.094,0,0,0,1.744,0l3.487-4.6a12.668,12.668,0,0,0,.872-1.173h0A6.054,6.054,0,0,0,330.666,286.418Zm-6.1,2.65a2.674,2.674,0,1,1,.013,0Z" transform="translate(-195.096 -184.085)"/></g><g transform="translate(36.19 18.997)"><path class="e" d="M216.423,227.16a1.673,1.673,0,0,1-.161.266l-.5.737c-.436.636-1.077,1.547-1.879,2.672-1.6,2.245-3.849,5.322-6.4,8.67s-4.93,6.329-6.726,8.43c-.9,1.046-1.63,1.892-2.18,2.45l-.61.645a2.018,2.018,0,0,1-.227.214,2.039,2.039,0,0,1,.192-.244l.58-.676c.51-.575,1.221-1.434,2.105-2.489,1.744-2.123,4.115-5.117,6.665-8.465s4.817-6.412,6.451-8.631l1.94-2.615c.222-.292.4-.527.532-.711A1.559,1.559,0,0,1,216.423,227.16Z" transform="translate(-129.173 -142.96)"/><path class="e" d="M267.191,107.22c.061,0-.214,2.345-.615,5.231s-.776,5.192-.837,5.183.214-2.345.615-5.231S267.13,107.211,267.191,107.22Z" transform="translate(-167.526 -75.302)"/><path class="e" d="M330.555,100.27a2.993,2.993,0,0,1-.292.253c-.209.174-.5.405-.872.7l-3.182,2.52-10.549,8.252L305.086,120.2l-3.226,2.463-.872.658a1.892,1.892,0,0,1-.318.218,2.991,2.991,0,0,1,.292-.253l.872-.693,3.182-2.524,10.553-8.252,10.592-8.2,3.221-2.463.872-.658a2.322,2.322,0,0,1,.3-.231Z" transform="translate(-187.236 -71.382)"/><path class="e" d="M355.851,166.107c0,.061-10.675.95-23.857,1.979s-23.87,1.818-23.874,1.744,10.675-.946,23.857-1.979S355.847,166.059,355.851,166.107Z" transform="translate(-191.438 -108.519)"/><path class="e" d="M323.853,213.019c-.026.057-4.56-2.2-10.117-5.039s-10.026-5.183-10.026-5.231,4.555,2.18,10.117,5.035S323.888,212.962,323.853,213.019Z" transform="translate(-188.95 -129.189)"/><path class="e" d="M200.937,106.477a2.1,2.1,0,0,1-.222-.27l-.606-.793c-.519-.7-1.264-1.709-2.18-2.964-1.826-2.511-4.311-6.007-6.974-9.917s-5.039-7.493-6.722-10.1c-.841-1.308-1.513-2.367-1.97-3.1-.222-.353-.4-.641-.527-.85a1.557,1.557,0,0,1-.166-.305,2.585,2.585,0,0,1,.2.279l.562.828c.493.745,1.181,1.787,2.031,3.051,1.713,2.589,4.1,6.155,6.774,10.065s5.139,7.41,6.931,9.952l2.123,3,.571.82A1.648,1.648,0,0,1,200.937,106.477Z" transform="translate(-120.051 -58.915)"/><path class="e" d="M195.729,153.976c-.026.057-2.995-1.308-6.63-2.995s-6.539-3.147-6.539-3.2,2.995,1.286,6.63,2.995S195.755,153.928,195.729,153.976Z" transform="translate(-120.61 -98.18)"/><path class="e" d="M151.064,175.392c0,.061-10.026-.785-22.349-1.892s-22.34-2.053-22.336-2.114,10.026.78,22.353,1.887S151.069,175.327,151.064,175.392Z" transform="translate(-77.637 -111.496)"/><path class="e" d="M182.629,208c.026.057-5.915,2.642-13.269,5.776s-13.334,5.632-13.36,5.558,5.915-2.646,13.273-5.78S182.59,207.947,182.629,208Z" transform="translate(-105.627 -132.151)"/><circle class="e" cx="21.782" cy="21.782" r="21.782" transform="translate(73.427 42.114)"/><g class="f" transform="translate(73.427 42.114)"><circle class="c" cx="21.782" cy="21.782" r="21.782"/></g><path class="g" d="M253.772,159.983a8.653,8.653,0,1,0-9.442,11.146l.65,2.084,7.232-2.267s-.323-1.181-.632-2.232A8.64,8.64,0,0,0,253.772,159.983Z" transform="translate(-151.24 -101.636)"/><path class="h" d="M256.123,182.773l-.026-.1a2.084,2.084,0,0,0-.057-.309c-.052-.275-.126-.671-.2-1.19s-.174-1.155-.231-1.9a12.448,12.448,0,0,1,.035-2.533,8.283,8.283,0,0,1,.292-1.447,1.586,1.586,0,0,1,.405-.68.9.9,0,0,1,.793-.222.6.6,0,0,1,.366.248.624.624,0,0,1,.1.436,1.234,1.234,0,0,1-.466.75,2.363,2.363,0,0,1-1.744.414,2.4,2.4,0,0,1-1.6-1.016,1.779,1.779,0,0,1-.344-.937.776.776,0,0,1,.571-.806.545.545,0,0,1,.51.161.785.785,0,0,1,.227.488,1.678,1.678,0,0,1-.327,1,2.568,2.568,0,0,1-1.744,1.159,2.245,2.245,0,0,1-1.97-.693,1.308,1.308,0,0,1-.366-.981.632.632,0,0,1,.772-.593.872.872,0,0,1,.462.257,1.342,1.342,0,0,1,.275.436,2.524,2.524,0,0,1,.166.981,2.563,2.563,0,0,1-.732,1.744,2.615,2.615,0,0,1-1.635.767,1.364,1.364,0,0,1-.872-.161.663.663,0,0,1-.292-.78.541.541,0,0,1,.314-.3.767.767,0,0,1,.436-.048,1.243,1.243,0,0,1,.68.41c.349.384.649.767.95,1.129,1.177,1.46,2.075,2.685,2.685,3.54.3.436.536.758.689.99l.179.257.057.092a.655.655,0,0,1-.065-.083l-.187-.257-.737-.976c-.619-.846-1.526-2.062-2.711-3.513-.3-.362-.606-.745-.946-1.12a1.194,1.194,0,0,0-.636-.384.6.6,0,0,0-.641.292.58.58,0,0,0,.262.671,1.308,1.308,0,0,0,.811.148,2.528,2.528,0,0,0,1.574-.745,2.472,2.472,0,0,0,.7-1.678,2.4,2.4,0,0,0-.161-.942.95.95,0,0,0-.663-.628.545.545,0,0,0-.436.092.558.558,0,0,0-.2.405,1.2,1.2,0,0,0,.34.9,2.145,2.145,0,0,0,1.874.658,2.476,2.476,0,0,0,1.678-1.112,1.587,1.587,0,0,0,.31-.933.663.663,0,0,0-.2-.436.436.436,0,0,0-.414-.135.606.606,0,0,0-.371.262.785.785,0,0,0-.122.436,1.77,1.77,0,0,0,.327.872,2.28,2.28,0,0,0,3.208.584,1.116,1.116,0,0,0,.436-.684.514.514,0,0,0-.392-.584.811.811,0,0,0-.711.2,1.5,1.5,0,0,0-.388.645,8,8,0,0,0-.3,1.434,13.026,13.026,0,0,0-.052,2.515c.057.745.139,1.377.214,1.9s.144.915.187,1.194a1.492,1.492,0,0,0,.048.309Z" transform="translate(-157.779 -112.67)"/><path class="h" d="M262.892,195.263l-6.216,1.935a.5.5,0,0,1-.615-.323h0a.488.488,0,0,1,.323-.61l6.216-1.935a.484.484,0,0,1,.61.318h0a.488.488,0,0,1-.318.615Z" transform="translate(-162.06 -124.428)"/><path class="h" d="M263.562,197.4l-6.216,1.935a.5.5,0,0,0-.323.615.484.484,0,0,0,.61.318l.684-.209,1.443,1.438a.623.623,0,0,0,.628.157l2.223-.693a.623.623,0,0,0,.436-.493l.344-1.992.466-.144a.489.489,0,0,0-.3-.933Z" transform="translate(-162.603 -126.16)"/><g class="i" transform="translate(86.436 54.805)"><path class="c" d="M239.625,162.229a6.434,6.434,0,0,1,1.308-1.613,4.689,4.689,0,0,1,1.155-.767c.305-.131.493-.153.527-.092.083.135-.475.554-1.142,1.382a7.122,7.122,0,0,0-1.02,7.633c.436.972.872,1.521.741,1.635-.052.048-.222,0-.484-.227a4.633,4.633,0,0,1-.915-1.046,6.312,6.312,0,0,1-.841-1.9,6.7,6.7,0,0,1-.166-2.567" transform="translate(-238.733 -159.725)"/></g><g class="i" transform="translate(91.222 53.476)"><path class="c" d="M250.91,157.772c-.523.161-1.029.161-1.173-.1-.065-.131,0-.305.139-.479a1.6,1.6,0,0,1,.724-.436,1.617,1.617,0,0,1,.841-.044c.222.057.366.174.384.323" transform="translate(-249.712 -156.677)"/></g><path class="j" d="M266.921,204.787h-.466a3.706,3.706,0,0,0-1.1.192,3.793,3.793,0,0,0-.985.519,4.039,4.039,0,0,1-.371.288,1.33,1.33,0,0,1,.327-.344,3.174,3.174,0,0,1,.994-.562,3.23,3.23,0,0,1,1.133-.17,1.425,1.425,0,0,1,.466.078Z" transform="translate(-166.55 -130.294)"/><path class="j" d="M265.2,199.938c0,.031-1.112.4-2.493.833s-2.52.758-2.528.732,1.107-.4,2.493-.833S265.193,199.912,265.2,199.938Z" transform="translate(-164.395 -127.603)"/><path class="j" d="M265.932,201.91a3.564,3.564,0,0,1-.593.253c-.37.144-.872.327-1.465.514s-1.1.349-1.486.436a3.636,3.636,0,0,1-.628.144,3.984,3.984,0,0,1,.606-.218l1.473-.479,1.473-.484A4.7,4.7,0,0,1,265.932,201.91Z" transform="translate(-165.287 -128.717)"/><path class="e" d="M164.349,44.774a.735.735,0,0,1,0-.17,4.38,4.38,0,0,0-.039-.51l-.035-.375a2.816,2.816,0,0,0-.07-.436,7.533,7.533,0,0,0-.227-1.1,10.235,10.235,0,0,0-1.19-2.829,10.614,10.614,0,0,0-12.75-4.525,11.024,11.024,0,0,0-1.382.61,10.607,10.607,0,0,0-1.308.837,10.994,10.994,0,0,0-1.2,1.02,11.837,11.837,0,0,0-1.055,1.221,10.414,10.414,0,0,0-1.513,2.916,10.531,10.531,0,0,0,0,6.687,10.326,10.326,0,0,0,1.513,2.921,13.439,13.439,0,0,0,1.037,1.229,12.642,12.642,0,0,0,1.2,1.02,11.146,11.146,0,0,0,1.308.837,11.661,11.661,0,0,0,1.382.606,10.6,10.6,0,0,0,12.75-4.52,10.253,10.253,0,0,0,1.19-2.833,7.489,7.489,0,0,0,.227-1.1c.026-.161.052-.309.07-.436l.022-.371c0-.218.031-.384.039-.51a.816.816,0,0,1,0-.174v1.064a3.369,3.369,0,0,1-.061.436,7.44,7.44,0,0,1-.2,1.112,10.174,10.174,0,0,1-1.168,2.877,10.787,10.787,0,0,1-12.92,4.673,12.179,12.179,0,0,1-1.412-.619,11,11,0,0,1-1.308-.85,11.516,11.516,0,0,1-1.229-1.042,11.769,11.769,0,0,1-1.064-1.251,10.422,10.422,0,0,1-1.547-2.982,10.719,10.719,0,0,1,0-6.826,10.344,10.344,0,0,1,1.547-2.977,11.8,11.8,0,0,1,1.064-1.255,12,12,0,0,1,1.229-1.037,11,11,0,0,1,1.308-.85,11.476,11.476,0,0,1,1.412-.619A10.762,10.762,0,0,1,162.9,39.295a10.2,10.2,0,0,1,1.168,2.873,7.488,7.488,0,0,1,.2,1.116c.022.161.048.314.061.436a3.673,3.673,0,0,1,0,.379v.51A1.661,1.661,0,0,1,164.349,44.774Z" transform="translate(-98.21 -33.997)"/><path class="h" d="M164.178,51.752a5.365,5.365,0,0,0-.126-.811,3.239,3.239,0,0,0-.375-.872,3.352,3.352,0,0,0-.846-.937,3.3,3.3,0,0,0-3.13-.5,2.994,2.994,0,0,0-.837.436,3.707,3.707,0,0,0-.375.318,3.949,3.949,0,0,0-.323.384,3.291,3.291,0,0,0,0,3.923,3.948,3.948,0,0,0,.323.384,3.708,3.708,0,0,0,.375.318,3,3,0,0,0,.837.436,3.317,3.317,0,0,0,3.975-1.4,3.238,3.238,0,0,0,.375-.872,5.286,5.286,0,0,0,.126-.815v.218a1.436,1.436,0,0,1,0,.257,3.393,3.393,0,0,1-.065.349,3.243,3.243,0,0,1-.362.9,3.387,3.387,0,0,1-2.275,1.608,3.422,3.422,0,0,1-1.787-.139,3.156,3.156,0,0,1-.872-.462,3.949,3.949,0,0,1-.388-.327,4.18,4.18,0,0,1-.336-.392,3.387,3.387,0,0,1,0-4.023,4.182,4.182,0,0,1,.336-.392,3.946,3.946,0,0,1,.388-.327,3.156,3.156,0,0,1,.872-.462,3.383,3.383,0,0,1,4.063,1.469,3.242,3.242,0,0,1,.362.9,3.186,3.186,0,0,1,.065.349,1.433,1.433,0,0,1,0,.257v.222Z" transform="translate(-106.435 -42.095)"/><path class="h" d="M170.48,61.76c.022,0,.75.676,1.63,1.556s1.582,1.613,1.561,1.63-.75-.676-1.63-1.556S170.462,61.777,170.48,61.76Z" transform="translate(-113.795 -49.658)"/><circle class="c" cx="14.315" cy="14.315" r="14.315" transform="translate(0.113 43.849)"/><path class="e" d="M69.183,148.764v-.231c0-.153-.026-.388-.048-.68a2.937,2.937,0,0,0-.031-.5c-.031-.183-.057-.379-.092-.6a9.935,9.935,0,0,0-.3-1.478,13.735,13.735,0,0,0-1.587-3.792,14.315,14.315,0,0,0-9.616-6.691,12.789,12.789,0,0,0-1.8-.2c-.309,0-.615-.044-.928-.039l-.942.052a2.509,2.509,0,0,0-.475.031l-.471.07c-.318.057-.641.092-.959.157a15.779,15.779,0,0,0-3.749,1.373c-.3.161-.584.353-.872.527a7.479,7.479,0,0,0-.872.593,15.4,15.4,0,0,0-1.613,1.369,15.867,15.867,0,0,0-1.391,1.648,13.784,13.784,0,0,0-2.031,3.923,14.088,14.088,0,0,0,0,8.967,13.753,13.753,0,0,0,2.031,3.923,16.248,16.248,0,0,0,1.391,1.648,15.942,15.942,0,0,0,1.613,1.369,7.113,7.113,0,0,0,.872.593c.3.174.588.362.872.527a14.819,14.819,0,0,0,1.857.815,15.614,15.614,0,0,0,1.892.558c.318.065.641.1.959.153l.471.074c.161.022.318.022.475.031l.942.048c.314,0,.623-.022.928-.035a13.477,13.477,0,0,0,1.8-.2,14.3,14.3,0,0,0,9.616-6.7,13.626,13.626,0,0,0,1.587-3.792,9.886,9.886,0,0,0,.3-1.473c.035-.218.074-.414.092-.6s0-.349.031-.5c0-.292.035-.519.048-.68a.992.992,0,0,0,0-.231V150.2a5.715,5.715,0,0,1-.078.6,9.955,9.955,0,0,1-.283,1.486,13.513,13.513,0,0,1-1.561,3.836,14.385,14.385,0,0,1-9.734,6.791,13.694,13.694,0,0,1-1.822.218c-.309,0-.623.039-.937.035l-.955-.044a2.507,2.507,0,0,1-.479-.031l-.484-.074c-.318-.052-.645-.087-.968-.157a14.659,14.659,0,0,1-1.927-.558,14.861,14.861,0,0,1-1.861-.824c-.305-.166-.6-.357-.9-.536a7.344,7.344,0,0,1-.872-.6,13.927,13.927,0,0,1-3.073-3.056,13.853,13.853,0,0,1-2.066-3.975,14.28,14.28,0,0,1,0-9.106,13.91,13.91,0,0,1,2.066-3.975,12.667,12.667,0,0,1,3.051-3.073,7.761,7.761,0,0,1,.872-.6c.3-.179.593-.371.9-.532a14.859,14.859,0,0,1,1.883-.824,15.382,15.382,0,0,1,1.927-.562c.323-.065.649-.1.968-.153l.479-.074c.161-.022.323-.022.484-.031l.955-.048c.314,0,.628.026.937.039a13.078,13.078,0,0,1,1.822.218,14.42,14.42,0,0,1,9.69,6.809,13.622,13.622,0,0,1,1.561,3.836,9.9,9.9,0,0,1,.283,1.491c.026.218.065.436.078.6s0,.353,0,.5v.684A.542.542,0,0,0,69.183,148.764Z" transform="translate(-40.44 -90.6)"/><circle class="a" cx="7.633" cy="7.633" r="7.633" transform="translate(4.454 54.496) rotate(-23.14)"/><path class="h" d="M71.372,158.352s0-.17-.035-.488a3.638,3.638,0,0,0-.061-.584,6.2,6.2,0,0,0-.161-.789,7.2,7.2,0,0,0-.846-2.027,7.59,7.59,0,0,0-9.119-3.243,7.253,7.253,0,0,0-1.918,1.033,6.818,6.818,0,0,0-1.6,1.613,7.554,7.554,0,0,0,0,8.971,9.689,9.689,0,0,0,.745.872,9.124,9.124,0,0,0,.872.732,7.253,7.253,0,0,0,1.918,1.033,7.615,7.615,0,0,0,9.123-3.247,7.2,7.2,0,0,0,.841-2.027,6.146,6.146,0,0,0,.161-.785,3.639,3.639,0,0,0,.061-.588c.022-.318.035-.484.035-.484v.488a3.548,3.548,0,0,1-.052.588,5.4,5.4,0,0,1-.153.789,7.284,7.284,0,0,1-.833,2.044,7.64,7.64,0,0,1-9.193,3.3,7.24,7.24,0,0,1-1.944-1.042,8.793,8.793,0,0,1-.872-.741,8.644,8.644,0,0,1-.754-.872,7.633,7.633,0,0,1,0-9.075,8.282,8.282,0,0,1,.754-.872,8.167,8.167,0,0,1,.872-.741,7.306,7.306,0,0,1,1.944-1.042,7.636,7.636,0,0,1,9.189,3.3,7.21,7.21,0,0,1,.806,2.036,5.446,5.446,0,0,1,.153.793,3.513,3.513,0,0,1,.052.588C71.368,158.182,71.372,158.352,71.372,158.352Z" transform="translate(-49.268 -99.835)"/><path class="k" d="M67.187,156.8a4.987,4.987,0,1,0,4.987,4.987,4.987,4.987,0,0,0-4.987-4.987Z" transform="translate(-52.715 -103.27)"/><path class="e" d="M67.091,156.76a3.832,3.832,0,0,1,1.225.113,5.031,5.031,0,0,1,3.553,6.6,5.043,5.043,0,0,1-7.768,2.367,4.794,4.794,0,0,1-1.081-1.077,4.921,4.921,0,0,1-.689-1.308,5.035,5.035,0,0,1,3.553-6.608,3.857,3.857,0,0,1,1.229-.113,9.028,9.028,0,0,0-1.207.2,4.956,4.956,0,0,0-3.6,3.884,4.882,4.882,0,0,0,.222,2.563,4.651,4.651,0,0,0,.667,1.234,4.56,4.56,0,0,0,1,1.051,4.838,4.838,0,0,0,5.758,0,4.472,4.472,0,0,0,1.037-1.029,4.533,4.533,0,0,0,.667-1.234,4.882,4.882,0,0,0-.684-4.629,4.952,4.952,0,0,0-2.694-1.818,9.04,9.04,0,0,0-1.19-.2Z" transform="translate(-52.619 -103.23)"/><path class="k" d="M71.592,164.61a1.582,1.582,0,1,0,1.582,1.582A1.582,1.582,0,0,0,71.592,164.61Z" transform="translate(-57.121 -107.676)"/><path class="e" d="M71.463,164.573a.7.7,0,0,1,.4,0,1.608,1.608,0,0,1,.924.571,1.656,1.656,0,0,1,.262,1.582,1.683,1.683,0,0,1-3.169,0,1.648,1.648,0,0,1,.266-1.582,1.582,1.582,0,0,1,.924-.571.71.71,0,0,1,.4,0,1.132,1.132,0,0,0-.375.092,1.574,1.574,0,0,0-.82.58,1.486,1.486,0,1,0,2.389,0,1.591,1.591,0,0,0-.819-.58C71.62,164.595,71.463,164.59,71.463,164.573Z" transform="translate(-56.991 -107.638)"/><path class="a" d="M55,173.741c2.637-1.839,5.5-3.662,8.134-5.5" transform="translate(-48.653 -109.723)"/><path class="h" d="M63.125,168.24s-1.8,1.268-4.045,2.79S55,173.762,55,173.741s1.792-1.268,4.041-2.79S63.108,168.218,63.125,168.24Z" transform="translate(-48.653 -109.723)"/><path class="h" d="M54.563,179.508a4.66,4.66,0,0,1-.942,0,4.747,4.747,0,0,1-.942-.078,4.656,4.656,0,0,1,.942,0,4.747,4.747,0,0,1,.942.078Z" transform="translate(-47.345 -116.022)"/><path class="h" d="M56.3,180.833a2.332,2.332,0,0,1,.092-.645,2.21,2.21,0,0,1,.183-.628,2.445,2.445,0,0,1-.1.645A2.493,2.493,0,0,1,56.3,180.833Z" transform="translate(-49.387 -116.109)"/><path class="h" d="M57.35,180.424a2.877,2.877,0,0,1,.078-.676,2.79,2.79,0,0,1,.161-.658,2.515,2.515,0,0,1-.074.676A2.459,2.459,0,0,1,57.35,180.424Z" transform="translate(-49.979 -115.844)"/><path class="h" d="M54.87,178.39a2.672,2.672,0,0,1,.654.109,2.363,2.363,0,0,1,.636.2,2.249,2.249,0,0,1-.654-.109,2.363,2.363,0,0,1-.636-.2Z" transform="translate(-48.58 -115.449)"/><circle class="c" cx="8.3" cy="8.3" r="8.3" transform="translate(44.918 39.605) rotate(-22.23)"/><path class="e" d="M165.694,124.434a.627.627,0,0,1,0-.135c0-.1-.022-.231-.035-.392a3.438,3.438,0,0,0-.074-.632,5.371,5.371,0,0,0-.179-.872,7.894,7.894,0,0,0-.924-2.18,8.2,8.2,0,0,0-9.86-3.487,7.668,7.668,0,0,0-2.075,1.116,9.265,9.265,0,0,0-.955.789,9.933,9.933,0,0,0-.8.95,8.151,8.151,0,0,0,0,9.677,9.416,9.416,0,0,0,.8.95,9.263,9.263,0,0,0,.928.789,7.685,7.685,0,0,0,2.075,1.12,8.23,8.23,0,0,0,9.86-3.487,7.873,7.873,0,0,0,.924-2.18,5.571,5.571,0,0,0,.179-.872,3.487,3.487,0,0,0,.074-.636,3.623,3.623,0,0,1,.035-.392.7.7,0,0,1,0-.135.653.653,0,0,1,0,.135v.4a4.182,4.182,0,0,1-.052.641,5.866,5.866,0,0,1-.161.872,7.811,7.811,0,0,1-.9,2.236,8.356,8.356,0,0,1-10.043,3.622,7.808,7.808,0,0,1-2.127-1.142,8.341,8.341,0,0,1-.955-.806,9.416,9.416,0,0,1-.828-.976,8.352,8.352,0,0,1,0-9.939,9.418,9.418,0,0,1,.828-.976,9.837,9.837,0,0,1,.955-.806,7.79,7.79,0,0,1,2.127-1.138,8.341,8.341,0,0,1,10.043,3.622,7.745,7.745,0,0,1,.9,2.232,5.865,5.865,0,0,1,.161.872,4.233,4.233,0,0,1,.052.645v.392A.625.625,0,0,1,165.694,124.434Z" transform="translate(-101.656 -80.28)"/><path class="a" d="M164.712,130.735a1.935,1.935,0,0,0,1.155-1.8,1.822,1.822,0,1,0-3.635,0,1.935,1.935,0,0,0,1.16,1.813c-2.8.436-2.672,3.461-2.672,3.461l6.617.031S167.488,131.153,164.712,130.735Z" transform="translate(-108.289 -86.455)"/><path class="h" d="M164.662,130.731a3.217,3.217,0,0,1,1.225.436,2.855,2.855,0,0,1,1,1.125,4.294,4.294,0,0,1,.436,1.944v.031h-6.7v-.039a4.284,4.284,0,0,1,.41-1.874,2.877,2.877,0,0,1,.959-1.129,3.439,3.439,0,0,1,1.338-.506v.083a1.983,1.983,0,0,1-1.181-1.744,2.022,2.022,0,0,1,.833-1.744,1.77,1.77,0,0,1,1.744-.179,1.931,1.931,0,0,1,1.02,1.12,2.088,2.088,0,0,1,.048,1.247,2,2,0,0,1-.436.82,1.932,1.932,0,0,1-.466.362,1.826,1.826,0,0,1-.187.083,2.048,2.048,0,0,0,.628-.466,1.927,1.927,0,0,0,.436-.811,2.014,2.014,0,0,0-.057-1.212,1.857,1.857,0,0,0-.994-1.077,1.7,1.7,0,0,0-1.656.174,1.97,1.97,0,0,0-.793,1.691,1.892,1.892,0,0,0,1.133,1.656l.139.057-.153.031a3.357,3.357,0,0,0-1.308.493,2.768,2.768,0,0,0-.928,1.094,4.232,4.232,0,0,0-.405,1.831l-.044-.044,6.617.039-.035.035a4.359,4.359,0,0,0-.41-1.918,2.873,2.873,0,0,0-.976-1.116,2.486,2.486,0,0,0-.493-.248,2.031,2.031,0,0,0-.388-.131Z" transform="translate(-108.239 -86.451)"/><circle class="c" cx="14.478" cy="14.478" r="14.478" transform="translate(20.422 104.121) rotate(-81.384)"/><path class="e" d="M120.712,227.292a1.836,1.836,0,0,0-.022-.231c-.022-.153-.026-.392-.048-.689a3.012,3.012,0,0,0-.031-.506c-.031-.187-.057-.384-.092-.6a10.739,10.739,0,0,0-.3-1.491,13.837,13.837,0,0,0-1.6-3.832,14.429,14.429,0,0,0-3.662-4.08,14.271,14.271,0,0,0-6.05-2.681,13.731,13.731,0,0,0-1.813-.209c-.309,0-.623-.039-.937-.035l-.95.048a2.51,2.51,0,0,0-.479.031l-.479.074c-.318.052-.645.092-.968.157a15.417,15.417,0,0,0-1.914.562,15.732,15.732,0,0,0-1.87.824c-.305.166-.593.357-.872.536a7.264,7.264,0,0,0-.872.593,15.692,15.692,0,0,0-1.626,1.386,16.225,16.225,0,0,0-1.408,1.665,13.827,13.827,0,0,0-2.049,3.949,14.25,14.25,0,0,0,0,9.058,13.974,13.974,0,0,0,2.053,3.954,13.13,13.13,0,0,0,3.051,3.051,7.3,7.3,0,0,0,.872.6c.3.179.588.371.872.532a14.178,14.178,0,0,0,1.87.824,14.7,14.7,0,0,0,1.914.562c.323.07.649.1.968.157l.479.074c.157.022.318.022.479.031l.95.052c.314,0,.628-.026.937-.035a13.736,13.736,0,0,0,1.813-.209,14.472,14.472,0,0,0,9.69-6.756,13.892,13.892,0,0,0,1.6-3.832,10.737,10.737,0,0,0,.3-1.491c.035-.218.074-.436.092-.606s.022-.353.031-.506c0-.292.035-.523.048-.684s.022-.235.022-.235v.235c0,.157,0,.392-.022.689a4.166,4.166,0,0,1-.022.506c-.022.183-.052.388-.083.61a10.142,10.142,0,0,1-.283,1.5,13.78,13.78,0,0,1-1.578,3.875,14.542,14.542,0,0,1-9.786,6.879,13.341,13.341,0,0,1-1.839.218c-.314,0-.628.044-.946.039l-.963-.048a2.624,2.624,0,0,1-.488-.031l-.484-.074c-.327-.052-.658-.087-.981-.157a14.3,14.3,0,0,1-1.944-.567,14.848,14.848,0,0,1-1.9-.828c-.309-.17-.606-.362-.911-.541A7.9,7.9,0,0,1,97.61,239a13.408,13.408,0,0,1-3.082-3.091A14.18,14.18,0,0,1,92.44,231.9a14.481,14.481,0,0,1,0-9.2,14.179,14.179,0,0,1,2.088-4.015A16.6,16.6,0,0,1,95.958,217a16.174,16.174,0,0,1,1.656-1.4,6.977,6.977,0,0,1,.872-.606c.305-.179.6-.375.911-.541a15.871,15.871,0,0,1,3.845-1.4c.323-.065.654-.1.976-.157l.488-.074a2.576,2.576,0,0,0,.484-.031l.963-.044c.323,0,.636.026.95.039a13.342,13.342,0,0,1,1.84.218,14.542,14.542,0,0,1,9.786,6.879,13.779,13.779,0,0,1,1.578,3.875,10.027,10.027,0,0,1,.283,1.5c.031.218.065.436.083.606s0,.357.022.51a6.027,6.027,0,0,0,.022.689A.463.463,0,0,1,120.712,227.292Z" transform="translate(-69.35 -134.831)"/><circle class="a" cx="7.685" cy="7.685" r="7.685" transform="matrix(0.745, -0.667, 0.667, 0.745, 26.019, 91.776)"/><path class="h" d="M107.372,235.381a.714.714,0,0,1,0,.126v.632a1.418,1.418,0,0,0,.026.323,6.4,6.4,0,0,0,.113.8,7.306,7.306,0,0,0,.719,2.079,7.624,7.624,0,0,0,8.914,3.836,8.384,8.384,0,0,0,1.016-.371,8.146,8.146,0,0,0,.968-.541,8.4,8.4,0,0,0,.907-.671,8.522,8.522,0,0,0,.8-.833,7.34,7.34,0,0,0,1.221-2.018,8.121,8.121,0,0,0,.549-2.363,8.282,8.282,0,0,0-.235-2.419,7.324,7.324,0,0,0-.946-2.158,6.974,6.974,0,0,0-1.5-1.717,8.51,8.51,0,0,0-.872-.658,8.1,8.1,0,0,0-.976-.5,7.641,7.641,0,0,0-9.337,2.615,7.27,7.27,0,0,0-.985,1.97,5.435,5.435,0,0,0-.214.776c-.026.113-.057.218-.074.318s-.022.183-.035.266l-.048.362a.514.514,0,0,1-.026.122.694.694,0,0,1,0-.126,1.5,1.5,0,0,1,.035-.362l.026-.27a1.878,1.878,0,0,1,.065-.318,5.378,5.378,0,0,1,.2-.789,7.258,7.258,0,0,1,.968-2.009,7.723,7.723,0,0,1,9.49-2.729,8.394,8.394,0,0,1,.981.51,7.9,7.9,0,0,1,.911.671,6.974,6.974,0,0,1,1.534,1.744,7.41,7.41,0,0,1,.972,2.21,7.689,7.689,0,0,1-.323,4.9,7.5,7.5,0,0,1-1.251,2.062,8.907,8.907,0,0,1-.82.872,9.289,9.289,0,0,1-.928.689,8.5,8.5,0,0,1-.994.545,7.934,7.934,0,0,1-5.131.436,7.715,7.715,0,0,1-4.943-4,7.183,7.183,0,0,1-.7-2.118,5.426,5.426,0,0,1-.1-.806,1.565,1.565,0,0,0-.022-.327,1.118,1.118,0,0,1,0-.27v-.366A.632.632,0,0,1,107.372,235.381Z" transform="translate(-78.171 -143.496)"/><path class="h" d="M128.3,240.556h-3.583v-4.272a2.286,2.286,0,0,1,0-.314,1.839,1.839,0,0,1,0,.314v4.224l-.052-.052h3.261A1.373,1.373,0,0,1,128.3,240.556Z" transform="translate(-87.949 -147.93)"/><path class="h" d="M124.93,231.21a4.359,4.359,0,0,1,0,1.308A4.006,4.006,0,0,1,124.93,231.21Z" transform="translate(-88.071 -145.245)"/><path class="h" d="M131.838,233.59a4.111,4.111,0,0,1-.9.9A4.11,4.11,0,0,1,131.838,233.59Z" transform="translate(-91.491 -146.587)"/><path class="h" d="M136.3,238.72a2.65,2.65,0,0,1-.532.353,2.614,2.614,0,0,1-.558.309,1.77,1.77,0,0,1,.506-.392A1.626,1.626,0,0,1,136.3,238.72Z" transform="translate(-93.9 -149.481)"/><path class="h" d="M138.2,246.269a7.434,7.434,0,0,1-1.744,0A8.111,8.111,0,0,1,138.2,246.269Z" transform="translate(-94.605 -153.713)"/><path class="h" d="M110.305,246a6.653,6.653,0,0,1-1.665,0A7.252,7.252,0,0,1,110.305,246Z" transform="translate(-78.912 -153.56)"/><path class="h" d="M112.731,251.73a3.63,3.63,0,0,1-.628.554,3.734,3.734,0,0,1-.693.493,3.844,3.844,0,0,1,.628-.571A3.734,3.734,0,0,1,112.731,251.73Z" transform="translate(-80.474 -156.82)"/><path class="h" d="M118.192,256.12a5.287,5.287,0,0,1-.436.741,5.226,5.226,0,0,1-.436.724,2.76,2.76,0,0,1,.37-.776A2.82,2.82,0,0,1,118.192,256.12Z" transform="translate(-83.808 -159.296)"/><path class="h" d="M124.934,259.514a7.438,7.438,0,0,1,0-1.744A8.105,8.105,0,0,1,124.934,259.514Z" transform="translate(-88.074 -160.227)"/><path class="h" d="M131.988,257.591a3.793,3.793,0,0,1-1.308-1.151,7.89,7.89,0,0,1,.658.58,6.761,6.761,0,0,1,.649.571Z" transform="translate(-91.344 -159.477)"/><path class="h" d="M136.348,253.264a2.933,2.933,0,0,1-.584-.514,3.346,3.346,0,0,1-.514-.58,2.819,2.819,0,0,1,.584.51A3.077,3.077,0,0,1,136.348,253.264Z" transform="translate(-93.922 -157.068)"/><path class="h" d="M113.02,239.4a2.376,2.376,0,0,1-.514-.436,2.654,2.654,0,0,1-.436-.514,2.18,2.18,0,0,1,.514.436A2.328,2.328,0,0,1,113.02,239.4Z" transform="translate(-80.847 -149.329)"/><path class="h" d="M118.072,234.1a2.285,2.285,0,0,1-.506-.436,2.088,2.088,0,0,1-.436-.506,2.39,2.39,0,0,1,.506.436A2.213,2.213,0,0,1,118.072,234.1Z" transform="translate(-83.701 -146.345)"/><path class="e" d="M187.35,286.227a12,12,0,0,0-.248-1.582,6.289,6.289,0,0,0-.728-1.713,6.438,6.438,0,0,0-7.733-2.729,5.994,5.994,0,0,0-1.622.872,6.064,6.064,0,0,0-1.351,1.36,6.377,6.377,0,0,0,0,7.576,5.994,5.994,0,0,0,1.351,1.364,6.1,6.1,0,0,0,1.622.872,6.438,6.438,0,0,0,7.733-2.729,6.234,6.234,0,0,0,.728-1.713,11.891,11.891,0,0,0,.248-1.582.953.953,0,0,1,0,.1v.314a3.349,3.349,0,0,1-.039.506,4.823,4.823,0,0,1-.122.68,6.282,6.282,0,0,1-.706,1.744,6.582,6.582,0,0,1-4.433,3.138,6.6,6.6,0,0,1-6.569-2.581,6.608,6.608,0,1,1,11-7.288,6.335,6.335,0,0,1,.706,1.744,4.76,4.76,0,0,1,.122.684,3.263,3.263,0,0,1,.039.5q0,.19,0,.314A.947.947,0,0,1,187.35,286.227Z" transform="translate(-115.884 -172.534)"/><path class="a" d="M187.122,292.6a1.033,1.033,0,0,0-.872.493c-.235-.179-.527-.392-.872-.61l-.51-.34a1.05,1.05,0,0,0,.139-1.351,7.687,7.687,0,0,0,.65-.479c.214-.183.4-.309.562-.436a1.059,1.059,0,1,0-.183-.6,1.089,1.089,0,0,0,.065.362c-.187.131-.4.288-.623.462s-.436.362-.636.519a1.059,1.059,0,1,0-.711,1.839,1.072,1.072,0,0,0,.5-.131l.584.41c.336.227.649.436.907.584a1.246,1.246,0,0,0-.083.436,1.064,1.064,0,1,0,1.059-1.155Z" transform="translate(-120.896 -177.406)"/><path class="h" d="M187.022,292.551a.754.754,0,0,1,.4.07,1.16,1.16,0,0,1,.671.872,1.281,1.281,0,0,1-.144.811,1.09,1.09,0,0,1-.78.554,1.046,1.046,0,0,1-.994-.436,1.264,1.264,0,0,1-.161-1.2v.044c-.475-.3-.985-.619-1.5-.994h.044a1.077,1.077,0,0,1-1.081,0,1.1,1.1,0,1,1,1.308-1.744h-.061l.623-.506.641-.479v.052a1.064,1.064,0,0,1,.057-.872,1.077,1.077,0,0,1,.676-.549,1.1,1.1,0,0,1,.846.1,1.134,1.134,0,0,1,.514.65,1.1,1.1,0,0,1-1.966.928h.057c-.436.349-.833.654-1.216.933v-.048a1.094,1.094,0,0,1-.153,1.391v-.044c.575.366,1.011.711,1.364.959h-.026a1.068,1.068,0,0,1,.615-.458.689.689,0,0,1,.266-.026,1.145,1.145,0,0,0-.262.044,1.085,1.085,0,0,0-.588.462h0c-.357-.244-.8-.58-1.373-.942h-.031l.026-.022a1.029,1.029,0,0,0,.135-1.308v-.03h.026c.384-.279.789-.584,1.207-.937l.031-.026v.035a1.024,1.024,0,1,0-.052-1.046,1,1,0,0,0-.052.815v.035h-.031l-.636.475-.619.506-.035.026-.026-.026a1.016,1.016,0,1,0-.2,1.639h.048c.506.375,1.016.693,1.486.994h.026v.031a1.22,1.22,0,0,0,.144,1.133.994.994,0,0,0,.933.41,1.02,1.02,0,0,0,.745-.519,1.207,1.207,0,0,0,.144-.776,1.12,1.12,0,0,0-.636-.872A1.094,1.094,0,0,0,187.022,292.551Z" transform="translate(-120.796 -177.354)"/><path class="e" d="M375.368,224.261a1.712,1.712,0,0,0-.026-.244c-.026-.161-.026-.405-.044-.715l-.035-.523a4.6,4.6,0,0,0-.1-.628,10.464,10.464,0,0,0-.314-1.547,14.283,14.283,0,0,0-1.665-3.984,15.034,15.034,0,0,0-10.091-7.027,13.95,13.95,0,0,0-1.887-.218c-.323,0-.645-.039-.972-.035l-.99.052a2.718,2.718,0,0,0-.5.031l-.5.078c-.331.052-.671.092-1,.161a15.922,15.922,0,0,0-1.992.584,15.585,15.585,0,0,0-1.944.872c-.314.174-.619.371-.928.558a7.358,7.358,0,0,0-.9.619,17.471,17.471,0,0,0-1.691,1.439,16.471,16.471,0,0,0-1.46,1.744,14.421,14.421,0,0,0-2.132,4.106,14.734,14.734,0,0,0,0,9.411,14.337,14.337,0,0,0,2.132,4.076,16.874,16.874,0,0,0,1.46,1.744,16.446,16.446,0,0,0,1.691,1.443,7.883,7.883,0,0,0,.9.619c.31.183.615.384.928.554a15.59,15.59,0,0,0,1.944.872,15.944,15.944,0,0,0,1.992.588c.331.065.671.1,1,.161l.5.078c.166.022.336,0,.5.03l.985.052c.327,0,.654-.026.972-.039a13.945,13.945,0,0,0,1.887-.218,14.969,14.969,0,0,0,10.091-7.027,14.261,14.261,0,0,0,1.665-3.98,10.509,10.509,0,0,0,.314-1.552c.035-.227.078-.436.1-.623s.022-.371.035-.527c0-.305.035-.545.044-.711a1.671,1.671,0,0,1,.026-.244v.244c0,.161,0,.405-.026.715a4.6,4.6,0,0,1-.022.527c-.022.2-.052.4-.083.632a11.079,11.079,0,0,1-.3,1.561,14.184,14.184,0,0,1-1.643,4.023,15.1,15.1,0,0,1-10.165,7.149,14.382,14.382,0,0,1-1.909.227c-.327,0-.654.044-.985.039l-1-.048a2.486,2.486,0,0,1-.506-.035l-.5-.074c-.34-.057-.68-.1-1.02-.166a16.308,16.308,0,0,1-2.018-.584,15.79,15.79,0,0,1-1.975-.872c-.323-.17-.628-.371-.946-.558a8.662,8.662,0,0,1-.911-.628,13.779,13.779,0,0,1-3.2-3.213,14.6,14.6,0,0,1-2.179-4.172,14.925,14.925,0,0,1,0-9.551,14.6,14.6,0,0,1,2.18-4.172,13.875,13.875,0,0,1,3.2-3.208,7.52,7.52,0,0,1,.911-.628c.318-.187.623-.388.946-.562a16.6,16.6,0,0,1,3.993-1.452c.34-.07.68-.109,1.016-.161l.506-.078a2.793,2.793,0,0,0,.506-.03l1-.048c.331,0,.658.026.985.039a13.683,13.683,0,0,1,1.909.227A15.078,15.078,0,0,1,373.3,216.58a14.2,14.2,0,0,1,1.643,4.028,10.958,10.958,0,0,1,.3,1.561c.031.227.065.436.083.632s0,.371.022.527a5.38,5.38,0,0,0,.026.715A.408.408,0,0,1,375.368,224.261Z" transform="translate(-212.349 -132.812)"/><path class="h" d="M378.81,241.341a1.5,1.5,0,0,1-.331.022l-.95.022-3.487.035-11.538.03h-.933v-.109c0-4.311.026-8.177.035-10.989,0-1.382.022-2.5.031-3.3,0-.375,0-.671.022-.894a1.361,1.361,0,0,1,.022-.314,2.564,2.564,0,0,1,0,.314v.894c0,.8.022,1.922.035,3.3,0,2.812.022,6.678.035,10.989l-.109-.109h.824l11.538.035,3.487.035h.95a2.79,2.79,0,0,1,.371.039Z" transform="translate(-221.589 -142.215)"/><path class="h" d="M379.094,234.47a4.718,4.718,0,0,1-.51.488l-1.447,1.273c-1.229,1.064-2.938,2.524-4.83,4.128l-.288.244-.074.061-.07-.065c-.758-.7-1.478-1.377-2.149-2h.135l-3.156,2.615-.911.732a2.151,2.151,0,0,1-.344.244,2.018,2.018,0,0,1,.3-.3l.872-.776,3.1-2.663.07-.057.065.061,2.158,1.983h-.144l.288-.244c1.892-1.6,3.614-3.051,4.869-4.08l1.491-1.221A4.4,4.4,0,0,1,379.094,234.47Z" transform="translate(-223.778 -147.084)"/><path class="h" d="M391.515,237.8a5.111,5.111,0,0,1-.074-1.068c-.022-.663-.035-1.582-.035-2.615l.109.109h-.183c-1.068,0-2.036,0-2.733-.035a5.739,5.739,0,0,1-1.129-.074,5.912,5.912,0,0,1,1.129-.078c.7,0,1.665-.03,2.733-.03h.292v.109c0,1.024,0,1.944-.035,2.615a5.111,5.111,0,0,1-.074,1.068Z" transform="translate(-236.199 -146.824)"/><path class="e" d="M440.3,150.578a.868.868,0,0,1-.022-.183,4.95,4.95,0,0,0-.039-.536,2.134,2.134,0,0,0-.026-.4c-.026-.144-.048-.3-.074-.471a8.007,8.007,0,0,0-.235-1.168,10.848,10.848,0,0,0-1.26-2.995,11.229,11.229,0,0,0-13.482-4.795,12.027,12.027,0,0,0-1.465.641,11.844,11.844,0,0,0-1.373.872,13.468,13.468,0,0,0-1.273,1.081,13.081,13.081,0,0,0-1.094,1.308,10.94,10.94,0,0,0-1.6,3.086,11.158,11.158,0,0,0,0,7.075,10.813,10.813,0,0,0,1.6,3.086,13.252,13.252,0,0,0,1.1,1.308,12.946,12.946,0,0,0,1.273,1.081,11.842,11.842,0,0,0,1.373.872,12.027,12.027,0,0,0,1.465.641,11.251,11.251,0,0,0,13.482-4.795,10.8,10.8,0,0,0,1.26-2.995,7.848,7.848,0,0,0,.235-1.164c.026-.17.061-.327.074-.471a3.55,3.55,0,0,1,.026-.4q.026-.34.039-.536a.868.868,0,0,1,.022-.183.966.966,0,0,1,0,.183v.937a4.167,4.167,0,0,1-.061.475,7.836,7.836,0,0,1-.222,1.177,10.514,10.514,0,0,1-1.234,3.051,11.351,11.351,0,0,1-13.666,4.917,12.07,12.07,0,0,1-1.491-.649,12.325,12.325,0,0,1-1.4-.9,12.837,12.837,0,0,1-1.308-1.1,13.127,13.127,0,0,1-1.125-1.308,11.4,11.4,0,0,1-1.635-10.366,10.98,10.98,0,0,1,1.639-3.147,12.588,12.588,0,0,1,1.12-1.308,12.371,12.371,0,0,1,1.308-1.1,11.9,11.9,0,0,1,1.4-.9,12.06,12.06,0,0,1,1.491-.649,11.318,11.318,0,0,1,13.639,4.908,10.611,10.611,0,0,1,1.234,3.051A7.989,7.989,0,0,1,440.2,149c.022.17.048.327.061.475s0,.279,0,.4v.541A.96.96,0,0,1,440.3,150.578Z" transform="translate(-253.173 -93.33)"/><path class="l" d="M436.49,151.172l1.517,3.051a.392.392,0,0,0,.292.214l3.387.493a.392.392,0,0,1,.218.671l-2.45,2.389a.388.388,0,0,0-.113.344l.58,3.374a.392.392,0,0,1-.571.436l-3.03-1.578a.388.388,0,0,0-.366,0l-3.025,1.591a.392.392,0,0,1-.571-.436l.575-3.374a.375.375,0,0,0-.109-.344l-2.45-2.389a.392.392,0,0,1,.218-.671l3.383-.493a.388.388,0,0,0,.3-.214l1.513-3.051a.392.392,0,0,1,.706-.013Z" transform="translate(-260.334 -99.974)"/><path class="h" d="M436.434,151.166s0-.031-.065-.078a.353.353,0,0,0-.262-.122.375.375,0,0,0-.37.244c-.087.179-.183.384-.3.61-.222.466-.5,1.029-.811,1.683l-.248.506-.131.27a.462.462,0,0,1-.262.209c-.436.074-.846.131-1.308.2l-1.421.209-.754.113a.327.327,0,0,0-.174.523l2.459,2.389a.493.493,0,0,1,.148.484l-.078.436-.157.928c-.1.628-.214,1.264-.327,1.914a.318.318,0,0,0,.327.4.557.557,0,0,0,.2-.078l.9-.471,1.831-.963.235-.126a.493.493,0,0,1,.305-.035,1.1,1.1,0,0,1,.257.113l.231.122.911.48,1.774.933a.31.31,0,0,0,.353-.078.27.27,0,0,0,.078-.174,1.092,1.092,0,0,0-.022-.222c-.057-.318-.109-.632-.161-.946q-.161-.937-.314-1.831c-.026-.153-.052-.3-.074-.436a.48.48,0,0,1,.17-.466l.623-.606,1.2-1.164.571-.554a.331.331,0,0,0-.044-.545,1.2,1.2,0,0,0-.336-.07l-.362-.057-.693-.1-1.308-.2-.593-.087a.6.6,0,0,1-.292-.052.436.436,0,0,1-.235-.187l-.819-1.683-.462-1.059c-.057-.113-.1-.2-.131-.279l-.039-.1a.486.486,0,0,1,.057.092l.14.27c.131.248.309.6.536,1.051s.514,1.016.841,1.661a.336.336,0,0,0,.187.148,2.274,2.274,0,0,0,.275.044l.6.083,1.308.183.7.1.362.048a1.181,1.181,0,0,1,.379.087.436.436,0,0,1,.074.75l-.567.558-1.229,1.168-.628.61a.327.327,0,0,0-.122.331c.026.144.048.292.074.436.1.6.209,1.207.318,1.831.057.314.109.628.166.946a1.177,1.177,0,0,1,.026.262.436.436,0,0,1-.118.266.475.475,0,0,1-.541.122l-1.787-.937-.911-.475-.227-.122a1.162,1.162,0,0,0-.218-.1.323.323,0,0,0-.2.026l-.227.118-1.835.963-.872.471a.688.688,0,0,1-.266.1.479.479,0,0,1-.5-.584c.109-.65.222-1.308.327-1.914.057-.314.109-.619.161-.928l.078-.436a.327.327,0,0,0-.1-.349l-2.458-2.411a.471.471,0,0,1-.074-.436.436.436,0,0,1,.331-.292l.758-.113,1.425-.2,1.286-.183a.344.344,0,0,0,.2-.161l.131-.262.253-.506.837-1.665c.118-.227.218-.436.31-.606a.436.436,0,0,1,.436-.257.388.388,0,0,1,.27.144A.2.2,0,0,1,436.434,151.166Z" transform="translate(-260.278 -99.968)"/><path class="e" d="M378.725,74.717a.458.458,0,0,1-.022-.135,1.987,1.987,0,0,0-.03-.392,3.927,3.927,0,0,0-.074-.636,5.424,5.424,0,0,0-.179-.872,7.845,7.845,0,0,0-.924-2.18,8.2,8.2,0,0,0-9.86-3.487,7.667,7.667,0,0,0-2.075,1.116,9.271,9.271,0,0,0-.946.8,9.423,9.423,0,0,0-.8.95,8.151,8.151,0,0,0,0,9.677,9.418,9.418,0,0,0,.8.95,9.265,9.265,0,0,0,.929.789,7.685,7.685,0,0,0,2.075,1.12,8.23,8.23,0,0,0,9.86-3.487,7.848,7.848,0,0,0,.924-2.179,5.431,5.431,0,0,0,.179-.872,3.924,3.924,0,0,0,.074-.636c0-.161.026-.292.031-.392a.5.5,0,0,1,.022-.135.656.656,0,0,1,0,.135v.4a3.752,3.752,0,0,1-.057.641,5.81,5.81,0,0,1-.157.872,7.941,7.941,0,0,1-.9,2.236,8.356,8.356,0,0,1-10.043,3.622,7.924,7.924,0,0,1-2.127-1.142,8.343,8.343,0,0,1-.955-.806,8.9,8.9,0,0,1-.828-.976,8.352,8.352,0,0,1,0-9.939,7.632,7.632,0,0,1,1.783-1.783,7.924,7.924,0,0,1,2.127-1.142,8.356,8.356,0,0,1,10.043,3.622,7.941,7.941,0,0,1,.9,2.236,5.805,5.805,0,0,1,.157.872,3.749,3.749,0,0,1,.057.641v.4A.624.624,0,0,1,378.725,74.717Z" transform="translate(-221.831 -52.237)"/><path class="a" d="M379.987,78.37a3.784,3.784,0,1,0-7.044,1.909h0a7.041,7.041,0,0,0,.51.676l2.179,2.912a.684.684,0,0,0,1.09,0L378.9,81s.4-.484.549-.728h0A3.745,3.745,0,0,0,379.987,78.37ZM376.2,80.018a1.67,1.67,0,1,1,1.665-1.665A1.669,1.669,0,0,1,376.2,80.018Z" transform="translate(-227.71 -56.888)"/><path class="k" d="M379.987,78.37a3.784,3.784,0,1,0-7.044,1.909h0a7.041,7.041,0,0,0,.51.676l2.179,2.912a.684.684,0,0,0,1.09,0L378.9,81s.4-.484.549-.728h0A3.745,3.745,0,0,0,379.987,78.37ZM376.2,80.018a1.67,1.67,0,1,1,1.665-1.665A1.669,1.669,0,0,1,376.2,80.018Z" transform="translate(-227.71 -56.888)"/><path class="h" d="M378.89,82.689a1.679,1.679,0,0,0,.4-.07,1.661,1.661,0,0,0,.9-.61,1.626,1.626,0,1,0-2.615,0,1.674,1.674,0,0,0,.9.61c.253.065.4.057.4.07a1.269,1.269,0,0,1-.41-.035,1.656,1.656,0,0,1-.924-.606,1.708,1.708,0,1,1,1.744.615,1.269,1.269,0,0,1-.392.026Z" transform="translate(-230.396 -59.559)"/><path class="h" d="M379.98,78.317a2.789,2.789,0,0,1,0,.523,3.727,3.727,0,0,1-.479,1.4l-.022-.035h.052l-.031.039h0l-2.594,3.461a.872.872,0,0,1-.536.414.719.719,0,0,1-.671-.2c-.3-.375-.58-.758-.872-1.159l-1.883-2.493h0l-.057-.074h.1l-.039.07a3.925,3.925,0,0,1-.336-.737,3.814,3.814,0,0,1,5.667-4.437,3.766,3.766,0,0,1,1.643,2.219,2.751,2.751,0,0,1,.092.436,1.893,1.893,0,0,1,.031.323v.266a4.945,4.945,0,0,0-.161-1.011,3.762,3.762,0,0,0-1.639-2.179,3.836,3.836,0,0,0-1.818-.562,3.782,3.782,0,0,0-3.758,4.93,4.117,4.117,0,0,0,.327.715l.039.07h-.083l.035-.074h0l1.874,2.493.859,1.155a.654.654,0,0,0,.6.183.789.789,0,0,0,.488-.384c1.051-1.377,1.94-2.554,2.615-3.435h0v.039h-.044l.022-.039a3.827,3.827,0,0,0,.493-1.377,3.5,3.5,0,0,0,.039-.388A.515.515,0,0,0,379.98,78.317Z" transform="translate(-227.702 -56.835)"/><path class="e" d="M269.809,54.928a1.953,1.953,0,0,0-.022-.24c-.022-.157-.026-.4-.048-.693a3.059,3.059,0,0,0-.031-.51c-.03-.187-.061-.392-.1-.615a10.39,10.39,0,0,0-.305-1.508,13.869,13.869,0,0,0-1.626-3.884,14.616,14.616,0,0,0-9.838-6.852A13.416,13.416,0,0,0,256,40.412c-.314,0-.632-.039-.95-.035l-.963.048a2.323,2.323,0,0,0-.488.035l-.484.074c-.323.052-.654.092-.976.157a15.621,15.621,0,0,0-1.94.571,14.908,14.908,0,0,0-1.9.837c-.305.166-.6.357-.9.541a7.137,7.137,0,0,0-.872.6,17.2,17.2,0,0,0-1.648,1.4,16.643,16.643,0,0,0-1.425,1.687,14.057,14.057,0,0,0-2.079,4.006,14.346,14.346,0,0,0-.009,9.18,14.079,14.079,0,0,0,2.079,4.01,13.469,13.469,0,0,0,3.051,3.086,7.463,7.463,0,0,0,.872.606c.305.179.6.375.907.541a14.9,14.9,0,0,0,1.9.837,15.6,15.6,0,0,0,1.94.567c.323.07.654.109.976.161l.488.074a2.579,2.579,0,0,1,.484.031l.963.052c.318,0,.636-.026.95-.039a13.418,13.418,0,0,0,1.839-.209,14.672,14.672,0,0,0,9.864-6.857,13.974,13.974,0,0,0,1.622-3.884,10.5,10.5,0,0,0,.305-1.508c.035-.222.074-.436.1-.615s.022-.357.031-.51c0-.3.035-.532.048-.7s.022-.235.022-.235v.235c0,.157,0,.4-.022.7a4.3,4.3,0,0,1-.022.514c-.022.187-.052.4-.083.619a11.013,11.013,0,0,1-.288,1.521,13.892,13.892,0,0,1-1.6,3.923,14.751,14.751,0,0,1-9.917,6.974,13.721,13.721,0,0,1-1.866.222c-.318,0-.636.044-.959.039l-.976-.048a2.648,2.648,0,0,1-.493-.031l-.493-.074c-.331-.052-.663-.092-.994-.161a15.541,15.541,0,0,1-1.97-.571,15.3,15.3,0,0,1-1.927-.846c-.309-.166-.61-.362-.92-.545a7.572,7.572,0,0,1-.872-.615,13.727,13.727,0,0,1-3.134-3.138,14.214,14.214,0,0,1-2.114-4.067,14.534,14.534,0,0,1,0-9.306,14.211,14.211,0,0,1,2.118-4.063,16.1,16.1,0,0,1,1.447-1.709,16.683,16.683,0,0,1,1.678-1.425,7.648,7.648,0,0,1,.872-.61c.31-.183.61-.379.92-.549a15.258,15.258,0,0,1,1.927-.841,16.323,16.323,0,0,1,1.97-.575c.331-.065.663-.1.994-.157l.493-.074c.161-.022.327-.022.493-.031l.976-.048c.323,0,.641.026.959.039a13.079,13.079,0,0,1,1.866.222,14.694,14.694,0,0,1,9.912,6.974,13.919,13.919,0,0,1,1.6,3.923,11.013,11.013,0,0,1,.288,1.521c.031.222.065.436.083.615s0,.362.022.514a6.109,6.109,0,0,0,.022.7A1.025,1.025,0,0,1,269.809,54.928Z" transform="translate(-153.232 -37.491)"/><path class="k" d="M263.615,56.466a6.7,6.7,0,0,1,1.744.458l1.273-1.068,2.18,1.665-.689,1.513a6.821,6.821,0,0,1,.9,1.547l1.652.144.371,2.724-1.556.584a6.669,6.669,0,0,1-.458,1.744L270.1,67.05l-1.665,2.18-1.53-.693a6.512,6.512,0,0,1-1.547.9l-.144,1.656-2.724.371-.584-1.556a6.8,6.8,0,0,1-1.744-.436l-1.277,1.068-2.179-1.665.693-1.513a6.687,6.687,0,0,1-.9-1.547l-1.656-.148-.371-2.724,1.578-.584a6.656,6.656,0,0,1,.458-1.744l-1.068-1.273,1.665-2.18,1.521.671a7.013,7.013,0,0,1,1.547-.9l.148-1.656,2.724-.366.58,1.556ZM262.5,60.245a2.951,2.951,0,1,0,2.189.585A2.951,2.951,0,0,0,262.5,60.245Z" transform="translate(-161.174 -45.794)"/><path class="h" d="M269.461,67.077a1.041,1.041,0,0,1,.183-.039,2.136,2.136,0,0,1,.545,0,2.912,2.912,0,0,1,1.809.828,3.051,3.051,0,0,1-3.6,4.812,2.986,2.986,0,0,1-1.242-1.273,3.025,3.025,0,0,1,.07-2.912,2.938,2.938,0,0,1,1.521-1.282,2.266,2.266,0,0,1,.527-.135.541.541,0,0,1,.192,0c0,.026-.262.052-.684.231a2.969,2.969,0,0,0-1.412,1.282,2.849,2.849,0,1,0,4.516-.61,2.92,2.92,0,0,0-1.7-.872C269.722,67.059,269.461,67.1,269.461,67.077Z" transform="translate(-168.136 -52.625)"/><path class="h" d="M263.5,56.438a.865.865,0,0,1-.044-.1l-.118-.288c-.109-.275-.262-.663-.436-1.16l.039.022-2.72.392.052-.052c-.044.5-.087,1.059-.139,1.652v.044h-.044a6.914,6.914,0,0,0-1.526.9l-.035.031h-.044l-1.517-.68.1-.026-1.661,2.18v-.118l1.068,1.273.039.044v.057a6.768,6.768,0,0,0-.436,1.709v.061l-.061.022-1.552.584.065-.113q.177,1.308.375,2.724l-.1-.1,1.656.144h.065l.026.065a6.785,6.785,0,0,0,.872,1.517l.044.057-.026.065c-.218.471-.436.989-.689,1.513l-.035-.144,2.18,1.665h-.148l1.273-1.068.057-.048.065.031a6.678,6.678,0,0,0,1.7.436h0c.044.031-.1-.078.1.074h0v.074l.035.1.074.2.148.388.288.776-.126-.074L265.1,70.9l-.1.1.144-1.652v-.07l.065-.031a6.538,6.538,0,0,0,1.521-.872l.057-.044.061.031,1.513.693-.139.031,1.669-2.18v.139l-1.05-1.229-.039-.048.026-.061a6.717,6.717,0,0,0,.436-1.7V63.94h.057l1.556-.58-.061.1c-.131-.959-.248-1.861-.362-2.724l.083.078-1.656-.153h-.052v-.048a6.592,6.592,0,0,0-.872-1.53l-.026-.039v-.044c.253-.549.484-1.042.7-1.508v.087l-2.18-1.683h.07c-.51.436-.933.767-1.286,1.055h-.022a7.158,7.158,0,0,0-1.282-.405l-.327-.065-.109-.022a.331.331,0,0,1,.113,0,3.167,3.167,0,0,1,.331.044,6.735,6.735,0,0,1,1.308.371H265.2l1.264-1.081.031-.026.035.026,2.2,1.652.044.035-.026.048c-.209.471-.436.968-.68,1.517v-.078a6.79,6.79,0,0,1,.9,1.547l-.07-.052,1.652.139h.074v.07c.122.872.244,1.744.379,2.724v.078l-.074.031-1.526.593.065-.083a6.972,6.972,0,0,1-.462,1.744v-.113l1.068,1.273.057.07-.052.07-1.661,2.18-.057.074-.092-.009-1.513-.689h.118a6.651,6.651,0,0,1-1.574.92l.074-.1c-.048.545-.1,1.094-.144,1.652v.1h-.1l-2.724.371h-.092l-.035-.092c-.1-.257-.192-.514-.292-.776l-.144-.388-.074-.2-.035-.1V69.96h0l.1.078h0a6.93,6.93,0,0,1-1.744-.466h.122l-1.273,1.064-.074.061-.074-.057-2.18-1.665-.074-.057.039-.087.619-1.565v.118a6.856,6.856,0,0,1-.915-1.578l.092.07-1.652-.148h-.092v-.092c-.126-.946-.253-1.866-.366-2.724v-.083l.083-.031,1.543-.58-.065.083a6.823,6.823,0,0,1,.466-1.744v.1l-1.064-1.277-.048-.061.044-.057,1.674-2.18.039-.052.061.026,1.513.7h-.083A6.878,6.878,0,0,1,260,56.852l-.044.061c.057-.6.109-1.155.157-1.656v-.048h.048l2.729-.349h.03v.031c.174.5.314.872.41,1.155l.1.305a.436.436,0,0,1,.065.087Z" transform="translate(-161.061 -45.766)"/></g><g transform="translate(99.979 111.009)"><path class="e" d="M215.34,318.909l-.61.2c-2.72.915-10.815,3.592-13.26,4.594,0,0,4.333,38.32,4.839,41.881s.623,17.811.623,17.811h46.105s-.122-38.407,0-44.362c.17-7.707,1.125-15.331,1.125-15.331l-8.038-3.138-9.411-4.969Z" transform="translate(-195.067 -269.861)"/><g class="m" transform="translate(17.998 57.338)"><path d="M240.6,342.21q-5.641,20.958-11.891,41.755c-.493,1.635-.976,3.426-.314,5a4.477,4.477,0,0,0,3.557,2.528,7.184,7.184,0,0,0,4.372-.989,13.92,13.92,0,0,0,6.133-8.443,41.188,41.188,0,0,0,1.164-10.605l.654-28.538Z" transform="translate(-228.069 -342.21)"/></g><path class="e" d="M193.365,334.2s-6.761,2.995-6.233,15.008a147.938,147.938,0,0,0,1.6,15.653l19.01-5.466L202.9,338.533Z" transform="translate(-186.962 -280.353)"/><path class="e" d="M303.576,353.51l-1.016,13.866,19.11-6.19s-4.1-24.471-10.588-27.026l-7,11.957Z" transform="translate(-252.091 -280.331)"/><path class="h" d="M309.866,369.37a2.053,2.053,0,0,1,.035.279c0,.209.035.48.057.815.039.732.1,1.744.166,2.982.122,2.524.257,6.007.384,9.856s.231,7.31.314,9.86c.039,1.238.07,2.254.092,2.986v.815a2.051,2.051,0,0,1,0,.283,1.217,1.217,0,0,1-.039-.283c0-.209-.031-.479-.057-.811-.039-.732-.1-1.744-.166-2.986-.122-2.52-.257-6.007-.379-9.856s-.235-7.31-.318-9.856c-.039-1.242-.07-2.254-.092-2.99v-.811A1.174,1.174,0,0,1,309.866,369.37Z" transform="translate(-256.206 -300.193)"/><path class="h" d="M212.059,344.723a2.554,2.554,0,0,1-.249-.436c-.166-.336-.375-.745-.615-1.234a20.528,20.528,0,0,0-2.384-3.827,9.31,9.31,0,0,0-3.535-2.694,11.239,11.239,0,0,0-1.8-.506,1.8,1.8,0,0,1,.506,0,6.156,6.156,0,0,1,1.347.336,8.98,8.98,0,0,1,3.657,2.7,18.1,18.1,0,0,1,2.35,3.923c.244.532.436.963.549,1.264a1.766,1.766,0,0,1,.17.471Z" transform="translate(-196.2 -281.374)"/><path class="h" d="M312.636,332.86a28.018,28.018,0,0,0-1.2,3.208,27.466,27.466,0,0,0-.567,3.383,3.487,3.487,0,0,1-.035-1.016,11.544,11.544,0,0,1,.384-2.424,11.334,11.334,0,0,1,.872-2.288A3.69,3.69,0,0,1,312.636,332.86Z" transform="translate(-256.745 -279.597)"/><path class="l" d="M201.627,346.12a1.143,1.143,0,0,0-.187.022.724.724,0,0,0-.436.305,1.778,1.778,0,0,0-.288.789,3.669,3.669,0,0,1-.139.541,1.033,1.033,0,0,1-.388.519,1.282,1.282,0,0,1-1.412-.148,5.057,5.057,0,0,1-1.011-1.286,2.292,2.292,0,0,0-.567-.61,1.273,1.273,0,0,0-.776-.262.824.824,0,0,0-.663.436,2.18,2.18,0,0,0-.2.894c-.022.323-.026.65-.065.972a2.027,2.027,0,0,1-.309.937.99.99,0,0,1-.166.192.871.871,0,0,1-.2.153,1.216,1.216,0,0,1-.466.148,1.7,1.7,0,0,1-.9-.17,3.7,3.7,0,0,1-1.207-1.116,4.359,4.359,0,0,0-.959-.981,1.447,1.447,0,0,0-1.042-.27,1.107,1.107,0,0,0-.671.436.81.81,0,0,0-.148.5c0,.122.044.183.031.187a.4.4,0,0,1-.074-.183.8.8,0,0,1,.113-.549,1.173,1.173,0,0,1,.724-.532,1.543,1.543,0,0,1,1.155.266,4.385,4.385,0,0,1,1.02.994,3.513,3.513,0,0,0,1.177,1.059,1.5,1.5,0,0,0,.789.148.92.92,0,0,0,.676-.405,3.75,3.75,0,0,0,.331-1.8,2.406,2.406,0,0,1,.227-.985,1.064,1.064,0,0,1,.872-.541,1.87,1.87,0,0,1,1.521.976,5.293,5.293,0,0,0,.95,1.251,1.129,1.129,0,0,0,1.216.17,1.438,1.438,0,0,0,.488-.955,1.844,1.844,0,0,1,.344-.819.785.785,0,0,1,.484-.3A.366.366,0,0,1,201.627,346.12Z" transform="translate(-188.24 -286.886)"/><path class="l" d="M204.033,361.31a.872.872,0,0,1,0,.253,1.64,1.64,0,0,1-.24.676,1.961,1.961,0,0,1-.872.75,1.683,1.683,0,0,1-1.5-.022,9.232,9.232,0,0,0-1.526-.9,1.592,1.592,0,0,0-1.63.815c-.379.58-.558,1.351-.959,2.066a2.454,2.454,0,0,1-.872.9,1.408,1.408,0,0,1-1.308.1,2.306,2.306,0,0,1-.907-.924c-.214-.357-.392-.719-.61-1.037a1.543,1.543,0,0,0-.828-.671,1.168,1.168,0,0,0-.976.192,3.718,3.718,0,0,0-1.177,1.6,13.309,13.309,0,0,1-.82,1.617,2.772,2.772,0,0,1-2.105,1.412,1.52,1.52,0,0,1-.706-.126.691.691,0,0,1-.166-.087l-.052-.039a1.879,1.879,0,0,0,.92.161,2.7,2.7,0,0,0,2.014-1.408,13.51,13.51,0,0,0,.785-1.608,3.871,3.871,0,0,1,1.229-1.7,1.4,1.4,0,0,1,1.151-.227,1.744,1.744,0,0,1,.955.754c.231.336.41.7.623,1.046a2.036,2.036,0,0,0,.806.833,1.168,1.168,0,0,0,1.09-.092,2.18,2.18,0,0,0,.789-.82c.384-.667.545-1.438.976-2.07a2.3,2.3,0,0,1,.811-.75,1.39,1.39,0,0,1,1.042-.131,2.545,2.545,0,0,1,.846.462,6.275,6.275,0,0,0,.706.475,1.543,1.543,0,0,0,1.373.048,1.839,1.839,0,0,0,1.138-1.561Z" transform="translate(-186.78 -295.646)"/><path class="l" d="M203.352,382.556a.694.694,0,0,1-.157-.026.641.641,0,0,0-.436.135,1.308,1.308,0,0,0-.4.6,2.2,2.2,0,0,0-.044.972,2.463,2.463,0,0,1-.092,1.264,1.343,1.343,0,0,1-1.268.728,2.018,2.018,0,0,1-1.5-.7,5.993,5.993,0,0,1-.95-1.526l.078.061a1.282,1.282,0,0,0-1.186.589,3.051,3.051,0,0,0-.5,1.438,10.9,10.9,0,0,1-.209,1.177,2.5,2.5,0,0,1-.571,1.051,1.408,1.408,0,0,1-1.059.488,1.665,1.665,0,0,1-1.024-.436,9.926,9.926,0,0,1-1.216-1.569,1.831,1.831,0,0,0-1.377-.785,1.744,1.744,0,0,0-1.255.436,1.8,1.8,0,0,0-.532.872,2.222,2.222,0,0,0-.039.872l-.026-.052a1.1,1.1,0,0,1-.044-.174,1.769,1.769,0,0,1,0-.684,1.8,1.8,0,0,1,1.883-1.43,1.866,1.866,0,0,1,.824.222,2.406,2.406,0,0,1,.693.606,10.2,10.2,0,0,0,1.2,1.53,1.447,1.447,0,0,0,.894.379,1.186,1.186,0,0,0,.894-.436,2.332,2.332,0,0,0,.514-.955,11.56,11.56,0,0,0,.2-1.155,3.2,3.2,0,0,1,.545-1.539,1.491,1.491,0,0,1,1.4-.667h.057l.026.048a6,6,0,0,0,.9,1.482,1.822,1.822,0,0,0,1.351.65,1.168,1.168,0,0,0,1.116-.61,2.4,2.4,0,0,0,.1-1.181,2.179,2.179,0,0,1,.078-1.024,1.307,1.307,0,0,1,.458-.619.619.619,0,0,1,.471-.109.34.34,0,0,1,.187.078Z" transform="translate(-188.322 -307.582)"/><path class="l" d="M324.938,378.436a.612.612,0,0,0-.218.061,1.033,1.033,0,0,0-.493.4,2.711,2.711,0,0,0-.388.942,5.511,5.511,0,0,1-.371,1.351,1.373,1.373,0,0,1-.562.632,1,1,0,0,1-.924.031,1.844,1.844,0,0,1-.7-.68,6.171,6.171,0,0,1-.462-.872,2.823,2.823,0,0,0-.562-.824.963.963,0,0,0-.872-.336.841.841,0,0,0-.593.728,6.44,6.44,0,0,0-.057,1.138,3.178,3.178,0,0,1-.793,2.18,1.909,1.909,0,0,1-2.071.493,6.882,6.882,0,0,1-1.513-1.234,1.552,1.552,0,0,0-1.443-.5,1.826,1.826,0,0,0-1.037.785,3.347,3.347,0,0,0-.405.937c-.148.554-.2.872-.222.872a.921.921,0,0,1,0-.231c.022-.148.052-.37.118-.654a3.393,3.393,0,0,1,.384-.985,1.97,1.97,0,0,1,1.107-.872,1.43,1.43,0,0,1,.841.035,2.441,2.441,0,0,1,.767.48,6.242,6.242,0,0,0,1.465,1.186,1.709,1.709,0,0,0,1.831-.458,2.959,2.959,0,0,0,.728-2.027,5.983,5.983,0,0,1,.065-1.177,1.351,1.351,0,0,1,.24-.567.942.942,0,0,1,.519-.336,1.19,1.19,0,0,1,1.077.4,3.052,3.052,0,0,1,.6.872,5.824,5.824,0,0,0,.436.872,1.644,1.644,0,0,0,.615.619.828.828,0,0,0,.758,0,1.212,1.212,0,0,0,.493-.554,5.523,5.523,0,0,0,.392-1.308,2.642,2.642,0,0,1,.436-.963,1.011,1.011,0,0,1,.549-.388A.5.5,0,0,1,324.938,378.436Z" transform="translate(-256.99 -305.305)"/><path class="l" d="M321.712,354.94a.651.651,0,0,1-.078.161c-.061.1-.153.244-.279.436a4.438,4.438,0,0,1-.519.628,2.294,2.294,0,0,1-.928.571,1.617,1.617,0,0,1-1.308-.118c-.436-.266-.65-.78-1.042-1.051a.671.671,0,0,0-.658-.07,1.155,1.155,0,0,0-.506.549,2.141,2.141,0,0,0-.209.789v.894a2.541,2.541,0,0,1-.174.911,1.277,1.277,0,0,1-.632.676,2.066,2.066,0,0,1-1.678-.1,7.371,7.371,0,0,1-1.255-.828,3.688,3.688,0,0,0-1.1-.6,1.448,1.448,0,0,0-.994.048,1.347,1.347,0,0,0-.606.462.963.963,0,0,0-.148.636.578.578,0,0,1-.048-.174.806.806,0,0,1,.122-.506,1.36,1.36,0,0,1,.628-.532,1.6,1.6,0,0,1,1.09-.092,3.841,3.841,0,0,1,1.168.606,8.008,8.008,0,0,0,1.229.789,1.874,1.874,0,0,0,1.5.087,1.081,1.081,0,0,0,.523-.562,2.353,2.353,0,0,0,.153-.833v-.9a2.4,2.4,0,0,1,.235-.872,1.364,1.364,0,0,1,.619-.645.872.872,0,0,1,.872.092c.462.344.649.841,1.02,1.068a1.482,1.482,0,0,0,1.177.122,2.21,2.21,0,0,0,.872-.51,4.751,4.751,0,0,0,.536-.589A6.419,6.419,0,0,1,321.712,354.94Z" transform="translate(-256.03 -292.053)"/><path class="l" d="M280.384,411.171a.628.628,0,0,1-.222.257,1.26,1.26,0,0,1-.959.157,2.59,2.59,0,0,1-.676-.231,7.377,7.377,0,0,1-.7-.436,4.01,4.01,0,0,0-.815-.466,1.368,1.368,0,0,0-.994-.026,1.778,1.778,0,0,0-.815.754,9.472,9.472,0,0,0-.567,1.133,6.238,6.238,0,0,1-.663,1.225,1.93,1.93,0,0,1-.562.475,1.12,1.12,0,0,1-.371.14,1.661,1.661,0,0,0-.192.039h-.2a1.4,1.4,0,0,1-.758-.266,2.8,2.8,0,0,1-.575-.558c-.336-.414-.61-.872-.937-1.308a2.427,2.427,0,0,0-1.225-.95,1.975,1.975,0,0,0-1.534.323,3.569,3.569,0,0,0-1.125,1.186c-.3.466-.541.959-.82,1.434a4.851,4.851,0,0,1-1,1.277,2.642,2.642,0,0,1-1.412.676,1.975,1.975,0,0,1-1.434-.436,4.7,4.7,0,0,1-.924-1.042,6.345,6.345,0,0,0-1.574-1.831,1.774,1.774,0,0,0-.972-.3,2.3,2.3,0,0,0-.9.2,2.489,2.489,0,0,0-1.112.976,1.979,1.979,0,0,0-.288.9,2.484,2.484,0,0,1,0,.336v-.083a2.05,2.05,0,0,1-.026-.253,1.974,1.974,0,0,1,.262-.942,2.524,2.524,0,0,1,1.133-1.046,2.35,2.35,0,0,1,.95-.235,1.923,1.923,0,0,1,1.059.3,6.693,6.693,0,0,1,1.639,1.861,4.823,4.823,0,0,0,.894.994,1.743,1.743,0,0,0,1.286.379,2.415,2.415,0,0,0,1.308-.632,4.589,4.589,0,0,0,.95-1.225c.27-.466.514-.963.819-1.443a3.814,3.814,0,0,1,1.194-1.255,2.179,2.179,0,0,1,1.713-.349,2.694,2.694,0,0,1,1.347,1.029c.336.436.606.9.928,1.308a1.657,1.657,0,0,0,1.173.75,1.377,1.377,0,0,0,1.159-.589,6.372,6.372,0,0,0,.65-1.181,9.193,9.193,0,0,1,.588-1.151,1.94,1.94,0,0,1,.907-.811,1.517,1.517,0,0,1,1.1.044,3.925,3.925,0,0,1,.833.5,7.111,7.111,0,0,0,.684.466,2.324,2.324,0,0,0,.641.24,1.221,1.221,0,0,0,.915-.109A1.993,1.993,0,0,0,280.384,411.171Z" transform="translate(-225.844 -323.202)"/><path class="l" d="M281.1,378.13a.147.147,0,0,1-.035.074.462.462,0,0,1-.179.148,1,1,0,0,1-.872-.078c-.357-.166-.641-.575-1.12-.767a.706.706,0,0,0-.737.126,1.831,1.831,0,0,0-.4.819,5.536,5.536,0,0,1-.353,1.016,1.416,1.416,0,0,1-.379.462,1.19,1.19,0,0,1-.584.227,2.725,2.725,0,0,1-2.241-1.173,6.815,6.815,0,0,0-.946-.942,1.957,1.957,0,0,0-1.268-.405,3.487,3.487,0,0,0-2.432,1.434c-.623.8-1.037,1.744-1.591,2.546a4.232,4.232,0,0,1-2.18,1.8,2.437,2.437,0,0,1-1.343.078,2.227,2.227,0,0,1-1.085-.654,9.89,9.89,0,0,0-1.491-1.6,1.46,1.46,0,0,0-.872-.222,1.5,1.5,0,0,0-.763.283,3.361,3.361,0,0,0-.9,1c-.4.636-.541,1.037-.562,1.024a1.19,1.19,0,0,1,.1-.288,6.94,6.94,0,0,1,.388-.785,3.535,3.535,0,0,1,.907-1.055,1.635,1.635,0,0,1,.824-.323,1.6,1.6,0,0,1,.968.231,9.646,9.646,0,0,1,1.543,1.6,2.04,2.04,0,0,0,.994.593,2.267,2.267,0,0,0,1.234-.087,4.041,4.041,0,0,0,2.049-1.744c.536-.8.95-1.744,1.6-2.563a3.67,3.67,0,0,1,2.615-1.517,2.218,2.218,0,0,1,1.4.436,7.224,7.224,0,0,1,.985.981,3.731,3.731,0,0,0,.95.841,1.909,1.909,0,0,0,1.116.283,1.033,1.033,0,0,0,.828-.584,5.661,5.661,0,0,0,.357-.981,1.944,1.944,0,0,1,.458-.872.872.872,0,0,1,.872-.139c.523.231.789.654,1.12.811a.968.968,0,0,0,.806.118A.662.662,0,0,0,281.1,378.13Z" transform="translate(-227.384 -304.668)"/><path class="l" d="M283.424,344.222a1,1,0,0,0-.222-.148,1.038,1.038,0,0,0-.737-.052,1.421,1.421,0,0,0-.9.732,7.573,7.573,0,0,0-.545,1.53,3.356,3.356,0,0,1-.414.872,1.661,1.661,0,0,1-.872.645,2.057,2.057,0,0,1-1.146-.035,4.032,4.032,0,0,1-1.081-.514,5.887,5.887,0,0,0-2.18-1.168,1.966,1.966,0,0,0-1.221.2,3.67,3.67,0,0,0-1.037.824c-.619.667-1.037,1.486-1.622,2.158a4.361,4.361,0,0,1-.972.872,2.416,2.416,0,0,1-1.212.388,3.4,3.4,0,0,1-2.127-.872c-.562-.436-1.033-.92-1.53-1.255a2.641,2.641,0,0,0-1.478-.536,1.9,1.9,0,0,0-1.125.362,1.229,1.229,0,0,0-.436.593c-.061.166-.057.262-.074.262a.7.7,0,0,1,.031-.275,1.229,1.229,0,0,1,.436-.65,1.988,1.988,0,0,1,1.177-.436,2.817,2.817,0,0,1,1.569.532c.519.336,1,.806,1.556,1.242a3.2,3.2,0,0,0,2,.819,2.877,2.877,0,0,0,2.023-1.207c.562-.649.981-1.469,1.626-2.18a3.889,3.889,0,0,1,1.1-.872,2.205,2.205,0,0,1,1.36-.218,6.224,6.224,0,0,1,2.232,1.216,2.665,2.665,0,0,0,2.062.54,1.478,1.478,0,0,0,.767-.562,3.13,3.13,0,0,0,.405-.833,7.92,7.92,0,0,1,.584-1.543,1.818,1.818,0,0,1,.458-.514,1.5,1.5,0,0,1,.532-.24,1.037,1.037,0,0,1,.78.1.567.567,0,0,1,.227.227Z" transform="translate(-229.49 -285.802)"/><path class="l" d="M291.4,327.518a.507.507,0,0,1-.026.161,2.551,2.551,0,0,1-.157.436,1.508,1.508,0,0,1-.462.606.8.8,0,0,1-.994-.065,4.853,4.853,0,0,1-.671-1,1.391,1.391,0,0,0-.414-.458,1.216,1.216,0,0,0-.61-.192,1.774,1.774,0,0,0-1.308.484,4.316,4.316,0,0,0-.9,1.282,3.234,3.234,0,0,1-.458.719.972.972,0,0,1-.793.353,1.076,1.076,0,0,1-.719-.436,2.117,2.117,0,0,1-.362-.684,2.759,2.759,0,0,0-.558-1.181.872.872,0,0,0-.488-.253.584.584,0,0,0-.462.139,1.988,1.988,0,0,0-.458.815,1.779,1.779,0,0,1-.375.658.715.715,0,0,1-.414.24.323.323,0,0,1-.17,0,.781.781,0,0,0,.519-.288,1.871,1.871,0,0,0,.323-.641,2.014,2.014,0,0,1,.466-.894.75.75,0,0,1,.593-.2,1.077,1.077,0,0,1,.6.292,2.89,2.89,0,0,1,.628,1.247,1.9,1.9,0,0,0,.327.615.872.872,0,0,0,.575.336.737.737,0,0,0,.606-.283,3.287,3.287,0,0,0,.436-.667,4.32,4.32,0,0,1,.955-1.347,1.97,1.97,0,0,1,1.46-.527,1.421,1.421,0,0,1,.706.235,1.6,1.6,0,0,1,.466.523,4.82,4.82,0,0,0,.619.981.649.649,0,0,0,.815.078,1.456,1.456,0,0,0,.436-.536C291.323,327.749,291.38,327.509,291.4,327.518Z" transform="translate(-239.704 -276.169)"/><path class="l" d="M225,328.54a.805.805,0,0,1,.044.209,5.925,5.925,0,0,1,.052.6,2.942,2.942,0,0,1-.113.955,1.613,1.613,0,0,1-.828.976,1.138,1.138,0,0,1-.767.1,1.212,1.212,0,0,1-.68-.488,7.233,7.233,0,0,1-.436-.724,1.152,1.152,0,0,0-2.105.109,2.367,2.367,0,0,0-.27.928,7.545,7.545,0,0,0,0,1.037,3.23,3.23,0,0,1-.074,1.081,1.525,1.525,0,0,1-.615.872,1.186,1.186,0,0,1-1.046.083,2.3,2.3,0,0,1-.824-.541c-.436-.462-.715-.985-1.1-1.356a1.678,1.678,0,0,0-1.308-.532,1.657,1.657,0,0,0-1.085.466,1.7,1.7,0,0,0-.436.789,2.262,2.262,0,0,0-.044.793.509.509,0,0,1-.061-.2,1.634,1.634,0,0,1,0-.61,1.744,1.744,0,0,1,1.6-1.395,1.853,1.853,0,0,1,1.447.558c.41.388.7.92,1.116,1.343a2.145,2.145,0,0,0,.75.488.981.981,0,0,0,.872-.07,1.308,1.308,0,0,0,.514-.763,2.964,2.964,0,0,0,.065-1.007,3.6,3.6,0,0,1,.288-2.088,1.5,1.5,0,0,1,1.765-.75,1.477,1.477,0,0,1,.7.641c.161.253.283.51.436.719a1.029,1.029,0,0,0,.571.436.989.989,0,0,0,.654-.07,1.473,1.473,0,0,0,.776-.872,2.906,2.906,0,0,0,.148-.915C225.007,328.832,224.976,328.544,225,328.54Z" transform="translate(-201.725 -277.16)"/><path class="h" d="M250.816,211.86c-2.951-.636-5.732,2.18-8.718,1.866-1.822-.2-3.3-1.517-4.965-2.275a9.245,9.245,0,0,0-8.221.384c-2.332,1.443-3.788,2.9-3.893,5.636-2.323-1.085-5.784,2.023-6.818,4.821s-.479,5.553.479,8.382a39.4,39.4,0,0,0,7.637,13.269c.3.344.767.71,1.16.484a.985.985,0,0,0,.357-.833,32.949,32.949,0,0,0-.815-7.981,19.913,19.913,0,0,1-.17-7.99c.628-2.611,2.415-5.091,4.991-5.828a8.5,8.5,0,0,1,5.776.732c1.8.819,3.426,1.988,5.157,2.947a10.853,10.853,0,0,0,5.632,1.652,5.2,5.2,0,0,0,4.7-3.051c.689-1.861-.466-4.315-2.432-4.564a3.893,3.893,0,0,0,.139-7.641Z" transform="translate(-204.192 -210.67)"/><path class="n" d="M252.1,263.719l-.763-5.667s7.41-2.079,6.591-9.633c-.392-3.648-1.813-11.1-3.173-17.82a14.162,14.162,0,0,0-15.566-11.251l-.728.087c-7.794,1.4-10.959,8.805-9.341,16.564l4.39,30.339a9.389,9.389,0,0,0,10.584,7.92h0A9.385,9.385,0,0,0,252.1,263.719Z" transform="translate(-210.431 -215.508)"/><path class="o" d="M267.474,306.113A17.654,17.654,0,0,1,257.3,304.5s2.977,5.152,10.427,3.566Z" transform="translate(-226.56 -263.6)"/><path class="h" d="M280.354,254.594a1.1,1.1,0,0,1-.9,1.251,1.055,1.055,0,0,1-1.234-.872,1.1,1.1,0,0,1,.9-1.255,1.055,1.055,0,0,1,1.234.876Z" transform="translate(-238.355 -234.943)"/><path class="h" d="M280.207,254.128c-.118.153-1-.353-2.18-.209s-1.94.824-2.084.7c-.07-.057.035-.327.375-.641a2.99,2.99,0,0,1,1.643-.732,2.9,2.9,0,0,1,1.744.34C280.115,253.815,280.268,254.054,280.207,254.128Z" transform="translate(-237.066 -234.674)"/><path class="h" d="M255.037,256.692a1.116,1.116,0,0,1-.9,1.273,1.064,1.064,0,0,1-1.238-.9,1.116,1.116,0,0,1,.894-1.277,1.072,1.072,0,0,1,1.242.9Z" transform="translate(-224.07 -236.114)"/><path class="h" d="M254.677,256.2c-.118.157-1.007-.349-2.18-.209s-1.94.824-2.084.7c-.07-.052.035-.323.375-.636a2.96,2.96,0,0,1,1.643-.732,2.868,2.868,0,0,1,1.744.34C254.581,255.893,254.738,256.133,254.677,256.2Z" transform="translate(-222.664 -235.846)"/><path class="h" d="M269.518,263.917a8.149,8.149,0,0,1,1.844-.567c.292-.065.562-.157.589-.366a1.517,1.517,0,0,0-.3-.85l-1.125-2.149a37.933,37.933,0,0,1-2.676-5.667,39.013,39.013,0,0,1,3.125,5.431l1.112,2.18a1.743,1.743,0,0,1,.292,1.146.754.754,0,0,1-.436.488,1.935,1.935,0,0,1-.493.131A7.942,7.942,0,0,1,269.518,263.917Z" transform="translate(-232.506 -235.291)"/><path class="h" d="M263.917,279.119c.187-.031.34,1.225,1.526,1.988s2.506.466,2.537.641c.031.078-.266.279-.833.362a3.125,3.125,0,0,1-2.11-.462,2.737,2.737,0,0,1-1.2-1.674C263.729,279.451,263.83,279.124,263.917,279.119Z" transform="translate(-230.222 -249.282)"/><path class="h" d="M252.109,244.389c-.074.331-1.251.323-2.589.649s-2.4.828-2.615.567c-.1-.126.057-.436.466-.8a4.638,4.638,0,0,1,3.962-.924C251.86,244.018,252.161,244.236,252.109,244.389Z" transform="translate(-220.68 -229.337)"/><path class="h" d="M278.708,245.293c-.174.288-1,.113-1.966.214s-1.744.392-1.97.139c-.1-.126,0-.405.323-.7a2.864,2.864,0,0,1,3.173-.283C278.638,244.9,278.773,245.153,278.708,245.293Z" transform="translate(-236.395 -229.648)"/><path class="n" d="M226.563,270.158c-.135-.039-5.366-.911-4.586,4.228s5.784,3.291,5.767,3.139S226.563,270.158,226.563,270.158Z" transform="translate(-206.59 -244.182)"/><path class="o" d="M227.607,278.184c-.022,0-.078.074-.218.17a.915.915,0,0,1-.667.113,2.236,2.236,0,0,1-1.329-1.831,3.025,3.025,0,0,1,.057-1.308,1.042,1.042,0,0,1,.567-.789.462.462,0,0,1,.567.166c.092.135.074.24.1.244s.1-.1.026-.309a.6.6,0,0,0-.253-.288.684.684,0,0,0-.514-.057,1.273,1.273,0,0,0-.815.942,3.082,3.082,0,0,0-.092,1.478,2.355,2.355,0,0,0,1.643,2.018.95.95,0,0,0,.8-.262C227.629,278.311,227.642,278.189,227.607,278.184Z" transform="translate(-208.331 -246.547)"/><path class="h" d="M255.1,226.986a10.976,10.976,0,0,1-9.939-1.02c-2.023-1.334-3.71-3.4-6.1-3.832a6.159,6.159,0,0,0-4.608,1.2,11.944,11.944,0,0,0-3.16,3.692c1.918,3.657,1.452,8.055.937,12.153a2.062,2.062,0,0,1-.436,1.264,1.653,1.653,0,0,1-2.11-.209,6.386,6.386,0,0,1-1.8-3.2,21.39,21.39,0,0,1-.976-8.387A14.559,14.559,0,0,1,230,220.888a13.783,13.783,0,0,1,9.154-4.795,16.926,16.926,0,0,1,10.165,2.315,9.9,9.9,0,0,1,3.6,3.269" transform="translate(-209.373 -213.691)"/><path class="j" d="M264.038,215.759a1.108,1.108,0,0,1,0,.436,2.088,2.088,0,0,1-.593,1.151,3.287,3.287,0,0,1-1.848.872,5.609,5.609,0,0,1-1.308.074,2.725,2.725,0,0,1-1.386-.436,1.813,1.813,0,0,1-.819-1.377,1.6,1.6,0,0,1,.937-1.447,1.974,1.974,0,0,1,.911-.231,1.743,1.743,0,0,1,.937.292,2.362,2.362,0,0,1,.981,1.713,2.724,2.724,0,0,1-.584,1.988,4.176,4.176,0,0,1-1.744,1.286,6.817,6.817,0,0,1-4.468.048,19.249,19.249,0,0,1-4.089-1.84,25.175,25.175,0,0,0-3.723-1.792,7.659,7.659,0,0,0-3.648-.436,7.349,7.349,0,0,0-2.99,1.164,9.193,9.193,0,0,0-3.051,3.518c-.253.5-.414.9-.523,1.177a2.829,2.829,0,0,1-.17.436.358.358,0,0,1,.026-.113c.022-.074.048-.183.1-.323a9.619,9.619,0,0,1,.484-1.2,9.111,9.111,0,0,1,3.051-3.627,7.528,7.528,0,0,1,3.051-1.225,7.846,7.846,0,0,1,3.753.436,24.273,24.273,0,0,1,3.771,1.8,19.716,19.716,0,0,0,4.041,1.813,6.621,6.621,0,0,0,4.3-.039,3.923,3.923,0,0,0,1.639-1.2,2.476,2.476,0,0,0,.545-1.813,2.127,2.127,0,0,0-.872-1.552,1.582,1.582,0,0,0-1.626-.061,1.425,1.425,0,0,0-.837,1.251,1.657,1.657,0,0,0,.728,1.238,2.541,2.541,0,0,0,1.308.436,5.157,5.157,0,0,0,1.255-.052,3.217,3.217,0,0,0,1.8-.8,2.127,2.127,0,0,0,.615-1.09A4.436,4.436,0,0,0,264.038,215.759Z" transform="translate(-215.03 -213)"/><path class="j" d="M218,239.6a8.634,8.634,0,0,0,1.626.222,4.62,4.62,0,0,0,1.709-.388,7.664,7.664,0,0,0,1.822-1.164,6.1,6.1,0,0,0,1.927-3.348,12.966,12.966,0,0,0,.153-1.639,1.338,1.338,0,0,1,.078.436,5,5,0,0,1-.052,1.229,5.928,5.928,0,0,1-1.94,3.513,7.311,7.311,0,0,1-1.9,1.186,4.358,4.358,0,0,1-1.8.349,4.075,4.075,0,0,1-1.212-.214A1.5,1.5,0,0,1,218,239.6Z" transform="translate(-204.391 -223.424)"/><path class="j" d="M219.54,247.989c0-.048.619,0,1.587-.157a7.127,7.127,0,0,0,5.54-4.7c.327-.924.366-1.543.436-1.539a1.36,1.36,0,0,1,0,.436,5.911,5.911,0,0,1-.24,1.164,6.874,6.874,0,0,1-5.667,4.821,5.894,5.894,0,0,1-1.186.048A1.2,1.2,0,0,1,219.54,247.989Z" transform="translate(-205.26 -228.112)"/><path class="o" d="M251.962,269.8a.135.135,0,0,1-.166-.1.131.131,0,0,1,.078-.174.14.14,0,0,1,.166.1A.135.135,0,0,1,251.962,269.8Z" transform="translate(-223.45 -243.868)"/><path class="o" d="M256.9,267.982a.166.166,0,0,1-.1-.305.153.153,0,0,1,.174.113A.148.148,0,0,1,256.9,267.982Z" transform="translate(-226.235 -242.826)"/><path class="o" d="M260.3,267.357a.209.209,0,0,1-.174-.174c-.031-.113,0-.218.074-.235s.148.061.174.174S260.369,267.339,260.3,267.357Z" transform="translate(-228.147 -242.414)"/><path class="o" d="M254.895,272.782c-.07,0-.131-.022-.135-.07s.044-.087.118-.1.131,0,.135.065S254.965,272.782,254.895,272.782Z" transform="translate(-225.127 -245.612)"/><path class="o" d="M259.345,271.027a.148.148,0,1,1,.1-.17A.14.14,0,0,1,259.345,271.027Z" transform="translate(-227.602 -244.555)"/><path class="o" d="M283.277,265.223a.139.139,0,0,1-.17-.1.129.129,0,1,1,.244-.078A.139.139,0,0,1,283.277,265.223Z" transform="translate(-241.112 -241.284)"/><path class="o" d="M286.711,264.444a.161.161,0,0,1-.161-.126.148.148,0,0,1,.091-.187.166.166,0,0,1,.07.314Z" transform="translate(-243.056 -240.827)"/><path class="o" d="M280.251,265.709a.122.122,0,0,1-.157-.065.118.118,0,0,1,.087-.148.113.113,0,1,1,.07.214Z" transform="translate(-239.415 -241.591)"/><path class="o" d="M283.158,268.837a.144.144,0,0,1-.187-.065.131.131,0,1,1,.222-.131A.144.144,0,0,1,283.158,268.837Z" transform="translate(-241.024 -243.324)"/><path class="o" d="M286.183,267.969a.122.122,0,0,1-.113-.126.118.118,0,0,1,.144-.087.11.11,0,1,1-.031.214Z" transform="translate(-242.789 -242.87)"/><path class="h" d="M220.589,274.057c0,.026-.283.022-.514-.314a.907.907,0,0,1-.135-.671,1.147,1.147,0,0,1,.466-.7,1.173,1.173,0,0,1,.811-.2,1.308,1.308,0,0,1,.628.24c.314.231.366.488.344.488a1.911,1.911,0,0,0-.436-.357,1.168,1.168,0,0,0-1.221,0,.968.968,0,0,0-.392.554.754.754,0,0,0,.07.545C220.366,273.961,220.606,274.022,220.589,274.057Z" transform="translate(-205.476 -245.361)"/><path class="n" d="M256.456,399.595l.388,11.259S224.2,417.318,220,419.481s-5.911,2.5-5.667,8.718l52.147-.087s6.425-2.406,6.3-9.4S270.9,394.9,270.9,394.9Z" transform="translate(-202.308 -314.594)"/><path class="n" d="M213.4,455.864l4.333-.4,4.137-9.882c-.667-.113-14.624-2.18-15.448-1.948l-3.343,11.891S213.106,455.864,213.4,455.864Z" transform="translate(-195.975 -342.076)"/><path class="n" d="M202.783,467.43a.6.6,0,0,0,.231.052c1.155.126,6.477-.2,6.477-.2.244-.684-.218-2.75-.872-2.873s-6.325.262-6.325.262-.872.118-1.116,1.617C201.03,467.212,202.783,467.43,202.783,467.43Z" transform="translate(-194.897 -353.79)"/><path class="n" d="M198.648,460.49a.549.549,0,0,0,.231.052c1.151.126,6.185.07,6.4-.545.244-.684-.139-2.406-.8-2.528s-6.329.262-6.329.262-.872.118-1.116,1.617C196.9,460.272,198.648,460.49,198.648,460.49Z" transform="translate(-192.558 -349.876)"/><path class="n" d="M196.6,453.71a.55.55,0,0,0,.231.052c1.155.126,6.185.07,6.4-.545.244-.684-.144-2.406-.806-2.528s-6.329.262-6.329.262-.872.118-1.112,1.617C194.85,453.492,196.6,453.71,196.6,453.71Z" transform="translate(-191.407 -346.051)"/><path class="n" d="M194.683,446.967c0,.022.092.039.231.052,1.151.126,6.185.07,6.4-.541.24-.689-.144-2.411-.806-2.528s-6.329.262-6.329.262-.872.113-1.112,1.613C192.93,446.754,194.683,446.967,194.683,446.967Z" transform="translate(-190.324 -342.251)"/><path class="o" d="M208.563,464.25a10.117,10.117,0,0,1-2.45.227,9.315,9.315,0,0,1-2.424-.087,9.665,9.665,0,0,1,2.45-.227A9.552,9.552,0,0,1,208.563,464.25Z" transform="translate(-196.319 -353.658)"/><path class="o" d="M205.9,457.463a38.365,38.365,0,0,1-6.974.222,38.35,38.35,0,0,1,6.974-.222Z" transform="translate(-193.634 -349.839)"/><g class="p" transform="translate(5.056 104.53)"><path class="o" d="M205.354,450.549a38.357,38.357,0,0,1-6.974.222,19.126,19.126,0,0,1,3.487-.266A20.03,20.03,0,0,1,205.354,450.549Z" transform="translate(-198.38 -450.471)"/></g><path class="n" d="M217.9,441.626s-9.5-4.224-10.091-3.614a14.03,14.03,0,0,0-1.508,2.572Z" transform="translate(-197.791 -338.879)"/><path class="o" d="M318.651,441.308c-.039,0-.231-.68-.684-1.744a17.356,17.356,0,0,0-.9-1.809,18.3,18.3,0,0,0-1.373-2.053,19.987,19.987,0,0,0-1.652-1.8,17.855,17.855,0,0,0-1.539-1.308c-.915-.7-1.539-1.055-1.521-1.09a2.156,2.156,0,0,1,.436.222,11.438,11.438,0,0,1,1.159.737,15.457,15.457,0,0,1,1.587,1.308,17.294,17.294,0,0,1,1.691,1.848,17.546,17.546,0,0,1,1.377,2.092,14.669,14.669,0,0,1,.872,1.848,11.085,11.085,0,0,1,.436,1.308,1.94,1.94,0,0,1,.113.445Z" transform="translate(-256.841 -335.24)"/><path class="n" d="M213.931,332.45l-9.825,27.967L193.06,363.6s4.006,16.948,8.095,19.995a9.528,9.528,0,0,0,5.989,1.992,13.987,13.987,0,0,0,11.255-7.772c1.661-3.862,6.159-43.817,6.159-43.817Z" transform="translate(-190.323 -279.366)"/><path class="n" d="M247.293,305.117l.575-6.813-1.582-5.471-.61-2.092,1.194,1.225,2.18-2.323s-.706-4.128-1.308-4.128a10.967,10.967,0,0,0-2.21.649c-.436.161-.78.292-.78.292l-1.818.946,1.848-2.833s1.9,1.582,2.873.209c.741-1.051-2.027-3.4-3.051-4.237a1.042,1.042,0,0,0-.85-.2l-1.077.214a1.565,1.565,0,0,0-1.574-1.434,2.424,2.424,0,0,0-2.092,1.255l-1.133.2a1.892,1.892,0,0,0-1.774,1.234L233.61,288.6l3.2,13.788" transform="translate(-213.197 -249.283)"/><path class="o" d="M236.687,302.276s-.026-.083-.07-.244-.1-.414-.179-.724c-.157-.645-.384-1.574-.667-2.764-.571-2.406-1.382-5.845-2.371-10.026v-.052c.493-1.343,1.011-2.768,1.556-4.263l.841-2.293a2.179,2.179,0,0,1,.7-1.09,2.01,2.01,0,0,1,1.255-.436h0l1.133-.2-.074.052a2.75,2.75,0,0,1,.828-.872,2.271,2.271,0,0,1,1.19-.4,1.743,1.743,0,0,1,1.221.384,1.5,1.5,0,0,1,.606,1.164l-.135-.118.815-.161a2.888,2.888,0,0,1,.436-.074,1.178,1.178,0,0,1,.458.065,1.233,1.233,0,0,1,.388.235l.331.27c.218.183.436.371.65.562a14.765,14.765,0,0,1,1.225,1.225,4.062,4.062,0,0,1,.928,1.526,1.042,1.042,0,0,1,0,.554,1.367,1.367,0,0,1-1.3.793,3.369,3.369,0,0,1-1.835-.793l.17-.022c-.628.955-1.242,1.9-1.848,2.829l-.144-.161,1.844-.942h0c.623-.235,1.238-.471,1.857-.667a7.555,7.555,0,0,1,.946-.257.871.871,0,0,1,.275,0,.436.436,0,0,1,.244.192,2.145,2.145,0,0,1,.227.436,21.453,21.453,0,0,1,.872,3.574v.048l-.035.039q-1.138,1.2-2.18,2.319l-.07.07-.07-.07-1.19-1.225.153-.087c.837,2.929,1.569,5.471,2.179,7.567v.022c-.2,2.149-.349,3.849-.436,5.022l-.131,1.334a2.748,2.748,0,0,1-.035.34.357.357,0,0,1-.022.113v-.458c.022-.314.052-.758.1-1.334.092-1.177.222-2.877.392-5.026v.022c-.615-2.092-1.356-4.629-2.214-7.554l-.1-.349.257.262,1.2,1.216H246.7l2.18-2.328-.026.087a21.407,21.407,0,0,0-.872-3.531,2.113,2.113,0,0,0-.2-.4.279.279,0,0,0-.118-.109.909.909,0,0,0-.2,0,9.261,9.261,0,0,0-.915.253c-.615.2-1.225.436-1.844.667h0l-1.844.942-.371.192.227-.349,1.844-2.833.065-.1.1.078a3.269,3.269,0,0,0,1.7.741,1.116,1.116,0,0,0,1.077-.654.745.745,0,0,0,0-.436,3.9,3.9,0,0,0-.872-1.43,13.731,13.731,0,0,0-1.207-1.225c-.209-.187-.436-.375-.641-.554a2.712,2.712,0,0,0-.654-.466,1.208,1.208,0,0,0-.763,0l-.815.161-.135.031v-.144a1.277,1.277,0,0,0-.523-.976,1.521,1.521,0,0,0-1.072-.336,2.271,2.271,0,0,0-1.84,1.168l-.026.048h-.048l-1.138.2h0a1.8,1.8,0,0,0-1.125.4,2,2,0,0,0-.636,1q-.436,1.173-.846,2.293-.833,2.236-1.574,4.254v-.048c.959,4.2,1.744,7.641,2.293,10.052l.619,2.777c.07.309.122.549.157.728A2.5,2.5,0,0,1,236.687,302.276Z" transform="translate(-213.078 -249.192)"/><path class="o" d="M259,301.977a12.294,12.294,0,0,1,1.909-1.029l.711-.349-.589.532a1.846,1.846,0,0,0-.353,2.323,5.1,5.1,0,0,0,.519.628,1.25,1.25,0,0,1-.654-.545,1.9,1.9,0,0,1-.331-.872,1.957,1.957,0,0,1,.227-1.133,2.046,2.046,0,0,1,.436-.562l.118.183A12.5,12.5,0,0,1,259,301.977Z" transform="translate(-227.519 -261.4)"/><path class="o" d="M247,287.75a5.481,5.481,0,0,1,.532-1.029c.353-.623.872-1.469,1.425-2.4.288-.466.554-.907.815-1.308a2.707,2.707,0,0,1,.9-.915,1.46,1.46,0,0,1,.85-.187.515.515,0,0,1,.3.1h-.305a1.5,1.5,0,0,0-.763.24,7.052,7.052,0,0,0-1.6,2.2c-.58.915-1.094,1.744-1.482,2.363a6.5,6.5,0,0,1-.671.928Z" transform="translate(-220.75 -250.855)"/><path class="o" d="M239.27,287.516a3.759,3.759,0,0,1,.323-.924c.231-.562.571-1.308.981-2.153s.811-1.561,1.116-2.079a4.2,4.2,0,0,1,.545-.82,4.856,4.856,0,0,1-.4.872c-.31.619-.667,1.308-1.055,2.105l-1.042,2.118A4.394,4.394,0,0,1,239.27,287.516Z" transform="translate(-216.39 -250.648)"/><path class="o" d="M215.327,390.34a2.486,2.486,0,0,1-.161.506l-.5,1.351c-.436,1.142-1.02,2.72-1.643,4.468s-1.159,3.348-1.543,4.5c-.183.545-.34,1-.462,1.369a2.617,2.617,0,0,1-.2.493,2.337,2.337,0,0,1,.109-.519c.087-.331.222-.806.392-1.391.349-1.168.872-2.777,1.486-4.529s1.238-3.326,1.7-4.451c.235-.562.436-1.016.575-1.33A2.42,2.42,0,0,1,215.327,390.34Z" transform="translate(-200.341 -312.022)"/><path class="o" d="M219.87,410.9a.348.348,0,0,1,0,.126c0,.1-.031.222-.048.375-.052.349-.122.828-.209,1.443s-.209,1.391-.388,2.271a18.387,18.387,0,0,1-.819,2.947,9.726,9.726,0,0,1-1.922,3.169,14.467,14.467,0,0,1-3.313,2.672,17.918,17.918,0,0,1-4.359,1.809,9.735,9.735,0,0,1-2.48.344,7.41,7.41,0,0,1-2.537-.436,9.39,9.39,0,0,1-4.05-2.99,16.1,16.1,0,0,1-2.345-4.08c-.567-1.391-.907-2.781-1.308-4.045s-.758-2.45-1.09-3.531c-.676-2.158-1.19-3.923-1.513-5.135-.161-.615-.279-1.09-.353-1.412l-.083-.371a.4.4,0,0,1,0-.126.471.471,0,0,1,.044.122c.026.092.061.214.1.362.1.336.227.806.4,1.4.344,1.216.872,2.964,1.578,5.113.34,1.081.715,2.258,1.116,3.526s.745,2.646,1.308,4.019a15.918,15.918,0,0,0,2.323,4.019,9.18,9.18,0,0,0,3.949,2.916,7.293,7.293,0,0,0,2.463.436,9.373,9.373,0,0,0,2.424-.336,17.735,17.735,0,0,0,4.294-1.77,14.508,14.508,0,0,0,3.278-2.615,9.756,9.756,0,0,0,1.914-3.1,19.443,19.443,0,0,0,.846-2.916c.187-.872.314-1.639.436-2.258s.192-1.09.248-1.434l.074-.375A1.25,1.25,0,0,1,219.87,410.9Z" transform="translate(-190.316 -319.688)"/></g><g transform="translate(32.905 153.846)"><path class="e" d="M47.662,392.434a4.892,4.892,0,0,0-2.537-3.239,6.077,6.077,0,0,0-4.311.253,15.6,15.6,0,0,1-4.215,1.268,3.435,3.435,0,0,1-3.574-2.014c-.436-1.308.384-2.733,1.382-3.7A8.718,8.718,0,0,1,48.7,388.42" transform="translate(-32.905 -350.471)"/><g class="q" transform="translate(0 32.091)"><path class="g" d="M47.662,392.434a4.892,4.892,0,0,0-2.537-3.239,6.077,6.077,0,0,0-4.311.253,15.6,15.6,0,0,1-4.215,1.268,3.435,3.435,0,0,1-3.574-2.014c-.436-1.308.384-2.733,1.382-3.7A8.718,8.718,0,0,1,48.7,388.42" transform="translate(-32.905 -382.562)"/></g><path class="r" d="M65.311,396.881c2.158-2.053,2.053-5.623.976-8.4a12.8,12.8,0,0,0-6.055-6.325,19.18,19.18,0,0,0-16.712-.541,7.925,7.925,0,0,1,6.412,3.766c1.186,1.966,1.447,4.359,2.424,6.425a10.117,10.117,0,0,0,12.955,5.065" transform="translate(-38.893 -349.002)"/><path class="r" d="M81.042,344.493c2.393-2.82,2.711-7.349,2.358-11.033s-1.207-7.389-.628-11.041c.344-2.18,1.186-4.228,1.469-6.4s-.118-4.634-1.8-6.033c-1.935-1.613-4.982-1.234-6.974.279a13.279,13.279,0,0,0-4.032,6.264c-1.87,5.2-2.559,10.98-1.02,16.294s5.148,10.065,10.462,11.669" transform="translate(-53.586 -308.942)"/><path class="h" d="M78.748,410.135a1.394,1.394,0,0,0,0-.323v-.933c-.031-.811-.109-1.983-.288-3.417a45.633,45.633,0,0,0-.92-5.008,23.058,23.058,0,0,0-2.284-5.793,24.079,24.079,0,0,0-7.633-8.243c-.6-.414-1.173-.728-1.67-1.016s-.955-.488-1.308-.667l-.872-.362-.305-.113a1.444,1.444,0,0,0,.288.153l.841.392c.362.187.8.436,1.308.693a13.781,13.781,0,0,1,1.648,1.033,24.58,24.58,0,0,1,7.524,8.225,30.33,30.33,0,0,1,3.234,10.723c.2,1.43.3,2.615.353,3.4l.052.928a2.315,2.315,0,0,0,.031.323Z" transform="translate(-50.147 -351.429)"/><path class="e" d="M131.028,365c4.424,2.672,4.411,5.1,3.67,7.41a4.617,4.617,0,0,1-5.7,3.025,7.072,7.072,0,0,1-2.982-2.7,13.249,13.249,0,0,0-2.615-3.1,3.365,3.365,0,0,0-3.81-.314" transform="translate(-81.804 -340.564)"/><g class="q" transform="translate(37.786 24.436)"><path class="g" d="M131.028,365c4.424,2.672,4.411,5.1,3.67,7.41a4.617,4.617,0,0,1-5.7,3.025,7.072,7.072,0,0,1-2.982-2.7,13.249,13.249,0,0,0-2.615-3.1,3.365,3.365,0,0,0-3.81-.314" transform="translate(-119.59 -365)"/></g><path class="r" d="M125.452,363.941c-1.16-1.6-4.015-2.062-5.819-1.264a11.679,11.679,0,0,0-4.311,3.958,18.054,18.054,0,0,1-3.971,4.359,5.087,5.087,0,0,1-5.562.392,4.8,4.8,0,0,1-1.887-3.274,10.745,10.745,0,0,1,.262-3.853,8.291,8.291,0,0,1,2.511-4.974c1.656-1.308,3.949-1.373,6.063-1.308a22.758,22.758,0,0,1,7.153,1.1,9.966,9.966,0,0,1,5.562,4.878" transform="translate(-72.915 -336.594)"/><path class="h" d="M106.961,392.375a.437.437,0,0,0,0-.1v-.283q0-.4.039-1.1c.026-.968.065-2.345.113-4.036s.122-3.736.248-5.985.292-4.725.632-7.3a23.976,23.976,0,0,1,.732-3.71,19.617,19.617,0,0,1,1.356-3.243,19.3,19.3,0,0,1,1.713-2.685,17.341,17.341,0,0,1,1.866-2.049,13.786,13.786,0,0,1,3.308-2.258c.218-.1.405-.2.575-.262l.436-.17.266-.1.087-.044-.092.022-.275.087-.436.153c-.174.065-.362.157-.584.249a13.394,13.394,0,0,0-3.374,2.223,17.568,17.568,0,0,0-1.9,2.053,18.747,18.747,0,0,0-1.744,2.7,19.128,19.128,0,0,0-1.377,3.269,23.185,23.185,0,0,0-.745,3.74c-.34,2.585-.5,5.061-.619,7.314s-.17,4.285-.2,5.989-.048,3.086-.052,4.041v1.382A.262.262,0,0,0,106.961,392.375Z" transform="translate(-74.662 -337.208)"/><path class="h" d="M94.963,376.918a13.075,13.075,0,0,0,.484-1.9,19.925,19.925,0,0,0,.2-5.335,35.621,35.621,0,0,0-1.691-7.742c-.911-2.846-2.14-5.889-3.2-9.154a41.208,41.208,0,0,1-1.268-4.843,42.458,42.458,0,0,1-.619-4.625,68.071,68.071,0,0,1-.148-7.916c.078-2.254.2-4.076.275-5.335.035-.619.065-1.107.083-1.452v-.375a.492.492,0,0,0,0-.131.61.61,0,0,0,0,.131,1.449,1.449,0,0,1-.039.375c-.031.344-.07.828-.122,1.447-.1,1.255-.24,3.077-.336,5.331a65.719,65.719,0,0,0,.1,7.925,42.746,42.746,0,0,0,.619,4.647,42.038,42.038,0,0,0,1.273,4.869c1.055,3.282,2.293,6.321,3.208,9.154a36.071,36.071,0,0,1,1.717,7.7A20.423,20.423,0,0,1,95.368,375c-.109.619-.2,1.1-.292,1.421q-.057.231-.092.366A.558.558,0,0,0,94.963,376.918Z" transform="translate(-64.273 -319.755)"/><path class="j" d="M78.15,439.5H98.921l.471-4H78.15Z" transform="translate(-58.428 -380.333)"/><path class="j" d="M99.571,443.62l-2.6,11.992H85.688L83.26,443.62Z" transform="translate(-61.31 -384.914)"/><path class="j" d="M78.15,444.5c0,.052,4.564.083,10.2.07s10.2-.074,10.2-.126-4.564-.087-10.2-.074S78.15,444.441,78.15,444.5Z" transform="translate(-58.428 -385.333)"/><path class="h" d="M86.329,456.095a8.381,8.381,0,0,1,1.826-1.051,6.452,6.452,0,0,1,2.227-.436,7.716,7.716,0,0,1,2.733.506c.946.318,1.831.693,2.69.9a6.447,6.447,0,0,0,2.328.07,4.851,4.851,0,0,0,1.5-.475,3.285,3.285,0,0,0,.362-.227c.078-.061.113-.092.113-.1s-.179.1-.51.257a5.132,5.132,0,0,1-1.478.405,6.489,6.489,0,0,1-2.267-.109c-.833-.209-1.717-.584-2.672-.907a7.776,7.776,0,0,0-2.8-.5,6.378,6.378,0,0,0-2.271.5,5.884,5.884,0,0,0-1.351.793,3.394,3.394,0,0,0-.323.275C86.356,456.051,86.325,456.09,86.329,456.095Z" transform="translate(-63.041 -391.011)"/><path class="c" d="M86.689,457.93a9.076,9.076,0,0,1,1.744-1.033,5.9,5.9,0,0,1,2.145-.436,7.692,7.692,0,0,1,2.646.475c.915.305,1.774.658,2.615.872a6.8,6.8,0,0,0,2.236.253,3.828,3.828,0,0,0,1.465-.392,2.964,2.964,0,0,0,.349-.222c.074-.057.113-.092.109-.1s-.174.1-.493.248a4.041,4.041,0,0,1-1.438.323,6.936,6.936,0,0,1-2.18-.288c-.8-.227-1.656-.584-2.581-.894a7.65,7.65,0,0,0-2.711-.471,5.868,5.868,0,0,0-3.487,1.282,2.872,2.872,0,0,0-.309.27C86.716,457.9,86.685,457.926,86.689,457.93Z" transform="translate(-63.245 -392.049)"/><path class="c" d="M85.85,454.052a10.291,10.291,0,0,1,1.879-1.107,6.947,6.947,0,0,1,2.28-.545,7.293,7.293,0,0,1,2.825.5,25.414,25.414,0,0,0,2.785.907,7.031,7.031,0,0,0,2.4,0,5.4,5.4,0,0,0,1.543-.488,2.455,2.455,0,0,0,.375-.231c.083-.061.122-.1.118-.1s-.183.109-.527.261a5.837,5.837,0,0,1-1.53.436,7.266,7.266,0,0,1-2.345-.048,27.537,27.537,0,0,1-2.759-.915A7.375,7.375,0,0,0,90,452.225a6.974,6.974,0,0,0-3.71,1.434,4.361,4.361,0,0,0-.336.288C85.884,454.008,85.845,454.047,85.85,454.052Z" transform="translate(-62.771 -389.766)"/><path class="h" d="M77.73,444.58c0,.052,4.673.1,10.431.1s10.435-.044,10.435-.1-4.669-.1-10.435-.1S77.73,444.524,77.73,444.58Z" transform="translate(-58.191 -385.399)"/></g><g transform="translate(33.225 224.43)"><path class="h" d="M223.414,470.988c0,.061-42.487.113-94.883.113s-94.891-.052-94.891-.113,42.474-.118,94.891-.118S223.414,470.927,223.414,470.988Z" transform="translate(-33.64 -470.87)"/></g></g></svg>