<svg xmlns="http://www.w3.org/2000/svg" width="216.502" height="66.728" viewBox="0 0 216.502 66.728"><defs><style>.a{fill:#fff;}.b{fill:#f90;}</style></defs><g transform="translate(-352.25 -4172.57)"><path class="a" d="M-99.75-13.4h6.156a4.883,4.883,0,0,1,3.4,1.1,3.942,3.942,0,0,1,1.216,3.078,3.942,3.942,0,0,1-1.216,3.078,4.883,4.883,0,0,1-3.4,1.1h-3.192V0H-99.75Zm5.776,6.118q2.223,0,2.223-1.919a1.828,1.828,0,0,0-.551-1.463,2.509,2.509,0,0,0-1.672-.475h-2.812v3.857ZM-80.522.171a6.844,6.844,0,0,1-3.467-.846A5.715,5.715,0,0,1-86.26-3.069a7.842,7.842,0,0,1-.8-3.639,7.842,7.842,0,0,1,.8-3.639,5.654,5.654,0,0,1,2.271-2.384,6.906,6.906,0,0,1,3.467-.836,6.906,6.906,0,0,1,3.467.836,5.654,5.654,0,0,1,2.271,2.384,7.842,7.842,0,0,1,.8,3.639,7.842,7.842,0,0,1-.8,3.639A5.715,5.715,0,0,1-77.054-.675,6.844,6.844,0,0,1-80.522.171Zm0-2.3A3.21,3.21,0,0,0-77.89-3.306a5.269,5.269,0,0,0,.959-3.4,5.265,5.265,0,0,0-.95-3.392,3.215,3.215,0,0,0-2.641-1.168A3.188,3.188,0,0,0-83.153-10.1a5.3,5.3,0,0,0-.94,3.392,5.306,5.306,0,0,0,.95,3.4A3.183,3.183,0,0,0-80.522-2.128Zm25.5-11.267h2.812L-56.981,0h-2.375l-3.1-8.873L-65.588,0h-2.375l-4.75-13.4h3l3.059,9.253L-63.4-13.4h2.071L-58.2-4.047ZM-50.16,0V-13.4h9.234v2.3h-6.346v3.135h5.966v2.3h-5.966V-2.3h6.346V0Zm23.275,0h-3.23l-2.318-4.275a1.814,1.814,0,0,0-.684-.713,2.079,2.079,0,0,0-1.007-.219h-1.463V0h-2.926V-13.4h6.156a5.338,5.338,0,0,1,3.563,1.035,3.727,3.727,0,0,1,1.207,2.993,3.871,3.871,0,0,1-.846,2.546,4.047,4.047,0,0,1-2.384,1.349,2.937,2.937,0,0,1,1.767,1.5Zm-5.909-7.448a3.008,3.008,0,0,0,1.843-.446,1.664,1.664,0,0,0,.57-1.4,1.66,1.66,0,0,0-.57-1.406,3.058,3.058,0,0,0-1.843-.437h-2.831v3.686ZM-24.814,0V-13.4h9.234v2.3h-6.346v3.135h5.966v2.3h-5.966V-2.3h6.346V0Zm11.647-13.4h5.206a8.243,8.243,0,0,1,3.762.8,5.572,5.572,0,0,1,2.413,2.3A7.271,7.271,0,0,1-.95-6.707a7.394,7.394,0,0,1-.826,3.6A5.5,5.5,0,0,1-4.18-.8,8.289,8.289,0,0,1-7.961,0h-5.206Zm5,11q4.275,0,4.275-4.313Q-3.9-11-8.17-11H-10.2v8.607Zm-9.258,16.459a3.356,3.356,0,0,1,1.8,1.188A3.36,3.36,0,0,1-15,17.333a3.239,3.239,0,0,1-1.245,2.679A5.377,5.377,0,0,1-19.67,21h-6.365V7.6h6.175a5.353,5.353,0,0,1,3.316.931,3.024,3.024,0,0,1,1.225,2.546,3.083,3.083,0,0,1-.56,1.833A3.183,3.183,0,0,1-17.428,14.065Zm-5.719-1.007h2.793a2.9,2.9,0,0,0,1.681-.389,1.365,1.365,0,0,0,.542-1.187,1.407,1.407,0,0,0-.542-1.225,2.9,2.9,0,0,0-1.681-.39h-2.793Zm3.135,5.681a2.882,2.882,0,0,0,1.71-.4,1.51,1.51,0,0,0,.532-1.292,1.565,1.565,0,0,0-.532-1.311,2.78,2.78,0,0,0-1.71-.418h-3.135v3.42Zm19-11.134L-6.56,14.939V21H-9.524V14.939L-15.053,7.6h3.363l3.629,4.959L-4.375,7.6Z" transform="translate(452 4186.57)"/><g transform="translate(457.199 4172.57)"><path class="a" d="M39.232,24.234a11.228,11.228,0,0,0,.408,3.3,19.864,19.864,0,0,0,1.188,2.672,1.614,1.614,0,0,1,.26.854,1.469,1.469,0,0,1-.705,1.113l-2.338,1.559a1.779,1.779,0,0,1-.965.334,1.708,1.708,0,0,1-1.113-.52A11.481,11.481,0,0,1,34.63,31.8c-.371-.631-.742-1.336-1.15-2.19a13.71,13.71,0,0,1-10.911,5.121,10.169,10.169,0,0,1-7.422-2.672A9.534,9.534,0,0,1,12.4,24.939a9.554,9.554,0,0,1,3.377-7.645c2.264-1.93,5.27-2.895,9.092-2.895a29.383,29.383,0,0,1,3.934.3c1.373.186,2.783.482,4.268.816V12.8c0-2.821-.594-4.787-1.744-5.938-1.188-1.15-3.192-1.707-6.049-1.707a16.885,16.885,0,0,0-4.008.482A29.572,29.572,0,0,0,17.262,6.9a10.649,10.649,0,0,1-1.3.482,2.276,2.276,0,0,1-.594.111c-.52,0-.779-.371-.779-1.15V4.528a2.348,2.348,0,0,1,.26-1.3,2.779,2.779,0,0,1,1.039-.779A21.366,21.366,0,0,1,20.565.779,22.5,22.5,0,0,1,26.354.074c4.416,0,7.645,1,9.723,3.006,2.041,2,3.08,5.047,3.08,9.13V24.234ZM24.164,29.875a12.027,12.027,0,0,0,3.823-.668,8.27,8.27,0,0,0,3.526-2.375,5.891,5.891,0,0,0,1.262-2.375,13.323,13.323,0,0,0,.371-3.229V19.669a30.992,30.992,0,0,0-3.414-.631,27.964,27.964,0,0,0-3.489-.223c-2.487,0-4.3.482-5.53,1.484a5.173,5.173,0,0,0-1.818,4.268A5.18,5.18,0,0,0,20.268,28.5a5.146,5.146,0,0,0,3.9,1.373Zm29.8,4.008a2.072,2.072,0,0,1-1.41-.371,3.025,3.025,0,0,1-.779-1.447L43.054,3.377a6.5,6.5,0,0,1-.334-1.484.814.814,0,0,1,.891-.928h3.637a2.057,2.057,0,0,1,1.447.371,3.036,3.036,0,0,1,.742,1.447l6.235,24.568L61.462,2.783a2.6,2.6,0,0,1,.705-1.447A2.553,2.553,0,0,1,63.652.965h2.969a2.233,2.233,0,0,1,1.484.371,2.5,2.5,0,0,1,.705,1.447l5.864,24.865,6.42-24.865a3.182,3.182,0,0,1,.742-1.447A2.421,2.421,0,0,1,83.284.965h3.451a.825.825,0,0,1,.928.928,3.7,3.7,0,0,1-.074.594,5.278,5.278,0,0,1-.26.928L78.385,32.1a2.846,2.846,0,0,1-.779,1.447,2.374,2.374,0,0,1-1.41.371H73a2.233,2.233,0,0,1-1.484-.371,2.631,2.631,0,0,1-.705-1.484L65.062,8.128l-5.715,23.9a2.9,2.9,0,0,1-.705,1.484,2.3,2.3,0,0,1-1.484.371Zm47.689,1a24.559,24.559,0,0,1-5.715-.668,16.883,16.883,0,0,1-4.268-1.484,2.674,2.674,0,0,1-1.15-1.039,2.619,2.619,0,0,1-.223-1.039V28.762c0-.779.3-1.15.854-1.15a2.1,2.1,0,0,1,.668.111c.223.074.557.223.928.371a20.187,20.187,0,0,0,4.082,1.3,22.287,22.287,0,0,0,4.416.445,10.013,10.013,0,0,0,5.418-1.225,4,4,0,0,0,1.93-3.526,3.614,3.614,0,0,0-1-2.6,9.312,9.312,0,0,0-3.748-1.93l-5.381-1.67A11.319,11.319,0,0,1,92.525,15.1a8.842,8.842,0,0,1-1.856-5.381,8.26,8.26,0,0,1,1-4.119,9.542,9.542,0,0,1,2.672-3.043A11.779,11.779,0,0,1,98.2.631,16.175,16.175,0,0,1,102.879,0a18.631,18.631,0,0,1,2.487.148c.854.111,1.633.26,2.412.408.742.186,1.447.371,2.115.594a8.1,8.1,0,0,1,1.559.668,3.209,3.209,0,0,1,1.113.928,2,2,0,0,1,.334,1.225V5.715c0,.779-.3,1.188-.854,1.188a3.86,3.86,0,0,1-1.41-.445A16.978,16.978,0,0,0,103.51,5.01a9.579,9.579,0,0,0-4.936,1.039,3.584,3.584,0,0,0-1.744,3.3,3.5,3.5,0,0,0,1.113,2.635,11.085,11.085,0,0,0,4.082,2.041l5.27,1.67a11.287,11.287,0,0,1,5.752,3.563,8.4,8.4,0,0,1,1.707,5.2,9.54,9.54,0,0,1-.965,4.3,9.981,9.981,0,0,1-2.709,3.266,11.963,11.963,0,0,1-4.119,2.078,17.647,17.647,0,0,1-5.307.779Z" transform="translate(-7.818 0)"/><path class="b" d="M100.85,127.157c-12.21,9.018-29.949,13.806-45.2,13.806A81.777,81.777,0,0,1,.462,119.92c-1.15-1.039-.111-2.449,1.262-1.633a111.294,111.294,0,0,0,55.223,14.659,110.2,110.2,0,0,0,42.122-8.61C101.11,123.408,102.854,125.672,100.85,127.157Z" transform="translate(0 -74.235)"/><path class="b" d="M259.582,117.625c-1.559-2-10.317-.965-14.288-.482-1.188.148-1.373-.891-.3-1.67,6.977-4.9,18.445-3.489,19.781-1.856,1.336,1.67-.371,13.138-6.9,18.63-1,.854-1.967.408-1.522-.705C257.837,127.868,261.14,119.592,259.582,117.625Z" transform="translate(-153.647 -70.493)"/></g></g></svg>