<svg xmlns="http://www.w3.org/2000/svg" width="183.253" height="228.612" viewBox="0 0 183.253 228.612"><defs><style>.a{fill:#e0e0e0;}.b{fill:#ebebeb;}.c{fill:#fafafa;}.d{fill:#f5f5f5;}.e{fill:#263238;}.f{fill:#f8b257;}.g{opacity:0.4;}.h{fill:#455a64;}.i{fill:#ffbe9d;}.j{fill:#eb996e;}.k{fill:#2d85f5;}.l{opacity:0.3;}.m{opacity:0.2;}.n{fill:#a4a2a2;}.o{fill:#efefef;}</style></defs><g transform="translate(-49.112 -55.117)"><g transform="translate(33.4 65.117)"><rect class="a" width="46.938" height="77.698" transform="translate(131.607 -10)"/><rect class="b" width="46.938" height="77.698" transform="translate(130.044 -10)"/><rect class="c" width="42.94" height="74.546" transform="translate(132.045 -8.421)"/><rect class="b" width="26.404" height="55.174" transform="translate(140.222 1.265)"/><path class="a" d="M276.739,140.792c-.064-5.153,4.57-10.168,9.675-10.9,2.435-.342,5.02.139,7.294-.792,4.056-1.664,5.351-7.059,9.435-8.659l.187,39.879H276.739Z" transform="translate(-136.517 -103.881)"/><path class="b" d="M83.137,226.729s-4.661-.337-4.228,10.12A122.385,122.385,0,0,0,80.4,252.871s-.134,2.317-1.932,1.862-5.175-2.708-6.839-1.022-1.118,4.431,1.177,7.588,7.069,10.269,7.492,10.912.594,1.82-.68,1.707-9.857-3.029-11,1.118,6.7,11.912,7.54,12.779.888,1.407.535,1.932-3.136-.728-5.614-1.456-5.475-1.14-5.929,1.316,3,9.633,15.926,17.184L87.3,309.9l5.887-3.746c12.11-8.8,14.824-16.3,14.128-18.693s-3.644-1.691-6.036-.717-5.046,2.494-5.437,2.007-.4-1.033.348-1.975,7.776-9.44,6.229-13.464-9.8-.268-11.061,0-1.2-.958-.851-1.632,4.4-8.231,6.368-11.6,2.312-6.106.417-7.674-4.966,1.07-6.705,1.7-2.108-1.659-2.108-1.659a121.128,121.128,0,0,0-.118-16.092c-.621-10.446-5.351-9.6-5.351-9.6" transform="translate(-48.144 -143.289)"/><path class="a" d="M99.48,244.22a1.8,1.8,0,0,1,0,.219,5.785,5.785,0,0,0,.048.642c.037.578.1,1.407.166,2.467.145,2.141.326,5.25.535,9.1.428,7.674.926,18.281,1.434,29.968s.985,22.326,1.37,30c.193,3.826.353,6.957.46,9.1.054,1.07.1,1.894.123,2.472v.642a3.551,3.551,0,0,0-.048-.642c-.037-.573-.1-1.4-.166-2.467-.144-2.141-.326-5.25-.535-9.1-.423-7.669-.92-18.275-1.434-29.968s-.985-22.316-1.365-29.968c-.2-3.832-.353-6.957-.466-9.1-.054-1.07-.091-1.894-.123-2.467v-.9Z" transform="translate(-64.118 -151.42)"/><path class="a" d="M85.88,283.4a1.975,1.975,0,0,1,.385.321c.241.219.578.535.99.947.819.813,1.921,1.969,3.115,3.264l3.045,3.329.926,1a2.439,2.439,0,0,1,.326.385,1.96,1.96,0,0,1-.391-.316c-.241-.219-.578-.535-.985-.958-.813-.819-1.9-1.985-3.093-3.28l-3.066-3.3-.931-1a1.976,1.976,0,0,1-.321-.391Z" transform="translate(-57.796 -169.633)"/><path class="a" d="M103.449,291.2c-.048-.048,2.226-2.43,5.079-5.319s5.207-5.2,5.25-5.153-2.226,2.424-5.079,5.319S103.5,291.25,103.449,291.2Z" transform="translate(-65.962 -168.392)"/><path class="a" d="M103.4,328.092a2.5,2.5,0,0,1,.433-.273l1.215-.685c1.027-.578,2.446-1.375,3.976-2.317s2.89-1.836,3.869-2.488l1.156-.776a2.3,2.3,0,0,1,.444-.262,1.928,1.928,0,0,1-.385.337c-.262.209-.642.492-1.118.84-.958.69-2.306,1.605-3.842,2.553s-2.97,1.723-4.019,2.264c-.535.268-.953.482-1.252.615A2.022,2.022,0,0,1,103.4,328.092Z" transform="translate(-65.94 -187.247)"/><path class="a" d="M84.14,322.2a1.509,1.509,0,0,1,.433.2l1.129.626c.947.535,2.242,1.3,3.671,2.141s2.719,1.632,3.639,2.2c.466.289.835.535,1.07.69a1.786,1.786,0,0,1,.38.284,1.777,1.777,0,0,1-.428-.2c-.268-.139-.653-.353-1.129-.626-.947-.535-2.248-1.3-3.671-2.141s-2.719-1.605-3.644-2.2c-.46-.284-.829-.535-1.07-.69a2.1,2.1,0,0,1-.38-.278Z" transform="translate(-56.987 -187.67)"/><path class="a" d="M80.32,351.93a2.83,2.83,0,0,1,.535.262l1.445.8c1.22.685,2.89,1.643,4.731,2.713s3.505,2.055,4.7,2.772l1.407.867a3.646,3.646,0,0,1,.5.342,2.727,2.727,0,0,1-.535-.262l-1.45-.8c-1.215-.685-2.89-1.643-4.731-2.713s-3.5-2.055-4.7-2.772l-1.407-.867A3.65,3.65,0,0,1,80.32,351.93Z" transform="translate(-55.211 -201.49)"/><path class="a" d="M104.74,358.082a3.49,3.49,0,0,1,.535-.364l1.514-.921c1.274-.776,3.034-1.857,4.945-3.1s3.612-2.408,4.816-3.264l1.45-1.011a3.869,3.869,0,0,1,.535-.348,2.95,2.95,0,0,1-.492.423c-.332.262-.813.631-1.413,1.07-1.2.888-2.89,2.082-4.816,3.329s-3.693,2.306-4.988,3.045c-.653.369-1.183.664-1.552.856A2.965,2.965,0,0,1,104.74,358.082Z" transform="translate(-66.563 -200.16)"/><path class="a" d="M107.26,385.97H90.05l5.619,42.517h5.978Z" transform="translate(-59.734 -217.313)"/><path class="d" d="M91.72,394.249a.461.461,0,0,0,.091.15,1.07,1.07,0,0,0,.417.294,2.082,2.082,0,0,0,1.82-.219A13.441,13.441,0,0,1,96.279,393a4.87,4.87,0,0,1,3.163.064,13.586,13.586,0,0,1,2.949,1.429,20.428,20.428,0,0,0,2.392,1.284,6.873,6.873,0,0,0,1.771.535,3.962,3.962,0,0,0,.5.032h.177a8.878,8.878,0,0,1-2.365-.712,23.765,23.765,0,0,1-2.344-1.327,13.03,13.03,0,0,0-3-1.472,5.041,5.041,0,0,0-3.339-.037,4.506,4.506,0,0,0-1.258.776,8.682,8.682,0,0,1-.985.765,2.012,2.012,0,0,1-1.675.289,1.729,1.729,0,0,1-.546-.38Z" transform="translate(-60.51 -220.364)"/><path class="d" d="M92.9,407.66a5.746,5.746,0,0,1,.4-.455,3.806,3.806,0,0,1,1.375-.872,6.218,6.218,0,0,1,2.392-.364,24.685,24.685,0,0,1,3,.412,10.335,10.335,0,0,0,3.066.123,8.44,8.44,0,0,0,2.414-.685,8.156,8.156,0,0,0,1.45-.862,2.22,2.22,0,0,0,.46-.417,14.929,14.929,0,0,1-1.991,1.07,8.947,8.947,0,0,1-2.365.61,10.458,10.458,0,0,1-2.991-.145,23.046,23.046,0,0,0-3.029-.391,6.149,6.149,0,0,0-2.478.433,3.65,3.65,0,0,0-1.381.985,2.757,2.757,0,0,0-.262.38C92.908,407.606,92.887,407.655,92.9,407.66Z" transform="translate(-61.056 -225.946)"/><path class="d" d="M107.483,417.177a1.639,1.639,0,0,0-.476-.246,5.16,5.16,0,0,0-1.423-.305,9.1,9.1,0,0,0-2.141.123c-.8.134-1.664.353-2.569.535a11.071,11.071,0,0,1-2.563.289,5.572,5.572,0,0,1-2.034-.439A4.656,4.656,0,0,1,94.72,416a1.305,1.305,0,0,0,.289.45,3.686,3.686,0,0,0,1.167.878,5.447,5.447,0,0,0,2.108.535,10.42,10.42,0,0,0,2.633-.273c.915-.193,1.766-.423,2.553-.562a9.937,9.937,0,0,1,2.1-.182,8.236,8.236,0,0,1,1.91.332Z" transform="translate(-61.905 -231.273)"/><path class="d" d="M95.74,428.337a2.82,2.82,0,0,1,1.67-.166,7.8,7.8,0,0,1,1.75.653,6.679,6.679,0,0,0,2.269.621,6.775,6.775,0,0,0,4.115-.953,5.8,5.8,0,0,0,1.038-.808c.209-.225.321-.353.305-.364a16.087,16.087,0,0,1-1.429.979,7.069,7.069,0,0,1-3.992.846c-1.605-.091-2.879-1.07-4.008-1.193a2.638,2.638,0,0,0-1.3.112A1.721,1.721,0,0,0,95.74,428.337Z" transform="translate(-62.379 -236.535)"/><path class="d" d="M97.53,442.406a3.21,3.21,0,0,0,1.434-.284c.867-.289,1.937-.953,3.211-1.45a5.234,5.234,0,0,1,1.83-.38,3.355,3.355,0,0,1,1.472.332,3.152,3.152,0,0,1,1.07.92.68.68,0,0,0-.161-.364,2.344,2.344,0,0,0-.808-.728,3.4,3.4,0,0,0-1.557-.423,5.169,5.169,0,0,0-1.932.38c-1.3.535-2.333,1.2-3.163,1.525S97.525,442.363,97.53,442.406Z" transform="translate(-63.211 -242.443)"/><path class="d" d="M99.1,451.56a4.355,4.355,0,0,0,1.07.353,19.622,19.622,0,0,0,2.724.46,20.5,20.5,0,0,0,2.761.08,4.083,4.083,0,0,0,1.14-.139c0-.08-1.745,0-3.874-.225S99.121,451.474,99.1,451.56Z" transform="translate(-63.941 -247.797)"/></g><g transform="translate(49.112 276.291)"><path class="e" d="M246.013,465.559c0,.08-41.027.139-91.624.139s-91.63-.059-91.63-.139,41.018-.139,91.63-.139S246.013,465.484,246.013,465.559Z" transform="translate(-62.76 -465.42)"/></g><g transform="translate(89.486 90.98)"><path class="f" d="M158.165,455.64l-1,4.19s-6.855,8.9-8.969,8.466c-1.386-.284.316-2.606,2.922-9.37l.535-2.788Z" transform="translate(-146.621 -275.562)"/><path class="e" d="M148.11,469.764a.829.829,0,0,0,.364.353,1.279,1.279,0,0,0,1.311-.182,38.83,38.83,0,0,0,3.414-3.211c1.268-1.333,2.333-2.612,3.082-3.559l.878-1.124c.08-.112.161-.214.235-.31a.471.471,0,0,1,.091-.1s0,.043-.07.118a2.549,2.549,0,0,0-.219.321c-.193.278-.482.674-.846,1.151a43.893,43.893,0,0,1-3.066,3.591,33.569,33.569,0,0,1-3.452,3.211,1.605,1.605,0,0,1-.771.289,1.145,1.145,0,0,1-.61-.134.787.787,0,0,1-.289-.268A.359.359,0,0,1,148.11,469.764Z" transform="translate(-146.81 -278.347)"/><path class="e" d="M149.92,471.424a1.107,1.107,0,0,1,.567-.064,2.937,2.937,0,0,1,1.29.45,2.35,2.35,0,0,1,.937.99,1.231,1.231,0,0,1,.15.535,3.181,3.181,0,0,0-.225-.508,2.494,2.494,0,0,0-.926-.926,3.3,3.3,0,0,0-1.236-.471C150.139,471.4,149.925,471.445,149.92,471.424Z" transform="translate(-147.651 -282.864)"/><path class="e" d="M161.829,463.922a.862.862,0,0,1-.086-.2,3.681,3.681,0,0,1-.134-.573,3.109,3.109,0,0,1,.321-1.905,2.917,2.917,0,0,1,1.386-1.349,2.305,2.305,0,0,1,.535-.177.623.623,0,0,1,.219,0,4.381,4.381,0,0,0-.744.268,3.023,3.023,0,0,0-1.316,1.322,3.264,3.264,0,0,0-.343,1.841C161.755,463.612,161.851,463.917,161.829,463.922Z" transform="translate(-153.069 -277.455)"/><path class="e" d="M165.9,457c.032,0-.123.594-.252,1.338a4.511,4.511,0,0,1-.353,1.316c-.027,0,.107-.6.235-1.343A4.612,4.612,0,0,1,165.9,457Z" transform="translate(-154.797 -276.195)"/><path class="e" d="M153.87,462.836a1.567,1.567,0,0,1,.878,0,1.52,1.52,0,0,1,.792.375c0,.032-.359-.15-.819-.257S153.87,462.894,153.87,462.836Z" transform="translate(-149.487 -278.878)"/><path class="e" d="M153.6,464.16a1.387,1.387,0,0,1,1.391.332,3.371,3.371,0,0,0-.68-.241C153.926,464.16,153.605,464.2,153.6,464.16Z" transform="translate(-149.362 -279.485)"/><path class="e" d="M152.58,465.789a.926.926,0,0,1,.765-.1.947.947,0,0,1,.653.417,4.039,4.039,0,0,0-.658-.273A3.644,3.644,0,0,0,152.58,465.789Z" transform="translate(-148.887 -280.216)"/><path class="e" d="M154.75,460.823a8.417,8.417,0,0,0,.8-.278,6.3,6.3,0,0,0,.829-.4c.15-.086.3-.182.455-.289a.55.55,0,0,0,.284-.417c-.005-.161-.2-.252-.364-.214a.968.968,0,0,0-.423.284c-.252.235-.466.466-.642.658-.348.4-.535.658-.535.642a1.261,1.261,0,0,1,.118-.2c.086-.123.209-.294.38-.5a6.89,6.89,0,0,1,.626-.685,1.07,1.07,0,0,1,.476-.321.407.407,0,0,1,.535.321.7.7,0,0,1-.342.535,5.182,5.182,0,0,1-.471.294,5.609,5.609,0,0,1-.851.38,5.52,5.52,0,0,1-.6.166A.933.933,0,0,1,154.75,460.823Z" transform="translate(-149.896 -277.165)"/><path class="e" d="M154.307,460.22a7.553,7.553,0,0,1-.123-.765,3.365,3.365,0,0,0-.235-.8,1.7,1.7,0,0,0-.257-.4c-.1-.118-.262-.219-.391-.145s-.144.262-.128.417a2.087,2.087,0,0,0,.134.46,2.676,2.676,0,0,0,.45.69c.316.353.567.535.535.535a.776.776,0,0,1-.182-.107,4,4,0,0,1-.433-.375,2.554,2.554,0,0,1-.487-.706,1.73,1.73,0,0,1-.15-.487.535.535,0,0,1,.187-.535.45.45,0,0,1,.535.171,1.606,1.606,0,0,1,.268.439,2.873,2.873,0,0,1,.219.824c.027.241.037.434.043.567A.637.637,0,0,1,154.307,460.22Z" transform="translate(-149.095 -276.648)"/><g class="g" transform="translate(1.096 182.256)"><path d="M157.18,461.722l.482-2.012s-1.68.31-2.114,1.568a5.266,5.266,0,0,0-.332,2.141l-3.65,3.939s-.915-1.787-2.574-1.359a17.113,17.113,0,0,0-1.263,3.591c.043.717.878.632,1.172.5a14.658,14.658,0,0,0,3.27-2.579C154.1,465.5,156.243,462.958,157.18,461.722Z" transform="translate(-147.728 -459.71)"/></g><path class="f" d="M219.4,455.71l.032-5.587L208.964,450l-.134,8.172.648.048c2.89.2,14.69.792,16.632.23C228.267,457.824,219.4,455.71,219.4,455.71Z" transform="translate(-175.036 -272.941)"/><g class="g" transform="translate(33.811 182.153)"><path d="M212.643,462.559a3.65,3.65,0,0,0-1.311-2.248,3.516,3.516,0,0,0-2.435-.787l-.037,2.922Z" transform="translate(-208.86 -459.518)"/></g><g class="g" transform="translate(33.794 183.957)"><path d="M223.734,462.89s3.1.937,2.708,1.445-12.346.359-17.612-.171v-.23l13.914.294S223.124,462.911,223.734,462.89Z" transform="translate(-208.83 -462.89)"/></g><path class="e" d="M208.56,464.82h.182l.535.037,1.905.107c1.605.075,3.826.155,6.277.187s4.677,0,6.283,0l1.905-.059h.535a1.5,1.5,0,0,0,.177,0,.654.654,0,0,0-.182,0h-8.723c-2.456,0-4.672-.1-6.277-.155l-1.9-.064h-.535Z" transform="translate(-174.91 -279.83)"/><path class="e" d="M234.909,464.281a4.007,4.007,0,0,1,.364-.9,4.1,4.1,0,0,1,.658-.717,1.686,1.686,0,0,0-1.022,1.605Z" transform="translate(-187.158 -278.826)"/><path class="e" d="M229.17,461.942a1.331,1.331,0,0,0,.337-.4,1.2,1.2,0,0,0,.23-.466,1.252,1.252,0,0,0-.337.4A1.161,1.161,0,0,0,229.17,461.942Z" transform="translate(-184.491 -278.091)"/><path class="e" d="M227.6,461.324c0,.027.187-.08.369-.241s.316-.31.289-.337-.187.086-.369.241S227.577,461.3,227.6,461.324Z" transform="translate(-183.759 -277.934)"/><path class="e" d="M226.62,459.951a1.236,1.236,0,0,0,.535.08,1.188,1.188,0,0,0,.535-.053,1.226,1.226,0,0,0-.535-.075,1.349,1.349,0,0,0-.535.048Z" transform="translate(-183.305 -277.54)"/><path class="e" d="M226.29,458.67a1.57,1.57,0,0,0,1.242.107,3.516,3.516,0,0,0-.621-.048,2.825,2.825,0,0,0-.621-.059Z" transform="translate(-183.152 -276.971)"/><path class="e" d="M229.86,460.2a1.9,1.9,0,0,0,.669,0,3.969,3.969,0,0,0,.722-.15,1.916,1.916,0,0,0,.412-.161.369.369,0,0,0,.166-.209.252.252,0,0,0-.1-.268,1.236,1.236,0,0,0-1.531.337,1.2,1.2,0,0,0-.225.45.369.369,0,0,0,0,.182,1.888,1.888,0,0,1,.316-.573,1.183,1.183,0,0,1,.578-.364,1.022,1.022,0,0,1,.8.064c.1.08.059.2-.059.273a1.959,1.959,0,0,1-.38.155,5.109,5.109,0,0,1-.7.177A3.8,3.8,0,0,1,229.86,460.2Z" transform="translate(-184.811 -277.254)"/><path class="e" d="M229.448,459.921a.663.663,0,0,0,.086-.466,1.145,1.145,0,0,0-.177-.492.68.68,0,0,0-.535-.353.278.278,0,0,0-.214.31.717.717,0,0,0,.112.3,2.066,2.066,0,0,0,.31.412.979.979,0,0,0,.385.278,4.171,4.171,0,0,1-.316-.337,2.333,2.333,0,0,1-.278-.407c-.091-.144-.15-.4,0-.428s.337.155.439.289a1.071,1.071,0,0,1,.182.439,2.36,2.36,0,0,1,.005.455Z" transform="translate(-184.228 -276.943)"/><path class="e" d="M209,459.415s.3,0,.771.037a3.27,3.27,0,0,1,2.713,2.221c.155.45.166.755.193.749a.7.7,0,0,0,0-.209,2.417,2.417,0,0,0-.107-.567,3.211,3.211,0,0,0-1.038-1.573,3.173,3.173,0,0,0-1.75-.706,2.862,2.862,0,0,0-.578,0A.654.654,0,0,0,209,459.415Z" transform="translate(-175.115 -277.288)"/><path class="e" d="M211.029,451.36a18.137,18.137,0,0,0-.118,2.141,17.122,17.122,0,0,0,0,2.141,19.794,19.794,0,0,0,.118-2.141A18.251,18.251,0,0,0,211.029,451.36Z" transform="translate(-175.987 -273.573)"/><path class="e" d="M218.41,463.323a5.884,5.884,0,0,0,1.525.171,6.01,6.01,0,0,0,1.536-.1c0-.037-.69,0-1.531,0S218.415,463.286,218.41,463.323Z" transform="translate(-179.489 -279.13)"/><path class="e" d="M214.575,463.267c-.027.027.054.15.123.305s.1.3.139.294.054-.16,0-.342S214.6,463.246,214.575,463.267Z" transform="translate(-177.704 -279.107)"/><path class="e" d="M213.16,461.455a.656.656,0,0,0,.144.246c.107.112.214.182.241.155s-.043-.134-.15-.246S213.181,461.428,213.16,461.455Z" transform="translate(-177.048 -278.263)"/><path class="e" d="M211.1,460.562c0,.037.145.037.3.091s.262.139.289.118-.059-.171-.246-.235S211.089,460.53,211.1,460.562Z" transform="translate(-176.09 -277.825)"/><path class="e" d="M209.63,460.177c0,.032.048.091.134.123s.166.037.182,0-.048-.086-.134-.123S209.646,460.145,209.63,460.177Z" transform="translate(-175.407 -277.66)"/><path class="e" d="M197.124,259.29l-4.019,104.9-16.3.342,2.708-90.9-18.334,91.6h-15.5L165.646,259.5Z" transform="translate(-145.68 -184.288)"/><path class="h" d="M212.415,266.42a11,11,0,0,1-.187,1.729c-.155,1.07-.38,2.526-.653,4.142a17.061,17.061,0,0,1-.466,2.274,3.211,3.211,0,0,1-1.07,1.605,2.516,2.516,0,0,1-1.183.535.953.953,0,0,1-.476,0,2.933,2.933,0,0,0,2.472-2.2,20.379,20.379,0,0,0,.433-2.242c.273-1.605.535-3.077.733-4.126a10.471,10.471,0,0,1,.4-1.712Z" transform="translate(-174.826 -187.603)"/><path class="h" d="M209.4,267.123c.037.027-.1.193,0,.471a.535.535,0,0,0,.273.348.439.439,0,0,0,.487-.1.455.455,0,0,0,.161-.466.535.535,0,0,0-.316-.316c-.262-.112-.45,0-.471-.043s.15-.235.535-.15a.717.717,0,0,1,.5.417.739.739,0,0,1-1.017.888.728.728,0,0,1-.348-.535C209.143,267.24,209.389,267.085,209.4,267.123Z" transform="translate(-175.204 -187.802)"/><path class="h" d="M193.019,267.621a3.072,3.072,0,0,1,.31-2.911c.08.037-.155.653-.235,1.45A13.231,13.231,0,0,1,193.019,267.621Z" transform="translate(-167.578 -186.808)"/><path class="h" d="M196.656,267.284a2.521,2.521,0,0,1-.235-1.541,2.547,2.547,0,0,1,.444-1.493,13.423,13.423,0,0,1-.161,1.514,13.824,13.824,0,0,1-.048,1.52Z" transform="translate(-169.252 -186.594)"/><path class="h" d="M228.367,267.982a9.333,9.333,0,0,1,.091-1.573,10.046,10.046,0,0,1,.07-1.579,2.954,2.954,0,0,1,.219,1.605A3.061,3.061,0,0,1,228.367,267.982Z" transform="translate(-184.116 -186.864)"/><path class="h" d="M232.336,267.711c-.08-.032.171-.717.23-1.605s-.091-1.605,0-1.605a2.574,2.574,0,0,1,.3,1.638,2.6,2.6,0,0,1-.53,1.573Z" transform="translate(-185.955 -186.71)"/><path class="i" d="M197.966,154.864l10.061-.8c.064-1.177,0-5.721,0-5.721s4.19-.653,4.238-4.816-.674-13.8-.674-13.8h0a14.545,14.545,0,0,0-14.62,1.841l-.621.476Z" transform="translate(-169.234 -123.509)"/><path class="j" d="M213.408,164.077a9.707,9.707,0,0,1-5.458-1.547s1.29,3.013,5.464,2.633Z" transform="translate(-174.626 -139.309)"/><path class="i" d="M194.856,143.025c-.07-.032-2.879-.851-2.788,2.012a2.154,2.154,0,0,0,2.949,2.1C195.017,147.055,194.856,143.025,194.856,143.025Z" transform="translate(-167.243 -130.181)"/><path class="j" d="M194.748,146.894s-.054.032-.134.075a.5.5,0,0,1-.375,0,1.242,1.242,0,0,1-.6-1.07,1.648,1.648,0,0,1,.118-.717.567.567,0,0,1,.364-.4.252.252,0,0,1,.294.128c.043.08.027.139.043.139s.059-.048.032-.166a.31.31,0,0,0-.118-.177.4.4,0,0,0-.278-.064.723.723,0,0,0-.508.46,1.707,1.707,0,0,0-.144.8,1.3,1.3,0,0,0,.765,1.215.535.535,0,0,0,.455-.091A.18.18,0,0,0,194.748,146.894Z" transform="translate(-167.878 -130.994)"/><path class="e" d="M221.193,142.284a.6.6,0,0,1-.578.6.573.573,0,0,1-.615-.535.6.6,0,0,1,.578-.6.573.573,0,0,1,.615.535Z" transform="translate(-180.228 -129.648)"/><path class="e" d="M221.247,141.171c-.075.075-.535-.257-1.167-.257s-1.118.321-1.188.246.043-.177.246-.326a1.664,1.664,0,0,1,.953-.294,1.605,1.605,0,0,1,.931.3C221.22,140.995,221.284,141.134,221.247,141.171Z" transform="translate(-179.703 -129.087)"/><path class="e" d="M209.143,142.392a.594.594,0,0,1-.578.621.573.573,0,0,1-.615-.535.6.6,0,0,1,.578-.6A.573.573,0,0,1,209.143,142.392Z" transform="translate(-174.626 -129.708)"/><path class="e" d="M209.436,141.4c-.075.08-.535-.257-1.172-.257s-1.113.326-1.183.246.037-.177.246-.326a1.606,1.606,0,0,1,.947-.289,1.563,1.563,0,0,1,.931.3C209.4,141.219,209.468,141.364,209.436,141.4Z" transform="translate(-174.213 -129.194)"/><path class="e" d="M215.623,146.2a4.18,4.18,0,0,1,1.044-.193c.166,0,.321-.048.348-.161a.883.883,0,0,0-.107-.487l-.487-1.252a21.048,21.048,0,0,1-1.07-3.27,22.408,22.408,0,0,1,1.354,3.179l.466,1.258a.953.953,0,0,1,.08.642.4.4,0,0,1-.268.241,1.14,1.14,0,0,1-.278.037A4.459,4.459,0,0,1,215.623,146.2Z" transform="translate(-178.066 -129.226)"/><path class="e" d="M212.234,151.69c.107,0,.107.69.706,1.188s1.338.417,1.343.535-.166.139-.476.145a1.739,1.739,0,0,1-1.129-.391,1.5,1.5,0,0,1-.535-1C212.111,151.856,212.186,151.685,212.234,151.69Z" transform="translate(-176.572 -134.27)"/><path class="e" d="M209.259,136.81c-.064.177-.706.091-1.461.182s-1.365.3-1.466.139c-.043-.075.059-.235.305-.407a2.419,2.419,0,0,1,1.07-.38,2.462,2.462,0,0,1,1.145.134C209.147,136.591,209.286,136.725,209.259,136.81Z" transform="translate(-173.87 -127.128)"/><path class="e" d="M220.982,137.672c-.112.144-.535,0-1.07,0s-.985.1-1.07-.054,0-.219.225-.359a1.573,1.573,0,0,1,1.755.054C220.972,137.447,221.052,137.6,220.982,137.672Z" transform="translate(-179.674 -127.45)"/><path class="e" d="M212.29,122.687a1.536,1.536,0,0,0-.567-1.381,1.1,1.1,0,0,0-1.423.107,1.279,1.279,0,0,0-1.07-1.552c-.685-.043-1.263.476-1.927.653a3.093,3.093,0,0,1-1.953-.225c-.621-.246-1.2-.594-1.825-.824a5.351,5.351,0,0,0-6.85,3.147,2.371,2.371,0,0,0-2.521.953,3.907,3.907,0,0,0-.594,2.745,8.712,8.712,0,0,0,.476,1.878v.161c.048,2.306.305,5.009,1.29,5.025,1.712,0,1.3-3.211,1.3-3.211,2.1-.813,1.322-3.96,1.846-4.436s1.605-1.605,6.02.658a8.562,8.562,0,0,0,5.218.567h.15a3.891,3.891,0,0,0,1.129-.482,2.232,2.232,0,0,0,.931-1.033,1.236,1.236,0,0,0-.241-1.311,2.644,2.644,0,0,0,.61-1.44Z" transform="translate(-167.915 -119.138)"/><path class="e" d="M209.345,140.432a4.652,4.652,0,0,0-.134-.621,2.558,2.558,0,0,0-.953-1.365,2.478,2.478,0,1,0,0,3.971,2.6,2.6,0,0,0,.953-1.365c.112-.391.107-.621.134-.621s0,.054,0,.166a2,2,0,0,1-.048.482,2.585,2.585,0,0,1-.937,1.493,2.676,2.676,0,0,1-2.563.417,2.713,2.713,0,1,1,2.563-4.7,2.6,2.6,0,0,1,.937,1.5,1.975,1.975,0,0,1,.048.482Z" transform="translate(-172.784 -127.775)"/><path class="e" d="M222.352,140.43a2.137,2.137,0,0,0-.134-.621,2.574,2.574,0,0,0-.947-1.365,2.478,2.478,0,1,0,0,3.971,2.612,2.612,0,0,0,.947-1.365c.112-.391.107-.621.134-.621s0,.054,0,.166a2,2,0,0,1-.048.482,2.585,2.585,0,0,1-.936,1.493,2.676,2.676,0,0,1-2.558.417,2.713,2.713,0,0,1,0-5.116,2.676,2.676,0,0,1,2.558.412,2.6,2.6,0,0,1,.937,1.5,1.975,1.975,0,0,1,.048.482Z" transform="translate(-178.833 -127.773)"/><path class="e" d="M215.9,142.224c-.032.075-.466-.054-1.006-.027s-.963.177-1,.107.38-.364.99-.385S215.942,142.16,215.9,142.224Z" transform="translate(-177.39 -129.727)"/><path class="e" d="M201.036,142.364a6.261,6.261,0,0,1-1.825.241,6.326,6.326,0,0,1-1.841-.037,6.009,6.009,0,0,1,1.825-.241A6.363,6.363,0,0,1,201.036,142.364Z" transform="translate(-169.708 -129.895)"/><path class="i" d="M244.524,184.352l3.323,5.988,2.028-16.284a6.523,6.523,0,0,0-.674-3.42,6.787,6.787,0,0,0-.824-1.327,7.2,7.2,0,0,0-1.418-1.333.594.594,0,0,1,.107-1.118c.535-.059,1.98.717,3.12,2.28s1.258-1.445,1.322-2.537.417-4.452.765-4.693c.535-.348,1,.15.91,1.242s-.128,4.372.45,4.394.813-5.544.813-5.544-.139-1.2.535-1.2c1.2,0,.5,5.887.423,6.422-.054.385.573.433.61,0s.118-5.555,1.338-5.566c.942,0-.535,4.848.043,5.935s.738-3.8,1.638-3.773c.332,0,.583.064.086,2.847-.268,1.5-1.258,3.655-1.557,6.577l-.08.755c-.059,3.639-.862,14.6-4.169,22.952a6.764,6.764,0,0,1-11.9,1.2c-2.034-3.066-5.25-11.083-5.25-11.083Z" transform="translate(-187.74 -138.505)"/><path class="j" d="M268.981,180.077a3.029,3.029,0,0,0-.476.123,1.728,1.728,0,0,0-.926.765l-.112.2-.064-.225a2.824,2.824,0,0,0-.444-.888,3.248,3.248,0,0,0-1.536-1.135c-.471-.166-.792-.155-.792-.2a1.568,1.568,0,0,1,.835.059,3.051,3.051,0,0,1,1.664,1.145,2.767,2.767,0,0,1,.46.958h-.177a1.68,1.68,0,0,1,1.07-.781A.808.808,0,0,1,268.981,180.077Z" transform="translate(-200.974 -146.822)"/><path class="k" d="M238.388,182.6l9.445,17.874,1.605-15.8H257.9L254.791,207.2a6.609,6.609,0,0,1-4.458,5.48h0c-3.072,1.033-7.155-.171-8.669-3.034l-5.533-9.419Z" transform="translate(-187.726 -148.639)"/><path class="e" d="M257.859,223.094a3.333,3.333,0,0,1-.631-1.006,8.332,8.332,0,0,1-.535-5.63,3.51,3.51,0,0,1,.439-1.108,10.419,10.419,0,0,0,.717,7.744Z" transform="translate(-197.163 -163.863)"/><g class="l" transform="translate(58.032 51.236)"><path d="M255.93,214.88a4,4,0,0,0-1.648,2.558,9.5,9.5,0,0,0-.059,3.115,1.836,1.836,0,0,0,.235.856.658.658,0,0,0,.771.289.685.685,0,0,0,.342-.631,2.509,2.509,0,0,0-.166-.733,6.24,6.24,0,0,1,.776-5.266" transform="translate(-254.122 -214.88)"/></g><path class="k" d="M177.369,174.041a28.324,28.324,0,0,1,4.442-.851h0a17.777,17.777,0,0,0,10.7,0c.439.059,1.07.112,1.8.2,4.661.535,6.449,1.536,9.8,4.816l-.369,18.864s1.124,21.47,1.07,24.938H172.965l-.048-14.545v-3.96l-10.457,3.832.953-5.5s4.688-18.259,5.426-20.721C169.706,178.129,172.917,174.892,177.369,174.041Z" transform="translate(-153.48 -144.264)"/><path class="k" d="M167.26,223.806l15.289-3.976,4.372,7.112L171.349,233.5a6.261,6.261,0,0,1-2.59.535h0a6.309,6.309,0,0,1-5.828-3.907l-.471-1.156Z" transform="translate(-153.48 -165.945)"/><path class="e" d="M186.2,213.468c-.075,0-.139-2.81-.139-6.272s.064-6.267.139-6.267.145,2.8.145,6.267S186.279,213.468,186.2,213.468Z" transform="translate(-164.451 -157.16)"/><g class="l" transform="translate(19.324 59.048)"><path d="M181.79,237.421a5.314,5.314,0,0,0,2.039,1.9,8.146,8.146,0,0,0,6.331.332,18.11,18.11,0,0,0,5.571-3.3,46.777,46.777,0,0,0,6.2-6.026.658.658,0,0,0,.225-.508c-.054-.332-.535-.375-.846-.326-3.168.5-6.058,2.039-8.948,3.436q-5.153,2.494-10.542,4.485" transform="translate(-181.79 -229.479)"/></g><path class="a" d="M214.86,191.041a.722.722,0,0,1-.059.145l-.2.412c-.091.177-.225.385-.375.637a8.8,8.8,0,0,1-.615.808,9.146,9.146,0,0,1-2.1,1.819,9.542,9.542,0,0,1-3.42,1.338,9.161,9.161,0,0,1-4.436-.305,10.51,10.51,0,0,1-4.329-2.708,10.013,10.013,0,0,1-2.676-4.966,7.814,7.814,0,0,1-.027-3.013,6.652,6.652,0,0,1,1.3-2.82,5.453,5.453,0,0,1,2.526-1.809,3.431,3.431,0,0,1,1.541-.161,2.489,2.489,0,0,1,1.386.669,1.975,1.975,0,0,1,.61,1.391,2.574,2.574,0,0,1-.433,1.418,3.8,3.8,0,0,1-2.36,1.482,10.67,10.67,0,0,1-12.587-7.4,8.1,8.1,0,0,1-.385-2.328.788.788,0,0,1,.027.15l.064.45a11.484,11.484,0,0,0,.4,1.7,10.863,10.863,0,0,0,3.553,5.186,10.623,10.623,0,0,0,3.917,1.932,10.5,10.5,0,0,0,4.988.08,3.58,3.58,0,0,0,2.2-1.381,2.28,2.28,0,0,0,.385-1.268,1.664,1.664,0,0,0-.535-1.2,2.2,2.2,0,0,0-1.236-.594,3.147,3.147,0,0,0-1.418.15,5.239,5.239,0,0,0-2.392,1.718,6.422,6.422,0,0,0-1.242,2.7,7.577,7.577,0,0,0,0,2.906,9.8,9.8,0,0,0,2.569,4.843,10.408,10.408,0,0,0,4.217,2.676,9.033,9.033,0,0,0,4.335.332,9.515,9.515,0,0,0,3.371-1.279,9.413,9.413,0,0,0,2.1-1.755,10.573,10.573,0,0,0,1.338-1.953Z" transform="translate(-165.455 -145.408)"/><path class="a" d="M215.6,231.2a9.676,9.676,0,0,0-.872-1.937,6.663,6.663,0,0,0-4.64-3.115,9.146,9.146,0,0,0-3.944.182,10.982,10.982,0,0,0-2.076.771,7.739,7.739,0,0,0-1.937,1.3,3.548,3.548,0,0,0-1.113,2.087,2.141,2.141,0,0,0,.915,2.141,1.605,1.605,0,0,0,2.242-.342,5.956,5.956,0,0,0,1.07-2.478,9.788,9.788,0,0,0-.353-5.325,9.938,9.938,0,0,0-2.761-4.153,11.4,11.4,0,0,0-3.923-2.3,11.559,11.559,0,0,0-9.461.824c-.6.326-1.044.626-1.349.824l-.337.23-.123.075a10.43,10.43,0,0,1,1.755-1.225,11.431,11.431,0,0,1,5.592-1.568,11.817,11.817,0,0,1,4,.621,11.527,11.527,0,0,1,4.019,2.323,10.275,10.275,0,0,1,2.852,4.254,10.082,10.082,0,0,1,.364,5.48,6.245,6.245,0,0,1-1.113,2.6,1.894,1.894,0,0,1-2.6.391,2.221,2.221,0,0,1-.878-1.07,2.676,2.676,0,0,1-.155-1.333,3.746,3.746,0,0,1,1.183-2.237,8.027,8.027,0,0,1,2-1.338,11.237,11.237,0,0,1,2.141-.776,9.477,9.477,0,0,1,4.04-.155,6.764,6.764,0,0,1,4.7,3.254,7.079,7.079,0,0,1,.642,1.456,3.959,3.959,0,0,1,.107.4.535.535,0,0,1,.016.139Z" transform="translate(-164.86 -164.721)"/><path class="a" d="M177.423,209.859a2.348,2.348,0,0,1-.268.337,6.494,6.494,0,0,1-.835.808,7.84,7.84,0,0,1-1.461.926,8.632,8.632,0,0,1-2.012.685,10.66,10.66,0,0,1-3.832,0,11.287,11.287,0,0,1-1.135-.257c-.262-.08-.407-.128-.4-.15s.6.091,1.563.209a12.008,12.008,0,0,0,3.746-.091,9.3,9.3,0,0,0,1.953-.642,8.719,8.719,0,0,0,1.456-.856C176.968,210.265,177.391,209.826,177.423,209.859Z" transform="translate(-155.814 -161.309)"/><path class="a" d="M172.725,240.31a9.631,9.631,0,0,0-.589-1.664,5.234,5.234,0,0,0-7.171-2.333,9.82,9.82,0,0,0-1.456,1,1.3,1.3,0,0,1,.305-.375,4.7,4.7,0,0,1,1.07-.8,5.266,5.266,0,0,1,7.449,2.424,4.816,4.816,0,0,1,.385,1.263A1.37,1.37,0,0,1,172.725,240.31Z" transform="translate(-153.968 -173.196)"/><path class="a" d="M243.439,217.336a1.867,1.867,0,0,1-.145-.535,9.452,9.452,0,0,1-.2-1.461,11.931,11.931,0,0,1,.054-2.194,12.741,12.741,0,0,1,.615-2.622,12.512,12.512,0,0,1,1.188-2.414,11.511,11.511,0,0,1,1.349-1.734,10.17,10.17,0,0,1,1.07-1.006,2.033,2.033,0,0,1,.439-.31c.037.043-.567.535-1.375,1.45a13.272,13.272,0,0,0-1.279,1.734,12.613,12.613,0,0,0-1.761,4.934,13.018,13.018,0,0,0-.112,2.141C243.332,216.592,243.492,217.336,243.439,217.336Z" transform="translate(-190.952 -159.079)"/><path class="a" d="M267.226,204.813a1.684,1.684,0,0,1-.294.316,3.606,3.606,0,0,1-1.027.594,4.6,4.6,0,0,1-3.81-.294,3.9,3.9,0,0,1-1.52-1.531,5.57,5.57,0,0,1-.589-1.654,7.02,7.02,0,0,1-.144-1.161,1.07,1.07,0,0,1,0-.433c.048,0,.086.61.316,1.552a6.259,6.259,0,0,0,.621,1.568,3.8,3.8,0,0,0,1.434,1.418,4.6,4.6,0,0,0,3.612.348,6.525,6.525,0,0,0,1.4-.722Z" transform="translate(-198.738 -157.029)"/><path class="a" d="M234.946,180.369a1.22,1.22,0,0,1-.385.246,4.131,4.131,0,0,1-1.183.38,4.817,4.817,0,0,1-1.841-.059,5.747,5.747,0,0,1-2.055-.937,5.421,5.421,0,0,1-2.141-3.414,4.757,4.757,0,0,1-.064-1.236,1.381,1.381,0,0,1,.086-.45,11.51,11.51,0,0,0,.171,1.643,5.56,5.56,0,0,0,2.1,3.211,5.753,5.753,0,0,0,1.953.91,4.939,4.939,0,0,0,1.755.112,9.1,9.1,0,0,0,1.6-.407Z" transform="translate(-183.604 -145.059)"/><path class="a" d="M197.261,256.935a25.787,25.787,0,0,0-1.391-2.258,13.834,13.834,0,0,0-4.79-4.121,14.626,14.626,0,0,0-3.28-1.225,12.478,12.478,0,0,0-2.842-.326,25.151,25.151,0,0,0-2.638.241,2.954,2.954,0,0,1,.69-.2,10.836,10.836,0,0,1,1.948-.241,11.874,11.874,0,0,1,2.9.273,14.134,14.134,0,0,1,3.35,1.231,13.207,13.207,0,0,1,4.816,4.254,12.1,12.1,0,0,1,.974,1.7A2.877,2.877,0,0,1,197.261,256.935Z" transform="translate(-162.712 -179.412)"/><path class="e" d="M238.84,197.92c.075,0,.535,7.888,1.022,17.628s.824,17.633.744,17.66-.535-7.888-1.022-17.628S238.759,197.925,238.84,197.92Z" transform="translate(-188.98 -155.76)"/><path class="i" d="M200,214.323a6.561,6.561,0,0,0,2.622-2.344,6.957,6.957,0,0,0,.728-1.4,7.423,7.423,0,0,0,.423-1.91c0-.6.7-.92,1.027-.487s.391,2.087-.375,3.874,1.9.353,2.879-.155,4.078-1.932,4.463-1.75c.567.268.38.942-.61,1.423s-3.853,2.141-3.575,2.676,5.223-2.141,5.223-2.141.974-.738,1.311-.161c.615,1.07-4.816,3.462-5.351,3.682-.364.15-.08.717.305.535s4.875-2.761,5.512-1.7c.492.808-4.468,2.034-5.121,3.088s3.676-1.316,4.115-.535c.161.3.241.535-2.43,1.541-1.434.535-3.81.792-6.5,2.034l-.7.316" transform="translate(-170.931 -160.439)"/><path class="e" d="M178.391,233.111a1.566,1.566,0,0,1,.289-.15l.84-.38,3.147-1.37,10.644-4.533-.064.2-1.423-2.28-3.029-4.816.155.054-9.055,2.868-2.622.813-.706.2-.246.059a.866.866,0,0,1,.235-.1l.69-.246,2.6-.883,9.012-2.981.1-.032.054.086,3.04,4.816,1.423,2.28.086.134-.15.064-10.7,4.447-3.179,1.29-.862.337A1.735,1.735,0,0,1,178.391,233.111Z" transform="translate(-159.923 -165.81)"/><path class="e" d="M179.52,221.992a3.409,3.409,0,0,1,3.607.969,12.1,12.1,0,0,0-1.734-.755A12.619,12.619,0,0,0,179.52,221.992Z" transform="translate(-161.411 -166.871)"/></g><g transform="translate(157.174 145.483)"><path class="h" d="M348.162,181.885l-22.5-39.235a26.137,26.137,0,1,0-5.281,2.906l22.15,39.534a3.236,3.236,0,0,0,4.421,1.233h0a3.239,3.239,0,0,0,1.209-4.437Zm-44.139-37.414a24.105,24.105,0,1,1,29.648-16.827A24.105,24.105,0,0,1,304.024,144.471Z" transform="translate(-284.332 -80.349)"/><path class="a" d="M301.378,171.742a.9.9,0,0,0,.088-.075l.241-.234c.2-.211.537-.5.907-.92a26.234,26.234,0,0,0,2.911-3.766,28.763,28.763,0,0,0,1.626-2.865,29.528,29.528,0,0,0,1.424-3.5,27.137,27.137,0,0,0,.124-17.042,27.734,27.734,0,0,0-2.95-6.41,26.67,26.67,0,0,0-2.855-3.805c-.367-.426-.693-.722-.894-.937l-.237-.237c-.055-.052-.085-.078-.088-.075a.9.9,0,0,0,.075.088l.228.25c.192.221.511.52.868.956a28.149,28.149,0,0,1,2.8,3.825,29.347,29.347,0,0,1,1.551,2.885,30.331,30.331,0,0,1,1.353,3.506,27.266,27.266,0,0,1-.124,16.944,29.923,29.923,0,0,1-1.4,3.486,29.422,29.422,0,0,1-1.594,2.862,28.078,28.078,0,0,1-2.859,3.786c-.364.426-.686.722-.881.943-.1.1-.172.185-.231.244a.782.782,0,0,0-.081.088Z" transform="translate(-241.533 -126.715)"/><path class="a" d="M339.52,116a6.076,6.076,0,0,0,.862.345c.537.2,1.268.494,2.052.872s1.47.768,1.964,1.06a5.729,5.729,0,0,0,.807.459,4.3,4.3,0,0,0-.745-.559,16.707,16.707,0,0,0-1.951-1.1,16.2,16.2,0,0,0-2.088-.833,4.146,4.146,0,0,0-.9-.241Z" transform="translate(-289.133 -116)"/></g><g transform="translate(157.568 242.96)"><g class="m" transform="translate(5.218 0)"><path class="n" d="M281.344,416.837c-.92,1.316-2.719.878-3.548.075a6.669,6.669,0,0,1-1.5-3.082c-.733-2.542-1.472-5.212-.926-7.8a4.319,4.319,0,0,1,1-2.141,2.264,2.264,0,0,1,2.141-.712,3.311,3.311,0,0,1,1.873,1.969,18.613,18.613,0,0,1,1.836,7.974,6.422,6.422,0,0,1-.872,3.7" transform="translate(-275.177 -403.135)"/></g><path class="o" d="M273.354,440.56a7.99,7.99,0,0,0-4.966-.6,4.11,4.11,0,0,0-2.451,1.1,1.756,1.756,0,0,0-.027,2.446,2.307,2.307,0,0,0,1.547.391c1.311,0,2.767-.246,3.816.535.6.45,1,1.2,1.712,1.423a1.7,1.7,0,0,0,1.862-.829,2.911,2.911,0,0,0,.209-2.141A3.248,3.248,0,0,0,273.354,440.56Z" transform="translate(-265.426 -420.179)"/><path class="o" d="M290.568,422.414a4.816,4.816,0,0,1-.771-4.426,8.52,8.52,0,0,1,2.617-3.794,14.075,14.075,0,0,1,4.688-2.761,4.917,4.917,0,0,1,2.1-.359,2.189,2.189,0,0,1,1.766,1.07c.5.936,0,2.076-.487,3.007a36.637,36.637,0,0,1-3.077,4.688,8.316,8.316,0,0,1-3.382,2.9c-1.4.535-2.868.476-3.612-.5" transform="translate(-276.646 -406.823)"/><path class="e" d="M280.833,455.376a2.674,2.674,0,0,1-.086-.6l-.161-1.632c-.075-.69-.177-1.509-.364-2.4a19.219,19.219,0,0,0-.872-2.831,10.557,10.557,0,0,0-1.445-2.558,5.351,5.351,0,0,0-1.83-1.52,5.01,5.01,0,0,0-1.541-.482,2.829,2.829,0,0,1-.594-.086,2.782,2.782,0,0,1,.6,0,4.635,4.635,0,0,1,1.605.417,5.389,5.389,0,0,1,1.932,1.536,10.166,10.166,0,0,1,1.5,2.612,17.172,17.172,0,0,1,.862,2.879,19.951,19.951,0,0,1,.321,2.43c.053.7.07,1.258.08,1.643A2.785,2.785,0,0,1,280.833,455.376Z" transform="translate(-269.384 -421.782)"/><path class="e" d="M283.965,440.08a.941.941,0,0,1,0-.278v-.792c0-.69,0-1.691-.032-2.922-.064-2.467-.278-5.887-.685-9.633s-.963-7.112-1.461-9.526c-.118-.6-.235-1.151-.348-1.605s-.2-.894-.289-1.225l-.182-.771a.9.9,0,0,1-.048-.278,2.268,2.268,0,0,1,.1.262c.059.2.134.455.23.76s.209.744.326,1.22.257,1.017.385,1.605a90.74,90.74,0,0,1,1.536,9.536c.412,3.746.594,7.166.61,9.633,0,1.236,0,2.237-.043,2.927,0,.321-.037.589-.048.8A1.2,1.2,0,0,1,283.965,440.08Z" transform="translate(-272.628 -407.744)"/><path class="e" d="M286.566,435.246a5.28,5.28,0,0,1,0-.835c.032-.535.1-1.306.252-2.248a30.429,30.429,0,0,1,.733-3.28,29.523,29.523,0,0,1,1.37-3.88,20.807,20.807,0,0,1,4.03-6.272,10.511,10.511,0,0,1,.947-.878c.144-.123.273-.246.4-.343l.369-.257a5.079,5.079,0,0,1,.7-.444,24.372,24.372,0,0,0-2.3,2.044,21.789,21.789,0,0,0-3.923,6.245,30.929,30.929,0,0,0-1.381,3.848,32.544,32.544,0,0,0-.776,3.243c-.177.936-.273,1.7-.332,2.232A5.378,5.378,0,0,1,286.566,435.246Z" transform="translate(-275.245 -409.492)"/></g></g></svg>