<svg xmlns="http://www.w3.org/2000/svg" width="253.083" height="176.59" viewBox="0 0 253.083 176.59"><defs><style>.a{fill:#f5f5f5;}.b{fill:#e0e0e0;}.c{fill:#ebebeb;}.d{fill:#2d85f5;}.e{opacity:0.4;}.f{fill:#b78876;}.g{fill:#aa6550;}.h{fill:#263238;}.i{fill:#455a64;}.j{fill:#fafafa;}.k{opacity:0.2;}.l{fill:#fec67d;}.m{fill:#ffbe9d;}.n{fill:#eb996e;}</style></defs><g transform="translate(-30.49 -46.133)"><g transform="translate(30.49 46.133)"><path class="a" d="M659.953,125.56s-3.084-1.882-6.494,5.453a93.879,93.879,0,0,0-4.652,11.545s-.919,1.542-1.989.594-2.583-3.69-4.339-3.129c-1.808.587-2.335,2.649-1.878,5.634s1.214,9.56,1.284,10.154-.24,1.476-1.074.93-5.7-5.575-7.962-3.121.369,10.559.657,11.438.107,1.28-.314,1.52-1.9-1.612-3.321-2.992-3.361-2.723-4.542-1.2-1.358,7.685,4.852,17.455l3.173,4.339,5.376-.494c11.438-1.756,15.961-5.94,16.33-7.833s-1.9-2.454-3.889-2.631-4.354-.077-4.45-.55.089-.852.941-1.232,8.685-3.73,9.05-7.047-6.641-3.656-7.589-3.937-.491-1.085,0-1.42,5.944-4.1,8.486-5.715,3.715-3.365,2.977-5.114c-.738-1.686-3.789-1.022-5.21-1.206s-.86-1.889-.86-1.889a92.151,92.151,0,0,0,5.627-11.094c3.276-7.4-.262-8.486-.262-8.486" transform="translate(-408.453 -78.497)"/><path class="b" d="M665.485,143.72s-.018.055-.063.159-.111.266-.192.461l-.76,1.753c-.664,1.524-1.638,3.723-2.852,6.435-2.428,5.424-5.844,12.884-9.644,21.112s-7.246,15.688-9.7,21.1l-2.9,6.409-.79,1.741c-.092.192-.162.343-.21.45a1.635,1.635,0,0,1-.078.151,1.312,1.312,0,0,1,.059-.159c.048-.111.111-.262.192-.457.177-.41.435-1,.76-1.756.664-1.524,1.638-3.719,2.852-6.431,2.428-5.424,5.844-12.884,9.644-21.115s7.235-15.684,9.692-21.093c1.225-2.7,2.214-4.885,2.9-6.405l.793-1.741c.089-.2.159-.343.21-.454A.934.934,0,0,1,665.485,143.72Z" transform="translate(-414.04 -115.094)"/><path class="b" d="M678.27,175.77a1.528,1.528,0,0,1,.151.369c.089.232.2.576.343,1,.273.852.624,2.033.985,3.346l.911,3.365.28,1.018a1.411,1.411,0,0,1,.085.369,1.526,1.526,0,0,1-.151-.369c-.089-.232-.2-.576-.339-1-.266-.852-.6-2.04-.963-3.354l-.933-3.357-.284-1.015a1.661,1.661,0,0,1-.085-.369Z" transform="translate(-439.269 -135.319)"/><path class="b" d="M687.09,195.6c0-.048,2.391-.878,5.376-1.845s5.42-1.73,5.435-1.682-2.391.878-5.376,1.845S687.1,195.652,687.09,195.6Z" transform="translate(-444.835 -145.608)"/><path class="b" d="M669.72,233.911a1.955,1.955,0,0,1,.4-.033l1.077-.037c.908-.033,2.166-.081,3.549-.188s2.634-.232,3.542-.336l1.07-.122a1.553,1.553,0,0,1,.4-.022,1.845,1.845,0,0,1-.369.092c-.251.048-.616.111-1.066.177-.9.137-2.155.291-3.542.395s-2.649.133-3.564.129c-.454,0-.823,0-1.077-.018A1.532,1.532,0,0,1,669.72,233.911Z" transform="translate(-433.874 -171.54)"/><path class="b" d="M656.6,213.54a1.5,1.5,0,0,1,.221.291c.133.192.325.476.553.83.461.7,1.085,1.686,1.764,2.775s1.288,2.081,1.719,2.8c.218.369.387.657.5.863a1.375,1.375,0,0,1,.166.328,1.268,1.268,0,0,1-.225-.291c-.133-.2-.321-.476-.553-.83-.458-.7-1.081-1.686-1.764-2.778s-1.288-2.081-1.719-2.8c-.214-.369-.369-.657-.5-.86a1.523,1.523,0,0,1-.162-.328Z" transform="translate(-425.594 -159.153)"/><path class="b" d="M637.5,241.2a2.185,2.185,0,0,1,.284.369l.712,1.063c.59.9,1.4,2.151,2.288,3.538s1.679,2.653,2.243,3.571l.664,1.107a2.65,2.65,0,0,1,.221.413,2.237,2.237,0,0,1-.284-.369l-.708-1.063c-.594-.9-1.406-2.155-2.291-3.542s-1.675-2.653-2.243-3.571c-.266-.435-.487-.8-.66-1.107a2.215,2.215,0,0,1-.225-.41Z" transform="translate(-413.542 -176.608)"/><path class="b" d="M654.65,265.507a2.369,2.369,0,0,1,.5-.059l1.365-.1c1.151-.081,2.745-.2,4.5-.369s3.321-.369,4.483-.528l1.354-.181a2.8,2.8,0,0,1,.5-.044,2.493,2.493,0,0,1-.491.114c-.317.063-.779.144-1.347.236-1.144.188-2.727.41-4.483.587s-3.354.277-4.509.325c-.579.022-1.044.037-1.369.037a2.953,2.953,0,0,1-.5-.022Z" transform="translate(-424.364 -191.141)"/><path class="c" d="M65.282,124.537c8.608-5.745,10.7-16.6,10.526-26.413-.033-1.638.177-3.357-.59-4.8s-2.583-2.457-4.084-1.789c-1.236.553-1.8,1.959-2.5,3.118a9.678,9.678,0,0,1-3.944,3.6,3.733,3.733,0,0,1-3.405.251c-1.417-.8-1.557-2.749-1.52-4.376l.2-9.091a15,15,0,0,0-.424-4.841,5.066,5.066,0,0,0-3.158-3.457,3.11,3.11,0,0,0-3.87,1.992,14.786,14.786,0,0,0-.077,2.026,1.679,1.679,0,0,1-1.04,1.594,2.009,2.009,0,0,1-1.8-.771,21.777,21.777,0,0,1-3.841-5.9,30.33,30.33,0,0,0-3.575-6.1,8.957,8.957,0,0,0-5.988-3.435,5.357,5.357,0,0,0-5.534,3.512c-.642,2.276.686,4.63,2.133,6.508a36.578,36.578,0,0,0,7.552,7.294A2.987,2.987,0,0,1,41.6,84.838c.339,1.107-.716,2.151-1.808,2.494a20.678,20.678,0,0,1-3.852.369,3.759,3.759,0,0,0-3.2,1.845c-.7,1.653.683,3.417,2.051,4.579a31.619,31.619,0,0,0,9.224,5.449,10.667,10.667,0,0,1,3.439,1.716,2.986,2.986,0,0,1,.926,3.461,3.146,3.146,0,0,1-3.4,1.232,21.447,21.447,0,0,1-3.594-1.417c-2.254-.878-5.165-.767-6.66,1.144a5.09,5.09,0,0,0-.627,4.542,11.884,11.884,0,0,0,2.435,4.058A31.732,31.732,0,0,0,49.93,123.9c5.224,1.882,10.083,2.435,15.334.627" transform="translate(-30.49 -66.133)"/><path class="b" d="M69.058,126.932c-1.384-4.962-5.165-16.64-7.434-22.137l-1.686-4.058c-.557-1.332-1.107-2.649-1.73-3.907a73.031,73.031,0,0,0-3.985-7.01c-1.38-2.177-2.767-4.191-4.058-6.069s-2.583-3.594-3.793-5.117A58.057,58.057,0,0,0,40.1,71.877c-.8-.738-1.439-1.291-1.878-1.66l-.524-.45c-.114-.092-.177-.137-.177-.137s.052.055.159.155l.487.435c.424.369,1.055.945,1.845,1.693a61.615,61.615,0,0,1,6.2,6.792c1.2,1.527,2.45,3.254,3.76,5.128s2.682,3.9,4.058,6.069a73.224,73.224,0,0,1,3.959,7.01c.616,1.254,1.166,2.583,1.723,3.9s1.107,2.69,1.686,4.058c2.254,5.49,6.047,17.156,7.442,22.1" transform="translate(-34.926 -68.34)"/><path class="b" d="M93.38,112.737a3.69,3.69,0,0,0,.162-.694c.089-.45.2-1.107.325-1.911.255-1.616.531-3.859.83-6.335s.612-4.708.9-6.316c.14-.8.262-1.454.369-1.9a4.236,4.236,0,0,0,.114-.7,3.726,3.726,0,0,0-.207.679c-.122.443-.269,1.107-.432,1.893-.358,1.6-.69,3.841-.989,6.328s-.557,4.675-.756,6.342c-.1.775-.184,1.42-.251,1.919A4.14,4.14,0,0,0,93.38,112.737Z" transform="translate(-70.177 -84.274)"/><path class="b" d="M36.12,131.824a.786.786,0,0,0,.218.037l.627.063c.546.055,1.332.129,2.3.251,1.937.229,4.6.646,7.527,1.232s5.534,1.247,7.416,1.775c.941.258,1.7.487,2.214.642l.605.177a.11.11,0,1,0,.015-.044c-.162-.063-.369-.137-.59-.221-.513-.184-1.266-.443-2.214-.738-1.871-.572-4.49-1.254-7.416-1.845s-5.579-.963-7.538-1.151c-.97-.1-1.764-.148-2.31-.17h-.631A.891.891,0,0,0,36.12,131.824Z" transform="translate(-34.043 -107.584)"/><path class="b" d="M117.42,161.226a1.476,1.476,0,0,0,.144-.255l.369-.738c.317-.657.738-1.616,1.284-2.808,1.055-2.38,2.409-5.715,3.859-9.412s2.775-7.054,3.782-9.453l1.21-2.834c.133-.317.243-.572.328-.771a1.564,1.564,0,0,0,.1-.277,1.047,1.047,0,0,0-.144.255l-.369.738c-.317.657-.756,1.616-1.28,2.8-1.055,2.383-2.413,5.719-3.859,9.416s-2.778,7.04-3.793,9.438l-1.21,2.834-.325.771a1.254,1.254,0,0,0-.1.291Z" transform="translate(-85.347 -109.389)"/><path class="b" d="M41.49,181.22a1.479,1.479,0,0,0,.277.111l.815.277,3,1.007c2.535.849,6.021,2.062,9.87,3.413s7.35,2.538,9.9,3.346c1.273.4,2.31.719,3.025.926l.83.232a1.436,1.436,0,0,0,.3.066,1.576,1.576,0,0,0-.28-.114l-.815-.277-3-1c-2.535-.849-6.021-2.062-9.87-3.413s-7.346-2.542-9.9-3.346c-1.277-.4-2.31-.719-3.029-.926l-.826-.236a1.545,1.545,0,0,0-.3-.066Z" transform="translate(-37.432 -138.758)"/><path class="a" d="M488.15,70.369h46.514l-9.1,6.468v5.4a10.065,10.065,0,0,1-10.139,9.988H486.239A10.065,10.065,0,0,1,476.1,82.239h0a11.958,11.958,0,0,1,12.05-11.869Z" transform="translate(-311.691 -68.806)"/><path class="b" d="M529.582,89.776c0,.052-7.748.1-17.341.1s-17.341-.044-17.341-.1,7.748-.1,17.341-.1S529.582,89.721,529.582,89.776Z" transform="translate(-323.554 -80.992)"/><path class="b" d="M529.582,99.516c0,.052-7.748.1-17.341.1s-17.341-.044-17.341-.1,7.748-.1,17.341-.1S529.582,99.461,529.582,99.516Z" transform="translate(-323.554 -87.138)"/><path class="a" d="M223.35,370.42H168.31l8.966,6.486v12.729a2.656,2.656,0,0,0,2.66,2.656H223.35a2.656,2.656,0,0,0,2.66-2.656V373.076A2.66,2.66,0,0,0,223.35,370.42Z" transform="translate(-117.461 -258.152)"/><path class="b" d="M247.85,394.636c0,.055-8.3.1-18.54.1s-18.54-.041-18.54-.1,8.3-.1,18.54-.1S247.85,394.584,247.85,394.636Z" transform="translate(-144.255 -273.373)"/><path class="b" d="M247.85,407.886c0,.052-8.3.1-18.54.1s-18.54-.044-18.54-.1,8.3-.1,18.54-.1S247.85,407.834,247.85,407.886Z" transform="translate(-144.255 -281.734)"/></g><g transform="translate(163.072 127.684)"><rect class="d" width="93.039" height="81.052" rx="11" transform="translate(9.96 13.987)"/><g class="e" transform="translate(9.96 13.987)"><rect width="93.039" height="81.052" rx="12"/></g><path class="d" d="M660.264,276.98H674.2L659.95,291.233Z" transform="translate(-557.29 -234.739)"/><g class="e" transform="translate(102.66 42.242)"><path d="M660.264,276.98H674.2L659.95,291.233Z" transform="translate(-659.95 -276.98)"/></g><path class="f" d="M389.436,277.974l-5.841-6.641c-1.579-1.579-2.121-2.339-1.8-2.616.421-.369.24-.247,3.52,2.214,0,0-4.649-3.553-3.036-3.575a6.452,6.452,0,0,1,1.919,1.011c-1.151-.978-1.476-1.638-1.251-1.952.369-.546,3.217,1.428,4.527,2.376a31.341,31.341,0,0,1-3.468-2.83c-.494-.664.505-.609,1.317-.332.911.31,5.948,2.882,7.438,3.546a.963.963,0,0,0,1.387-.469,6.094,6.094,0,0,1,2.848-4.007c.635-.2,1.125.616.672,1.206a8.8,8.8,0,0,0-.981,2.206,5.707,5.707,0,0,0-.3,1.893c0,.738.052,1.376.1,1.911l5.339,7.324-8.929,5.165Z" transform="translate(-381.705 -226.97)"/><path class="g" d="M389.465,278.473a10.6,10.6,0,0,1-2.317-1.594,10.82,10.82,0,0,1-2.085-1.889,10.788,10.788,0,0,1,2.317,1.594A10.963,10.963,0,0,1,389.465,278.473Z" transform="translate(-383.822 -233.479)"/><path class="g" d="M391.644,275.413a24.461,24.461,0,0,1-4.918-3.424,12.359,12.359,0,0,1,2.564,1.557A12.149,12.149,0,0,1,391.644,275.413Z" transform="translate(-384.872 -231.585)"/><path class="g" d="M394.263,272.466a21.571,21.571,0,0,1-4.7-3.18,21.569,21.569,0,0,1,4.7,3.18Z" transform="translate(-386.664 -229.878)"/><path class="f" d="M410.205,287l21.281,26.985-4.874,11.345s-5.837-1.291-7.608-3.749-16.345-29.516-16.345-29.516Z" transform="translate(-394.929 -241.062)"/><path class="h" d="M561.263,184.68c1.531,1.328,1.527,3.667,1.35,5.686s-.314,4.317,1.085,5.785c1.155,1.21,3.247,1.738,3.512,3.387a1.9,1.9,0,0,1-3.14,1.723,3.288,3.288,0,0,1-.989,3.719,2.259,2.259,0,0,1-3.372-1.029,1.671,1.671,0,1,1-3.28.6" transform="translate(-491.965 -176.493)"/><path class="h" d="M499.132,190.893a2.019,2.019,0,0,1-3.726-1.553c.35-.767,1.181-1.321,1.262-2.162.1-1.015-.941-1.741-1.845-2.184s-2-1.018-2.1-2.037.782-1.745,1.516-2.4,1.476-1.675,1.007-2.549c-.232-.45-.716-.7-1.029-1.107a2.2,2.2,0,0,1,.553-2.952,4.1,4.1,0,0,1,3.2-.587,29.075,29.075,0,0,1,3.2.974,13.36,13.36,0,0,0,10.641-1.395" transform="translate(-451.76 -169.084)"/><path class="f" d="M511.286,212.957a7.409,7.409,0,0,0,8.7-5.682l5.235-24a10.652,10.652,0,0,0-8.217-12.876l-.546-.081a10.722,10.722,0,0,0-12.009,8.209c-1.166,5.066-2.387,10.677-2.756,13.434-.764,5.708,4.8,7.427,4.8,7.427l-1,4.8a7.409,7.409,0,0,0,5.785,8.766Z" transform="translate(-457.38 -167.354)"/><path class="h" d="M512.054,201.925a.826.826,0,0,0,.664.937.786.786,0,0,0,.945-.609.819.819,0,0,0-.66-.937.79.79,0,0,0-.948.609Z" transform="translate(-463.955 -186.979)"/><path class="h" d="M511.487,199.692c.085.122.767-.247,1.646-.114s1.45.66,1.561.568c.055-.041-.022-.247-.269-.491a2.258,2.258,0,0,0-1.232-.587,2.173,2.173,0,0,0-1.328.221C511.564,199.459,511.446,199.637,511.487,199.692Z" transform="translate(-463.598 -185.557)"/><path class="h" d="M535.243,205.724a.823.823,0,0,0,.664.937.786.786,0,0,0,.945-.612.819.819,0,0,0-.664-.933.782.782,0,0,0-.945.609Z" transform="translate(-478.588 -189.376)"/><path class="h" d="M534.746,203.552c.085.118.767-.247,1.642-.114s1.454.66,1.564.568c.052-.041-.022-.247-.273-.491a2.258,2.258,0,0,0-1.232-.587,2.173,2.173,0,0,0-1.328.221C534.834,203.308,534.7,203.5,534.746,203.552Z" transform="translate(-478.275 -187.993)"/><path class="h" d="M519.917,208.623a5.88,5.88,0,0,0-1.384-.465c-.221-.055-.424-.133-.439-.291a1.159,1.159,0,0,1,.243-.638q.439-.764.911-1.6a31.627,31.627,0,0,0,2.136-4.236,31.262,31.262,0,0,0-2.472,4.059l-.885,1.616a1.328,1.328,0,0,0-.244.863.568.568,0,0,0,.321.369,1.571,1.571,0,0,0,.369.107A5.882,5.882,0,0,0,519.917,208.623Z" transform="translate(-467.575 -187.036)"/><path class="h" d="M535.5,194.513c.052.251.945.266,1.952.539s1.8.675,1.966.483c.074-.092-.037-.339-.336-.616a3.512,3.512,0,0,0-2.985-.779C535.682,194.237,535.48,194.414,535.5,194.513Z" transform="translate(-478.755 -182.419)"/><path class="h" d="M513.357,192.85c.125.221.738.1,1.476.2s1.321.332,1.476.144c.077-.092,0-.306-.229-.535a2.166,2.166,0,0,0-2.4-.273C513.416,192.551,513.3,192.743,513.357,192.85Z" transform="translate(-464.775 -181.202)"/><path class="h" d="M551.31,181.274l.026.03a4.524,4.524,0,0,1,1.24,3.143v.114c0,1.66-.3,3.321-.3,4.962a7.473,7.473,0,0,0,1.358,4.682c.424.535,1.251.978,1.734.5a1.4,1.4,0,0,0,.314-.716c.878-3.878,2.457-7.2,3.051-11.3a3.494,3.494,0,0,0-1.022-3.025c-.767-.738-1.723-1.535-2.745-1.221s-2.516,1.919-3.368,2.583" transform="translate(-488.734 -172.511)"/><path class="f" d="M557.58,211.775c.1-.029,4.084-.587,3.387,3.291s-4.427,2.38-4.427,2.265S557.58,211.775,557.58,211.775Z" transform="translate(-492.034 -193.563)"/><path class="g" d="M560.45,218.472a1.214,1.214,0,0,0,.162.129.69.69,0,0,0,.505.1,1.7,1.7,0,0,0,1.04-1.361,2.275,2.275,0,0,0,0-1,.8.8,0,0,0-.417-.609.347.347,0,0,0-.432.114c-.07.1-.059.181-.081.181s-.07-.077,0-.232a.428.428,0,0,1,.2-.214.52.52,0,0,1,.391-.033.97.97,0,0,1,.6.738,2.328,2.328,0,0,1,.041,1.107,1.785,1.785,0,0,1-1.284,1.5.738.738,0,0,1-.6-.214C560.439,218.564,560.435,218.476,560.45,218.472Z" transform="translate(-494.497 -195.958)"/><path class="h" d="M522.51,169.334c1.188-1.42-1.107-4.04-2.952-4.929s-4.5-.321-6.508.033a10.656,10.656,0,0,1-3.811.369,8.589,8.589,0,0,1-2.376-.992,6.43,6.43,0,0,0-2.413-.845,2.376,2.376,0,0,0-2.24,1,1.489,1.489,0,0,0,.694,2.133,1.933,1.933,0,1,0-1.029,3.468c-.491-.5-1.443.07-1.476.771a2.043,2.043,0,0,0,1.107,1.668,7.361,7.361,0,0,0,5.206.683c1.764-.317,3.453-.974,5.21-1.336s4.7-1.048,6.291-.21c1.166.612,1.808,2.214,2.549,2a2.409,2.409,0,0,0,1.476-1.572,7.009,7.009,0,0,0,.247-2.214" transform="translate(-456.229 -162.781)"/><path class="i" d="M569.482,200.05a.6.6,0,0,0,.2-.089,1.155,1.155,0,0,0,.421-.48,1.693,1.693,0,0,0,.125-1,2.014,2.014,0,0,0-.694-1.136,5.056,5.056,0,0,0-1.4-.815,9.078,9.078,0,0,1-1.634-.79,3.261,3.261,0,0,1-1.184-1.539,5.393,5.393,0,0,1-.343-2.1c.037-1.476.446-2.859.546-4.162a5.5,5.5,0,0,0-.62-3.369,3.125,3.125,0,0,0-1.845-1.384,2.156,2.156,0,0,0-.631-.063.816.816,0,0,0-.218.033,3.218,3.218,0,0,1,.83.1,3.114,3.114,0,0,1,1.741,1.384,5.308,5.308,0,0,1,.561,3.28c-.129,1.273-.524,2.656-.568,4.173a5.534,5.534,0,0,0,.369,2.169,3.439,3.439,0,0,0,1.265,1.62,9.32,9.32,0,0,0,1.671.79,5.054,5.054,0,0,1,1.369.767,1.937,1.937,0,0,1,.679,1.055,1.6,1.6,0,0,1-.089.948A1.269,1.269,0,0,1,569.482,200.05Z" transform="translate(-495.612 -175.51)"/><path class="i" d="M502.118,170.756a.669.669,0,0,0-.17-.092,1.432,1.432,0,0,0-.214-.085,1.845,1.845,0,0,0-.314-.077,2.335,2.335,0,0,0-1.955.6h0a3.129,3.129,0,0,0-.694,2.31,3.845,3.845,0,0,0,1.424,2.631,5.951,5.951,0,0,0,3.225,1.3,13.149,13.149,0,0,0,3.83-.232,17.311,17.311,0,0,0,5.645-2.184,17.182,17.182,0,0,1,2.332-1.206,6.2,6.2,0,0,1,2.214-.454,6.608,6.608,0,0,1,3.18.738,11.06,11.06,0,0,1,1.029.653,4.522,4.522,0,0,0-.992-.738,6.508,6.508,0,0,0-3.221-.823,6.353,6.353,0,0,0-2.273.439,17.4,17.4,0,0,0-2.358,1.206,17.422,17.422,0,0,1-5.593,2.144,13.065,13.065,0,0,1-3.774.24,5.811,5.811,0,0,1-3.132-1.24,3.708,3.708,0,0,1-1.387-2.513,3,3,0,0,1,.635-2.214h0a2.291,2.291,0,0,1,1.867-.616,3.989,3.989,0,0,1,.7.221Z" transform="translate(-455.568 -167.527)"/><path class="i" d="M513.716,162.49a2.214,2.214,0,0,0,.136.871,3.66,3.66,0,0,0,1.528,1.845,4.579,4.579,0,0,0,1.546.642,6.56,6.56,0,0,0,1.919.1A25.551,25.551,0,0,0,523.1,165a8.609,8.609,0,0,1,4.258-.244,5.534,5.534,0,0,1,2.893,1.878,5.752,5.752,0,0,1,1.107,2.081c.148.542.166.86.192.856a1.766,1.766,0,0,0,0-.229,4.576,4.576,0,0,0-.107-.646,5.563,5.563,0,0,0-1.074-2.151,5.641,5.641,0,0,0-2.952-1.967,8.6,8.6,0,0,0-4.35.229,26.524,26.524,0,0,1-4.225.959,6.5,6.5,0,0,1-1.871-.077,4.594,4.594,0,0,1-1.505-.6,3.69,3.69,0,0,1-1.527-1.749A5.256,5.256,0,0,1,513.716,162.49Z" transform="translate(-465.009 -162.49)"/><path class="g" d="M518.641,227.907a4.2,4.2,0,0,0,.3,1.107,1.354,1.354,0,0,0,.83.738,1.21,1.21,0,0,0,1.107-.336,1.959,1.959,0,0,0,.52-1.085c.059-.369,0-.83-.369-.948a.944.944,0,0,0-.454,0l-2.044.369" transform="translate(-468.048 -203.423)"/><path class="h" d="M518.487,229.283a2.878,2.878,0,0,0,1.018.192,1.446,1.446,0,0,0,.952-.435,1.535,1.535,0,0,0,.41-1.192,1.347,1.347,0,0,0-.074-.325c-.048-.1-.033-.092-.118-.1a1.287,1.287,0,0,0-.328.018l-.343.026c-.443.033-.841.059-1.177.077a3.512,3.512,0,0,1-1.107-.022,3.753,3.753,0,0,1,1.074-.221c.332-.048.738-.1,1.17-.148l.339-.037a3.322,3.322,0,0,1,.369-.033.461.461,0,0,1,.269.1.538.538,0,0,1,.151.225,1.6,1.6,0,0,1,.1.413,1.812,1.812,0,0,1-.528,1.45,1.649,1.649,0,0,1-1.17.454,1.528,1.528,0,0,1-.8-.225C518.561,229.39,518.476,229.3,518.487,229.283Z" transform="translate(-467.537 -203.249)"/><path class="g" d="M514.2,249.3a13.089,13.089,0,0,0,7.339.369s-2.73,2.291-7.711,1.413Z" transform="translate(-465.082 -217.271)"/><path class="j" d="M504.379,384.456a4.276,4.276,0,0,1-.509-.391c-.159-.129-.369-.288-.594-.457s-.5-.369-.812-.572-.638-.424-1.018-.635-.782-.432-1.214-.653a18.935,18.935,0,0,0-6.021-1.8c-.483-.052-.941-.111-1.373-.122s-.834-.03-1.2-.026-.7.022-.992.033-.542.033-.738.055a3.887,3.887,0,0,1-.638.044,4.85,4.85,0,0,1,.631-.118,7.371,7.371,0,0,1,.738-.089c.292-.022.624-.063,1-.063s.775-.022,1.21,0,.9.059,1.387.1a20.18,20.18,0,0,1,3.121.642,19.549,19.549,0,0,1,2.952,1.177c.432.229.849.439,1.214.675s.712.446,1.015.66.568.421.8.6.424.347.576.487A3.886,3.886,0,0,1,504.379,384.456Z" transform="translate(-449.583 -299.53)"/><path class="d" d="M430.239,301.4l3.025-13.109c1.159-4.929,2.531-9.667,4.837-10.227v1.524l-.989,37.453s-6.165,7.01-14.02,3.121c-2.457-1.221-6.94-9.8-6.94-9.8s-10.43-18.61-9.995-19.455a110.719,110.719,0,0,1,7.457-9.467Z" transform="translate(-397.127 -235.42)"/><path class="d" d="M513.626,266.632c6.014,1.151,12.784,4.66,15.9,13.651,1.136,3.284,9.416,27.491,9.416,27.491l-14.12-.3-2.28-4.985,1.107,8.1.956,11.548-35.656.6.251-17.4.343-34.608s.4-.524,6.549-3.915C499.908,264.714,513.626,266.632,513.626,266.632Z" transform="translate(-449.382 -227.704)"/><g class="k" transform="translate(67.786 62.076)"><path d="M565.445,330.74c.587,7.305,1.258,9.563,1.845,16.869a6.489,6.489,0,0,0,.369,2.029,2.214,2.214,0,0,0,1.476,1.347c1.04.21,2.391.963,2.682-.055l-.985-7.036a13.878,13.878,0,0,0-.974-2.97c-2.188-4.859-3-5.143-4.427-10.183" transform="translate(-565.43 -330.74)"/></g><path class="d" d="M508.3,263.661l.118-.76,1.14-7.291a.849.849,0,0,1,.908-.716l14.039,1.173a1.612,1.612,0,0,1,1.476,1.727l-.314,4.236-4.383,5.719-6.313.985" transform="translate(-461.592 -220.8)"/><path class="h" d="M489.026,315.81c.055,0,.1,5.711.1,12.755s-.041,12.755-.1,12.755-.1-5.711-.1-12.755S488.974,315.81,489.026,315.81Z" transform="translate(-449.369 -259.242)"/><path class="h" d="M568.114,323.695s0-.026-.044-.081a1.49,1.49,0,0,1-.118-.251l-.428-.97-1.539-3.583-5.014-11.847c-.974-2.317-1.9-4.523-2.741-6.534a12.3,12.3,0,0,1-.908-2.952,16.285,16.285,0,0,1-.244-2.693,10.862,10.862,0,0,1,.561-3.856l.114-.306.129-.258a2.268,2.268,0,0,1,.221-.391l.155-.229a.654.654,0,0,1,.059-.074,7.588,7.588,0,0,0-.609,1.284,11.156,11.156,0,0,0-.494,3.83,14.081,14.081,0,0,0,1.177,5.59l2.756,6.527,4.962,11.869,1.476,3.6.395.985.1.258A.452.452,0,0,1,568.114,323.695Z" transform="translate(-492.369 -242.747)"/><path class="j" d="M513.471,271.49a4.631,4.631,0,0,1-.41.369,6.343,6.343,0,0,1-1.347.786,10.108,10.108,0,0,1-2.369.664,29.368,29.368,0,0,1-3.247.321c-1.21.052-2.531.03-3.948.055a18.271,18.271,0,0,0-4.464.546,8.228,8.228,0,0,0-4.2,2.476,5.8,5.8,0,0,0-1.166,2.3,4.929,4.929,0,0,0,.044,2.638,4.189,4.189,0,0,0,.616,1.181,3.11,3.11,0,0,0,1,.841,2.169,2.169,0,0,0,1.232.258,1.686,1.686,0,0,0,1.085-.553,2.952,2.952,0,0,0,.546-2.335,3.834,3.834,0,0,0-.369-1.151,5.625,5.625,0,0,0-.653-.993,6.951,6.951,0,0,0-3.785-2.24,8.039,8.039,0,0,0-3.87.044,10.612,10.612,0,0,0-2.952,1.266,14.109,14.109,0,0,0-1.963,1.476c-.505.443-.863.826-1.107,1.077l-.273.3a.682.682,0,0,1-.1.1,12.014,12.014,0,0,1,1.439-1.524,13.278,13.278,0,0,1,1.955-1.5,10.593,10.593,0,0,1,2.988-1.306,8.117,8.117,0,0,1,3.94-.066,7.087,7.087,0,0,1,3.885,2.284,5.786,5.786,0,0,1,.671,1,3.993,3.993,0,0,1,.369,1.207,3.873,3.873,0,0,1-.022,1.288,2.557,2.557,0,0,1-.565,1.2,1.871,1.871,0,0,1-1.2.616,2.335,2.335,0,0,1-1.343-.277,3.32,3.32,0,0,1-1.059-.893,4.373,4.373,0,0,1-.649-1.24,5.091,5.091,0,0,1-.044-2.741,5.9,5.9,0,0,1,1.207-2.38,8.442,8.442,0,0,1,4.295-2.527,18.339,18.339,0,0,1,4.512-.524c1.42-.022,2.741,0,3.944-.033a29.547,29.547,0,0,0,3.236-.291,10.464,10.464,0,0,0,2.361-.627,6.743,6.743,0,0,0,1.35-.738c.148-.1.247-.192.321-.243A.769.769,0,0,1,513.471,271.49Z" transform="translate(-444.851 -231.274)"/><path class="j" d="M575.625,311.711a.711.711,0,0,1-.159.026c-.1,0-.255.026-.454.033a14.615,14.615,0,0,1-1.671-.041c-.7-.052-1.539-.159-2.461-.288s-1.933-.266-3-.321a11.58,11.58,0,0,0-2.985.225,7.527,7.527,0,0,0-2.28.867,6.564,6.564,0,0,0-1.682,1.476.522.522,0,0,1,.081-.137,2.644,2.644,0,0,1,.266-.369,5.083,5.083,0,0,1,1.265-1.107,7.416,7.416,0,0,1,2.31-.922,11.323,11.323,0,0,1,3.036-.244c1.081.055,2.1.2,3.018.339s1.749.258,2.446.325,1.269.1,1.66.1A4.979,4.979,0,0,1,575.625,311.711Z" transform="translate(-494.804 -256.14)"/><path class="j" d="M521.621,340.434a7.436,7.436,0,0,0-2.118-.181,11.491,11.491,0,0,0-2.461.439c-.941.255-1.992.627-3.173.992a13.062,13.062,0,0,1-3.977.69,11.394,11.394,0,0,1-4.531-.941,11.273,11.273,0,0,1-4.132-3,8.6,8.6,0,0,1-1.476-2.295,5.246,5.246,0,0,1-.424-2.771,4.033,4.033,0,0,1,1.31-2.468,2.874,2.874,0,0,1,1.243-.635,2.911,2.911,0,0,1,2.557.69,2.213,2.213,0,0,1,.664,1.147,2.24,2.24,0,0,1-.1,1.3,3.113,3.113,0,0,1-.69,1.059,5.5,5.5,0,0,1-2.026,1.288,6.185,6.185,0,0,1-1.107.306c-.184.033-.369.074-.55.1l-.55.066a11.979,11.979,0,0,1-4.025-.284,12.544,12.544,0,0,1-3.11-1.2,11.484,11.484,0,0,1-2.07-1.432l-.369-.321-.3-.306a5.118,5.118,0,0,1-.458-.494l-.266-.317a.767.767,0,0,1-.081-.111.919.919,0,0,1,.1.1l.277.3a5.482,5.482,0,0,0,.469.48l.306.3.369.314a11.652,11.652,0,0,0,2.07,1.391,12.544,12.544,0,0,0,3.088,1.159,11.855,11.855,0,0,0,3.981.258l.539-.066c.181-.03.369-.07.546-.1a5.972,5.972,0,0,0,1.081-.3,5.354,5.354,0,0,0,1.959-1.251,2.953,2.953,0,0,0,.649-1,2.114,2.114,0,0,0,.092-1.192,2.31,2.31,0,0,0-1.723-1.653,2.583,2.583,0,0,0-2.439.557,3.812,3.812,0,0,0-1.243,2.35,5.118,5.118,0,0,0,.406,2.668,8.568,8.568,0,0,0,1.432,2.247,11.12,11.12,0,0,0,4.058,2.952,11.316,11.316,0,0,0,4.461.945,12.972,12.972,0,0,0,3.94-.664c1.177-.369,2.214-.716,3.184-.963a11.407,11.407,0,0,1,2.483-.41,7.347,7.347,0,0,1,.919,0c.262.041.487.059.664.1l.4.1A.6.6,0,0,1,521.621,340.434Z" transform="translate(-449.665 -268.322)"/><path class="j" d="M479.407,338.461c-.033,0-.2-.369-.561-.989a9.63,9.63,0,0,0-3.937-3.671c-.627-.317-1.04-.457-1.029-.491a1.107,1.107,0,0,1,.3.07,6.008,6.008,0,0,1,.786.3,8.623,8.623,0,0,1,2.3,1.539,8.486,8.486,0,0,1,1.694,2.192,6.434,6.434,0,0,1,.369.76A1.149,1.149,0,0,1,479.407,338.461Z" transform="translate(-439.871 -270.285)"/><path class="j" d="M444.928,349.948a.524.524,0,0,1-.059-.092c-.033-.063-.089-.162-.151-.277-.133-.244-.325-.609-.561-1.081a25.294,25.294,0,0,1-1.69-4.158,13.435,13.435,0,0,1-.528-3.059,9.535,9.535,0,0,1,.07-1.734,10.349,10.349,0,0,1,.435-1.789,7.8,7.8,0,0,1,2.166-3.276,5.3,5.3,0,0,1,3.937-1.384,2.922,2.922,0,0,1,1.941.945,2.383,2.383,0,0,1,.55,2.018,1.793,1.793,0,0,1-.524.911,2.137,2.137,0,0,1-.9.491,2.656,2.656,0,0,1-1.93-.232,4.405,4.405,0,0,1-1.406-1.2,6.464,6.464,0,0,1-.889-1.5,6.641,6.641,0,0,1-.483-3.055,6.272,6.272,0,0,1,.738-2.454,6.405,6.405,0,0,1,1.158-1.55,6.02,6.02,0,0,1,.948-.771c.114-.078.21-.125.273-.162l.1-.048s-.118.085-.347.243a6.711,6.711,0,0,0-.919.79,6.565,6.565,0,0,0-1.107,1.546,6.2,6.2,0,0,0-.69,2.413,6.479,6.479,0,0,0,.5,2.989,6.376,6.376,0,0,0,.871,1.457,4.268,4.268,0,0,0,1.358,1.147,2.472,2.472,0,0,0,1.8.214,1.734,1.734,0,0,0,1.288-1.269,2.214,2.214,0,0,0-.509-1.845,2.73,2.73,0,0,0-1.815-.878,5.117,5.117,0,0,0-3.793,1.332,7.686,7.686,0,0,0-2.121,3.2,9.988,9.988,0,0,0-.439,1.753,9.559,9.559,0,0,0-.077,1.7,13.52,13.52,0,0,0,.5,3.029,26.975,26.975,0,0,0,1.623,4.162l.528,1.107c.055.118.1.214.137.288S444.928,349.948,444.928,349.948Z" transform="translate(-419.708 -265.982)"/><path class="j" d="M424.035,301.79a.88.88,0,0,1,.033.151,4.5,4.5,0,0,1,.055.45,9.432,9.432,0,0,1,0,1.657,10.53,10.53,0,0,1-5.948,8.645,9.486,9.486,0,0,1-1.546.594c-.184.059-.336.085-.435.111s-.155.03-.155.022a4.725,4.725,0,0,1,.568-.2,11.636,11.636,0,0,0,1.509-.646,10.8,10.8,0,0,0,5.874-8.538,12.016,12.016,0,0,0,.063-1.638,4.679,4.679,0,0,1-.018-.605Z" transform="translate(-403.372 -250.395)"/><path class="j" d="M592.806,345.147a5.394,5.394,0,0,0-1.424,1.3c-.369.476-.738,1.107-1.155,1.771a13.656,13.656,0,0,1-1.575,2.085,13.282,13.282,0,0,1-3.782,2.845,11.085,11.085,0,0,1-1.321.564,2.89,2.89,0,0,1-.509.148,2.821,2.821,0,0,1,.48-.218c.31-.137.76-.328,1.288-.616a14.2,14.2,0,0,0,3.69-2.852,14.023,14.023,0,0,0,1.568-2.048,19.253,19.253,0,0,1,1.2-1.764,4.66,4.66,0,0,1,1.059-.978,2.312,2.312,0,0,1,.343-.188C592.762,345.158,592.806,345.14,592.806,345.147Z" transform="translate(-508.757 -277.754)"/><path class="h" d="M526.99,268.184a.587.587,0,0,1-.17.044l-.491.089c-.428.07-1.048.162-1.812.266-1.535.207-3.66.45-6.018.624a29.905,29.905,0,0,1-3.321.118,9.417,9.417,0,0,1-2.69-.461,5.975,5.975,0,0,1-1.642-.83,4.049,4.049,0,0,1-.391-.314c-.081-.081-.122-.122-.118-.129s.192.148.55.369a6.585,6.585,0,0,0,1.642.76,9.559,9.559,0,0,0,2.656.413,32.847,32.847,0,0,0,3.321-.133c2.35-.173,4.475-.391,6.01-.564l1.819-.207a4.662,4.662,0,0,1,.653-.044Z" transform="translate(-462.879 -228.813)"/><path class="f" d="M559.722,384.627a9.914,9.914,0,0,1-9.633,11.807l-27.948-.31.738-9.05,23.93-3.594" transform="translate(-470.326 -301.945)"/><path class="f" d="M499.193,390.329a25.875,25.875,0,0,1-3.188-1.35,10.419,10.419,0,0,0-4.907-.952l-6.663.339a3.162,3.162,0,0,0,1.107,1.476c.7.369,4.878.487,4.878.487l-.214.218A4.8,4.8,0,0,1,486.885,392h-.638a6.193,6.193,0,0,1-1.391-.273l-1.642-.664c-.5-.221-1.022-.188-1.24.314s-.052,1.077,1.306,1.76c.756.369,3.568,1.354,3.568,1.354a6.615,6.615,0,0,0,.166,1.188c.122.41,1.225.819,1.225.819a14.7,14.7,0,0,0,.981,1.756,10.029,10.029,0,0,0,2.2.76,9.478,9.478,0,0,0,5.25-.041l2.538-.76v-7.748" transform="translate(-444.929 -304.806)"/><path class="g" d="M498.331,406.478a7.553,7.553,0,0,1-3.361-.885c0-.044.738.236,1.671.476S498.335,406.422,498.331,406.478Z" transform="translate(-453.18 -315.896)"/><path class="g" d="M500.4,411.383a1.7,1.7,0,0,1-.937-.07,1.731,1.731,0,0,1-.841-.413,5.562,5.562,0,0,1,.885.255A6,6,0,0,1,500.4,411.383Z" transform="translate(-455.484 -319.248)"/><path class="g" d="M499.205,392.66a2.831,2.831,0,0,1-.513.55,8.216,8.216,0,0,1-1.454,1.107,5.726,5.726,0,0,1-1.7.657,2.453,2.453,0,0,1-.738.081,9.716,9.716,0,0,0,2.369-.882,11.329,11.329,0,0,0,1.457-1.044A4.2,4.2,0,0,1,499.205,392.66Z" transform="translate(-453.073 -307.738)"/><path class="d" d="M529.459,378.72l-.679,10.235H555.1a9.832,9.832,0,0,0,5.073-1.406h0a9.844,9.844,0,0,0,4.59-10.331,30.285,30.285,0,0,0-1.7-5.678l-13.238,2.181.424,1.646Z" transform="translate(-474.516 -294.41)"/><path class="h" d="M558.2,379.573a2.155,2.155,0,0,1-.266.059l-.771.14-2.845.472-9.357,1.476-9.368,1.435-2.841.413-.775.1a2.389,2.389,0,0,1-.273.022,1.31,1.31,0,0,1,.269-.063l.767-.137,2.833-.476,9.357-1.476,9.386-1.446,2.841-.413.775-.1A1.254,1.254,0,0,1,558.2,379.573Z" transform="translate(-476.365 -299.477)"/><path class="j" d="M557.773,399.583c-.048,0,.159-.738.184-1.944a8.39,8.39,0,0,0-.041-.981,9.233,9.233,0,0,0-.162-1.107,10.308,10.308,0,0,0-.856-2.428,11.109,11.109,0,0,0-1.439-2.14l-.369-.432c-.125-.14-.262-.262-.387-.387-.247-.255-.509-.457-.738-.653-.941-.738-1.609-1.107-1.586-1.14a2.847,2.847,0,0,1,.469.24,4.957,4.957,0,0,1,.531.321c.2.14.439.277.672.476a8.5,8.5,0,0,1,.76.642c.129.125.273.244.4.369l.4.435a10.823,10.823,0,0,1,1.476,2.166,10.219,10.219,0,0,1,.856,2.479,8.264,8.264,0,0,1,.148,1.14,6.993,6.993,0,0,1,0,1,6.474,6.474,0,0,1-.074.823,4.1,4.1,0,0,1-.107.609A3.118,3.118,0,0,1,557.773,399.583Z" transform="translate(-489.408 -305.031)"/><path class="j" d="M594.759,395.637a5.533,5.533,0,0,1-1.221-.144,6.319,6.319,0,0,1-1.365-.483,5.42,5.42,0,0,1-1.539-1.144,4.9,4.9,0,0,1-1.133-2.029,5.46,5.46,0,0,1-.2-1.291,5.02,5.02,0,0,1,.111-1.376,4.058,4.058,0,0,1,.546-1.354,3.062,3.062,0,0,1,1.107-1.055,2.745,2.745,0,0,1,1.546-.369,2.063,2.063,0,0,1,1.443.738,2.022,2.022,0,0,1,.487,1.553,1.845,1.845,0,0,1-.908,1.3,4.325,4.325,0,0,1-2.907.4,6.069,6.069,0,0,1-5.132-5.815,4.359,4.359,0,0,1,.1-1.225,10.245,10.245,0,0,0-.03,1.221,6.271,6.271,0,0,0,1.052,3.107,6.021,6.021,0,0,0,4.029,2.557,4.166,4.166,0,0,0,2.782-.369,1.66,1.66,0,0,0,.819-1.162,1.926,1.926,0,0,0-1.76-2.085,2.55,2.55,0,0,0-1.435.328,3.32,3.32,0,0,0-1.568,2.28,4.838,4.838,0,0,0-.115,1.336,5.3,5.3,0,0,0,.181,1.251,4.742,4.742,0,0,0,1.077,1.981,5.383,5.383,0,0,0,1.476,1.14,6.48,6.48,0,0,0,1.336.505C594.32,395.6,594.762,395.611,594.759,395.637Z" transform="translate(-510.366 -301.857)"/></g><g transform="translate(45.359 59.569)"><path class="l" d="M165.471,114.47H99.543A14.529,14.529,0,0,0,85.013,129v23.495H70.79l14.223,14.223V182.69a14.529,14.529,0,0,0,14.529,14.529h65.928A14.529,14.529,0,0,0,180,182.69V129A14.529,14.529,0,0,0,165.471,114.47Z" transform="translate(-70.79 -110.073)"/><path class="h" d="M247.382,119.237c-.417,1.081.3,2.258,1.107,3.092a6.4,6.4,0,0,1,2.029,2.752,22.442,22.442,0,0,1-.055,2.9,13.786,13.786,0,0,0,.922,2.822,9.255,9.255,0,0,1-.162,5.313,9.766,9.766,0,0,1-1.978,3.915,5.217,5.217,0,0,1-3.867,1.845,1.528,1.528,0,0,1-1.144-.413,1.845,1.845,0,0,1-.328-1.015,98.928,98.928,0,0,1,0-22.359" transform="translate(-179.634 -112.357)"/><path class="h" d="M239.143,185.15a5.937,5.937,0,0,1,5.922,6.136,6.847,6.847,0,0,1,4.911,7.652,25.424,25.424,0,0,0-.76,3.217,14.9,14.9,0,0,0,.587,3.553,11.194,11.194,0,0,1-.642,6.405c-.505,1.221-1.45,2.483-2.771,2.52a2.73,2.73,0,0,1-2.214-1.3,6.866,6.866,0,0,1-.893-2.52c-.572-2.885-.738-5.848-1.535-8.678s-2.347-5.619-4.9-7.054c-1.413-.8-3.11-1.173-4.236-2.343a4.6,4.6,0,0,1-.83-4.76,6.066,6.066,0,0,1,3.616-3.376" transform="translate(-172.174 -154.328)"/><path class="h" d="M191.3,112.077c-.037-1.372,1.229-2.431,2.505-2.952s2.7-.694,3.833-1.476a19.089,19.089,0,0,0,2.538-2.583,8.445,8.445,0,0,1,14.2,3.874A5.542,5.542,0,0,1,213,114.5c-1.786,1.505-4.427,1.17-6.726.7s-4.881-.93-6.792.417a9.792,9.792,0,0,0-2.52,3.35,5.986,5.986,0,0,1-2.918,2.926c-1.332.461-3.143-.336-3.2-1.741" transform="translate(-146.553 -102.551)"/><path class="m" d="M203.237,123.753a2.3,2.3,0,0,0-2.048,2.332h0l1.369,30.992c.059,3.66,5.409,5.715,9.327,5.623h0c3.959-.092,4.084-2.033,4.136-5.516.081-5.815.074-8,.077-7.966s5-.841,6.021-7.379c.505-3.243.332-8.563.048-12.913-.255-3.915-2.859-8.711-6.759-8.29Z" transform="translate(-153.077 -113.947)"/><path class="h" d="M252.148,153.023a.837.837,0,0,1-.8.845.8.8,0,0,1-.863-.738.834.834,0,0,1,.8-.845.8.8,0,0,1,.863.738Z" transform="translate(-184.183 -133.934)"/><path class="h" d="M249.28,149.169c-.1.111-.738-.369-1.638-.369s-1.561.458-1.66.347c-.048-.048.059-.247.347-.457a2.284,2.284,0,0,1,1.325-.41,2.214,2.214,0,0,1,1.306.417C249.235,148.914,249.331,149.121,249.28,149.169Z" transform="translate(-181.337 -131.408)"/><path class="h" d="M228.7,153.023a.838.838,0,0,1-.8.845.8.8,0,0,1-.863-.738.834.834,0,0,1,.8-.845.8.8,0,0,1,.863.738Z" transform="translate(-169.385 -133.934)"/><path class="h" d="M225.345,149.673c-.1.111-.738-.369-1.638-.369s-1.561.458-1.657.347c-.048-.048.055-.247.343-.458a2.3,2.3,0,0,1,1.325-.413,2.214,2.214,0,0,1,1.306.421C225.283,149.426,225.379,149.625,225.345,149.673Z" transform="translate(-166.235 -131.724)"/><path class="h" d="M239.126,156.45a6.056,6.056,0,0,1,1.476-.266c.229-.026.446-.074.487-.229a1.206,1.206,0,0,0-.155-.683l-.686-1.749a29.777,29.777,0,0,1-1.535-4.575,30.025,30.025,0,0,1,1.9,4.427l.657,1.76a1.354,1.354,0,0,1,.122.9.583.583,0,0,1-.369.339,1.439,1.439,0,0,1-.369.052A5.848,5.848,0,0,1,239.126,156.45Z" transform="translate(-176.75 -131.83)"/><path class="n" d="M226.644,194.2a16.6,16.6,0,0,1-8.744-2.313s2.129,4.479,8.659,3.852Z" transform="translate(-163.623 -158.928)"/><path class="n" d="M234.208,174.115a1.62,1.62,0,0,0-1.476-.6,1.476,1.476,0,0,0-1.022.55.937.937,0,0,0-.066,1.074,1.081,1.081,0,0,0,1.181.3,3.372,3.372,0,0,0,1.147-.69.982.982,0,0,0,.258-.266.3.3,0,0,0,0-.336" transform="translate(-172.209 -147.325)"/><path class="h" d="M232.422,171c.148,0,.151.97.989,1.66s1.878.583,1.885.738c0,.063-.232.192-.672.2a2.431,2.431,0,0,1-1.575-.542,2.122,2.122,0,0,1-.764-1.395C232.245,171.232,232.355,171,232.422,171Z" transform="translate(-172.695 -145.746)"/><path class="h" d="M224.971,145.757c-.089.247-.989.133-2.044.262s-1.911.421-2.051.2c-.063-.1.085-.336.428-.572a3.586,3.586,0,0,1,3.121-.369C224.827,145.45,225.023,145.642,224.971,145.757Z" transform="translate(-165.492 -129.387)"/><path class="h" d="M248.754,142.069c-.159.2-.778,0-1.527,0s-1.376.14-1.52-.074c-.066-.1.033-.306.31-.5a2.214,2.214,0,0,1,2.454.07C248.754,141.759,248.831,141.969,248.754,142.069Z" transform="translate(-181.158 -126.913)"/><path class="h" d="M194.3,142.891a5.789,5.789,0,0,0,6.892-6.387c-.2-1.6-1.066-3.232-.509-4.752.738-2,3.546-2.62,4.291-4.623.432-1.162.044-2.524.535-3.664a4.359,4.359,0,0,1,2.69-2.085,11.252,11.252,0,0,0,3.2-1.387,2.51,2.51,0,0,0,.9-3.073,61.8,61.8,0,0,0-14.256,3.464,5.524,5.524,0,0,0-2.815,1.823,5.78,5.78,0,0,0-.576,3.5c.273,5.859-.62,11.345-.347,17.2" transform="translate(-148.697 -111.619)"/><path class="i" d="M187.614,136.434a.369.369,0,0,1-.107-.033,1.353,1.353,0,0,1-.3-.148,2.166,2.166,0,0,1-.812-.959,3.217,3.217,0,0,1-.214-1.981,6.305,6.305,0,0,1,1.184-2.372,17.391,17.391,0,0,0,1.793-2.634,4.059,4.059,0,0,0,.432-1.682,5.6,5.6,0,0,0-.369-1.815,5.512,5.512,0,0,1-.387-1.97,4.427,4.427,0,0,1,2.121-3.564,5.077,5.077,0,0,1,2.151-.612,9.051,9.051,0,0,0,2.151-.369,2.808,2.808,0,0,0,1.513-1.361,10.434,10.434,0,0,0,.716-1.926,10.422,10.422,0,0,1,.738-1.845,6.977,6.977,0,0,1,2.446-2.749,5.291,5.291,0,0,1,3.1-.8,3.981,3.981,0,0,1,2.439,1,3.852,3.852,0,0,1,1.088,1.675,3.1,3.1,0,0,1,.151,1.254,1.893,1.893,0,0,1-.074.435,3.769,3.769,0,0,0,.037-.439,3.265,3.265,0,0,0-.184-1.229,3.83,3.83,0,0,0-3.464-2.561,5.165,5.165,0,0,0-3,.8,6.818,6.818,0,0,0-2.376,2.693,10.16,10.16,0,0,0-.716,1.845,10.516,10.516,0,0,1-.738,1.959,3.354,3.354,0,0,1-.66.871,2.8,2.8,0,0,1-.952.579,9.08,9.08,0,0,1-2.214.391,4.87,4.87,0,0,0-2.074.587,4.236,4.236,0,0,0-2.033,3.4,5.416,5.416,0,0,0,.369,1.911,5.649,5.649,0,0,1,.387,1.874,4.236,4.236,0,0,1-.458,1.749,17.833,17.833,0,0,1-1.826,2.645,6.184,6.184,0,0,0-1.188,2.313,3.129,3.129,0,0,0,.173,1.926,2.214,2.214,0,0,0,.767.963C187.466,136.382,187.617,136.419,187.614,136.434Z" transform="translate(-143.564 -106.999)"/><path class="i" d="M241.57,105.22a.605.605,0,0,1,.255.077,2.6,2.6,0,0,1,.616.369,3.162,3.162,0,0,1,.646,4.32,2.8,2.8,0,0,1-.48.535c-.133.111-.214.159-.221.148a9.173,9.173,0,0,0,.587-.738,3.184,3.184,0,0,0-.616-4.143,8.4,8.4,0,0,0-.786-.568Z" transform="translate(-178.56 -104.235)"/><path class="i" d="M261.686,206.174a5.488,5.488,0,0,0,.188-.694,3.2,3.2,0,0,0-.321-1.878,4.357,4.357,0,0,0-2.059-1.919,8.57,8.57,0,0,0-1.6-.572c-.576-.148-1.184-.269-1.793-.469a4.059,4.059,0,0,1-1.649-.9,2.752,2.752,0,0,1-.779-1.564c-.1-.55-.133-1.07-.255-1.535a3.011,3.011,0,0,0-.594-1.173,3.391,3.391,0,0,0-1.579-1.074c-.439-.133-.7-.133-.7-.155a.95.95,0,0,1,.188,0,3.068,3.068,0,0,1,.535.085,3.346,3.346,0,0,1,1.66,1.059,3.118,3.118,0,0,1,.646,1.221c.133.483.173,1.011.277,1.542a2.553,2.553,0,0,0,.738,1.476,3.926,3.926,0,0,0,1.575.852c.594.192,1.2.317,1.782.469a8.243,8.243,0,0,1,1.623.583,4.428,4.428,0,0,1,2.1,2.018,3.181,3.181,0,0,1,.273,1.952,2.31,2.31,0,0,1-.166.513.891.891,0,0,1-.089.162Z" transform="translate(-184.221 -160.41)"/><path class="h" d="M189.553,146.434c-3.321-.885-6.162-4.121-7.32-7.342a23.817,23.817,0,0,1-.86-10.146c.214-2.468.649-5.08,2.288-6.94,2.472-2.8,5.165-4.236,8.884-4.118" transform="translate(-140.468 -112.226)"/><path class="a" d="M209.149,204.057l-3.081-.775a1.753,1.753,0,0,0,.612-2.147,2.823,2.823,0,0,0-2.354-1.745L190.284,197.8a1.107,1.107,0,0,0-1.177.694,4.449,4.449,0,0,0-.063,3.911h-.066l-2.708.539-4.59,40.489,30.062-1.406Z" transform="translate(-140.767 -162.654)"/><path class="h" d="M219.375,211.859a3.176,3.176,0,0,1-.564.111c-.369.059-.9.122-1.553.188a36.289,36.289,0,0,1-10.29-.513c-.649-.129-1.17-.247-1.527-.343a3,3,0,0,1-.55-.162,3.227,3.227,0,0,1,.564.092c.369.07.889.17,1.539.28a42.6,42.6,0,0,0,10.253.509c.657-.044,1.188-.092,1.557-.129A3.651,3.651,0,0,1,219.375,211.859Z" transform="translate(-155.413 -171.076)"/><path class="b" d="M207.32,224.731a11.039,11.039,0,0,1,1.052-1.749,10.916,10.916,0,0,1,1.214-1.642,10.9,10.9,0,0,1-1.055,1.749A10.758,10.758,0,0,1,207.32,224.731Z" transform="translate(-156.947 -177.513)"/><path class="b" d="M229.27,227.026a21.137,21.137,0,0,1-2.52-3.136,10.732,10.732,0,0,1,1.336,1.509A10.4,10.4,0,0,1,229.27,227.026Z" transform="translate(-169.208 -179.122)"/><path class="b" d="M220.156,239.392a11.36,11.36,0,0,1-.454-2.014,10.629,10.629,0,0,1-.262-2.048,21.893,21.893,0,0,1,.716,4.062Z" transform="translate(-164.595 -186.341)"/><path class="b" d="M235.359,247.2a16.233,16.233,0,0,1-1.7,1.815,15.916,15.916,0,0,1-1.845,1.679,16.2,16.2,0,0,1,1.7-1.815A16.784,16.784,0,0,1,235.359,247.2Z" transform="translate(-172.401 -193.831)"/><path class="b" d="M209.069,260.1a8.556,8.556,0,0,1-3.2-3.391c.052-.033.616.852,1.505,1.786S209.106,260.051,209.069,260.1Z" transform="translate(-156.032 -199.831)"/><path class="b" d="M217.128,280.34c0,.055-.841.325-1.815.845s-1.686,1.066-1.723,1.018a5.369,5.369,0,0,1,1.634-1.192,5.254,5.254,0,0,1,1.9-.672Z" transform="translate(-160.903 -214.744)"/><path class="b" d="M231.405,273.111a3.628,3.628,0,0,1-.587-.631c-.339-.406-.793-.985-1.266-1.646s-.871-1.277-1.147-1.734a3.666,3.666,0,0,1-.406-.76,4.238,4.238,0,0,1,.52.686l1.192,1.7,1.214,1.675A4.059,4.059,0,0,1,231.405,273.111Z" transform="translate(-169.997 -207.172)"/><path class="b" d="M230.973,293.59a10.544,10.544,0,0,1-2.214.517,10.7,10.7,0,0,1-2.269.225,17.863,17.863,0,0,1,2.24-.413A19.106,19.106,0,0,1,230.973,293.59Z" transform="translate(-169.044 -223.106)"/><path class="b" d="M215.442,203.949c-.026,0,.151-.221.3-.612a3.254,3.254,0,0,0,.162-1.6,6.531,6.531,0,0,0-.476-1.575,2.977,2.977,0,0,1-.251-.649,2.184,2.184,0,0,1,.369.594,5.114,5.114,0,0,1,.542,1.6,3,3,0,0,1-.225,1.686,1.192,1.192,0,0,1-.424.557Z" transform="translate(-161.907 -163.737)"/><path class="b" d="M231.1,203.32a3.361,3.361,0,0,1,.594,2.538c-.055,0-.063-.587-.229-1.284S231.062,203.35,231.1,203.32Z" transform="translate(-171.952 -166.141)"/><path class="m" d="M298.239,212.663,312.223,188.1l1.686-4.261s4.361-9.371,4.664-10.331c.35-1.107.967-1.2,1.365-1.04.62.247.819,1.17.546,2.125-.1.328-1.789,5.479-1.789,5.479A12.37,12.37,0,0,1,320.14,179c1.074-.738,3.04-.7,4.863-.052s2.273.992,2.055,1.708a.952.952,0,0,1-.587.579,1.845,1.845,0,0,1-1.347.03c-2.93-1-4.228.325-4.228.325l-.218.557s2.214-.7,3.453.291a1.844,1.844,0,0,1,.457.531,2.424,2.424,0,0,1,.9,4.081,1.007,1.007,0,0,1-1.107.28,1.236,1.236,0,0,1-.417-.483,2.128,2.128,0,0,0-.2-.277l-.834,1.476s-2.055,3.21-2.793,4.712l-9.63,25.653a6.789,6.789,0,0,1-8.855,3.929h0a6.792,6.792,0,0,1-3.409-9.678Z" transform="translate(-213.76 -146.636)"/><path class="m" d="M340.27,206.017a1.406,1.406,0,0,0,1.62-.28c.443-.384.738-.911,1.166-1.328,1.243-1.243,3.321-1.361,4.512-2.664.166-.181.314-.458.17-.657s-.41-.162-.631-.118l-5.722,1.133" transform="translate(-240.844 -164.636)"/><path class="n" d="M341.408,201.871a2.453,2.453,0,0,1,.605-.184c.395-.1.97-.229,1.679-.369l2.494-.528.738-.151a1.166,1.166,0,0,1,.874.03.494.494,0,0,1,.184.52.977.977,0,0,1-.221.421,3.771,3.771,0,0,1-.646.568,22.252,22.252,0,0,1-2.83,1.369,4.226,4.226,0,0,0-1.085.738c-.3.284-.528.609-.771.885a2.059,2.059,0,0,1-1.516.852c-.439,0-.62-.218-.605-.221a1.715,1.715,0,0,0,.6.092,2,2,0,0,0,1.343-.874,11.879,11.879,0,0,1,.756-.93,4.46,4.46,0,0,1,1.14-.819,23.237,23.237,0,0,0,2.778-1.365,3.741,3.741,0,0,0,.583-.513c.162-.181.218-.4.1-.461a1.164,1.164,0,0,0-.624.018l-.738.137-2.509.461c-.716.125-1.3.221-1.7.28a2.037,2.037,0,0,1-.635.044Z" transform="translate(-240.868 -164.404)"/><path class="n" d="M360.36,195.658a2.38,2.38,0,0,1,.657-.885,1.845,1.845,0,0,1,1.107-.369,4.767,4.767,0,0,1,1.476.243,7.5,7.5,0,0,0,1.5.339,2.413,2.413,0,0,0,1.254-.192.956.956,0,0,0,.535-.671.6.6,0,0,0,0-.314c-.022,0-.022.111-.078.3a.9.9,0,0,1-.517.553,2.457,2.457,0,0,1-1.177.133,8.116,8.116,0,0,1-1.454-.369,4.715,4.715,0,0,0-1.527-.236,1.948,1.948,0,0,0-1.192.443,1.689,1.689,0,0,0-.5.7C360.352,195.544,360.345,195.655,360.36,195.658Z" transform="translate(-253.518 -160.14)"/><path class="n" d="M356.527,177.33a6.265,6.265,0,0,0-.347,1.022c-.218.708-.476,1.55-.764,2.479s-.572,1.764-.8,2.468a5.88,5.88,0,0,0-.306,1.033,5.244,5.244,0,0,0,.45-.981c.244-.62.553-1.476.863-2.454s.55-1.845.7-2.505a5.14,5.14,0,0,0,.2-1.063Z" transform="translate(-249.704 -149.74)"/><path class="n" d="M362.51,202.356a1.191,1.191,0,0,0,.339,0,1,1,0,0,1,.8.214.542.542,0,0,1,.129.517,2.781,2.781,0,0,1-.262.649,1.21,1.21,0,0,0-.137.849,1.037,1.037,0,0,0,.657.66,1.166,1.166,0,0,0,.919-.092,1.436,1.436,0,0,0,.609-.594,4.749,4.749,0,0,0,.406-1.328,2.719,2.719,0,0,0,0-.933.605.605,0,0,0-.129-.317c-.018,0,.029.118.048.328a3.258,3.258,0,0,1-.077.9,5.127,5.127,0,0,1-.428,1.258,1.155,1.155,0,0,1-1.284.579.819.819,0,0,1-.524-.517,1.018,1.018,0,0,1,.114-.7,3.05,3.05,0,0,0,.258-.7.7.7,0,0,0-.2-.653,1.051,1.051,0,0,0-.922-.192,1.018,1.018,0,0,0-.317.085Z" transform="translate(-254.879 -165.295)"/><path class="n" d="M368.942,204.491a.508.508,0,0,0-.063.3.933.933,0,0,0,.428.719,1.247,1.247,0,0,0,1.243,0,2.033,2.033,0,0,0,.937-1.2,2.458,2.458,0,0,0,0-1.52,2.346,2.346,0,0,0-.683-1.033,2.214,2.214,0,0,0-.712-.428.675.675,0,0,0-.3-.066,3.992,3.992,0,0,1,.908.605,2.313,2.313,0,0,1,.583,2.376,1.9,1.9,0,0,1-.83,1.088,1.107,1.107,0,0,1-1.066.03.9.9,0,0,1-.428-.6A2.724,2.724,0,0,1,368.942,204.491Z" transform="translate(-258.898 -164.847)"/><path class="n" d="M353.205,211.2a.882.882,0,0,0-.494-.151,2.029,2.029,0,0,0-1.284.306l.159.107a5.929,5.929,0,0,0,.1-.738,4.643,4.643,0,0,0-.369-2.494,11.508,11.508,0,0,1,.159,2.476,6.548,6.548,0,0,1-.092.7l-.044.24.2-.137a2.132,2.132,0,0,1,1.162-.347C353.013,211.173,353.2,211.225,353.205,211.2Z" transform="translate(-247.817 -169.239)"/><path class="n" d="M364.29,192.558c-.059,0,.022.443.413.782s.83.369.83.306-.35-.17-.686-.469S364.349,192.536,364.29,192.558Z" transform="translate(-255.991 -159.349)"/><path class="d" d="M246,258.45l14.629.144-2.454-10.615.823,2a10.076,10.076,0,0,0,9.323,6.254h0c4.627,0,7.826-3.442,9.781-7.634,4.575-9.8,8.984-25.58,8.984-25.58l-8.918-7.837C271.712,227.4,265.647,238,265.647,238s-1.753-5.324-3.107-10.076-1.343-7.246-3.42-9.615c-3.2-3.645-7.748-4.549-11.984-5.641l-.159,19.717L246,258.45" transform="translate(-181.356 -172.041)"/><path class="d" d="M164.624,242.648l26.638,5.165,1.3,10.235H151.714a8.043,8.043,0,0,1-8.117-8.678c.587-7.46,1.225-16.647,1.712-20.532a26.469,26.469,0,0,1,3.014-8.855c2.062-3.881,8.936-8.855,14.961-9.113l1.14,25.373" transform="translate(-116.719 -170.905)"/><g class="e" transform="translate(26.853 39.987)"><path d="M246,258.45l14.629.144-2.454-10.615.823,2a10.076,10.076,0,0,0,9.323,6.254h0c4.627,0,7.826-3.442,9.781-7.634,4.575-9.8,8.984-25.58,8.984-25.58l-8.918-7.837C271.712,227.4,265.647,238,265.647,238s-1.753-5.324-3.107-10.076-1.343-7.246-3.42-9.615c-3.2-3.645-7.748-4.549-11.984-5.641l-.159,19.717L246,258.45" transform="translate(-208.209 -212.028)"/><path d="M164.624,242.686l24.026,4.405a2.516,2.516,0,0,1,2,1.952l1.9,9.065H151.714a8.043,8.043,0,0,1-8.117-8.678c.587-7.46,1.225-16.647,1.712-20.532a26.469,26.469,0,0,1,3.014-8.855c2.062-3.881,8.936-8.855,14.961-9.113l1.14,25.373" transform="translate(-143.572 -210.93)"/></g><path class="h" d="M181.907,255.222a1.039,1.039,0,0,1,0-.243q0-.271,0-.7V251.7c0-2.166-.041-5.165-.207-8.46-.085-1.653-.192-3.225-.306-4.649a19.071,19.071,0,0,0-.535-3.749,5.369,5.369,0,0,0-1.173-2.214A8.367,8.367,0,0,0,179,232a2.856,2.856,0,0,1,.756.565,5.2,5.2,0,0,1,1.251,2.24,18.508,18.508,0,0,1,.576,3.785c.125,1.428.236,3,.321,4.653.17,3.321.188,6.305.151,8.486-.022,1.085-.052,1.963-.077,2.583l-.041.7A.924.924,0,0,1,181.907,255.222Z" transform="translate(-139.076 -184.24)"/><path class="h" d="M218.075,301.6a4.057,4.057,0,0,0-.97-.786,6.132,6.132,0,0,0-1.361-.542c-.55-.159-1.2-.28-1.907-.424-2.848-.583-6.778-1.391-11.131-2.214s-8.316-1.476-11.183-1.933l-3.4-.542-.922-.155a2.009,2.009,0,0,1-.321-.066,1.9,1.9,0,0,1,.325.03l.93.118c.8.107,1.97.269,3.405.483,2.874.428,6.84,1.063,11.2,1.878s8.287,1.642,11.124,2.254c.712.155,1.358.288,1.911.457a5.878,5.878,0,0,1,1.369.583,2.952,2.952,0,0,1,.738.59,1.479,1.479,0,0,1,.155.188A.339.339,0,0,1,218.075,301.6Z" transform="translate(-144.048 -223.958)"/><path class="h" d="M175.609,294.94c0,.033-.491.148-1.251.458a11.088,11.088,0,0,0-1.291.635,11.555,11.555,0,0,0-1.435,1.011,11.292,11.292,0,0,0-1.225,1.24,10.421,10.421,0,0,0-.849,1.159c-.435.7-.635,1.17-.668,1.155a1.384,1.384,0,0,1,.114-.343,7.5,7.5,0,0,1,.435-.882,9.782,9.782,0,0,1,.83-1.2,9.5,9.5,0,0,1,2.73-2.291,8.793,8.793,0,0,1,1.325-.609,6.834,6.834,0,0,1,.945-.277A1.23,1.23,0,0,1,175.609,294.94Z" transform="translate(-132.696 -223.958)"/><path class="h" d="M276.426,268.829a1.584,1.584,0,0,1-.055-.255c-.03-.184-.07-.428-.118-.738-.1-.638-.24-1.561-.395-2.7-.31-2.284-.686-5.449-1-8.954s-.505-6.685-.609-8.991c-.052-1.151-.081-2.085-.1-2.73v-.738a1.383,1.383,0,0,1,0-.258,1.108,1.108,0,0,1,.03.258l.048.738c.041.664.092,1.59.159,2.723.137,2.3.35,5.479.664,8.98s.672,6.667.948,8.954c.137,1.129.251,2.048.332,2.712.033.306.063.55.085.738A1.052,1.052,0,0,1,276.426,268.829Z" transform="translate(-199.116 -191.471)"/><path class="h" d="M300.784,288.193a2.65,2.65,0,0,1-.214-.243,7.082,7.082,0,0,1-.491-.738,9.722,9.722,0,0,1-1.31-5.593,6.219,6.219,0,0,1,.118-.874,1.229,1.229,0,0,1,.081-.314c.033,0-.037.458-.063,1.2a11,11,0,0,0,1.291,5.534C300.544,287.8,300.813,288.171,300.784,288.193Z" transform="translate(-214.641 -214.801)"/><path class="j" d="M164.188,251.926a.639.639,0,0,1-.137.029,3.437,3.437,0,0,1-.4.041,6.091,6.091,0,0,1-1.476-.118,10.512,10.512,0,0,1-2.1-.657c-.764-.317-1.575-.738-2.424-1.147a18.234,18.234,0,0,0-2.461-1.018,8.349,8.349,0,0,0-2.118-.417,6.87,6.87,0,0,0-1.981.225.45.45,0,0,1,.129-.059,2.581,2.581,0,0,1,.369-.129,5.062,5.062,0,0,1,1.476-.17,8.047,8.047,0,0,1,2.169.369,16.846,16.846,0,0,1,2.487,1.026c.852.421,1.657.834,2.409,1.155a11.279,11.279,0,0,0,2.059.686A9.177,9.177,0,0,0,164.188,251.926Z" transform="translate(-121.463 -194.653)"/><path class="j" d="M191.5,255.35a13.16,13.16,0,0,1-2.169.465,12.4,12.4,0,0,1-2.214.277,13.158,13.158,0,0,1,2.169-.465,12.366,12.366,0,0,1,2.214-.277Z" transform="translate(-144.2 -198.974)"/><path class="j" d="M161.529,276.81a2.817,2.817,0,0,1-.535.232c-.351.137-.863.321-1.5.528a38.715,38.715,0,0,1-5.1,1.262c-1.011.177-1.981.306-2.867.395a11.632,11.632,0,0,1-2.369.063,4.058,4.058,0,0,1-1.535-.439,2.434,2.434,0,0,1-.369-.236.575.575,0,0,1-.114-.1,4.892,4.892,0,0,0,.513.273,4.231,4.231,0,0,0,1.516.369,12.2,12.2,0,0,0,2.335-.1c.882-.1,1.845-.232,2.852-.41a46.911,46.911,0,0,0,5.092-1.2c.642-.192,1.159-.369,1.516-.469A3.968,3.968,0,0,1,161.529,276.81Z" transform="translate(-118.97 -212.517)"/><path class="j" d="M191.792,281.936a21.137,21.137,0,0,1-4.022.066,21.123,21.123,0,0,1,4.022-.066Z" transform="translate(-144.61 -215.699)"/><path class="j" d="M147.21,306.872a.738.738,0,0,1,.041-.2c.037-.148.089-.328.148-.553l.111-.4c.048-.144.111-.3.17-.461a11.216,11.216,0,0,1,.458-1.107l.3-.631c.107-.221.243-.435.369-.664a16.3,16.3,0,0,1,.908-1.406,16.814,16.814,0,0,1,5.745-5,16.1,16.1,0,0,1,1.52-.7c.247-.092.476-.2.708-.273l.668-.21a10.471,10.471,0,0,1,1.166-.3c.173-.037.332-.077.48-.1l.413-.055.568-.07a.68.68,0,0,1,.2,0,.807.807,0,0,1-.2.048l-.561.107-.406.07-.476.118a11.459,11.459,0,0,0-1.147.325l-.657.221c-.229.077-.458.184-.7.28a16.459,16.459,0,0,0-1.5.712,18.793,18.793,0,0,0-3.118,2.162,19,19,0,0,0-2.583,2.786c-.332.48-.66.93-.911,1.384-.129.225-.266.435-.369.653l-.31.62a11.061,11.061,0,0,0-.48,1.107c-.063.162-.129.314-.181.454l-.129.391-.181.542A.782.782,0,0,1,147.21,306.872Z" transform="translate(-119.015 -223.825)"/><path class="j" d="M187.667,296.92a6.642,6.642,0,0,0-1.513,1.9,9.173,9.173,0,0,0-.849,2.505,25.994,25.994,0,0,0-.369,3.243,23.293,23.293,0,0,1-.369,3.265,9.033,9.033,0,0,1-.926,2.527,5.56,5.56,0,0,1-1.107,1.42,3.122,3.122,0,0,1-.387.306c-.092.063-.144.1-.148.089a6.478,6.478,0,0,0,1.542-1.882,9.2,9.2,0,0,0,.871-2.494,24.008,24.008,0,0,0,.369-3.243,23.954,23.954,0,0,1,.369-3.269,9,9,0,0,1,.9-2.531,5.72,5.72,0,0,1,1.107-1.439,3.691,3.691,0,0,1,.369-.31.659.659,0,0,1,.14-.092Z" transform="translate(-140.969 -225.207)"/><path class="j" d="M214.4,314.634c-.052,0,0-3.18.137-7.1s.277-7.1.328-7.1,0,3.18-.137,7.1S214.448,314.637,214.4,314.634Z" transform="translate(-161.4 -227.428)"/><path class="j" d="M240.428,317.148a2.435,2.435,0,0,1-.162-.461,5.589,5.589,0,0,1-.151-.553c-.048-.218-.114-.465-.155-.738a13.112,13.112,0,0,1-.2-1.97,13.84,13.84,0,0,1,.738-4.778,13.288,13.288,0,0,1,.778-1.823c.122-.255.258-.469.369-.66a4.894,4.894,0,0,1,.31-.483,2.19,2.19,0,0,1,.291-.391c.033.018-.369.59-.852,1.6a14.63,14.63,0,0,0-1.476,6.534,15.181,15.181,0,0,0,.151,1.952C240.258,316.473,240.465,317.137,240.428,317.148Z" transform="translate(-177.418 -230.489)"/><path class="j" d="M176.833,224.231c0,.03-.583-.225-1.542-.535a17.514,17.514,0,0,0-7.748-.686c-1,.137-1.6.291-1.612.258a1.653,1.653,0,0,1,.417-.137,10.7,10.7,0,0,1,1.173-.255,15.688,15.688,0,0,1,7.814.69,11.961,11.961,0,0,1,1.107.454A1.8,1.8,0,0,1,176.833,224.231Z" transform="translate(-130.828 -178.349)"/><path class="j" d="M258.515,268.413a10.04,10.04,0,0,1-1.369-.022c-.845-.033-2.011-.078-3.3-.107s-2.454-.048-3.3-.055a10.261,10.261,0,0,1-1.369-.048,1.653,1.653,0,0,1,.369-.044c.236,0,.579-.033,1-.044.845-.026,2.011-.033,3.3,0s2.457.1,3.321.17c.421.033.76.063,1,.092a1.634,1.634,0,0,1,.343.059Z" transform="translate(-183.362 -207.001)"/><path class="j" d="M283.158,265.21c0,.033-.461.192-1.181.546a11.548,11.548,0,0,0-4.612,4.11c-.435.675-.646,1.125-.675,1.107a1.06,1.06,0,0,1,.118-.332,7.509,7.509,0,0,1,.443-.852,10.245,10.245,0,0,1,2.014-2.439,10.429,10.429,0,0,1,2.653-1.723,7.848,7.848,0,0,1,.9-.339A1.352,1.352,0,0,1,283.158,265.21Z" transform="translate(-200.722 -205.197)"/><path class="j" d="M262.987,233.039a5.493,5.493,0,0,0-1.874.262,12.6,12.6,0,0,0-1.893.841,15.339,15.339,0,0,1-2.339,1.052,9.531,9.531,0,0,1-4.623.3,8.3,8.3,0,0,1-1.361-.369,2.45,2.45,0,0,1-.476-.207,18.944,18.944,0,0,0,1.845.443,9.91,9.91,0,0,0,4.542-.35,16.685,16.685,0,0,0,2.321-1.026,11.675,11.675,0,0,1,1.93-.812,4.347,4.347,0,0,1,1.4-.2,2.634,2.634,0,0,1,.369.037C262.942,233.02,262.99,233.031,262.987,233.039Z" transform="translate(-184.145 -184.85)"/><path class="j" d="M259.53,299.576a1.927,1.927,0,0,1-.428.2c-.14.059-.314.129-.52.2s-.439.155-.7.221a14.392,14.392,0,0,1-1.882.391,15.277,15.277,0,0,1-2.347.122,15.778,15.778,0,0,1-2.335-.262,14.051,14.051,0,0,1-1.845-.505c-.262-.081-.487-.181-.686-.262s-.369-.159-.509-.225a2.214,2.214,0,0,1-.417-.229c0-.033.624.262,1.657.587a15.4,15.4,0,0,0,1.845.457,15.206,15.206,0,0,0,4.627.14,15.484,15.484,0,0,0,1.867-.347C258.9,299.8,259.519,299.543,259.53,299.576Z" transform="translate(-182.529 -226.66)"/><path class="j" d="M296.784,300.43a.755.755,0,0,1-.144-.118,4.855,4.855,0,0,1-.369-.369,8.786,8.786,0,0,1-1.166-1.564,12.748,12.748,0,0,1-1.646-6.18,24.872,24.872,0,0,1,.838-6.372c.2-.8.369-1.439.505-1.878.063-.2.114-.369.155-.505s.059-.177.066-.173a.619.619,0,0,1-.029.181c-.03.14-.07.31-.118.517-.111.476-.262,1.107-.446,1.893a26.678,26.678,0,0,0-.771,6.331,13.064,13.064,0,0,0,1.553,6.106,9.826,9.826,0,0,0,1.107,1.583C296.611,300.234,296.8,300.415,296.784,300.43Z" transform="translate(-211.305 -216.593)"/><path class="j" d="M315.964,283.918a7.28,7.28,0,0,0-1.952-1.107,15.712,15.712,0,0,0-2.361-.616,26.2,26.2,0,0,1-2.952-.675,12.116,12.116,0,0,1-4.675-2.811,11.141,11.141,0,0,1-1.107-1.243c-.122-.155-.2-.284-.262-.369s-.085-.133-.077-.137a4.658,4.658,0,0,1,.4.458,12.824,12.824,0,0,0,1.14,1.192,12.519,12.519,0,0,0,4.638,2.727,28.338,28.338,0,0,0,2.918.686,15.121,15.121,0,0,1,2.376.66,5.649,5.649,0,0,1,1.454.812,2.916,2.916,0,0,1,.339.3C315.934,283.874,315.971,283.915,315.964,283.918Z" transform="translate(-217.058 -212.611)"/><path class="j" d="M329.98,253.7a2.756,2.756,0,0,1-.395-.343c-.122-.114-.269-.255-.454-.41s-.369-.339-.62-.517a16.928,16.928,0,0,0-1.712-1.214,17.182,17.182,0,0,0-4.708-2.014,17.732,17.732,0,0,0-2.062-.4c-.3-.048-.565-.066-.8-.089s-.443-.041-.609-.048a2.983,2.983,0,0,1-.52-.048,2.513,2.513,0,0,1,.52-.026,9.853,9.853,0,0,1,1.428.059,15.994,15.994,0,0,1,2.085.369,17.908,17.908,0,0,1,2.465.826,17.511,17.511,0,0,1,2.295,1.21,15.864,15.864,0,0,1,1.708,1.258,7.051,7.051,0,0,1,.605.546,5.9,5.9,0,0,1,.432.435A2.477,2.477,0,0,1,329.98,253.7Z" transform="translate(-226.854 -194.702)"/><path class="j" d="M254.06,216.541a2.753,2.753,0,0,1-.7.336,12.7,12.7,0,0,1-1.789.553,12.858,12.858,0,0,1-1.845.3,2.582,2.582,0,0,1-.775,0c0-.059,1.17-.155,2.583-.491S254.038,216.486,254.06,216.541Z" transform="translate(-183.217 -174.481)"/><path class="m" d="M276.846,329.536a1.026,1.026,0,0,1-1.129,1.3h0a1.022,1.022,0,0,1-.841-.738l-.314-1.159h.048a1.074,1.074,0,0,1-1.2,1.266h0c-.483,0-.9-.7-1.04-1.077h0a2.007,2.007,0,0,1-1.874-.9l-2.166-3.38-4.011-2.933,2.428-8.667,8.63,5.586c.339.266.391.369.93.874l5.571,5.125a2.057,2.057,0,0,1-2.044,0c-.878-.351-4.723-2.952-4.723-2.952l1.734,7.619" transform="translate(-192.916 -235.512)"/><path class="n" d="M278.259,338.07a1.764,1.764,0,0,1,.255.151l.288.2a1.743,1.743,0,0,1,.369.31,1.6,1.6,0,0,1,.3.5c.066.2.136.395.21.605l.472,1.387c.328.989.616,1.882.815,2.535a6.234,6.234,0,0,1,.284,1.066,6.31,6.31,0,0,1-.413-1.026c-.232-.642-.542-1.527-.871-2.513-.159-.491-.314-.959-.457-1.391-.066-.214-.129-.417-.192-.609a1.567,1.567,0,0,0-.247-.469,1.915,1.915,0,0,0-.317-.31l-.266-.225C278.326,338.155,278.252,338.081,278.259,338.07Z" transform="translate(-201.712 -251.175)"/><path class="n" d="M285.982,341.667a1.654,1.654,0,0,1-.122-.369l-.277-.989c-.236-.834-.55-1.989-.952-3.247a11.649,11.649,0,0,0-1.328-3.073,2.668,2.668,0,0,0-.7-.7c-.2-.125-.332-.162-.328-.184a.248.248,0,0,1,.1.018,1.318,1.318,0,0,1,.266.1,2.424,2.424,0,0,1,.778.69,10.726,10.726,0,0,1,1.4,3.1c.406,1.251.7,2.428.9,3.273.1.421.173.764.221,1A1.3,1.3,0,0,1,285.982,341.667Z" transform="translate(-204.244 -248.038)"/><path class="n" d="M292.344,341.132a1.643,1.643,0,0,1-.151-.387c-.092-.3-.207-.653-.343-1.077-.28-.911-.653-2.173-1.055-3.568s-.738-2.62-1.015-3.579a1.72,1.72,0,0,0-.59-.9,2.241,2.241,0,0,0-.369-.192.236.236,0,0,1,.111,0,.908.908,0,0,1,.291.122,1.734,1.734,0,0,1,.675.919c.3.911.66,2.173,1.07,3.568s.756,2.668,1,3.586c.111.428.207.793.28,1.107A1.973,1.973,0,0,1,292.344,341.132Z" transform="translate(-208.377 -246.979)"/></g><g transform="translate(162.581 78.618)"><path class="i" d="M440.47,138.681a1.291,1.291,0,1,0,1.291-1.291A1.291,1.291,0,0,0,440.47,138.681Z" transform="translate(-421.298 -123.584)"/><circle class="i" cx="1.291" cy="1.291" r="1.291" transform="translate(14.003 13.806)"/><path class="i" d="M412.193,138.034a1.288,1.288,0,1,0,.784-.6A1.291,1.291,0,0,0,412.193,138.034Z" transform="translate(-403.344 -123.583)"/><path class="i" d="M403.72,99.982a1.722,1.722,0,0,0-.258,0l-.767.022a4.407,4.407,0,0,0-.568.026l-.675.1-.79.114-.885.218A14.267,14.267,0,0,0,395.5,102.3a15.127,15.127,0,0,0-6.936,11.349,16.078,16.078,0,0,0-.041,2.07c.026.347.018.7.07,1.055s.107.708.159,1.066a15.177,15.177,0,0,0,1.439,4.21,16.193,16.193,0,0,0,2.749,3.785,15.866,15.866,0,0,0,3.963,2.845,14.39,14.39,0,0,0,4.83,1.476,9.936,9.936,0,0,0,1.288.107,11.772,11.772,0,0,0,1.3.026,15.621,15.621,0,0,0,2.6-.328,15.272,15.272,0,0,0,5.191-2.188l-.155.018,5.287,2.121.314.125-.089-.325-1.557-5.652-.026.137a15.154,15.154,0,0,0,2.823-6.457,13.813,13.813,0,0,0,.207-3.321,11.211,11.211,0,0,0-.151-1.59q-.059-.391-.122-.775c-.044-.255-.122-.5-.184-.738a15.127,15.127,0,0,0-5.9-8.6,14.489,14.489,0,0,0-3.509-1.845l-.793-.284-.738-.192-.686-.17c-.221-.041-.435-.063-.635-.1-.4-.048-.738-.118-1.059-.133l-.775-.026h-.476a1.107,1.107,0,0,0-.162,0,.476.476,0,0,0,.162.022l.472.041.771.052c.306.022.653.1,1.052.159A15.046,15.046,0,0,1,418.2,111.42c.055.243.133.487.177.738s.074.5.114.76a10.82,10.82,0,0,1,.14,1.561,13.651,13.651,0,0,1-.214,3.243,14.946,14.946,0,0,1-2.8,6.309l-.048.063.022.077q.738,2.738,1.542,5.656l.225-.2-5.287-2.129-.081-.033-.077.048a14.835,14.835,0,0,1-7.623,2.457,12.174,12.174,0,0,1-1.273-.022,9.485,9.485,0,0,1-1.258-.107,14.1,14.1,0,0,1-4.723-1.443,15.677,15.677,0,0,1-3.881-2.778,15.91,15.91,0,0,1-2.7-3.69,14.98,14.98,0,0,1-1.4-4.129c-.055-.369-.111-.7-.162-1.044s-.044-.694-.07-1.037a15.464,15.464,0,0,1,.03-2.029,14.939,14.939,0,0,1,6.756-11.212,14.389,14.389,0,0,1,4.21-1.9l.871-.232.782-.129.671-.111c.207-.022.395-.03.561-.041l.764-.055a1.208,1.208,0,0,0,.251-.033Z" transform="translate(-388.506 -99.972)"/></g></g></svg>