<svg xmlns="http://www.w3.org/2000/svg" width="52.363" height="59.578" viewBox="0 0 52.363 59.578"><defs><style>.a{fill:#3a88ec;}</style></defs><g transform="translate(-31)"><path class="a" d="M82.026,117.3a5.233,5.233,0,0,0-3.9-8.727H67.964A33.845,33.845,0,0,0,69.4,99.726V97.982A6.99,6.99,0,0,0,62.418,91H60.673a1.745,1.745,0,0,0-1.693,1.322l-.951,3.8c-1.332,5.327-5.562,11.2-9.94,12.273a5.243,5.243,0,0,0-4.871-3.319H32.745A1.746,1.746,0,0,0,31,106.825v31.418a1.746,1.746,0,0,0,1.745,1.745H43.218A5.242,5.242,0,0,0,47.945,137l6,2a19.158,19.158,0,0,0,6.072.986H74.636a5.238,5.238,0,0,0,4.869-7.166,5.233,5.233,0,0,0,2.522-8.543,5.226,5.226,0,0,0,0-6.982ZM44.964,134.752a1.748,1.748,0,0,1-1.745,1.745H34.491V108.571h8.727a1.748,1.748,0,0,1,1.745,1.745Zm29.673-15.709h3.491a1.745,1.745,0,1,1,0,3.491H74.636a1.745,1.745,0,0,0,0,3.491h3.491a1.745,1.745,0,0,1,0,3.491H74.636a1.745,1.745,0,0,0,0,3.491,1.745,1.745,0,1,1,0,3.491H60.014a15.675,15.675,0,0,1-4.969-.806l-6.591-2.2V111.9c2.738-.52,5.418-2.254,7.837-5.092a25.468,25.468,0,0,0,5.123-9.831l.62-2.482h.383a3.5,3.5,0,0,1,3.491,3.491v1.744a27.62,27.62,0,0,1-1.671,8.845H60.673a1.745,1.745,0,1,0,0,3.491H78.127a1.745,1.745,0,1,1,0,3.491H74.636a1.745,1.745,0,0,0,0,3.491Z" transform="translate(0 -80.411)"/><path class="a" d="M1.87,0A1.87,1.87,0,1,1,0,1.87,1.87,1.87,0,0,1,1.87,0Z" transform="translate(37.857 48.98)"/><path class="a" d="M302.745,0A1.746,1.746,0,0,0,301,1.745V5.353a1.745,1.745,0,1,0,3.491,0V1.745A1.745,1.745,0,0,0,302.745,0Z" transform="translate(-238.582)"/><path class="a" d="M210.989,43.521l-2.468-2.468a1.745,1.745,0,0,0-2.468,2.468l2.468,2.468a1.745,1.745,0,1,0,2.468-2.468Z" transform="translate(-154.23 -35.824)"/><path class="a" d="M380.695,41.053a1.745,1.745,0,0,0-2.468,0l-2.468,2.468a1.745,1.745,0,0,0,2.468,2.469l2.468-2.468A1.745,1.745,0,0,0,380.695,41.053Z" transform="translate(-304.189 -35.824)"/></g></svg>