<svg xmlns="http://www.w3.org/2000/svg" xmlns:xlink="http://www.w3.org/1999/xlink" width="566.037" height="467.258" viewBox="0 0 566.037 467.258"><defs><style>.a{fill:#3a88ec;}.b{fill:#5ea2f8;opacity:0.15;}.c{opacity:0.3;}.d{fill:#e0e0e0;}.e{fill:#ebebeb;}.f{fill:#f5f5f5;}.g{fill:#fafafa;}.h{fill:#263238;}.i{fill:#212529;}.j{opacity:0.6;}.k{fill:#fff;}.l{fill:#455a64;}.m{fill:#87550a;}.n{fill:#fe9000;}.o{opacity:0.4;}.p{fill:#ffbe9d;}.q{fill:#eb996e;}.r{fill:#f8b257;}.s{opacity:0.7;}.t{fill:#f8ad91;}.u{fill:#ce8679;}.v{opacity:0.2;}.w{fill:#919aa5;}.x{clip-path:url(#a);}</style><clipPath id="a"><path class="a" d="M610.951,334.985l1.262,11.406a1.063,1.063,0,0,0,.06.429,5.029,5.029,0,0,0,4.986,3.922h5.622a1.716,1.716,0,0,0,1.716-2.094l-2.643-13.732a1.94,1.94,0,0,0-1.88-1.536H612.41a1.442,1.442,0,0,0-1.433,1.6Z" transform="translate(-610.951 -333.38)"/></clipPath></defs><g transform="translate(13.544 46.865)"><path class="b" d="M260.4-18.394c115.618,0,301.338,139.464,271.46,265.565s-352.181,157-467.8,157-29.19-243.038-29.19-243.038S144.778-18.394,260.4-18.394Z" transform="matrix(0.996, -0.087, 0.087, 0.996, -15.761, 18.094)"/><g transform="translate(16.556)"><g class="c" transform="translate(185.744 -41.862)"><path class="a" d="M164.185,142.555H162.8l-.543-8.429-5.47,7.006,1.068,1.424h-1.086l-.543-.712-.543.712h-1.105l1.105-1.424-5.282-6.987-.525,8.41h-1.367l2.454-38.193H150.7a.337.337,0,0,1-.206-.318v-.281h0V97.6l-4.645-5.619a3.2,3.2,0,1,1,1.424-5.9,3.165,3.165,0,0,1,1.311,1.7l4.5.993a5.825,5.825,0,0,1,9.01,4.833v10.059h0v.3a.337.337,0,0,1-.318.337h0Zm-8.2-38.193-3.746,7.493h7.811l-3.559-7.493Zm4.758,6.837-.431-6.856H157.5Zm-8.429-6.837-.393,6.312,3.091-6.312h-2.7Zm-1.63,25.493,5.132-8.073L151.635,115Zm5.619-8.879,4.289-6.743H152.16Zm.506.805,5.17,8.373L161,115.17Zm-5.619,8.972h10.19l-5.02-8.129Zm5.095,9.665,5.619-7.305H150.661Z" transform="translate(-71.326 -85.587)"/><path class="a" d="M158.358,132.378V330.238h-2.547v-1.686H142.7v1.686H140.17V132.378H142.7v8.279l6.294-6.781-5.825-6.444h-.974V125.56h14.5v1.873h-.712l-6.032,6.462,5.863,6.481v-8ZM142.717,297.7v13.112l6.275-6.725-5.825-6.444Zm6.762,5.919L155.1,297.7h-10.92Zm5.9-7.848-5.9-6.537-6.106,6.537Zm-6.387-7.062-5.825-6.444h-.45v13.112Zm.487-.506,5.619-5.938h-10.92Zm5.9-7.867-5.9-6.519-6.106,6.519Zm-6.387-7.043-5.825-6.444h-.45v13.112Zm.487-.524,5.451-5.9H144.01Zm5.9-7.774-5.9-6.537L143.373,265Zm-6.387-7.062-5.825-6.444h-.45V264.6Zm.487-.506,5.619-5.938h-10.92Zm5.9-7.867-5.9-6.519-6.106,6.519Zm-6.387-7.043-5.825-6.444h-.45v13.112Zm.487-.524,5.619-5.938h-10.92Zm5.9-7.867-5.9-6.519-6.106,6.537Zm-6.387-7.043-5.825-6.444h-.45v13.112Zm.487-.506,5.619-5.938h-10.92Zm5.9-7.867-5.9-6.537-6.106,6.537Zm-6.387-7.043-5.825-6.444h-.45v13.112Zm.487-.524,5.451-6.088H144.01Zm5.9-7.867-5.9-6.519-6.106,6.537Zm-6.387-7.043-5.825-6.444h-.45V202.9Zm.487-.506,5.619-5.938h-10.92Zm5.9-7.867-5.9-6.537-6.106,6.537Zm-6.387-7.043-5.825-6.444h-.45v13.112Zm.487-.524,5.619-5.938h-10.92Zm5.9-7.867-5.9-6.519-6.106,6.537Zm-6.387-7.043-5.825-6.444h-.45v13.112Zm.487-.506,5.619-5.938h-10.92Zm5.9,146.386-5.9-6.518-6.106,6.537Zm.431-.562V297.945l-5.863,6.275Zm0-15.435V282.529l-5.863,6.275Zm0-15.416V267.094l-5.863,6.275Zm0-15.435V251.678l-5.863,6.275Zm0-15.435V236.244l-5.863,6.275Zm0-15.416V220.809l-5.863,6.294Zm0-15.435V205.393l-5.863,6.275Zm0-15.416V189.884l-5.863,6.275Zm0-15.435V174.543l-5.863,6.275Zm0-15.416V159.108l-5.863,6.275Zm-6.331-21.653-6.35,6.8h12.494Zm6.331,5.957V143.43l-5.863,6.275Zm-6.818-6.481-5.825-6.425h-.45v13.112Zm-6.275,176.693,6.275-6.743-5.825-6.425h-.45Zm6.762-7.249,5.619-5.938h-10.92Zm.468.524,5.863,6.462V313.379Zm4.983-176.412H144.01l5.376,5.938ZM143.279,326.7h12.007l-5.9-6.537Zm6.106-193.214,5.619-5.919h-10.92Zm0,1.049-6.35,6.8H155.53Z" transform="translate(-61.396 -50.685)"/><path class="a" d="M310.535,132.649v.243A1.536,1.536,0,0,1,309,134.409H38.05v-2.529h1.161V118.769H38.05V116.24h249.6a5.413,5.413,0,0,1,3.222,1.068l19.05,14.123A1.536,1.536,0,0,1,310.535,132.649Zm-25.081-13.88H272.7l6.275,5.863Zm-5.957,6.387,6.537,6.106V119.237Zm-6.968,5.357,5.919-5.357-5.919-5.619Zm-2.51-11.707H257.282l6.275,5.863Zm-5.957,6.35,6.537,6.106V119.237Zm-6.949,5.357,5.919-5.357-5.938-5.619Zm-2.51-11.707H241.847l6.275,5.863Zm-5.957,6.35,6.537,6.106V119.237Zm-6.968,5.357,5.919-5.357-5.919-5.619Zm-2.51-11.707H226.338l6.275,5.863Zm-5.957,6.35,6.537,6.106V119.237Zm-6.968,5.357,5.938-5.357-5.938-5.619Zm-2.491-11.707H211l6.275,5.863Zm-5.957,6.35,6.519,6.106V119.237Zm-6.968,5.357,5.919-5.357-5.919-5.619Zm-2.51-11.707H195.581l6.275,5.863Zm-5.957,6.35,6.537,6.106V119.237Zm-6.968,5.357,5.938-5.357-5.938-5.619ZM192.9,118.806H180.146l6.275,5.863Zm-5.9,6.35,6.519,6.106V119.237Zm-6.968,5.357,5.863-5.357-5.938-5.619Zm-2.51-11.707H164.768l6.294,5.863Zm-5.957,6.35,6.537,6.106V119.237Zm-6.968,5.357,5.882-5.357-5.938-5.619Zm-1.873-11.239-6.537,5.919,6.462,6.069Zm1.873,12.681h13.112l-6.725-6.294-6.444,5.844Zm15.435,0h13.112l-6.725-6.294-6.444,5.844Zm15.416,0h13.112l-6.725-6.294-6.444,5.844Zm15.435,0H224l-6.725-6.294-6.444,5.844Zm15.416,0H239.45l-6.725-6.294-6.444,5.844Zm15.435,0h13.112l-6.725-6.294-6.444,5.844Zm15.435,0h13.112l-6.743-6.294-6.425,5.844Zm15.416,0H285.7l-6.725-6.294-6.444,5.844ZM161.527,118.844H149.352l6.275,5.863,6.462-5.863ZM41.2,130.551l5.863-5.395-5.919-5.619Zm6.444-5.844,6.369-5.9H41.253Zm99.033-5.863H133.917l6.256,5.825Zm-5.957,6.35,6.537,6.106V119.274Zm-6.968,5.357,5.882-5.395-5.938-5.619Zm-2.51-11.707H118.5l6.275,5.863Zm-6.05,6.312,6.537,6.106V119.237Zm-6.949,5.357,5.957-5.357-5.938-5.619Zm-2.51-11.707H102.973l6.275,5.863Zm-5.957,6.35,6.537,6.106V119.237Zm-6.968,5.357,5.975-5.357-5.938-5.619Zm-2.51-11.707H87.557l6.275,5.863Zm-5.957,6.35,6.5,6.106V119.237Zm-6.949,5.357,5.957-5.357-5.938-5.619Zm-2.51-11.707H72.122l6.238,5.863Zm-5.957,6.35,6.537,6.106V119.237Zm-6.968,5.357,5.957-5.357-5.919-5.619Zm-2.51-11.707H56.706l6.275,5.863Zm-5.957,6.35,6.537,6.106V119.237Zm-6.949,5.357,5.957-5.357-5.938-5.619Zm-8.467-5.357,6.537,6.106V119.237Zm8.467,6.762H69.65l-6.743-6.294-6.425,5.844Zm15.416,0H85.066l-6.725-6.294L71.9,131.469Zm15.435,0H100.5l-6.743-6.294-6.425,5.844Zm15.416,0h13.112l-6.725-6.294-6.444,5.844Zm15.435,0h13.112l-6.725-6.294-6.444,5.844Zm15.416,0h13.112l-6.725-6.294-6.444,5.844Zm15.435-1.4,5.957-5.357-5.938-5.619ZM41.1,131.918H54.215l-6.725-6.294-6.444,5.844Zm120.33,0h.824l-6.725-6.294-6.444,5.844v.45Zm146.8,0-17.364-12.063a5.62,5.62,0,0,0-2.96-1.011v13.112Z" transform="translate(-22.289 -58.822)"/><path class="a" d="M137.69,116.01v18.638h14.648l1.517-2-5.694-16.633Z" transform="translate(-52.248 -59.023)"/><path class="a" d="M296.569,142.044a2.977,2.977,0,0,0-.656-.243l-1.986-.618-7.661-2.323-28.228-8.317-93.245-27.086L106.726,86.73h-.243l-.169.169L50.27,139.515a13.32,13.32,0,0,0,1.143-.862c.712-.618,1.779-1.536,3.128-2.735,2.716-2.435,6.668-6.013,11.632-10.583,9.965-9.141,24.051-22.215,40.741-37.8l-.431.112,58.067,16.858,93.189,26.711,28.322,8.017,7.717,2.135,2,.524Z" transform="translate(-31.212 -84.588)"/><path class="a" d="M180.4,114.329a3,3,0,0,0-2.341,1.143c-1.424,1.761-3.559,5-3.746,5.32s0,11.239,0,16.54a3.016,3.016,0,0,0,3,2.978h27.067a3.016,3.016,0,0,0,3.016-3.016V117.326a3.016,3.016,0,0,0-3.016-3.016Z" transform="translate(-174.23 -60.507)"/><path class="a" d="M152.424,92.116a4.027,4.027,0,1,1-1.173-2.86,4.027,4.027,0,0,1,1.173,2.86Z" transform="translate(-63.33 -83.418)"/><ellipse class="a" cx="2.248" cy="2.248" rx="2.248" ry="2.248" transform="translate(72.087 1.149)"/><path class="a" d="M136.911,117.406c.15,8.448-.131,33.923-.131,33.923h30.626l-.824-5.02a4.328,4.328,0,0,1,0-1.555l2.248-11.108-5.488-17.083a2.622,2.622,0,0,0-2.491-1.873H139.515a2.622,2.622,0,0,0-2.6,2.716Z" transform="translate(-65.518 -60.176)"/></g><rect class="d" width="0.858" height="45.719" transform="translate(355.056 147.939)"/><rect class="d" width="0.858" height="45.719" transform="translate(369.594 148.642)"/><rect class="d" width="0.858" height="45.719" transform="translate(384.133 147.818)"/><rect class="d" width="0.858" height="45.719" transform="translate(398.672 148.642)"/><rect class="e" width="104.277" height="137.534" transform="translate(295.785 184.157)"/><rect class="d" width="48.894" height="137.534" transform="translate(295.785 184.157)"/><rect class="f" width="9.372" height="22.778" transform="translate(368.831 202.78)"/><rect class="f" width="9.372" height="22.778" transform="translate(368.831 291.926)"/><path class="f" d="M236.82,297.1c0,.257,12.4.463,27.687.463s27.7-.206,27.7-.463-12.393-.463-27.7-.463S236.82,296.855,236.82,297.1Z" transform="translate(107.86 -62.611)"/><rect class="f" width="9.372" height="22.778" transform="translate(368.831 247.692)"/><path class="f" d="M236.82,349.443c0,.249,12.4.463,27.687.463s27.7-.215,27.7-.463-12.393-.463-27.7-.463S236.82,349.186,236.82,349.443Z" transform="translate(107.86 -70.03)"/><rect class="f" width="9.372" height="22.778" transform="translate(324.923 202.78)"/><rect class="f" width="9.372" height="22.778" transform="translate(304.582 202.78)"/><rect class="f" width="9.372" height="22.778" transform="translate(324.923 246.002)"/><rect class="f" width="9.372" height="22.778" transform="translate(304.582 246.002)"/><rect class="f" width="9.372" height="22.778" transform="translate(324.923 289.223)"/><rect class="f" width="9.372" height="22.778" transform="translate(304.582 289.223)"/><path class="d" d="M350.244,237.1V224.7H339.859V217.9H325.8V211.82H301.35v24.305Z" transform="translate(-5.565 -50.587)"/><rect class="d" width="0.858" height="45.719" transform="translate(344.285 141.056)"/><rect class="d" width="0.858" height="45.719" transform="translate(333.866 141.056)"/><rect class="d" width="0.858" height="45.719" transform="translate(319.808 134.61)"/><rect class="d" width="0.858" height="45.719" transform="translate(296.077 134.61)"/><rect class="d" width="0.858" height="45.719" transform="translate(307.947 134.61)"/><rect class="d" width="54.026" height="0.858" transform="translate(344.688 171.961)"/><rect class="d" width="78.478" height="0.858" transform="translate(320.125 160.804)"/><path class="e" d="M306.74,31.463a3.244,3.244,0,1,0,.947-2.3A3.253,3.253,0,0,0,306.74,31.463Z" transform="translate(26.808 -24.559)"/><path class="e" d="M298.36,26.7a1.811,1.811,0,1,0,1.811-1.811A1.811,1.811,0,0,0,298.36,26.7Z" transform="translate(45.264 -24.089)"/><rect class="f" width="71.423" height="216.827" transform="translate(2.094 104.76)"/><rect class="e" width="35.712" height="216.2" transform="translate(2.094 104.76)"/><rect class="f" width="25.224" height="22.22" transform="translate(40.132 82.54)"/><rect class="e" width="6.008" height="22.22" transform="translate(40.14 82.54)"/><path class="d" d="M689.835,145.806v-1.3H610.37v1.3" transform="translate(-610.37 -41.046)"/><rect class="g" width="6.042" height="12.745" transform="translate(53.374 114.459)"/><path class="d" d="M617.3,177.96c0,.137,7.99.24,17.851.24s17.86-.1,17.86-.24-8-.24-17.86-.24S617.3,177.823,617.3,177.96Z" transform="translate(-579.494 -45.753)"/><rect class="d" width="6.042" height="12.745" transform="translate(17.354 114.459)"/><path class="d" d="M659.28,177.96c0,.137,8,.24,17.86.24s17.852-.1,17.852-.24-7.99-.24-17.852-.24S659.28,177.823,659.28,177.96Z" transform="translate(-657.503 -45.753)"/><rect class="d" width="6.042" height="12.745" transform="translate(17.354 139.768)"/><path class="d" d="M659.28,207.45c0,.137,8,.249,17.86.249s17.852-.112,17.852-.249-7.99-.24-17.852-.24S659.28,207.322,659.28,207.45Z" transform="translate(-657.503 -49.934)"/><rect class="d" width="6.042" height="12.745" transform="translate(17.354 165.842)"/><path class="d" d="M659.28,237.83c0,.137,8,.249,17.86.249s17.852-.112,17.852-.249-7.99-.24-17.852-.24S659.28,237.7,659.28,237.83Z" transform="translate(-657.503 -54.24)"/><rect class="d" width="6.042" height="12.745" transform="translate(17.354 191.915)"/><path class="d" d="M659.28,268.21c0,.137,8,.249,17.86.249s17.852-.112,17.852-.249-7.99-.24-17.852-.24S659.28,268.082,659.28,268.21Z" transform="translate(-657.503 -58.547)"/><rect class="d" width="6.042" height="12.745" transform="translate(17.354 217.242)"/><path class="d" d="M659.28,297.72c0,.137,8,.249,17.86.249s17.852-.112,17.852-.249-7.99-.24-17.852-.24S659.28,297.592,659.28,297.72Z" transform="translate(-657.503 -62.73)"/><rect class="d" width="6.042" height="12.745" transform="translate(17.354 242.672)"/><rect class="d" width="6.042" height="12.745" transform="translate(17.354 268.436)"/><path class="d" d="M659.28,327.359c0,.129,8,.24,17.86.24s17.852-.112,17.852-.24-7.99-.249-17.852-.249S659.28,327.222,659.28,327.359Z" transform="translate(-657.503 -66.93)"/><rect class="g" width="6.042" height="12.745" transform="translate(53.374 140.154)"/><path class="d" d="M617.3,207.9c0,.137,7.99.249,17.851.249s17.86-.112,17.86-.249-8-.24-17.86-.24S617.3,207.772,617.3,207.9Z" transform="translate(-579.494 -49.997)"/><rect class="g" width="6.042" height="12.745" transform="translate(53.374 165.85)"/><path class="d" d="M617.3,237.84c0,.137,7.99.249,17.851.249s17.86-.112,17.86-.249-8-.24-17.86-.24S617.3,237.712,617.3,237.84Z" transform="translate(-579.494 -54.242)"/><rect class="g" width="6.042" height="12.745" transform="translate(53.374 191.546)"/><path class="d" d="M617.3,267.78c0,.137,7.99.249,17.851.249s17.86-.112,17.86-.249-8-.24-17.86-.24S617.3,267.652,617.3,267.78Z" transform="translate(-579.494 -58.486)"/><rect class="g" width="6.042" height="12.745" transform="translate(53.374 217.242)"/><path class="d" d="M617.3,297.72c0,.137,7.99.249,17.851.249s17.86-.112,17.86-.249-8-.24-17.86-.24S617.3,297.592,617.3,297.72Z" transform="translate(-579.494 -62.73)"/><rect class="g" width="6.042" height="12.745" transform="translate(53.374 242.938)"/><path class="d" d="M617.3,327.669c0,.129,7.99.24,17.851.24s17.86-.112,17.86-.24-8-.249-17.86-.249S617.3,327.532,617.3,327.669Z" transform="translate(-579.494 -66.974)"/><rect class="g" width="6.042" height="12.745" transform="translate(53.374 268.634)"/><rect class="d" width="0.858" height="45.719" transform="translate(113.074 147.218)"/><rect class="d" width="0.858" height="45.719" transform="translate(127.612 147.921)"/><rect class="d" width="0.858" height="45.719" transform="translate(142.151 147.089)"/><rect class="d" width="0.858" height="45.719" transform="translate(156.69 147.921)"/><rect class="e" width="104.277" height="137.534" transform="translate(53.803 183.436)"/><rect class="d" width="48.894" height="137.534" transform="translate(53.803 183.436)"/><rect class="f" width="9.372" height="22.778" transform="translate(126.84 202.051)"/><rect class="f" width="9.372" height="22.778" transform="translate(126.84 291.205)"/><path class="f" d="M518.77,296.263c0,.257,12.393.463,27.687.463s27.7-.206,27.7-.463-12.4-.463-27.7-.463S518.77,295.972,518.77,296.263Z" transform="translate(-416.072 -62.492)"/><rect class="f" width="9.372" height="22.778" transform="translate(126.84 246.971)"/><path class="f" d="M518.77,348.593c0,.257,12.393.463,27.687.463s27.7-.206,27.7-.463-12.4-.463-27.7-.463S518.77,348.345,518.77,348.593Z" transform="translate(-416.072 -69.91)"/><rect class="f" width="9.372" height="22.778" transform="translate(82.941 202.051)"/><rect class="f" width="9.372" height="22.778" transform="translate(62.6 202.051)"/><rect class="f" width="9.372" height="22.778" transform="translate(82.941 245.281)"/><rect class="f" width="9.372" height="22.778" transform="translate(62.6 245.281)"/><rect class="f" width="9.372" height="22.778" transform="translate(82.941 288.502)"/><rect class="f" width="9.372" height="22.778" transform="translate(62.6 288.502)"/><path class="d" d="M632.194,236.255V223.862H621.81v-6.806H607.751V210.98H583.3v24.305Z" transform="translate(-529.497 -50.468)"/><rect class="d" width="0.858" height="45.719" transform="translate(102.303 140.326)"/><rect class="d" width="0.858" height="45.719" transform="translate(91.884 140.326)"/><rect class="d" width="0.858" height="45.719" transform="translate(77.817 133.889)"/><rect class="d" width="0.858" height="45.719" transform="translate(54.095 133.889)"/><rect class="d" width="0.858" height="45.719" transform="translate(65.956 133.889)"/><rect class="d" width="54.026" height="0.858" transform="translate(102.698 171.24)"/><rect class="d" width="78.478" height="0.858" transform="translate(78.135 160.083)"/></g><g transform="translate(0 321.467)"><path class="h" d="M27.75,398.743c0,.12,102.371.223,228.622.223s228.649-.1,228.649-.223-102.351-.223-228.649-.223S27.75,398.623,27.75,398.743Z" transform="translate(-27.75 -398.52)"/></g><g transform="translate(133.303 279.611)"><rect class="h" width="2.094" height="38.544" transform="translate(45.744 3.424)"/><path class="a" d="M112.94,351.861a2.12,2.12,0,1,0,2.12-2.111,2.12,2.12,0,0,0-2.12,2.111Z" transform="translate(-68.268 -349.75)"/><rect class="h" width="2.094" height="38.544" transform="translate(4.085 3.424)"/><path class="a" d="M161.5,351.861a2.111,2.111,0,1,0,2.111-2.111,2.111,2.111,0,0,0-2.111,2.111Z" transform="translate(-158.488 -349.75)"/><rect class="a" width="53.718" height="9.612" transform="translate(0.112 7.149)"/><path class="f" d="M107.21,358.08l.086.155,5.519,9.458h.472V358.08Z" transform="translate(-59.457 -350.931)"/><path class="f" d="M115.02,358.08l5.613,9.612h7.338l-2.231-3.819-3.381-5.793Z" transform="translate(-80.845 -350.931)"/><path class="f" d="M130.83,358.08l5.621,9.612h7.338l-5.622-9.612Z" transform="translate(-110.232 -350.931)"/><path class="f" d="M146.64,358.08l5.622,9.612H159.6l-5.622-9.612Z" transform="translate(-139.611 -350.931)"/><path class="f" d="M162.46,358.08v9.612h6.3l-5.613-9.612Z" transform="translate(-162.348 -350.931)"/><path class="a" d="M0,0H53.718V9.612H0Z" transform="translate(0.112 21.997)"/><path class="f" d="M107.21,375.38l.086.154,5.519,9.458h.472V375.38Z" transform="translate(-59.457 -353.383)"/><path class="f" d="M115.02,375.38l5.613,9.612h7.338l-2.231-3.819-3.381-5.793Z" transform="translate(-80.845 -353.383)"/><path class="f" d="M130.83,375.38l5.621,9.612h7.338l-5.622-9.612Z" transform="translate(-110.232 -353.383)"/><path class="f" d="M146.64,375.38l5.622,9.612H159.6l-5.622-9.612Z" transform="translate(-139.611 -353.383)"/><path class="f" d="M162.46,375.38v9.612h6.3l-5.613-9.612Z" transform="translate(-162.348 -353.383)"/><path class="h" d="M107.262,367.681v-9.612l-.06.051,53.709.052h0l-.112-.1v9.612l.1-.112-38.243.052h-.052l38.321.051h.1V358h-.112l-53.709.051h-.06v9.509C107.262,367.63,107.262,367.681,107.262,367.681Z" transform="translate(-107.15 -350.92)"/><path class="h" d="M107.262,384.974v-9.612l-.06.051,53.709.051h0l-.112-.1v9.612l.1-.112-38.243.051h-.052l38.321.052h.1V375.25h-.112l-53.709.052h-.06v9.509C107.262,384.922,107.262,384.974,107.262,384.974Z" transform="translate(-107.15 -353.365)"/></g><g transform="translate(195.233 76.507)"><path class="i" d="M437.081,457.74l-.9,21.181,26.357,1.253c0-2.523-13.432-8.222-13.432-8.222l1.133-13.552Z" transform="translate(-413.11 -162.813)"/><g class="j" transform="translate(27.085 307.597)"><path class="k" d="M460.633,472.517a1.081,1.081,0,0,0-.807,1.193,1.03,1.03,0,0,0,1.176.8,1.133,1.133,0,0,0,.858-1.262,1.081,1.081,0,0,0-1.322-.7" transform="translate(-459.817 -472.502)"/></g><g class="j" transform="translate(23.07 313.972)"><path class="k" d="M436.16,482.067l.094-2.137,25.284,2.008s1.15.566.978,1.382Z" transform="translate(-436.16 -479.93)"/></g><path class="h" d="M453.795,474.137c0,.129-.661.163-1.313.541s-1.013.91-1.133.858.112-.8.91-1.244S453.829,474,453.795,474.137Z" transform="translate(-417.362 -165.117)"/><path class="h" d="M450,475.641c0,.129-.541.318-1,.858s-.618,1.09-.747,1.081-.172-.747.412-1.382S450.01,475.521,450,475.641Z" transform="translate(-410.865 -165.343)"/><path class="h" d="M445.338,479.229c-.12,0-.266-.627.094-1.313s.978-.944,1.03-.858-.343.463-.627,1.038S445.467,479.22,445.338,479.229Z" transform="translate(-404.786 -165.549)"/><path class="h" d="M454.165,470.444c-.06.12-.644-.086-1.373-.077s-1.3.223-1.373.112.506-.549,1.373-.558S454.234,470.349,454.165,470.444Z" transform="translate(-417.819 -164.539)"/><path class="h" d="M455.922,466.474a2.369,2.369,0,0,1-1.322-.069,5.7,5.7,0,0,1-1.356-.489,5.051,5.051,0,0,1-.738-.438,1.81,1.81,0,0,1-.386-.326.549.549,0,0,1,0-.687.687.687,0,0,1,.575-.266,1.562,1.562,0,0,1,.489.086,4.611,4.611,0,0,1,.815.326,4.669,4.669,0,0,1,1.176.858c.584.6.772,1.09.721,1.116s-.335-.378-.935-.858a5.45,5.45,0,0,0-1.141-.721,5.149,5.149,0,0,0-.747-.266c-.283-.094-.515-.1-.592,0s0,.069,0,.146a1.159,1.159,0,0,0,.283.24,7.536,7.536,0,0,0,.678.438,7.88,7.88,0,0,0,1.253.549,8.581,8.581,0,0,1,1.227.36Z" transform="translate(-420.074 -163.728)"/><path class="h" d="M450.307,466.377a2.155,2.155,0,0,1-.283-1.287,4.291,4.291,0,0,1,.249-1.442,4.07,4.07,0,0,1,.378-.781,1.073,1.073,0,0,1,.858-.627.618.618,0,0,1,.541.395,1.89,1.89,0,0,1,.112.489,3,3,0,0,1-.043.858,3.09,3.09,0,0,1-.627,1.339c-.549.661-1.1.79-1.107.747a6.1,6.1,0,0,0,.858-.935,2.969,2.969,0,0,0,.472-1.219,2.523,2.523,0,0,0,0-.764c0-.283-.12-.515-.232-.489a.93.93,0,0,0-.481.412,4.484,4.484,0,0,0-.36.7,4.7,4.7,0,0,0-.318,1.3C450.265,465.87,450.385,466.325,450.307,466.377Z" transform="translate(-414.622 -163.451)"/><path class="i" d="M455.33,456.746l.172,22.529,28.039-.12c-.18-2.678-14.7-7.99-14.7-7.99l.455-14.444Z" transform="translate(-450.55 -162.668)"/><g class="j" transform="translate(8.845 307.3)"><path class="k" d="M481.713,472.177a1.15,1.15,0,0,0-.79,1.313,1.1,1.1,0,0,0,1.3.79,1.2,1.2,0,0,0,.858-1.39,1.133,1.133,0,0,0-1.433-.669" transform="translate(-480.903 -472.156)"/></g><g class="j" transform="translate(4.952 314.332)"><path class="k" d="M455.288,482.624V480.35l26.949.738s1.253.541,1.116,1.416Z" transform="translate(-455.288 -480.35)"/></g><path class="h" d="M474.428,473.37c0,.137-.687.2-1.356.644s-1.03,1.021-1.15.97.069-.858.858-1.373S474.462,473.241,474.428,473.37Z" transform="translate(-455.65 -165.011)"/><path class="h" d="M470.309,474.781c0,.137-.566.369-1.021.953s-.6,1.193-.738,1.184-.223-.781.369-1.493S470.3,474.652,470.309,474.781Z" transform="translate(-448.579 -165.221)"/><path class="h" d="M465.435,478.489c-.12,0-.318-.652,0-1.4s.987-1.056,1.047-.944-.343.515-.618,1.141S465.572,478.481,465.435,478.489Z" transform="translate(-442.022 -165.419)"/><path class="h" d="M475.1,469.461c-.06.12-.687-.06-1.459,0s-1.373.309-1.45.189.506-.609,1.425-.661S475.169,469.35,475.1,469.461Z" transform="translate(-456.579 -164.407)"/><path class="h" d="M477.272,465.3a2.806,2.806,0,0,1-1.407,0,6.641,6.641,0,0,1-1.468-.446,6.818,6.818,0,0,1-.815-.429,1.51,1.51,0,0,1-.42-.326.6.6,0,0,1-.069-.73.772.772,0,0,1,.6-.318,1.562,1.562,0,0,1,.524.077,4.368,4.368,0,0,1,.858.292,4.831,4.831,0,0,1,1.3.858,3.02,3.02,0,0,1,.858,1.141,12.791,12.791,0,0,0-1.038-.858,5.414,5.414,0,0,0-1.262-.7,5.235,5.235,0,0,0-.807-.24c-.292-.077-.549-.077-.627.052s0,.069,0,.154a1.229,1.229,0,0,0,.318.24,6.458,6.458,0,0,0,.738.421,7.846,7.846,0,0,0,1.365.515A9.438,9.438,0,0,1,477.272,465.3Z" transform="translate(-459.446 -163.565)"/><path class="h" d="M471.483,465.163a2.214,2.214,0,0,1-.378-1.356,4.419,4.419,0,0,1,.189-1.536,4.521,4.521,0,0,1,.352-.858,1.159,1.159,0,0,1,.858-.712.661.661,0,0,1,.584.386,1.923,1.923,0,0,1,.154.515,3.161,3.161,0,0,1,0,.944A3.245,3.245,0,0,1,472.65,464a2.154,2.154,0,0,1-1.124.858,4.347,4.347,0,0,0,.858-1.038,3.2,3.2,0,0,0,.438-1.322,2.851,2.851,0,0,0,0-.807c-.043-.3-.154-.541-.266-.506a1.034,1.034,0,0,0-.489.455,5.468,5.468,0,0,0-.352.764,5.1,5.1,0,0,0-.266,1.408C471.406,464.622,471.56,465.137,471.483,465.163Z" transform="translate(-453.82 -163.232)"/><path class="h" d="M459.034,308.67c1.21.7,1.914,17.276-1.193,25.516s-14.315,52.138-14.315,52.138l-8.282,59.554-14.161-.781,5.029-128.651Z" transform="translate(-397.678 -141.681)"/><path class="h" d="M485.533,316.827s-5.149,36.372-8.488,50.928-4.549,19.4-4.549,19.4-5.716,11.432-5.733,11.724l-4.978,46.345H446.775s-3.948-40.638-1.8-48.748,5.493-20.521,4.772-29.584-.953-28.322-.953-29.91-3.828-12.548-3.828-12.548a30.947,30.947,0,0,1-1.528-10.968C443.677,307.232,485.533,316.827,485.533,316.827Z" transform="translate(-442.312 -142.062)"/><path class="l" d="M441.312,399.74a.927.927,0,0,0,.12-.18l.318-.541c.283-.523.678-1.227,1.176-2.128l4.291-7.853h0c1.948-6.754,4.377-16.041,6.737-26.331,2.437-10.608,4.411-20.263,5.8-27.249.669-3.476,1.219-6.291,1.6-8.291.18-.953.318-1.716.412-2.257a3.1,3.1,0,0,1,.1-.592.686.686,0,0,0,0-.2.472.472,0,0,1-.069.189,3.7,3.7,0,0,0-.137.584l-.489,2.24c-.429,1.991-1.021,4.8-1.716,8.256-1.476,6.978-3.493,16.616-5.93,27.215-2.352,10.3-4.737,19.577-6.608,26.348h0c-1.716,3.321-3.133,6.008-4.128,7.922-.463.918-.858,1.639-1.107,2.171l-.275.566A.653.653,0,0,0,441.312,399.74Z" transform="translate(-416.86 -143.871)"/><path class="l" d="M482.63,339.416a17.419,17.419,0,0,0,1.8-2.249,18.464,18.464,0,0,0,1.8-2.257,6.634,6.634,0,0,0-2.146,1.983,6.478,6.478,0,0,0-1.459,2.523Z" transform="translate(-476.674 -145.401)"/><path class="m" d="M426.041,158.245c.395-3.433.935-6.978,2.935-9.775a10.72,10.72,0,0,1,14.659-2.686l1.716,1.081a43.531,43.531,0,0,1,2.171,13.1,12.66,12.66,0,0,1-2.738,7.355,24.435,24.435,0,0,0-2.412,2.858,28.17,28.17,0,0,0-1,3.158c-1.262,3.3-5.6,4.669-8.891,3.433s-5.476-4.549-6.308-7.973S425.638,161.746,426.041,158.245Z" transform="translate(-389.051 -118.336)"/><path class="n" d="M461.742,145.237c3.785-1.047,6.1-2.429,6.085-3.922s-6.583-5.021-8.093-5.93c-3.587-2.146-7.87.575-14.178.652-12.256.163-22.168,2.781-22.126,5.862,0,1.476,2.343,2.8,6.128,3.742" transform="translate(-407.458 -117)"/><g class="o" transform="translate(18.203 20.045)"><path d="M460.668,145.578c3.356-.935,5.493-2.163,5.39-3.433-.283-3.665-8.874-4.823-19.74-4.677s-19.645,2.463-19.6,5.192c0,1.313,2.077,2.48,5.424,3.321" transform="translate(-426.716 -137.456)"/></g><path class="p" d="M430.92,143.607a15.019,15.019,0,0,1,15.586-14.9c8.033.292,14.307,7.141,14.453,15.174.129,7.055.094,14.144-.266,16.676-1.116,7.63-6.008,10.007-7.9,10.659a9.44,9.44,0,0,1-2.077.232h0a.054.054,0,0,0-.051.06l.532,8.994c0,5.845-3.879,10.548-9.724,10.625s-9.784-4.935-9.9-10.805Z" transform="translate(-407.087 -116.169)"/><path class="h" d="M436.336,152.309a1.219,1.219,0,0,1-1.167,1.253,1.176,1.176,0,0,1-1.279-1.09,1.236,1.236,0,0,1,1.167-1.253,1.176,1.176,0,0,1,1.279,1.09Z" transform="translate(-384.944 -119.361)"/><path class="h" d="M438.193,148.332c-.146.163-1.081-.515-2.4-.5s-2.274.7-2.42.532.086-.36.5-.669a3.433,3.433,0,0,1,1.94-.626,3.313,3.313,0,0,1,1.914.592C438.133,147.971,438.271,148.254,438.193,148.332Z" transform="translate(-386.338 -118.773)"/><path class="h" d="M450.316,152.309a1.227,1.227,0,0,1-1.167,1.253,1.167,1.167,0,0,1-1.279-1.09,1.227,1.227,0,0,1,1.167-1.253,1.184,1.184,0,0,1,1.279,1.09Z" transform="translate(-410.923 -119.361)"/><path class="h" d="M453.285,148.793c-.146.163-1.09-.515-2.4-.489s-2.274.687-2.42.532.077-.36.5-.678a3.33,3.33,0,0,1,1.931-.618,3.2,3.2,0,0,1,1.922.592C453.216,148.45,453.362,148.741,453.285,148.793Z" transform="translate(-414.381 -118.84)"/><path class="h" d="M439.6,158.523a8.453,8.453,0,0,1,2.137-.412c.335-.043.652-.112.712-.343a1.717,1.717,0,0,0-.24-1l-1.03-2.575a44.875,44.875,0,0,1-2.326-6.677,44.241,44.241,0,0,1,2.858,6.471c.343.858.678,1.716.987,2.575a1.9,1.9,0,0,1,.189,1.322.858.858,0,0,1-.541.5,2.119,2.119,0,0,1-.575.086,8.789,8.789,0,0,1-2.171.052Z" transform="translate(-395.785 -118.837)"/><path class="q" d="M454.34,177.973s-5.089.489-11.5-3.253c0,0,2.094,6.7,11.638,5.682Z" transform="translate(-410.767 -122.693)"/><path class="q" d="M447.089,163.905a2.369,2.369,0,0,0-2.137-.858,2.137,2.137,0,0,0-1.485.858,1.365,1.365,0,0,0-.086,1.571,1.6,1.6,0,0,0,1.717.421,5.081,5.081,0,0,0,1.674-1.03,1.6,1.6,0,0,0,.369-.395.438.438,0,0,0,0-.489" transform="translate(-403.79 -121.036)"/><path class="h" d="M442.475,161.46c.215,0,.232,1.416,1.468,2.412s2.764.858,2.781,1.021-.343.283-.987.309a3.493,3.493,0,0,1-2.309-.772,3.055,3.055,0,0,1-1.141-2.025C442.218,161.812,442.372,161.451,442.475,161.46Z" transform="translate(-402.524 -120.813)"/><path class="h" d="M453.927,144.011c-.12.36-1.442.215-2.987.421s-2.789.644-3,.326c-.094-.154.12-.5.618-.858a4.986,4.986,0,0,1,2.214-.807,5.149,5.149,0,0,1,2.343.24C453.695,143.565,453.978,143.865,453.927,144.011Z" transform="translate(-414.585 -118.204)"/><path class="h" d="M438.432,144.369c-.232.3-1.141,0-2.231,0s-2.017.232-2.231-.086c-.094-.146.043-.446.446-.738a3.15,3.15,0,0,1,1.811-.515,3.064,3.064,0,0,1,1.785.584C438.432,143.914,438.569,144.223,438.432,144.369Z" transform="translate(-387.134 -118.201)"/><path class="h" d="M464.494,135.61a8.437,8.437,0,0,1-6.154,3.682c-1.613.146-3.433-.12-4.66.97a7.289,7.289,0,0,0-1.5,3.167c-.575,1.716-.506,3.811-2.06,4.712-1.219.712-2.2.5-3.073,1.6a7.291,7.291,0,0,0-1.073,4.351c0,1.485-.1,3.836-1.433,4.506-.112-5.407-1.888-11.5-2.008-16.907a6.548,6.548,0,0,1,.249-2.386c.635-1.716,2.575-2.575,4.291-3.038,4.986-1.425,10.136-1.656,15.285-1.871" transform="translate(-420.5 -116.977)"/><path class="r" d="M465.75,137.258s-3.347-13-3.63-13.637-4.068-6.291-12.977-7.81l-7.347.094s-10.376,3.5-12.273,6.076S427,136.888,427,136.888l20.546-4.746,14.049,3.236Z" transform="translate(-408.445 -114.342)"/><path class="n" d="M449.978,114.1h2.034a2.068,2.068,0,0,1,1.922,1.227,6.4,6.4,0,0,1,.5,2.06c.172,2.283.858,17.946.858,17.946l-9.209-.3.043-19.362-3.124.738v-.566a1.717,1.717,0,0,1,.378-.935h0a1.716,1.716,0,0,1,1.236-.609Z" transform="translate(-411.717 -114.1)"/><path class="l" d="M462.725,140.9l-1.021-4.523-14.461-4.291L430,137.42l.06,5.1a57.348,57.348,0,0,1,32.665-1.614Z" transform="translate(-407.995 -116.65)"/><path class="n" d="M461.541,135.02l.609.584,4.909,3.57a66.5,66.5,0,0,0-19.413-2.832c-9.913.232-21.216,3.725-21.216,3.725l6.523-4.034h0a11.346,11.346,0,0,1,8-3.69l12.445-.4a11.329,11.329,0,0,1,8.145,3.081Z" transform="translate(-409.265 -116.628)"/><path class="h" d="M466.162,140.078a2.55,2.55,0,0,0-.309-.266,6.069,6.069,0,0,0-1-.618,17.774,17.774,0,0,0-4.111-1.347,46.062,46.062,0,0,0-14.2-.661c-2.764.232-5.407.4-7.8.781a57.8,57.8,0,0,0-6.248,1.4,24.418,24.418,0,0,0-2.334.8,4.093,4.093,0,0,0-1.622.97,1.716,1.716,0,0,0-.455,1.116.686.686,0,0,0,.1.412,1.716,1.716,0,0,1,.506-1.382,4.128,4.128,0,0,1,1.571-.858c.678-.232,1.459-.481,2.334-.7a63.187,63.187,0,0,1,6.222-1.279c2.352-.36,5-.5,7.767-.73a50.138,50.138,0,0,1,14.075.489,19.741,19.741,0,0,1,4.094,1.184C465.69,139.777,466.128,140.129,466.162,140.078Z" transform="translate(-409.784 -117.334)"/><path class="m" d="M429.8,142.112c1,4.137,5.93,10.677-.755,14.882,0,0-.189-8.977-.961-12.445a7.149,7.149,0,0,0-1.167-2.909" transform="translate(-375.115 -118.004)"/><path class="m" d="M476.146,144.12a7.844,7.844,0,0,0-7.8,7.518,11.234,11.234,0,0,1-.077,3.133,21.093,21.093,0,0,1-1.459,2.7,14.65,14.65,0,0,0-1.253,7.029c.721,4.789,5.39,11.406,10.754,11.337" transform="translate(-452.064 -118.355)"/><path class="m" d="M456.8,171.639a3.433,3.433,0,0,0,3.176-.343,6.231,6.231,0,0,0,2.077-2.506,11.157,11.157,0,0,0-.146-10.3,16.384,16.384,0,0,0,3.047-15.191l-7.647.79Z" transform="translate(-433.925 -118.239)"/><path class="h" d="M465.618,138.263a2.155,2.155,0,0,1-.4-.206l-1.124-.635-4.094-2.4h0l-.944-1.227a7.348,7.348,0,0,0-1.081-1.236,4.291,4.291,0,0,0-1.528-.8,7.6,7.6,0,0,0-1.854-.172c-2.575-.051-5.458,0-8.454.154-2.789.112-5.458.266-7.9.429a5.543,5.543,0,0,0-1.716.292,4.239,4.239,0,0,0-1.382.858c-.738.781-1.408,1.6-2.043,2.3h0l-4.918,2.36-1.33.627-.472.2a2.465,2.465,0,0,1,.438-.257l1.3-.687,4.815-2.455h0c.627-.721,1.27-1.51,2.034-2.334a4.5,4.5,0,0,1,1.468-.944,5.811,5.811,0,0,1,1.8-.318c2.446-.18,5.149-.343,7.9-.455,3-.129,5.87-.2,8.479-.129a7.587,7.587,0,0,1,1.922.2,4.48,4.48,0,0,1,1.622.858,6.685,6.685,0,0,1,1.107,1.3l.927,1.236h0l4.042,2.489,1.09.687C465.5,138.16,465.627,138.246,465.618,138.263Z" transform="translate(-407.781 -116.524)"/><path class="h" d="M456.617,129.573a2.316,2.316,0,0,1-.06-.644c0-.412,0-1.013-.051-1.716v-10.35a.592.592,0,0,0-.635-.6l-1.717.343a2.239,2.239,0,0,1-.644.086,2.909,2.909,0,0,1,.609-.206c.4-.112.97-.275,1.716-.455a.858.858,0,0,1,.936.858v4.574c0,2.257,0,4.291-.069,5.776a15.4,15.4,0,0,1-.052,1.716,2.487,2.487,0,0,1-.034.618Z" transform="translate(-422.218 -114.373)"/><path class="h" d="M444.137,129.3a9.039,9.039,0,0,1-.309-1.9c-.129-1.184-.223-2.832-.309-4.635s-.146-3.433-.172-4.643a11.508,11.508,0,0,1,0-1.922,11.6,11.6,0,0,1,.206,1.914c.086,1.184.18,2.824.266,4.635s.154,3.347.215,4.626a13.381,13.381,0,0,1,.1,1.922Z" transform="translate(-400.83 -114.397)"/><path class="m" d="M473.29,146.38a2.575,2.575,0,0,0-2.18,1.8,16.179,16.179,0,0,0-.592,2.935,3.751,3.751,0,0,1-1.45,2.575c-.738.455-1.716.463-2.42.918a2.4,2.4,0,0,0-.721,3.279,4.077,4.077,0,0,0-.764,7.613c-1.287,1.837-.506,4.506,1.047,6.119a8.085,8.085,0,0,0,13.843-4.463" transform="translate(-453.534 -118.676)"/><path class="l" d="M456.664,153.567c.043,0,.052-.326.249-.858a3.433,3.433,0,0,1,1.476-1.716,9.509,9.509,0,0,1,3.33-1.056c1.322-.223,2.806-.326,4.343-.712a7.484,7.484,0,0,0,2.163-.858,9.889,9.889,0,0,0,1.656-1.382,24.147,24.147,0,0,0,2.291-2.789c.592-.858,1.056-1.519,1.373-1.991a3.492,3.492,0,0,0,.455-.764,24.142,24.142,0,0,0-2.086,2.575,27.928,27.928,0,0,1-2.326,2.686,9.6,9.6,0,0,1-1.6,1.3,7.217,7.217,0,0,1-2.017.781c-1.476.369-2.961.489-4.291.738a9.252,9.252,0,0,0-3.433,1.193,3.519,3.519,0,0,0-1.476,1.948,1.871,1.871,0,0,0-.112.9Z" transform="translate(-442.142 -117.975)"/><path class="l" d="M456.289,162.881c.043,0,.086-.429.343-1.159a7.124,7.124,0,0,1,1.819-2.661,12.616,12.616,0,0,1,4.1-2.506c1.716-.687,3.665-1.2,5.656-2.034a14.856,14.856,0,0,0,4.995-3.433,24.89,24.89,0,0,0,3.038-3.888c.764-1.176,1.322-2.163,1.716-2.841a6.3,6.3,0,0,0,.541-1.09,6.865,6.865,0,0,0-.687,1c-.429.661-1.021,1.613-1.811,2.764a27.955,27.955,0,0,1-3.073,3.776,14.942,14.942,0,0,1-4.883,3.287c-1.94.815-3.914,1.339-5.639,2.06a12.307,12.307,0,0,0-4.162,2.669,6.694,6.694,0,0,0-1.759,2.832,3.925,3.925,0,0,0-.172.858C456.28,162.778,456.271,162.881,456.289,162.881Z" transform="translate(-446.324 -118.235)"/><path class="l" d="M431.411,153.6a5.853,5.853,0,0,0-.369-1.759,32.439,32.439,0,0,0-1.476-4.077,35.393,35.393,0,0,0-1.991-3.862,6.462,6.462,0,0,0-1.039-1.468c-.112.069,1.279,2.42,2.575,5.5S431.282,153.63,431.411,153.6Z" transform="translate(-373.703 -118.116)"/><path class="h" d="M417.285,202.309c1.983,3.073,13.165,35.729,13.3,37.874s.429,9.312-1.124,10.754-11.509.858-11.509.858l-10.3-57.15v-.755S415.3,199.245,417.285,202.309Z" transform="translate(-356.796 -125.41)"/><path class="h" d="M422.435,251.917c2.849,0,6.136-.18,6.986-.97,1.716-1.571,1.2-9.835,1.141-10.771-.077-1.141-3.133-10.436-5.965-18.6s-6.308-17.68-7.347-19.285h0c-1.957-3.038-9.544-8.4-9.621-8.454h0v.8l10.3,57.168h0C418.084,251.8,420.109,251.917,422.435,251.917Zm-5.218-49.6c1.03,1.6,4.471,11,7.338,19.276s5.888,17.448,5.965,18.581c.06.935.558,9.183-1.124,10.737-1.5,1.39-11.011.858-11.475.858l-10.3-57.133v-.712c.558.395,7.724,5.493,9.578,8.419Z" transform="translate(-356.745 -125.403)"/><path class="n" d="M464.9,186.44l1.991,19.362s-18.821-15.929-21.55-19.1h0l-7.947,1.562a19.74,19.74,0,0,0-15.311,14.024,32.4,32.4,0,0,0-1.219,8.625c0,10.4,2.043,69.217,2.043,69.217s-2.043,18.753-.172,24.374,1.716,4.291,1.716,4.291,12.959-3.922,18.581-4.094,19.422-.523,25.567-2.738,14.839-9.878,14.839-9.878l-3.381-76.667a40.938,40.938,0,0,0-7.621-22.04h0Z" transform="translate(-420.86 -124.354)"/><g class="s" transform="translate(1.682 141.439)"><path class="k" d="M481.315,278.9s-59.605,7.51-59.631,7.776.249,6.059.249,6.059l-.343,4.377,60.266-6.008Z" transform="translate(-421.59 -278.9)"/></g><g class="s" transform="translate(1.003 122.12)"><path class="k" d="M482.68,268.122c-.532-.12-39.883,1.914-44.062,3.622s-15.526,2.575-15.526,2.575-.592-10.23-.463-10.1,11.93,0,13.895-.858,5.536-4.557,5.536-4.557l40.106-2.412Z" transform="translate(-422.61 -256.39)"/></g><path class="h" d="M459.56,196.29a7.406,7.406,0,0,0,.592,1.219c.206.378.455.858.721,1.408a20.36,20.36,0,0,1,.858,1.9c.652,1.408,1.339,3.124,2.008,5.055a60,60,0,0,1,1.768,6.428,61.44,61.44,0,0,1,.961,6.591c.163,2.043.223,3.888.189,5.441s-.086,2.806-.154,3.673a6.771,6.771,0,0,0-.051,1.356,9.565,9.565,0,0,0,.223-1.339c.129-.858.232-2.12.3-3.682a50.631,50.631,0,0,0-.094-5.484,50.043,50.043,0,0,0-2.755-13.123,47.828,47.828,0,0,0-2.111-5.055c-.326-.712-.678-1.322-.97-1.871s-.558-1.013-.79-1.382a7.261,7.261,0,0,0-.7-1.133Z" transform="translate(-437.649 -125.751)"/><path class="h" d="M457.42,188.89c-.052.06.807.772,2.043,2.043a31.024,31.024,0,0,1,4.231,5.484,30.682,30.682,0,0,1,2.867,6.317c.549,1.717.772,2.781.858,2.764a2.943,2.943,0,0,0-.077-.781,21.039,21.039,0,0,0-.463-2.077,26.382,26.382,0,0,0-7.183-11.93,17.177,17.177,0,0,0-1.614-1.382,3.3,3.3,0,0,0-.661-.438Z" transform="translate(-436.221 -124.702)"/><path class="p" d="M465.812,244.77l-6.711-2.395-5.776-4.205,1.45,3.57s-13.732,0-14.273.584a1.176,1.176,0,0,0,0,1.811c.558.566,11.552,1.493,11.552,1.493s-12.4.978-12.015,1.365,0,1.656,1.716,1.931S450.338,250,450.338,250l-9.441.618s-.421,1.33,1.716,1.794,8.505,1.45,8.505,1.45-8.788-.987-8.651,0-.223,2.111,1.09,2.111,14.59,1.27,16.247,1.124,8.677,0,8.677,0L468.1,245.01Z" transform="translate(-422.359 -131.687)"/><path class="p" d="M472.862,256.639s-15.3,4.918-19.1,4.5-7.012-.987-8.934-8.007S440,237.046,440,237.046l16.435-2.206,4.652,10.934,11.775.747Z" transform="translate(-426.714 -131.215)"/><path class="h" d="M485.172,228.746s.6-1.536,0-2.369a7.234,7.234,0,0,1-.935-2.025s-5.433-17.319-6.729-20.752-6.231-13.26-11.458-11.552-7.458,9.321-7.166,15.285,1.794,40.6,1.794,40.6l12.874-.9-4.823-16.083Z" transform="translate(-455.477 -125.121)"/><path class="h" d="M460.788,247.961h0l12.874-.91-4.823-16.075,16.418-2.214h0s.6-1.553,0-2.386a7.185,7.185,0,0,1-.935-2.025c-.051-.172-5.441-17.354-6.729-20.744a33.472,33.472,0,0,0-4.291-7.724,13.166,13.166,0,0,0-3.39-3.253,4.514,4.514,0,0,0-3.828-.6c-3.038.987-4.763,3.836-5.673,6.051a22.409,22.409,0,0,0-1.51,9.252c.292,5.9,1.777,40.26,1.794,40.6Zm12.874-.944-12.831.858c-.051-1.038-1.5-34.733-1.794-40.578a22.314,22.314,0,0,1,1.519-9.2c.91-2.206,2.618-5.046,5.639-6.008a4.5,4.5,0,0,1,3.793.6,12.968,12.968,0,0,1,3.382,3.244,33.172,33.172,0,0,1,4.248,7.724c1.287,3.433,6.677,20.6,6.729,20.752a7.879,7.879,0,0,0,.944,2.034c.566.772.051,2.189,0,2.326l-16.444,2.214h0Z" transform="translate(-455.604 -125.12)"/><path class="h" d="M462.3,188.153s1.09,4.291-7.063,2.97-12.668-4.4-12.668-4.4l-2.455.335,24.031,18.761Z" transform="translate(-418.087 -124.394)"/><path class="h" d="M464.184,205.839h0l-1.777-17.208a2.41,2.41,0,0,0-.043-.463h0v.455a2.377,2.377,0,0,1-.6,1.622c-1.03,1.124-3.218,1.416-6.488.858a34.844,34.844,0,0,1-12.659-4.4h0l-2.506.343h.043ZM462.4,188.871l1.716,16.873-23.928-18.71,2.395-.326a34.673,34.673,0,0,0,12.676,4.4c3.287.549,5.476.249,6.514-.858a2.292,2.292,0,0,0,.627-1.356Z" transform="translate(-418.13 -124.391)"/><path class="h" d="M440.614,182.69c.172.154-2.223,3.793-2.223,3.793l18.753,14.384,1.94-6.634s4.635,4.695,4.806,4.549-2.712-12.874-2.712-12.874l-.858-1.124-2.523,5.922Z" transform="translate(-416.369 -123.823)"/><path class="h" d="M457.11,200.888h0l1.922-6.626c.18.18,1.244,1.253,2.317,2.3,2.06,2.008,2.395,2.231,2.472,2.231h0s.112-.1-1.287-6.514c-.7-3.167-1.416-6.351-1.416-6.385h0l-.858-1.141h0l-2.515,5.9-17.259-8.067.1.094a26.776,26.776,0,0,1-2.231,3.759h0Zm1.922-6.7h0l-1.922,6.6-18.718-14.358c.086-.129.644-.97,1.167-1.819a8.264,8.264,0,0,0,1.064-1.931l17.165,8.016h0L460.3,184.8l.858,1.09c.978,4.291,2.789,12.513,2.712,12.874a63.513,63.513,0,0,1-4.772-4.54Z" transform="translate(-416.318 -123.809)"/><path class="l" d="M438.53,187.11a1.972,1.972,0,0,0,.318.275l.944.721,3.545,2.575c3,2.163,7.158,5.149,11.767,8.376l1.6,1.124.343.24v-.412a24.083,24.083,0,0,1,.609-4.411,20.867,20.867,0,0,0,.515-4.042l-.343.112,4.368,5.742,1.244,1.622a3.736,3.736,0,0,0,.472.541,3.116,3.116,0,0,0-.378-.609l-1.159-1.648-4.24-5.827-.326-.455v.558a21.952,21.952,0,0,1-.549,3.965,22.916,22.916,0,0,0-.635,4.48l.352-.172-1.6-1.124c-4.609-3.253-8.8-6.171-11.844-8.273L439.912,188l-1-.652C438.624,187.161,438.539,187.092,438.53,187.11Z" transform="translate(-416.507 -124.449)"/><path class="l" d="M479.57,230.829c0-.043-.421.163-.8.755a3.253,3.253,0,0,0,1.339,4.686c.635.3,1.073.275,1.081.223s-.395-.154-.927-.5a3.235,3.235,0,0,1-1.219-4.291C479.321,231.164,479.621,230.881,479.57,230.829Z" transform="translate(-467.88 -130.646)"/><path class="l" d="M482.238,226.189c0-.043-.326.112-.635.524a2.866,2.866,0,0,0-.523,1.931,2.832,2.832,0,0,0,.858,1.8c.378.352.7.446.721.395s-.206-.24-.489-.609a3.141,3.141,0,0,1-.669-1.631,3.175,3.175,0,0,1,.343-1.716C482.084,226.464,482.29,226.24,482.238,226.189Z" transform="translate(-471.759 -129.988)"/><path class="l" d="M481.71,209.68a70.7,70.7,0,0,0,2.489,7.381,66.852,66.852,0,0,0,2.909,7.218,71.732,71.732,0,0,0-2.489-7.372A67.478,67.478,0,0,0,481.71,209.68Z" transform="translate(-476.758 -127.649)"/><path class="l" d="M462.65,231.381a14.846,14.846,0,0,0,2.137-.506,34.639,34.639,0,0,1,5.2-.858,35.188,35.188,0,0,1,5.278,0,16.121,16.121,0,0,0,2.2.137,8.146,8.146,0,0,0-2.171-.446,25.747,25.747,0,0,0-10.591.9,8.179,8.179,0,0,0-2.051.772Z" transform="translate(-450.755 -130.46)"/><path class="l" d="M463.93,228.419c0,.137,2.918,0,6.48.326s6.42.858,6.454.721a7.106,7.106,0,0,0-1.845-.524,38.465,38.465,0,0,0-4.574-.644,36.313,36.313,0,0,0-4.609-.094,7.321,7.321,0,0,0-1.905.215Z" transform="translate(-451.254 -130.27)"/><path class="p" d="M448.782,244.756l-6.711-2.395-5.862-4.291,1.536,3.656s-13.732,0-14.273.584a1.176,1.176,0,0,0,0,1.811c.558.566,11.552,1.493,11.552,1.493s-12.4.978-12.015,1.365,0,1.656,1.716,1.931,8.582,1.073,8.582,1.073l-9.441.618s-.421,1.33,1.716,1.794,8.505,1.45,8.505,1.45-8.788-.987-8.651,0-.223,2.111,1.09,2.111,14.59,1.27,16.247,1.124,23.293.858,23.293.858l-.747-16.9Z" transform="translate(-405.329 -131.673)"/><path class="q" d="M448.872,244.692l.283-.043.858-.172,3.236-.7,12.221-2.686-.154-.129c.189,4.72.429,10.445.7,16.907l.146-.189-11.157-.5-6.051-.24c-2.068-.06-4.18-.18-6.351-.129-4.291-.137-8.737-.618-13.329-.97l-1.716-.129H426.7a.807.807,0,0,1-.635-.206c-.275-.318-.163-.978-.232-1.579v-.112h.051a1.453,1.453,0,0,1,.369-.094,6.615,6.615,0,0,1,.858-.086,59.345,59.345,0,0,1,7.143.43l.05-.448-2.815-.481-4.231-.721a13.1,13.1,0,0,1-2.034-.421,1.914,1.914,0,0,1-.764-.532.97.97,0,0,1-.172-.8l-.2.154,9.441-.627v-.429l-6.136-.764-1.511-.189a6.653,6.653,0,0,1-1.433-.249,1.236,1.236,0,0,1-.764-.97l-.094-.369a1.4,1.4,0,0,0-.086-.215l-.069-.1-.043-.051s-.06-.094,0,.043a.2.2,0,0,1,0,.154h.06l.163-.043.352-.069c3.862-.558,7.664-.858,11.277-1.15V245.4c-2.746-.232-5.407-.489-7.947-.8-.635-.077-1.262-.154-1.88-.257-.309-.043-.609-.1-.91-.163a1.94,1.94,0,0,1-.764-.257.987.987,0,0,1,0-1.408c.094-.172.438-.172.712-.223l.858-.086c4.677-.3,8.934-.309,12.659-.36h.2l-.077-.189-1.545-3.622-.189.146,5.767,4.18h0l5,1.716,1.3.438c.292.1.438.137.438.137l-.438-.18L447.147,244l-4.961-1.819h0l-5.836-4.291-.36-.266.172.412c.472,1.107.961,2.283,1.528,3.63l.12-.189c-3.725,0-7.973,0-12.676.292l-.858.086-.455.077-.249.069a.8.8,0,0,0-.232.189,1.425,1.425,0,0,0-.369.944,1.476,1.476,0,0,0,.4.935,1.081,1.081,0,0,0,.489.257,3.029,3.029,0,0,1,.463.112c.309.069.618.12.935.172.618.1,1.253.18,1.888.266,2.575.318,5.2.584,7.956.858v-.395c-3.622.309-7.4.575-11.32,1.133l-.369.077-.2.051h-.112l-.086.051-.06.069a.232.232,0,0,0,0,.2c.094.172.069.094.077.12h0c0,.017,0,.034,0,.051a.188.188,0,0,0,.051.129l.086.352a1.965,1.965,0,0,0,.335.755,1.717,1.717,0,0,0,.678.506,7.209,7.209,0,0,0,1.528.283l1.511.189,6.154.764v-.438l-9.441.618h-.154l-.043.137a1.416,1.416,0,0,0,.249,1.2,2.2,2.2,0,0,0,.944.678,12.8,12.8,0,0,0,2.12.446l4.24.73,2.824.481.051-.446a57.939,57.939,0,0,0-7.192-.421,5.529,5.529,0,0,0-.91.086,1.921,1.921,0,0,0-.489.137l-.137.086a.686.686,0,0,0-.129.172.669.669,0,0,0,0,.326c0,.275,0,.558,0,.858a1.545,1.545,0,0,0,.3.961,1.262,1.262,0,0,0,.97.343l.858.043,1.716.129c4.6.343,9.029.815,13.38.953,2.137-.052,4.248.06,6.317.112l6.008.223,11.157.463h.189v-.189c-.3-6.463-.566-12.187-.79-16.9V240.7h-.154L453.1,243.508l-3.227.764-.858.206a1.323,1.323,0,0,0-.146.215Z" transform="translate(-405.419 -131.609)"/><g class="c" transform="translate(22.529 71.638)"><path d="M463.843,226.2a34.133,34.133,0,0,0-1.219-14.753,101.152,101.152,0,0,0-5.441-13.878,21.953,21.953,0,0,1,5.724,8.8,56.9,56.9,0,0,1,2.575,10.3c.661,3.785,1.167,8-.961,11.157L463.663,226" transform="translate(-457.183 -197.57)"/></g></g><g transform="translate(277.18 73.61)"><path class="l" d="M314.852,454.51l-.472,23.945,29.79.738c-.1-2.849-15.371-8.943-15.371-8.943l.927-15.32Z" transform="translate(-232.416 -156.459)"/><g class="j" transform="translate(86.317 312.226)"><path class="k" d="M342.212,471.072a1.219,1.219,0,0,0-.858,1.365,1.176,1.176,0,0,0,1.347.858,1.287,1.287,0,0,0,.918-1.459,1.21,1.21,0,0,0-1.5-.755" transform="translate(-341.338 -471.026)"/></g><g class="j" transform="translate(81.964 319.576)"><path class="k" d="M314.362,482.01l.052-2.42,28.6,1.622s1.313.609,1.141,1.536Z" transform="translate(-314.362 -479.59)"/></g><path class="h" d="M334.485,472.663c0,.146-.738.189-1.459.644s-1.124,1.047-1.262.987.112-.858,1-1.425S334.519,472.526,334.485,472.663Z" transform="translate(-237.622 -159.009)"/><path class="h" d="M330.149,474.27c0,.146-.609.378-1.116.978s-.669,1.253-.815,1.244-.215-.858.429-1.579S330.149,474.133,330.149,474.27Z" transform="translate(-230.188 -159.251)"/><path class="h" d="M324.908,478.28c-.137,0-.318-.7.069-1.493s1.081-1.081,1.141-.961-.369.541-.687,1.193S325.045,478.272,324.908,478.28Z" transform="translate(-223.264 -159.476)"/><path class="h" d="M335.018,468.5c-.069.129-.73-.086-1.553-.052s-1.468.283-1.536.154.549-.635,1.519-.661S335.1,468.386,335.018,468.5Z" transform="translate(-238.326 -158.362)"/><path class="h" d="M337.155,464.039a2.8,2.8,0,0,1-1.493-.043,7.288,7.288,0,0,1-1.553-.515,7.72,7.72,0,0,1-.858-.481,1.785,1.785,0,0,1-.446-.36.635.635,0,0,1-.043-.772.772.772,0,0,1,.644-.318,1.77,1.77,0,0,1,.558.086,5.808,5.808,0,0,1,.918.343,5.2,5.2,0,0,1,1.356.936,3.137,3.137,0,0,1,.858,1.236c0,.026-.395-.421-1.09-.961a5.955,5.955,0,0,0-1.3-.79,6.166,6.166,0,0,0-.858-.283c-.318-.086-.584-.094-.669.043s0,.069,0,.163a1.552,1.552,0,0,0,.326.266,7.571,7.571,0,0,0,.781.472,8.342,8.342,0,0,0,1.425.584,12.039,12.039,0,0,1,1.45.395Z" transform="translate(-241.081 -157.456)"/><path class="h" d="M330.861,463.919a2.42,2.42,0,0,1-.361-1.45,4.935,4.935,0,0,1,.249-1.631,4.558,4.558,0,0,1,.4-.858,1.227,1.227,0,0,1,.97-.73.687.687,0,0,1,.609.429,1.835,1.835,0,0,1,.137.549,3.26,3.26,0,0,1,0,1,3.433,3.433,0,0,1-.678,1.528c-.6.755-1.21.918-1.227.858a7.085,7.085,0,0,0,.935-1.073,3.5,3.5,0,0,0,.506-1.39,3.268,3.268,0,0,0,0-.858c0-.318-.146-.575-.266-.541a1.105,1.105,0,0,0-.541.472,5.673,5.673,0,0,0-.386.8,5.546,5.546,0,0,0-.326,1.485C330.758,463.327,330.938,463.9,330.861,463.919Z" transform="translate(-234.985 -157.13)"/><path class="l" d="M398.659,455.34l.472,23.945-29.781.738c.1-2.849,15.371-8.943,15.371-8.943l-.935-15.328Z" transform="translate(-334.555 -156.576)"/><g class="j" transform="translate(57.914 312.945)"><path class="k" d="M375.857,471.9a1.21,1.21,0,0,1,.858,1.365,1.167,1.167,0,0,1-1.347.858,1.279,1.279,0,0,1-.918-1.45,1.2,1.2,0,0,1,1.5-.755" transform="translate(-374.43 -471.863)"/></g><g class="j" transform="translate(34.822 320.289)"><path class="k" d="M399.1,482.84v-2.42L370.5,482.042s-1.3.609-1.133,1.536Z" transform="translate(-369.35 -480.42)"/></g><path class="h" d="M383.5,473.487c0,.146.738.2,1.468.644s1.124,1.056,1.253,1-.1-.9-1-1.425S383.468,473.359,383.5,473.487Z" transform="translate(-333.826 -159.129)"/><path class="h" d="M387.946,475.1c0,.146.6.378,1.116.978s.669,1.244.815,1.236.215-.858-.438-1.571A1.626,1.626,0,0,0,387.946,475.1Z" transform="translate(-341.359 -159.372)"/><path class="h" d="M393.308,479.11c.129,0,.318-.7-.077-1.493s-1.081-1.09-1.141-.961.378.532.687,1.184S393.162,479.1,393.308,479.11Z" transform="translate(-348.403 -159.594)"/><path class="h" d="M382.9,469.328c.069.129.729-.086,1.553-.051s1.468.275,1.545.146-.558-.627-1.528-.652S382.829,469.216,382.9,469.328Z" transform="translate(-333.049 -158.48)"/><path class="h" d="M380.547,464.875a2.789,2.789,0,0,0,1.493,0,6.866,6.866,0,0,0,1.545-.524,7.006,7.006,0,0,0,.858-.472,2.2,2.2,0,0,0,.438-.36.652.652,0,0,0,.051-.781.858.858,0,0,0-.652-.318,2.1,2.1,0,0,0-.558.094,5.069,5.069,0,0,0-.918.343,5.293,5.293,0,0,0-1.347.935,3.015,3.015,0,0,0-.858,1.236c0,.034.395-.421,1.081-.97a6.392,6.392,0,0,1,1.313-.781,6.165,6.165,0,0,1,.858-.283c.309-.094.584-.1.661,0s.043.077,0,.172a1.6,1.6,0,0,1-.326.266,7.46,7.46,0,0,1-.772.472,8.4,8.4,0,0,1-1.433.584,9.839,9.839,0,0,0-1.433.386Z" transform="translate(-330.071 -157.58)"/><path class="h" d="M387.167,464.737a2.411,2.411,0,0,0,.352-1.45,4.875,4.875,0,0,0-.24-1.631,5.194,5.194,0,0,0-.4-.9,1.244,1.244,0,0,0-.953-.755.721.721,0,0,0-.618.438,2.059,2.059,0,0,0-.137.549,3.544,3.544,0,0,0,0,1,3.434,3.434,0,0,0,.678,1.528c.6.755,1.21.91,1.219.858a6.335,6.335,0,0,1-.927-1.073,3.381,3.381,0,0,1-.506-1.39,2.936,2.936,0,0,1,0-.858c.043-.318.154-.575.275-.549a1.075,1.075,0,0,1,.532.481,4.29,4.29,0,0,1,.386.8,4.95,4.95,0,0,1,.326,1.485C387.227,464.162,387.081,464.712,387.167,464.737Z" transform="translate(-336.495 -157.237)"/><path class="h" d="M393.338,315.685s-5.785,59.356-5.441,61.982-1.94,9.08-1.94,9.08-.755,12.874,0,16.307-.335,11.724-.335,11.724-6.274,16.959-7.106,22.632a111.349,111.349,0,0,0-.944,12.17H359.06l-4.54-69.235-4.154-32.527L344.306,449.58s-20.443.541-19.3.163-1.262-10.376-1.262-10.376l-5.149-10.213s-8.643-107.092-8.325-112.009c.223-3.622,39.3-2.309,59.905-1.365C377.546,316.089,393.338,315.685,393.338,315.685Z" transform="translate(-278.048 -136.647)"/><path class="l" d="M331.49,324.05v-3.313l64.248-1.9.9,5.21Z" transform="translate(-299.57 -137.227)"/><path class="l" d="M307.4,361.251a6.978,6.978,0,0,1-7.621-6.866l-.515-30.124-.1-5.561,19.6-.609v8.625l1.811-.206,2.223,8.462,4.411,1,.6,14.959s-5.888,7.184-8.093,8.488C318.5,360.11,312.5,360.788,307.4,361.251Z" transform="translate(-202.992 -137.12)"/><path class="e" d="M270.924,208.742a88.378,88.378,0,0,1,2.944-8.445c.91-1.716,4.9-7.218,4.9-7.218l27.7-12.3a16.418,16.418,0,0,0,13.809,6.008c4.763-.206,7.587-6.068,7.587-6.068l25.086,1.716a17.491,17.491,0,0,1,10.007,3.751c8.694,6.866,26.606,21.533,26.606,21.533l12.11-5.621s8.179,5.965,8.007,6.48-3.922,17.388-10.737,21.456-11.252,4.6-18.238,0c-6.008-3.931-18.255-12.942-13.457-13.946,5.613,32.931,11.715,66.445,3.708,82.589L282,301.157l.729-72.642-19.508,1.365Z" transform="translate(-254.023 -117.647)"/><path class="h" d="M270.736,208.71s-.189.455-.532,1.365-.858,2.274-1.493,4.059c-1.322,3.57-3.253,8.849-5.785,15.714v.129h.137l19.525-1.33-.129-.12c-.206,18.71-.481,43.556-.8,72.642v.189h.146l88.957-2.446h.129l.06-.12a40.21,40.21,0,0,0,3.433-13.294,100.616,100.616,0,0,0,.335-14.041,272.609,272.609,0,0,0-3.038-28.622c-1.365-9.063-2.918-18.023-4.42-26.76v-.24l-.223.06a1.571,1.571,0,0,0-1.167.781,1.716,1.716,0,0,0,.163,1.382,8.679,8.679,0,0,0,1.511,2.06,36.964,36.964,0,0,0,3.673,3.39c2.575,2.1,5.218,4.034,7.922,5.87s5.553,3.6,8.84,4.042a11.964,11.964,0,0,0,4.841-.369,21.843,21.843,0,0,0,4.42-1.871c.361-.189.7-.386,1.039-.584a7.769,7.769,0,0,0,1.013-.644c.318-.249.661-.463.961-.73l.858-.858a7.1,7.1,0,0,0,.772-.91c.24-.318.515-.609.721-.944.429-.661.858-1.3,1.253-1.991a49.777,49.777,0,0,0,3.725-8.514c.5-1.459.944-2.918,1.356-4.377l.592-2.2.137-.549.069-.275a.42.42,0,0,0,0-.2l-.051-.094c0-.06-.069-.086-.1-.137a8.031,8.031,0,0,0-.858-.8c-2.309-1.957-4.712-3.708-7.081-5.458l-.094-.077-.112.051-12.1,5.63h.206L374.5,195.356l-7.2-5.819-3.51-2.841a19.86,19.86,0,0,0-3.682-2.523,17.843,17.843,0,0,0-4.128-1.519,24.41,24.41,0,0,0-4.291-.515l-8.316-.566L327.715,180.5h-.094l-.052.094a12.668,12.668,0,0,1-4.54,5.081c-1.922,1.193-4.291.97-6.334.73a16.161,16.161,0,0,1-10.3-5.733l-.069-.077h-.086l-27.687,12.35h0c-1.716,2.369-3.184,4.463-4.36,6.325a12.751,12.751,0,0,0-1.3,2.755c-.318.858-.584,1.656-.815,2.36-.463,1.408-.79,2.472-1,3.184s-.309,1.081-.309,1.081c.086-.266.489-1.5,1.39-4.24.24-.7.515-1.485.858-2.352a12.626,12.626,0,0,1,1.3-2.721c1.184-1.854,2.678-3.939,4.386-6.3h0l27.721-12.256-.154-.043a16.452,16.452,0,0,0,10.445,5.862c.532.077,1.081.1,1.622.163a15.234,15.234,0,0,0,1.656,0,6.789,6.789,0,0,0,3.253-.936,12.874,12.874,0,0,0,4.66-5.21l-.146.086,15.646,1.1,8.325.584a23.267,23.267,0,0,1,4.214.515,16.993,16.993,0,0,1,4.042,1.493,19.569,19.569,0,0,1,3.63,2.48l3.5,2.849,7.192,5.819,15.036,12.187.094.077.112-.051,12.11-5.622h-.206c2.36,1.716,4.763,3.519,7.046,5.441a9.521,9.521,0,0,1,.79.755.506.506,0,0,1,.069.094h0s.086-.077.146,0-.275-.086-.137,0v.266l-.146.549c-.189.73-.386,1.459-.584,2.189-.412,1.45-.858,2.909-1.356,4.351a49.607,49.607,0,0,1-3.69,8.437c-.36.687-.815,1.313-1.236,1.965-.206.326-.472.609-.7.918a8.293,8.293,0,0,1-.747.858,12.96,12.96,0,0,1-3.759,2.712,20.943,20.943,0,0,1-4.334,1.837,11.6,11.6,0,0,1-4.669.36c-3.158-.421-6.008-2.163-8.643-3.974s-5.347-3.759-7.887-5.853a36.226,36.226,0,0,1-3.63-3.347,8.445,8.445,0,0,1-1.433-1.948,1.27,1.27,0,0,1-.155-1.013,1.176,1.176,0,0,1,.858-.532l-.266-.18c1.493,8.788,3.047,17.706,4.411,26.751a272.545,272.545,0,0,1,3.038,28.579,98.259,98.259,0,0,1-.326,13.972,39.729,39.729,0,0,1-3.39,13.157l.189-.129-89.111,2.583.189.189c.266-29.077.5-53.932.669-72.642v-.129h-.129l-19.516,1.39.086.12,5.682-15.714c.644-1.785,1.124-3.141,1.459-4.068S270.736,208.71,270.736,208.71Z" transform="translate(-253.836 -117.616)"/><path class="n" d="M302.987,180.68c.764,0,25.842.592,25.842.592s4.4,18.71,4.4,22.048c0,2.2,7.063,28.725,14.539,54.567,4.454,15.448-.858,43.264-.858,43.264H319.1l-4.1-26.091L304.1,197.9s1.45-7.372.644-11.93S302.987,180.68,302.987,180.68Z" transform="translate(-228.017 -117.642)"/><g class="s" transform="translate(87.56 156.046)"><path class="k" d="M336.961,289.05q0,4.068-.266,8.119l-33-1.382-.7-6.737Z" transform="translate(-303 -289.05)"/></g><path class="n" d="M365.19,193.142l25.172-12.4,6.136,13.02s8.788,19.019,9.672,37.763,2.257,69.681,2.257,69.681l-41.5.712,7.613-92.261S366.083,195.364,365.19,193.142Z" transform="translate(-340.282 -117.65)"/><g class="s" transform="translate(31.911 68.557)"><path class="k" d="M398.451,187.11a24.047,24.047,0,0,1,2.755,5.913c.506,2.386,2.214,18.066,3.073,43.813s.858,27.206.858,27.206l-6.866.266s1.528-47.255.18-51.855-7.081-21.868-7.081-21.868Z" transform="translate(-391.37 -187.11)"/></g><path class="h" d="M389.516,204.1c.077,0-.343-1.107-.772-2.9a30.967,30.967,0,0,1-.858-7.149,45.012,45.012,0,0,1,.6-7.184c.292-1.828.532-2.952.463-2.97a3.176,3.176,0,0,0-.266.764c-.146.5-.326,1.236-.515,2.146a36.7,36.7,0,0,0-.729,7.252,26.956,26.956,0,0,0,.97,7.218,16.667,16.667,0,0,0,.721,2.094A3.107,3.107,0,0,0,389.516,204.1Z" transform="translate(-340.474 -118.098)"/><g class="s" transform="translate(81.003 63.133)"><path class="k" d="M339.22,200.169a48.5,48.5,0,0,0-9.02-19.379l9.02.249a23.027,23.027,0,0,1,8.153,16.538l-3.176.935Z" transform="translate(-330.2 -180.79)"/></g><path class="h" d="M307.44,329.284a3.11,3.11,0,0,0,.747.352c.489.206,1.2.481,2.094.8a24.753,24.753,0,0,0,7.244,1.545,12.539,12.539,0,0,0,7.166-1.811,8.068,8.068,0,0,0,1.716-1.459,2.71,2.71,0,0,0,.489-.669,16.81,16.81,0,0,1-2.377,1.862,13.079,13.079,0,0,1-6.986,1.631,28.818,28.818,0,0,1-7.166-1.4A22.316,22.316,0,0,0,307.44,329.284Z" transform="translate(-209.186 -138.531)"/><path class="l" d="M356.91,344.349a.992.992,0,0,0,.652.326,2.223,2.223,0,0,0,1.854-.7,5.081,5.081,0,0,0,1.064-2.738c.172-1.09.352-2.257.549-3.484.369-2.472.687-4.712.858-6.334a16.3,16.3,0,0,0,.249-2.643,15,15,0,0,0-.558,2.575c-.283,1.613-.652,3.845-1.03,6.317-.18,1.227-.352,2.4-.515,3.484a5.038,5.038,0,0,1-.858,2.575,2.146,2.146,0,0,1-1.6.738,4.471,4.471,0,0,1-.661-.12Z" transform="translate(-286.884 -138.636)"/><path class="l" d="M363.345,329.475a2.3,2.3,0,0,1,.935,1.279,1.905,1.905,0,0,1-.292,1.588,1.716,1.716,0,0,1-3-1.064,1.871,1.871,0,0,1,.858-1.373,2.309,2.309,0,0,1,1.528-.395.8.8,0,0,0-.438-.172,1.957,1.957,0,0,0-1.27.3,2.163,2.163,0,0,0-1.021,1.656,2.049,2.049,0,1,0,3.965-.592,1.914,1.914,0,0,0-.781-1.047C363.56,329.458,363.354,329.458,363.345,329.475Z" transform="translate(-292.675 -138.713)"/><path class="l" d="M387.22,331.723a2.309,2.309,0,0,0,.532.541,8.7,8.7,0,0,0,1.716,1.107,10.05,10.05,0,0,0,12.445-2.772,8.582,8.582,0,0,0,1.1-1.716,2.07,2.07,0,0,0,.257-.712,23.861,23.861,0,0,1-1.6,2.257,10.239,10.239,0,0,1-12.015,2.686,23.79,23.79,0,0,1-2.437-1.39Z" transform="translate(-354.03 -138.549)"/><path class="l" d="M320.879,423.414c.1.069,4.051-5.767,8.814-13.037s8.582-13.208,8.454-13.277-4.051,5.767-8.823,13.037S320.767,423.345,320.879,423.414Z" transform="translate(-231.971 -148.32)"/><path class="l" d="M377.48,386.23a4.077,4.077,0,0,0,.489.858c.326.541.858,1.3,1.485,2.24,1.3,1.862,3.184,4.368,5.433,7s4.437,4.892,6.076,6.463c.815.79,1.493,1.408,1.974,1.819a4.807,4.807,0,0,0,.772.618,3.973,3.973,0,0,0-.652-.738l-1.871-1.922c-1.579-1.622-3.716-3.9-5.956-6.531s-4.162-5.089-5.518-6.866l-1.6-2.146a4.214,4.214,0,0,0-.626-.8Z" transform="translate(-336.111 -146.779)"/><path class="h" d="M322.09,324.89a5.04,5.04,0,0,0,.935.069l2.643.06-.129-.112c.206,1.905.2,4.523.223,7.613s.077,6.643.12,10.41c.069,3,0,5.827.215,8.428A14.856,14.856,0,0,0,327.943,358a8.582,8.582,0,0,0,3.321,3.253,6.428,6.428,0,0,0,1.176.463,1.718,1.718,0,0,0,.438.086,15.95,15.95,0,0,1-1.528-.7,8.677,8.677,0,0,1-3.133-3.261,14.933,14.933,0,0,1-1.716-6.505c-.154-2.575-.1-5.424-.172-8.4-.069-3.768-.12-7.312-.18-10.41a73.694,73.694,0,0,0-.36-7.638v-.112h-.1l-2.643.06A5.735,5.735,0,0,0,322.09,324.89Z" transform="translate(-227.741 -138.067)"/><path class="n" d="M380.831,140.582c4.051-1.116,6.531-2.575,6.514-4.2s-7.046-5.373-8.668-6.351c-3.845-2.3-8.428.609-15.191.7-13.131.172-23.739,2.987-23.7,6.274,0,1.588,2.515,3,6.566,4.017" transform="translate(-297.4 -110.337)"/><g class="o" transform="translate(44.811 21.42)"><path d="M379.638,140.927c3.6-1,5.888-2.309,5.776-3.716-.309-3.931-9.5-5.149-21.139-5.012s-21.044,2.643-21.01,5.561c0,1.408,2.231,2.652,5.819,3.553" transform="translate(-343.265 -132.188)"/></g><path class="d" d="M384.056,139.5a4.222,4.222,0,0,0,2.764-2.686c.4-1.279-.36-2.729-1.193-3.785a6.925,6.925,0,0,1-.9-1.777c-.635-1.468.506-3.158.223-4.738s-1.674-2.437-3.064-2.961a17.194,17.194,0,0,1-4.1-1.716c-1.193-.858-1.828-2.034-2.867-2.918a5.956,5.956,0,0,0-5.381-1.167c-1.9.541-3.476,2.008-5.424,2.223-1.425.163-2.824-.369-4.291-.455a7.132,7.132,0,0,0-7.141,5.321,8.47,8.47,0,0,1-1.528,3.7c-1.167,1.45-3.176,1.922-4.085,3.536a4.18,4.18,0,0,0-.051,3.218,10.839,10.839,0,0,1,.772,3.2,3.914,3.914,0,0,1-3.047,3.665,3.9,3.9,0,0,0,2.017,2.412,4.455,4.455,0,0,1-2.386.558,7.9,7.9,0,0,0,10.488,4.7" transform="translate(-300.916 -108.692)"/><path class="t" d="M390.206,151.236c-.154-.069-6.291-1.983-6.205,4.291s6.377,4.9,6.377,4.755S390.206,151.236,390.206,151.236Z" transform="translate(-338.375 -113.421)"/><path class="u" d="M389.084,158.255a1.394,1.394,0,0,1-.292.172,1.081,1.081,0,0,1-.858,0,2.721,2.721,0,0,1-1.3-2.42,3.562,3.562,0,0,1,.283-1.571,1.27,1.27,0,0,1,.858-.858.549.549,0,0,1,.652.292c.086.172.051.3.086.309s.129-.1.077-.369a.678.678,0,0,0-.257-.386.858.858,0,0,0-.609-.154,1.571,1.571,0,0,0-1.133,1,3.777,3.777,0,0,0-.352,1.716,2.865,2.865,0,0,0,1.639,2.7,1.193,1.193,0,0,0,1-.18C389.075,158.41,389.11,158.272,389.084,158.255Z" transform="translate(-339.012 -113.755)"/><path class="t" d="M361.021,122h.858a17.165,17.165,0,0,1,16.873,16.058c.523,8.308.858,17.491.858,21.945,0,10.016-9.518,10.479-9.518,10.479h0a10.479,10.479,0,0,1-10.479,10.5h-1.347a10.5,10.5,0,0,1-10.5-10.23l-.712-30.451C346.4,130.72,351.426,122.352,361.021,122Z" transform="translate(-295.853 -109.323)"/><path class="u" d="M369.324,177.98a21.714,21.714,0,0,1-10.822-3.115.266.266,0,0,0-.36.36c1.081,1.716,4.111,5.149,10.659,4.961a.807.807,0,0,0,.764-.772v-1.167a.249.249,0,0,0-.24-.266Z" transform="translate(-295.342 -116.813)"/><path class="h" d="M354.4,149.38a1.322,1.322,0,0,1-1.3,1.3,1.27,1.27,0,0,1-1.339-1.21,1.322,1.322,0,0,1,1.3-1.3,1.27,1.27,0,0,1,1.339,1.21Z" transform="translate(-274.741 -113.033)"/><path class="h" d="M370.986,148.728a1.322,1.322,0,0,1-1.3,1.3,1.253,1.253,0,0,1-1.33-1.21,1.313,1.313,0,0,1,1.288-1.313,1.27,1.27,0,0,1,1.339,1.219Z" transform="translate(-305.56 -112.939)"/><path class="h" d="M355.521,146.163c-.172.163-1.15-.592-2.575-.609s-2.472.669-2.618.489.094-.386.558-.7a3.613,3.613,0,0,1,2.094-.609,3.484,3.484,0,0,1,2.043.7C355.461,145.768,355.6,146.086,355.521,146.163Z" transform="translate(-274.604 -112.545)"/><path class="h" d="M372.076,145.465c-.172.154-1.107-.661-2.523-.772s-2.5.515-2.643.326.12-.378.6-.669a3.6,3.6,0,0,1,2.137-.472,3.484,3.484,0,0,1,1.991.858C372.042,145.07,372.162,145.388,372.076,145.465Z" transform="translate(-305.397 -112.422)"/><path class="h" d="M357.106,156.339a10,10,0,0,1,2.309-.378c.36,0,.712-.094.772-.343a1.768,1.768,0,0,0-.223-1.073c-.326-.858-.661-1.8-1.021-2.772a47.835,47.835,0,0,1-2.274-7.244c.154-.06,1.442,3.1,2.849,7.046.343.97.669,1.9.978,2.789a2.068,2.068,0,0,1,.163,1.416.9.9,0,0,1-.6.524,2.059,2.059,0,0,1-.618.069A9.649,9.649,0,0,1,357.106,156.339Z" transform="translate(-285.243 -112.517)"/><path class="h" d="M360.791,159.35c.232,0,.206,1.528,1.5,2.635s2.935.978,2.944,1.193-.369.292-1.064.3a3.811,3.811,0,0,1-2.455-.91,3.287,3.287,0,0,1-1.159-2.214C360.507,159.71,360.688,159.333,360.791,159.35Z" transform="translate(-293.108 -114.618)"/><path class="d" d="M372.64,138.513c-.18.369-1.571,0-3.244.077s-3.055.343-3.236,0c-.086-.172.189-.506.764-.858a5.622,5.622,0,0,1,4.935-.043C372.443,138.007,372.717,138.333,372.64,138.513Z" transform="translate(-305.326 -111.47)"/><path class="d" d="M355.316,141.75c-.249.318-1.219,0-2.395-.077s-2.171.18-2.395-.163c-.094-.163.069-.481.506-.781a3.493,3.493,0,0,1,3.862.189C355.3,141.235,355.436,141.561,355.316,141.75Z" transform="translate(-274.605 -111.908)"/><path class="d" d="M375.208,120.961c-3.21-1.4-6.531-.858-10.007-.455a15.869,15.869,0,0,0-7.475,2.661,14.19,14.19,0,0,0-5.81,10.857,40.5,40.5,0,0,0,.91,12.453l.343-.06a6.008,6.008,0,0,0-.163,3.2,2.077,2.077,0,0,0,2.489,1.476c1.176-.463,1.279-2.06,1.219-3.33a90.778,90.778,0,0,1,.4-12.779c.3-3.176,2.249-7,4.789-8.428,5.7-3.158,9.9,0,11.827.781,3.15-2.515,6.523-.858,8.308,1.45C381.482,125.329,378.418,122.36,375.208,120.961Z" transform="translate(-302.384 -109.048)"/><path class="f" d="M361.053,131.46c0,.2.36.438,1.116.558a7.535,7.535,0,0,0,3.158-.36,16.651,16.651,0,0,0,4.094-2.034c1.4-.91,2.8-1.965,4.291-2.806a9.441,9.441,0,0,1,4.291-1.39,8.917,8.917,0,0,1,3.648.626c2.043.79,3.09,1.922,3.433,1.656.086-.06.112-.189.077-.4a2.73,2.73,0,0,0-.318-.858,6.909,6.909,0,0,0-2.223-2.309,9.063,9.063,0,0,0-4.617-1.51,9.183,9.183,0,0,0-2.944.343,12.5,12.5,0,0,0-2.815,1.193,35.586,35.586,0,0,0-4.411,3.167,27.866,27.866,0,0,1-3.321,2.334,16.406,16.406,0,0,1-2.437,1.15C361.448,131.082,361.061,131.245,361.053,131.46Z" transform="translate(-313.479 -109.411)"/><path class="f" d="M380.64,138.5a3.09,3.09,0,0,0,1.193.257,7.638,7.638,0,0,0,5.527-1.794,3,3,0,0,0,.815-.91,11.338,11.338,0,0,0-.953.747,8.659,8.659,0,0,1-5.381,1.716C381.1,138.53,380.649,138.453,380.64,138.5Z" transform="translate(-333.289 -111.315)"/><path class="f" d="M381,145.081a1.589,1.589,0,0,0,.481-.112,12.943,12.943,0,0,0,1.253-.455,18.993,18.993,0,0,0,3.871-2.137,19.636,19.636,0,0,0,3.3-2.944,11.892,11.892,0,0,0,.858-1.038A1.458,1.458,0,0,0,391,138a16.209,16.209,0,0,0-1.27,1.313,25.084,25.084,0,0,1-3.321,2.841,24.587,24.587,0,0,1-3.776,2.189C381.635,144.8,380.983,145.038,381,145.081Z" transform="translate(-336.421 -111.591)"/><path class="f" d="M360.456,119.63c0,.043.532.232,1.365.618a8.582,8.582,0,0,1,2.875,2.086,5.149,5.149,0,0,1,1.219,3.244,7.355,7.355,0,0,1-.24,1.459,1.15,1.15,0,0,0,.206-.352,3.57,3.57,0,0,0,.24-1.1,5,5,0,0,0-1.2-3.433,7.724,7.724,0,0,0-3.012-2.077,4.833,4.833,0,0,0-1.45-.446Z" transform="translate(-293.915 -108.987)"/><path class="f" d="M359.243,117.3a9.064,9.064,0,0,1,1.124,1.013,6.54,6.54,0,0,1,1.528,6.711c-.292.858-.627,1.365-.584,1.4s.112-.1.266-.326a5.467,5.467,0,0,0,.523-1,6.317,6.317,0,0,0-1.545-6.926,5.148,5.148,0,0,0-.858-.7A1.511,1.511,0,0,0,359.243,117.3Z" transform="translate(-289.294 -108.657)"/><path class="f" d="M381.29,151.965a4.3,4.3,0,0,0,3.562-2.326c-.077-.06-.644.747-1.631,1.382S381.273,151.871,381.29,151.965Z" transform="translate(-330.523 -113.241)"/><path class="f" d="M381.12,153.4a4.429,4.429,0,0,0,4.085-2.146,13.866,13.866,0,0,1-1.88,1.382A13.51,13.51,0,0,1,381.12,153.4Z" transform="translate(-330.731 -113.47)"/><path class="f" d="M347.529,131.08a1.716,1.716,0,0,0,.858-.292,4.12,4.12,0,0,0,1.5-1.51,4.025,4.025,0,0,0,.566-2.06,1.717,1.717,0,0,0-.154-.858,5.016,5.016,0,0,0-.051.858,4.781,4.781,0,0,1-.618,1.914,4.729,4.729,0,0,1-1.356,1.485C347.821,130.909,347.477,131.029,347.529,131.08Z" transform="translate(-267.152 -109.941)"/><path class="f" d="M349.319,129.057a5.681,5.681,0,0,0,1.45-1.837,5.459,5.459,0,0,0,.858-2.18c-.077,0-.472.935-1.1,2.034A21.446,21.446,0,0,0,349.319,129.057Z" transform="translate(-269.852 -109.754)"/><path class="u" d="M374.313,146.059c-.043.051.378.386.987.618a2.025,2.025,0,0,0,1.159.215,4.783,4.783,0,0,0-1.064-.446A5.024,5.024,0,0,0,374.313,146.059Z" transform="translate(-316.139 -112.733)"/><path class="u" d="M374.81,147.64a7.622,7.622,0,0,0,2.738-.18,3.879,3.879,0,0,0-1.382,0,3.647,3.647,0,0,0-1.356.18Z" transform="translate(-317.658 -112.924)"/><path class="u" d="M348.24,148.78c0,.069.335.129.755.137s.755-.051.755-.12-.335-.129-.755-.137S348.24,148.711,348.24,148.78Z" transform="translate(-267.057 -113.102)"/><path class="u" d="M348.27,147.881c0,.06.326-.051.644-.24s.558-.4.523-.463-.326.051-.652.249S348.235,147.8,348.27,147.881Z" transform="translate(-266.769 -112.89)"/><path class="u" d="M357.47,133.35s.446.137,1.133.412,1.6.738,2.652,1.193a7.192,7.192,0,0,0,2.867.669,3.6,3.6,0,0,0,.858-.1.935.935,0,0,0,.309-.12c0-.052-.455.086-1.193.051a8.274,8.274,0,0,1-2.764-.73c-1.039-.455-1.974-.91-2.695-1.133A3.536,3.536,0,0,0,357.47,133.35Z" transform="translate(-290.516 -110.932)"/><path class="u" d="M357.7,133.1a6.866,6.866,0,0,0,2.806.944,6.652,6.652,0,0,0,2.952-.1,28.375,28.375,0,0,1-2.918-.146A27.1,27.1,0,0,1,357.7,133.1Z" transform="translate(-288.884 -110.897)"/><path class="u" d="M365.475,159.58a2.347,2.347,0,0,1,.858-.747,2.575,2.575,0,0,1,1.15-.06.619.619,0,0,0-.326-.206,1.365,1.365,0,0,0-.918,0,1.339,1.339,0,0,0-.7.609C365.449,159.417,365.449,159.571,365.475,159.58Z" transform="translate(-299.568 -114.496)"/><path class="u" d="M366.877,159.193a2.772,2.772,0,0,1,.807-.961,2.918,2.918,0,0,1,1.2-.343.687.687,0,0,0-.386-.129,1.553,1.553,0,0,0-.953.257,1.716,1.716,0,0,0-.627.764C366.826,159.021,366.843,159.184,366.877,159.193Z" transform="translate(-302.164 -114.392)"/><path class="r" d="M385.143,132.038s-3.579-13.938-3.879-14.59-4.36-6.737-13.9-8.368l-7.87.1s-11.157,3.742-13.131,6.488-2.729,15.946-2.729,15.946l22.005-5.089,15.062,3.433Z" transform="translate(-298.493 -107.492)"/><path class="n" d="M368.132,107.23H370.3a2.223,2.223,0,0,1,2.068,1.313,6.907,6.907,0,0,1,.532,2.206c.189,2.446.961,19.225.961,19.225l-9.87-.326.043-20.735-3.339.79.043-.609a1.794,1.794,0,0,1,.4-1h0a1.785,1.785,0,0,1,1.322-.644Z" transform="translate(-301.866 -107.23)"/><path class="l" d="M384.969,135.836l-.978-3.545-17.388-5.8-21.842,8.831.4,2.772S365.5,131.125,384.969,135.836Z" transform="translate(-299.288 -109.96)"/><path class="n" d="M380.608,129.639l.661.627,5.252,3.819a3.579,3.579,0,0,1-2.017-.283c-3.347-1.528-10.788-2.944-18.778-2.755a87.148,87.148,0,0,0-18.221,2.927c-.661.163-1.313.592-1.845.738a8.677,8.677,0,0,1-2.661.335l6.986-4.291h0a12.153,12.153,0,0,1,8.582-3.957l13.329-.429A12.135,12.135,0,0,1,380.608,129.639Z" transform="translate(-299.331 -109.942)"/><path class="h" d="M385.535,135.048a2.077,2.077,0,0,0-.343-.292,6.386,6.386,0,0,0-1.073-.661,19.2,19.2,0,0,0-4.4-1.459,49.46,49.46,0,0,0-15.208-.7c-2.952.249-5.785.429-8.351.858a62.773,62.773,0,0,0-6.694,1.5c-.944.275-1.777.566-2.506.858a4.342,4.342,0,0,0-1.716,1.047,1.716,1.716,0,0,0-.481,1.193c0,.3.094.438.112.429a1.768,1.768,0,0,1,.532-1.468,4.446,4.446,0,0,1,1.716-.858c.721-.257,1.562-.515,2.5-.755,1.871-.472,4.145-.978,6.669-1.373s5.347-.532,8.316-.781a53.443,53.443,0,0,1,15.071.524,21.249,21.249,0,0,1,4.386,1.27C385.02,134.721,385.492,135.108,385.535,135.048Z" transform="translate(-299.855 -110.69)"/><path class="h" d="M385.02,133.1a3.792,3.792,0,0,1-.429-.215l-1.2-.687-4.394-2.575h0l-1.013-1.322a7.312,7.312,0,0,0-1.159-1.322,4.438,4.438,0,0,0-1.631-.858,8.273,8.273,0,0,0-1.991-.18c-2.781-.051-5.845,0-9.054.163-2.987.12-5.845.292-8.462.463a5.759,5.759,0,0,0-1.837.309,4.626,4.626,0,0,0-1.485.927c-.79.858-1.511,1.716-2.189,2.463h0L344.94,132.8l-1.425.669a3.147,3.147,0,0,1-.515.215l.481-.283,1.39-.73,5.149-2.626h-.043c.678-.772,1.365-1.613,2.18-2.506a4.772,4.772,0,0,1,1.579-1,6.136,6.136,0,0,1,1.931-.343c2.618-.189,5.476-.36,8.471-.489,3.21-.137,6.282-.206,9.072-.137a7.853,7.853,0,0,1,2.06.215,4.729,4.729,0,0,1,1.716.927,7.92,7.92,0,0,1,1.184,1.382l1,1.33h0l4.334,2.661,1.167.747a2.574,2.574,0,0,1,.352.275Z" transform="translate(-297.829 -109.825)"/><path class="h" d="M375.323,122a2.754,2.754,0,0,1-.069-.687c0-.438,0-1.081-.052-1.871V108.341a.627.627,0,0,0-.687-.644l-1.828.369a3.509,3.509,0,0,1-.678.094,2.334,2.334,0,0,1,.652-.223c.429-.129,1.03-.292,1.828-.489a.858.858,0,0,1,1,.858v4.926c0,2.412,0,4.6-.069,6.188a16.063,16.063,0,0,1-.06,1.871A2.316,2.316,0,0,1,375.323,122Z" transform="translate(-313.193 -107.259)"/><path class="h" d="M361.968,121.684a9.441,9.441,0,0,1-.326-2.034c-.146-1.27-.249-3.03-.335-4.961s-.154-3.7-.189-4.969a13.185,13.185,0,0,1,0-2.06,11.637,11.637,0,0,1,.223,2.043c.094,1.27.2,3.03.283,4.969s.172,3.579.232,4.961A14.583,14.583,0,0,1,361.968,121.684Z" transform="translate(-290.294 -107.291)"/><path class="e" d="M415.155,165a170.8,170.8,0,0,1-3.184,17.774c-2.043,8.171-8.754,21.3-9.046,27.421s5.613,45.221,5.613,45.221l-38.621,9.921L341.6,288.3s-83.387,11.44-83.387,10.582-2.918-94.922-2.918-93.111,33.669,3,33.669,3l58.721-13.045Z" transform="translate(-252.688 -115.419)"/><path class="h" d="M415.454,165,347.9,195.545h0l-58.73,13h.052c-4.5-.163-9.1-.378-13.775-.635s-9.441-.558-14.273-1.081c-1.2-.137-2.412-.283-3.6-.506a6.978,6.978,0,0,1-1.716-.481.455.455,0,0,1-.112-.086h-.412v1.433c.086,2.472.163,4.961.249,7.467q.232,7.518.481,15.251c.635,20.6,1.3,42.337,2,64.72l.086,2.909v1.347a.309.309,0,0,0,.094.189c.077.06.051,0,.077.043a.464.464,0,0,0,.154,0,11.925,11.925,0,0,0,1.485-.06c1.94-.154,3.853-.378,5.767-.592l11.389-1.373,22.314-2.884,42.406-5.725h.1L370.259,265.5l-.077.043,38.655-9.964h.146v-.154c-2.094-14.075-3.931-26.846-5.149-38.123-.146-1.416-.292-2.8-.378-4.162,0-.687-.112-1.365-.1-2.025v-1c0-.326.069-.652.094-.978a42.4,42.4,0,0,1,2.043-7.3c1.648-4.574,3.364-8.685,4.746-12.462.7-1.88,1.3-3.673,1.785-5.39s.858-3.347,1.15-4.858c.635-3.03,1.073-5.613,1.408-7.724s.558-3.69.7-4.772.189-1.631.189-1.631-.086.549-.24,1.622-.395,2.678-.738,4.763-.807,4.669-1.45,7.724c-.335,1.51-.687,3.141-1.176,4.849s-1.107,3.493-1.8,5.373c-1.39,3.759-3.124,7.862-4.78,12.445a42.053,42.053,0,0,0-2.077,7.347l-.1,1v1.013c0,.678.06,1.356.094,2.043.086,1.365.232,2.755.369,4.171,1.21,11.294,3.03,24.031,5.107,38.149l.129-.189-38.621,9.9h-.043l-28.322,22.958.1-.043-42.406,5.7-22.314,2.875-11.38,1.339c-1.914.215-3.828.429-5.75.584a11.363,11.363,0,0,1-1.408.06h-.043s-.069.112-.052.12-.249.043.172,0V297.47l-.086-2.909c-.7-22.383-1.373-44.105-2.017-64.72q-.24-7.724-.489-15.26-.12-3.759-.249-7.458v-1.45c-.189,0,.412,0-.421-.043v.06a.4.4,0,0,0,.086.223.858.858,0,0,0,.24.206,7.441,7.441,0,0,0,1.828.524c1.219.223,2.429.378,3.639.506,4.841.524,9.612.807,14.29,1.073s9.278.463,13.783.627h.051l58.712-13.08h0Z" transform="translate(-252.986 -115.419)"/><path class="t" d="M266.94,208.828l2.575-3.278a3.587,3.587,0,0,0,.961-1.948c0-.738-.627-1.536-1.339-1.347a1.94,1.94,0,0,0-.644-3.725,5.758,5.758,0,0,0,.987-2.086,2.4,2.4,0,0,0-.575-2.154,2.429,2.429,0,0,0-2.489-.352,6.308,6.308,0,0,0-2.128,1.553c-.97.944-1.9,1.94-2.772,2.97a3.433,3.433,0,0,0-.772,1.253,1.2,1.2,0,0,0,.4,1.33,3.287,3.287,0,0,0-2.3,4.059c-.584,1.124.566,2.515,1.819,2.661a5.956,5.956,0,0,0,3.545-1.141,2.068,2.068,0,0,0-1.717,2.008,2.1,2.1,0,0,0,1.716,1.991,2.128,2.128,0,0,0,2.24-1.425" transform="translate(-110.926 -119.493)"/><path class="t" d="M432.413,234.3a2.832,2.832,0,0,0-1.854,4.755,2.124,2.124,0,0,0-.772,2.523c.266.918.858,1.716,1.133,2.635.421,1.476.051,3.27,1.1,4.386a4.005,4.005,0,0,0,3.5.755,36.392,36.392,0,0,0,4.06-.858,5.425,5.425,0,0,0,1.674-.644,1.82,1.82,0,0,0,.858-1.485,1.116,1.116,0,0,0-1.159-1.1,1.717,1.717,0,0,0,.455-3.3,1.579,1.579,0,0,0-.472-2.043,6.163,6.163,0,0,0-2.128-.858,11.7,11.7,0,0,1-6.274-4.815" transform="translate(-429.674 -125.237)"/><path class="h" d="M401.115,218.19a.677.677,0,0,0,0,.215c0,.163,0,.369,0,.627v2.429c0,2.146,0,5.149-.077,8.917,0,7.57-.043,17.963-.069,29.446s.052,21.877.069,29.446c0,3.733.051,6.772.069,8.917,0,1.03,0,1.837.043,2.429v.635a.746.746,0,0,0,0,.215.619.619,0,0,0,0-.215c0-.172,0-.378,0-.635v-2.429c0-2.137.043-5.149.069-8.917,0-7.57,0-17.963.069-29.446s-.043-21.877-.06-29.438c0-3.742-.051-6.78-.069-8.926,0-1.03,0-1.837-.043-2.429V218.4a.574.574,0,0,0,0-.215Z" transform="translate(-363.866 -122.959)"/><path class="h" d="M341.162,205.94a.952.952,0,0,0,0,.223c0,.172-.043.395-.069.661-.06.618-.129,1.468-.223,2.575-.18,2.249-.438,5.441-.755,9.372-.652,7.939-1.545,18.881-2.575,30.9s-2.034,22.949-2.746,30.9c-.352,3.931-.644,7.115-.858,9.363-.094,1.081-.163,1.931-.215,2.575l-.043.661a.739.739,0,0,0,0,.223.857.857,0,0,0,.043-.223l.086-.652c.077-.618.172-1.468.3-2.575.232-2.24.575-5.433.987-9.346.807-7.9,1.845-18.813,2.875-30.9s1.862-23,2.412-30.9c.257-3.931.463-7.123.609-9.381.06-1.081.1-1.931.137-2.575v-.669A.857.857,0,0,0,341.162,205.94Z" transform="translate(-245.964 -121.222)"/><path class="h" d="M306.857,190c-.12,0-1.184,17.216-2.377,38.467s-2.051,38.5-1.931,38.5,1.184-17.216,2.377-38.475S306.977,190,306.857,190Z" transform="translate(-184.95 -118.963)"/><g class="v" transform="translate(103.96 189.286)"><path d="M320.671,342.679a2.978,2.978,0,0,1-.541-1.871,19.268,19.268,0,0,0,0-1.991A13.543,13.543,0,0,0,318.6,335.1a9.586,9.586,0,0,1-.541-6.205c.12-.506.412-1.1.935-1.116a7.724,7.724,0,0,0,.652,3.562c.541,1.124,1.45,2.017,2.051,3.107a8.419,8.419,0,0,1,.953,4.059,24.486,24.486,0,0,1-.421,4.188" transform="translate(-317.778 -327.78)"/></g><path class="d" d="M318.89,342.35l-2.678-.069h0c0-2.189-.052-5.707-.12-5.965a24.337,24.337,0,0,0-1.922-3.184,23.177,23.177,0,0,1-1.287-2.249l5.15-.9-1.425-4.06.678-.163s3.33,1.905,3.931,3.828-.858,3.9-1.1,4.549a14.359,14.359,0,0,0-1.279,7.467v.747h0" transform="translate(-208.321 -138.208)"/><path class="d" d="M322.226,330.59l-1.133-4.06-.472.112s-1.03,2.5-.438,4.291Z" transform="translate(-215.296 -138.317)"/><path class="h" d="M318.586,335.58h-.232l-.635.069-2.283.292v-.052c.129.18.257.378.386.6a2.377,2.377,0,0,1,.283.712c.052.515.052,1.056.069,1.622v3.639a.919.919,0,0,0,.077.481.773.773,0,0,0,.318.36.635.635,0,0,0,.815-.077.652.652,0,0,0,.18-.386c0-.146,0-.318,0-.472v-4.1a2.1,2.1,0,0,1,.1-.635c.051-.189.12-.369.18-.532.129-.318.24-.592.343-.815s.18-.386.24-.5l.069-.129v.009l-.06.129c-.051.129-.129.3-.223.515s-.206.5-.326.815c-.06.163-.12.343-.172.532a1.974,1.974,0,0,0-.094.609v4.592a.764.764,0,0,1-.2.446.747.747,0,0,1-.927.094.9.9,0,0,1-.369-.412,1.2,1.2,0,0,1-.094-.541v-3.639a13.66,13.66,0,0,0-.06-1.6,2.075,2.075,0,0,0-.266-.687c-.12-.215-.249-.412-.378-.6l-.043-.051h.146l2.343-.189.627-.051h.215Z" transform="translate(-207.647 -139.6)"/><g class="c" transform="translate(107.197 192.959)"><path d="M319.185,333.193l-2.317.429-.738-1.159,2.352-.4Z" transform="translate(-316.13 -332.06)"/></g><path class="h" d="M318.02,332.16a3.07,3.07,0,0,1,.627.8,2.841,2.841,0,0,1,.463.9,3.291,3.291,0,0,1-.626-.8A2.841,2.841,0,0,1,318.02,332.16Z" transform="translate(-210.48 -139.115)"/><path class="h" d="M317.21,332a3.146,3.146,0,0,1,.618.8,2.84,2.84,0,0,1,.463.9,5.51,5.51,0,0,1-1.081-1.716Z" transform="translate(-208.966 -139.089)"/><path class="h" d="M316.48,331.78a3.381,3.381,0,0,1,.618.8,2.84,2.84,0,0,1,.463.9,2.764,2.764,0,0,1-.627-.8A2.7,2.7,0,0,1,316.48,331.78Z" transform="translate(-207.61 -139.061)"/><path class="h" d="M313.36,331.512h.077l.24-.043.858-.154,2.875-.5,2.875-.489.858-.154.24-.043h-.249l-.858.129c-.738.112-1.759.275-2.875.463s-2.137.369-2.875.515l-.858.18-.232.06Z" transform="translate(-208.833 -138.827)"/><path class="h" d="M299.85,339.806a5.449,5.449,0,0,0,.747.858,11.232,11.232,0,0,0,.953.9l1.408,1.03a14.968,14.968,0,0,0,9.715,1.965,29.181,29.181,0,0,0,9.535-3c1.141-.575,2.043-1.09,2.661-1.459a4.848,4.848,0,0,0,.918-.618,4.994,4.994,0,0,0-.987.446c-.635.318-1.562.781-2.712,1.322a31.7,31.7,0,0,1-9.441,2.841,15.174,15.174,0,0,1-9.5-1.794l-1.416-.953a9.7,9.7,0,0,1-.987-.858A5.532,5.532,0,0,0,299.85,339.806Z" transform="translate(-201.562 -140.152)"/><path class="h" d="M314.659,362.1a1.316,1.316,0,0,0,.592.515,2.48,2.48,0,0,0,2.137,0,3.854,3.854,0,0,0,1.905-2.575,14.538,14.538,0,0,0,.215-3.854c-.06-2.7-.137-5.149-.215-6.926a18.12,18.12,0,0,0-.223-2.867,18.458,18.458,0,0,0-.094,2.875c0,1.777,0,4.223.086,6.926a15.45,15.45,0,0,1-.172,3.742,3.588,3.588,0,0,1-1.639,2.36,2.4,2.4,0,0,1-1.931.146,5.3,5.3,0,0,1-.661-.343Z" transform="translate(-208.038 -141.132)"/><g class="c" transform="translate(46.936 65.802)"><path d="M386.544,183.9c.257,7.6,3.871,15.826,2.24,23.507a28.425,28.425,0,0,1-2.24-23.507" transform="translate(-384.979 -183.9)"/></g></g><g transform="translate(20.667 129.006)"><path class="h" d="M539.482,198.109a3.339,3.339,0,0,1,6.068,0l5.218.429L545.489,208.9l-3.3-6.085a3.321,3.321,0,0,1-2.7-4.712Z" transform="translate(-414.307 -177.374)"/><path class="h" d="M507.9,180.033l-3.433-1.45,8.213-2.068a3.347,3.347,0,1,1,.781,4.454l-7.81,4.772Z" transform="translate(-352.596 -174.369)"/><path class="h" d="M532.172,282.39v-.069l56.4-105.109.318-.592,8.883,4.051-42.56,112.078v.06l-25.327,40.26-.506-.077-.584-.086-.463-.069,5.244-8.325-3.064-7.887-8.1,3-3.553,11.8-.429-.06-.541-.086-.472-.069Zm-3.648,17.028,10.119-2.575-5.87-11.458Zm11.011-2.832,12.453-3.193-18.375-8.368Zm-4.695-16.161,12.925-3.57-5.3-10.642Zm13.809-3.819,11.389-3.141-16.753-7.63Zm-4.6-13.354,11.912-4.154-4.248-10.144Zm12.762-4.454,10.462-3.648-14.822-6.754Zm-3.433-12.985,10.848-4.686-3.21-9.552Zm11.681-5.046,9.286-4.008-12.539-5.742Zm-2.489-12.093h.06l9.741-5.244-2.171-9.012Zm9.63-17.9,8.514-5.716L579.581,197Zm9.338-6.274L588.4,199.9l-8-3.648Zm7.252-24.657-7.226,13.474L589,187.048Zm1.382,16.8,5.235-13.809-5.5,4.635Zm-.3-10.3,5.9-4.969-6.119-2.789Zm-.858,1.888-7.149,6.008,7.415,3.381Zm-.463,12.659-6.866,4.626,1.382,9.887Zm-7.724,5.149-8.273,5.561,9.672,4.4Zm-9.878,7.544,2.257,9.441,8.4-4.549Zm10.5,5.965-8.025,4.343,2.472,10.3Zm-8.849,4.78-8.943,4.84,11.355,5.149Zm1.991,13.294-9.252,4,3.665,10.857Zm-10.076,4.36-10.342,4.489,14.015,6.385Zm3.115,13.989-10.488,3.656,4.772,11.4Zm-11.346,3.948-11.346,3.957,16.075,7.329Zm4.429,14.281-11.681,3.227L555,289.376Zm-12.565,3.433-12.685,3.553,18.684,8.514Zm4.506,16.47-12.728,3.27,4.789,9.346Zm-13.62,3.5-10.393,2.669L544.05,307.3Zm-4.883,25.919,6.8-10.805-9.612,3.553Zm-3.133-8.085,10.719-3.974.257-.412-14.968-6.814-.154.515Zm-.858.309-3.716-9.6L522.714,318.5Z" transform="translate(-442.631 -174.603)"/><path class="h" d="M649.061,226.8V213.424c0-8.582,0-20.993.043-36.115v-.094h-.094l-15.817-1.665h-.06l-.043.043-41.2,46.028L531.962,288.71,513.9,308.964l-4.926,5.544-1.27,1.442c-.292.326-.429.5-.429.5s.154-.154.446-.481l1.3-1.425,4.961-5.51c4.291-4.8,10.513-11.732,18.2-20.3L592.168,221.7l41.2-46.045h-.094L649.1,177.3l-.094-.1c0,15.122,0,27.507.043,36.115v12.513C649.044,226.392,649.061,226.8,649.061,226.8Z" transform="translate(-485.265 -174.452)"/><rect class="h" width="2.523" height="5.416" rx="0.38" transform="translate(162.697 38.235)"/><path class="h" d="M502.307,225.805H510.6a.927.927,0,0,0,.927-.927h0a.918.918,0,0,0-.927-.918h-8.291a.918.918,0,0,0-.927.893h0a.927.927,0,0,0,.927.953Z" transform="translate(-342.631 -181.314)"/><path class="h" d="M506.286,243.206V242.03l1.219.515a7.459,7.459,0,0,1,0,1.313.42.42,0,0,1-.043.206.627.627,0,0,1-.3.206,2.386,2.386,0,0,0-1.253,1.1,1.442,1.442,0,0,0,.858,2.017,1.493,1.493,0,0,0,1.862-1c0-.2,0-.489.283-.515.412-.043.584.549.575.858a2.575,2.575,0,0,1-2.472,2.395,2.618,2.618,0,0,1-1.4-.309,2.7,2.7,0,0,1-1.3-1.845C503.917,244.622,506.415,243.36,506.286,243.206Z" transform="translate(-343.074 -183.876)"/><path class="d" d="M504.538,240.211l-5.3-12.762a1.716,1.716,0,0,1,1.613-2.429h10.608a1.716,1.716,0,0,1,1.622,2.429l-5.3,12.762a1.716,1.716,0,0,1-3.236,0Z" transform="translate(-342.364 -181.464)"/><path class="a" d="M501.828,226.08l1.373,1.373v.154l-.446,1.073-2.575-2.575Z" transform="translate(-333.277 -181.615)"/><path class="a" d="M501.32,226.08h1.708l3.811,3.811-.5,1.2Z" transform="translate(-337.893 -181.615)"/><path class="a" d="M506.03,233.278l-1.21-2.918,7.364,7.372-.5,1.2Z" transform="translate(-346.242 -182.221)"/><path class="a" d="M506,237.17l3.931,3.939-.129.318a1.073,1.073,0,0,1-.644.609l-1.948-1.948Z" transform="translate(-345.002 -183.187)"/><path class="a" d="M502.48,226.08h1.708l6.222,6.222-.506,1.2Z" transform="translate(-342.46 -181.615)"/><path class="a" d="M503.62,227.088a1.091,1.091,0,0,1,.18-.506,1.073,1.073,0,0,1,.609-.412l8.583,8.582-.5,1.2Z" transform="translate(-346.021 -181.627)"/><path class="h" d="M674.178,336.55h-7.012a2.266,2.266,0,0,0-2.266,2.266v3.124h11.543v-3.124a2.266,2.266,0,0,0-2.266-2.266Z" transform="translate(-647.89 -197.274)"/><path class="h" d="M639.722,338.664h1.888V327.4a4.985,4.985,0,0,0-.223-1.468l-.953-2.944a.069.069,0,0,0-.129,0l-1.116,1.974.292.918a4.739,4.739,0,0,1,.24,1.5Z" transform="translate(-590.991 -195.346)"/><path class="w" d="M584.908,341.621a4.145,4.145,0,0,1,3.09-2.48h47.349v-7.887a1.914,1.914,0,0,1,1.922-1.914h22.872a1.931,1.931,0,0,1,1.828,1.33l.678,2.171h-2.575a2,2,0,0,0-1.528.7,1.888,1.888,0,0,0-.4,1.6l2.446,11.6a1.974,1.974,0,0,0,1.931,1.536h4.866a7.386,7.386,0,0,1-.137,2.214l-.266,1.159,12.53,2.472a.515.515,0,0,1,.4.395L681.1,357.7a2.018,2.018,0,0,1,.163.455h0c.249,1.047.069,2.8-.566,2.8H667.274l.592.661.755,2.352H583.355C583.372,356.315,583.578,344.823,584.908,341.621Zm59.09-7.2,1.262,11.4a1.043,1.043,0,0,0,.06.429,5.021,5.021,0,0,0,4.986,3.922h5.622a1.716,1.716,0,0,0,1.716-2.1L655,334.335a1.931,1.931,0,0,0-1.88-1.536h-7.664a1.442,1.442,0,0,0-1.433,1.6Z" transform="translate(-582.831 -196.252)"/><path class="l" d="M608.719,375.489l36.287.506c.232,0,.652-.7.652-.935v-4.051a.429.429,0,0,0-.429-.429h-36.51a.429.429,0,0,0-.429.429v4.051a.438.438,0,0,0,.429.429Z" transform="translate(-568.519 -202.098)"/><path class="a" d="M610.951,334.985l1.262,11.406a1.063,1.063,0,0,0,.06.429,5.029,5.029,0,0,0,4.986,3.922h5.622a1.716,1.716,0,0,0,1.716-2.094l-2.643-13.732a1.94,1.94,0,0,0-1.88-1.536H612.41a1.442,1.442,0,0,0-1.433,1.6Z" transform="translate(-549.784 -196.825)"/><g class="x" transform="translate(61.167 136.555)"><g transform="translate(-60.648 31.223)"><path class="a" d="M598.168,370.67a1.957,1.957,0,0,1,.112-.91h85.069a1.956,1.956,0,0,1,.112.91Z" transform="translate(-598.155 -369.76)"/></g><path class="a" d="M626.185,330.64l5.149,15.9a7.639,7.639,0,0,1,.189,3.931l-2.189,10.17H599.58V331.224a1.914,1.914,0,0,1,1.923-1.914h22.889a1.914,1.914,0,0,1,1.794,1.33Z" transform="translate(-608.248 -332.803)"/></g><path class="l" d="M622.862,350.741a1.716,1.716,0,0,0,1.716-2.1l-2.643-13.732a1.931,1.931,0,0,0-1.88-1.536h-7.664a1.442,1.442,0,0,0-1.433,1.6l1.262,11.4a1.043,1.043,0,0,0,.06.429,5.021,5.021,0,0,0,4.986,3.922Z" transform="translate(-549.765 -196.823)"/><path class="l" d="M608.946,348.867a7.217,7.217,0,0,0-.343-1.648l-4.446-13.809h-2.575a1.974,1.974,0,0,0-1.528.712,1.863,1.863,0,0,0-.4,1.6l2.455,11.612a1.957,1.957,0,0,0,1.922,1.536Z" transform="translate(-524.357 -196.829)"/><path class="h" d="M598.209,371.91h85.232c.652,0,.652-2.36,0-2.36H598.209C597.557,369.55,597.557,371.91,598.209,371.91Z" transform="translate(-597.72 -201.952)"/><path class="h" d="M602.28,341.44v1.9c0,1.253.094,3.03.163,5.218s.172,4.832.266,7.724c0,.729.06,1.476.086,2.24a5.149,5.149,0,0,0,.5,2.317,3.2,3.2,0,0,0,1.965,1.476,8.756,8.756,0,0,0,2.506.292L625,362.278l5.218-.129,1.416-.043h-1.416l-5.227.043-17.225.249a8.72,8.72,0,0,1-2.429-.283,2.97,2.97,0,0,1-1.82-1.347,5,5,0,0,1-.472-2.206c0-.764-.06-1.511-.094-2.24-.12-2.909-.232-5.527-.326-7.724s-.18-3.957-.24-5.21c0-.6-.06-1.073-.077-1.425v-.369C602.289,341.483,602.28,341.44,602.28,341.44Z" transform="translate(-549.833 -197.967)"/><path class="h" d="M608.739,364.156c.077,0,.137-2.5.137-5.579s-.06-5.587-.137-5.587-.129,2.5-.129,5.587S608.67,364.156,608.739,364.156Z" transform="translate(-532.012 -199.605)"/><path class="h" d="M608.78,329.42a5.077,5.077,0,0,0,.094.807c.077.515.2,1.262.36,2.18.326,1.837.815,4.368,1.442,7.149s1.253,5.278,1.716,7.081c.249.858.455,1.631.609,2.128a4.176,4.176,0,0,0,.257.764,5.151,5.151,0,0,0-.163-.79c-.137-.558-.309-1.279-.523-2.146-.446-1.811-1.047-4.291-1.665-7.1s-1.15-5.3-1.519-7.123c-.18-.858-.326-1.613-.446-2.171a4.389,4.389,0,0,0-.163-.781Z" transform="translate(-536.542 -196.264)"/><path class="a" d="M620.766,358.555a1.382,1.382,0,0,1-.463-.189.858.858,0,0,1-.318-.463.987.987,0,0,1,.086-.721.858.858,0,0,1,.747-.386h3.7a.764.764,0,0,1,.764.7.781.781,0,0,1-.506.858.859.859,0,0,1-.249.051h-3.27a2.189,2.189,0,0,0-.523.052,2.189,2.189,0,0,0,.523.051c.343,0,.858,0,1.433.043l1.047.094h.858a1.064,1.064,0,0,0,0-2.12h-3.7a.97.97,0,0,0-.9.515.858.858,0,0,0-.12.446,1.048,1.048,0,0,0,.052.4.944.944,0,0,0,.395.506.858.858,0,0,0,.386.12C620.723,358.581,620.766,358.564,620.766,358.555Z" transform="translate(-558.363 -200.106)"/><path class="h" d="M672.93,344.6c0,.069,3.433.129,7.776.129s7.784-.06,7.784-.129-3.484-.137-7.784-.137S672.93,344.52,672.93,344.6Z" transform="translate(-666.828 -198.396)"/><path class="h" d="M672.93,346.4c0,.069,3.433.129,7.776.129s7.784-.06,7.784-.129-3.484-.129-7.784-.129S672.93,346.33,672.93,346.4Z" transform="translate(-666.828 -198.652)"/><path class="h" d="M672.93,348.2c0,.077,3.433.137,7.776.137s7.784-.06,7.784-.137-3.484-.129-7.784-.129S672.93,348.13,672.93,348.2Z" transform="translate(-666.828 -198.907)"/><path class="h" d="M672.93,349.979c0,.069,3.433.129,7.776.129s7.784-.06,7.784-.129-3.484-.129-7.784-.129S672.93,349.927,672.93,349.979Z" transform="translate(-666.828 -199.16)"/><path class="h" d="M672.93,351.809c0,.077,3.433.129,7.776.129s7.784-.052,7.784-.129-3.484-.129-7.784-.129S672.93,351.74,672.93,351.809Z" transform="translate(-666.828 -199.419)"/><path class="h" d="M672.93,353.619c0,.069,3.433.129,7.776.129s7.784-.06,7.784-.129-3.484-.129-7.784-.129S672.93,353.542,672.93,353.619Z" transform="translate(-666.828 -199.676)"/><path class="h" d="M672.93,355.419c0,.077,3.433.129,7.776.129s7.784-.051,7.784-.129-3.484-.129-7.784-.129S672.93,355.35,672.93,355.419Z" transform="translate(-666.828 -199.931)"/><path class="h" d="M664.137,394.8c4.677,0,8.582-4.506,8.582-9.175a8.874,8.874,0,0,0-8.788-8.582l-75.225-3.433a10.136,10.136,0,0,0-9.441,5.261,10.033,10.033,0,0,0-.858,6.978c1.965,9.089,9.544,8.977,12.479,8.78S664.137,394.8,664.137,394.8Z" transform="translate(-569.696 -202.525)"/><ellipse class="l" cx="7.01" cy="7.01" rx="7.01" ry="7.01" transform="translate(99.362 188.488) rotate(-158.839)"/><circle class="l" cx="9.089" cy="9.089" r="9.089" transform="translate(19.508 194.466) rotate(-135)"/><path class="l" d="M587.92,375.62h.189l.575.06,2.214.223c1.914.189,4.695.438,8.136.721,6.866.566,16.384,1.219,26.9,1.716s20.049.644,26.949.687h8.171l-8.171-.077c-6.866-.086-16.418-.3-26.932-.764s-20.023-1.09-26.9-1.6l-8.145-.644-2.214-.172h-.575Z" transform="translate(-569.425 -202.813)"/><path class="l" d="M588.11,395.449c0,.069,16.358.129,36.535.129s36.535-.06,36.535-.129-16.358-.129-36.535-.129S588.11,395.372,588.11,395.449Z" transform="translate(-566.723 -205.605)"/><path class="a" d="M599.539,363.644a15.051,15.051,0,0,0,.524-1.768c.3-1.09.747-2.575,1.2-4.291a36.05,36.05,0,0,0,.935-4.36,9.453,9.453,0,0,0,.077-1.347,1.654,1.654,0,0,0-.06-.5,11.574,11.574,0,0,1-.2,1.819c-.2,1.116-.558,2.643-1.013,4.291s-.858,3.2-1.124,4.291c-.129.558-.232,1-.283,1.322a2.1,2.1,0,0,0-.06.541Z" transform="translate(-517.628 -199.377)"/><path class="g" d="M668.461,390.387a2.2,2.2,0,0,0,.523-.343,6.127,6.127,0,0,0,1.167-1.236,7.071,7.071,0,0,0,1.1-2.283,6.864,6.864,0,0,0,.137-3.09,6.986,6.986,0,0,0-3.158-4.523,6.011,6.011,0,0,0-1.553-.7,2.576,2.576,0,0,0-.609-.129,10.3,10.3,0,0,1,2.06.987,7.242,7.242,0,0,1,1.785,1.716,6.926,6.926,0,0,1,1.219,2.721,6.787,6.787,0,0,1-.112,2.987,7.43,7.43,0,0,1-1.013,2.24,9.778,9.778,0,0,1-1.545,1.656Z" transform="translate(-643.95 -203.161)"/><path class="k" d="M614.32,342.66a48.715,48.715,0,0,0,3.9,2.978,44.891,44.891,0,0,0,4.06,2.781,47.081,47.081,0,0,0-3.905-2.987,45.773,45.773,0,0,0-4.059-2.772Z" transform="translate(-550.321 -198.14)"/><path class="k" d="M616.16,340.18a33.873,33.873,0,0,0,3.433,2.575,35.383,35.383,0,0,0,3.553,2.326,34.185,34.185,0,0,0-3.433-2.575,37.315,37.315,0,0,0-3.553-2.326Z" transform="translate(-552.761 -197.789)"/><path class="k" d="M603.04,344a9.2,9.2,0,0,0,1.716,1.365,9.684,9.684,0,0,0,1.88,1.15,9.835,9.835,0,0,0-1.716-1.365,9.545,9.545,0,0,0-1.88-1.15Z" transform="translate(-524.991 -198.33)"/><path class="k" d="M603.63,341.69a13.462,13.462,0,0,0,1.974,1.717,13.009,13.009,0,0,0,2.129,1.485,13.738,13.738,0,0,0-1.965-1.716,12.88,12.88,0,0,0-2.137-1.485Z" transform="translate(-526.594 -198.003)"/><path class="a" d="M620.17,355.819a30.37,30.37,0,0,0,5.587,0,30.373,30.373,0,0,0-5.587,0Z" transform="translate(-558.814 -199.987)"/><path class="g" d="M580.728,392.521a2.172,2.172,0,0,0,.618-.129,5.733,5.733,0,0,0,1.528-.755,6.317,6.317,0,0,0,1.777-1.819,6.214,6.214,0,0,0,1.021-2.935,6.292,6.292,0,0,0-.592-3.055,6.565,6.565,0,0,0-1.511-2.051,5.535,5.535,0,0,0-1.408-.961,1.88,1.88,0,0,0-.592-.215,8.582,8.582,0,0,1,1.88,1.3,6.643,6.643,0,0,1,1.408,2.017,5.871,5.871,0,0,1-.4,5.767,6.559,6.559,0,0,1-1.716,1.794,8.5,8.5,0,0,1-2.008,1.039Z" transform="translate(-484.887 -203.519)"/><path class="k" d="M584.86,362.169c0,.069,2.7.129,6.008.129s6.051-.06,6.051-.129-2.712-.129-6.051-.129S584.86,362.092,584.86,362.169Z" transform="translate(-499.671 -200.888)"/><path class="w" d="M516.6,187.556l4.592-9.784a6.008,6.008,0,0,1,8.025-2.927h0a6.008,6.008,0,0,1,2.927,8.033l-4.557,9.784a.369.369,0,0,1-.481.18l-10.3-4.8a.369.369,0,0,1-.206-.489Z" transform="translate(-376.857 -174.27)"/></g><g transform="translate(105.83 337.654)"><path class="l" d="M512.33,475.224h65.75V429.54H517.3Z" transform="translate(-512.33 -421.679)"/><rect class="h" width="65.759" height="45.693" transform="translate(7.415 7.861)"/><path class="l" d="M504.25,429.54s.223.137.661.369l1.888,1.03c1.639.91,3.974,2.292,6.814,4.06s6.214,3.922,10.179,5.956a41.805,41.805,0,0,0,13.689,4.506,25.748,25.748,0,0,0,7.5-.146,29.988,29.988,0,0,0,6.7-1.957,46.081,46.081,0,0,0,10.144-6.008c2.669-2.043,4.695-3.845,6.1-5.089l1.6-1.468a3.977,3.977,0,0,0,.532-.532,4.88,4.88,0,0,0-.592.463l-1.656,1.39c-1.433,1.2-3.493,2.97-6.171,4.969a46.956,46.956,0,0,1-10.11,5.888,27.463,27.463,0,0,1-14,2.043,42.051,42.051,0,0,1-13.56-4.437c-3.939-2-7.321-4.137-10.2-5.853s-5.227-3.081-6.866-3.939c-.858-.438-1.485-.755-1.94-.961a3.979,3.979,0,0,0-.721-.283Z" transform="translate(-497.376 -421.679)"/><path class="l" d="M531.49,428.267a15.211,15.211,0,0,1,1.983-3.433,10.986,10.986,0,0,1,3.278-2.738,10.737,10.737,0,0,1,5.038-1.279,10.608,10.608,0,0,1,5.055,1.227,11.158,11.158,0,0,1,3.3,2.7,15.163,15.163,0,0,1,2.008,3.433V427.9a7.467,7.467,0,0,0-.249-.764,10.609,10.609,0,0,0-1.468-2.575,11.159,11.159,0,0,0-3.364-2.867,10.81,10.81,0,0,0-13.809,2.952,10.11,10.11,0,0,0-1.442,2.575,5.909,5.909,0,0,0-.24.772,1.091,1.091,0,0,0-.094.275Z" transform="translate(-502.85 -420.38)"/><path class="l" d="M537.971,454.414a6.444,6.444,0,0,0,.052-.858c0-.618,0-1.382.06-2.3,0-1.94.086-4.635.1-7.724l-.215.215h4.051c-.438-.446-.12-.12-.223-.215h0v6.042c0,1.819,0,3.433.052,4.849l.146-.154c-1.227,0-2.223.06-2.927.086a10.075,10.075,0,0,0-1.124.069,5.4,5.4,0,0,0,1.03.069c.7,0,1.717.069,3.021.086h.154v-.154c0-1.382,0-3.03.052-4.849v-6.042h0c-.1-.1.223.215-.232-.232h-4.291v.215c0,3.2.06,6.008.094,7.9,0,.858.052,1.639.06,2.249A4.29,4.29,0,0,0,537.971,454.414Z" transform="translate(-498.225 -423.629)"/></g></g></svg>