<svg xmlns="http://www.w3.org/2000/svg" width="18.909" height="15.127" viewBox="0 0 18.909 15.127"><defs><style>.a{fill:#3a88ec;}</style></defs><path class="a" d="M9.455,29.345c-1.513,0-3.025-1.324-3.782-1.891C1.891,24.807.756,23.862,0,23.295v7.942a1.891,1.891,0,0,0,1.891,1.891H17.018a1.891,1.891,0,0,0,1.891-1.891V23.295c-.756.567-1.891,1.513-5.673,4.16C12.48,28.022,10.967,29.345,9.455,29.345ZM17.018,18H1.891A1.891,1.891,0,0,0,0,19.891v.945c1.513,1.135,1.324,1.135,6.807,5.105.567.378,1.7,1.513,2.647,1.513s2.08-1.135,2.647-1.324c5.484-3.971,5.295-3.971,6.807-5.105V19.891A1.891,1.891,0,0,0,17.018,18Z" transform="translate(0 -18)"/></svg>