<svg xmlns="http://www.w3.org/2000/svg" width="615" height="896.046" viewBox="0 0 615 896.046"><defs><style>.a{opacity:0.12;}.b{fill:#5ea2f8;}</style></defs><g class="a" transform="translate(0)"><path class="b" d="M188.926,207.134h-2.957l-1.159-17.984L173.14,204.1l2.278,3.037H173.1l-1.159-1.519-1.159,1.519h-2.358l2.358-3.037-11.27-14.907-1.119,17.944h-2.917l5.235-81.489h-.56a.719.719,0,0,1-.44-.679v-.6h0V111.217L149.8,99.228a6.834,6.834,0,1,1,3.037-12.589,6.754,6.754,0,0,1,2.8,3.637l9.592,2.118A12.429,12.429,0,0,1,184.45,102.7v21.461h0v.639a.719.719,0,0,1-.68.719h0Zm-17.5-81.489-7.993,15.986h16.665L172.5,125.645Zm10.151,14.587-.919-14.627h-5.995Zm-17.984-14.587-.839,13.468,6.594-13.468h-5.755Zm-3.477,54.393,10.95-17.225-8.912-14.467Zm11.99-18.943,9.152-14.387H163.269Zm1.079,1.719,11.03,17.864L182.132,148.7Zm-11.99,19.143h21.741l-10.711-17.345Zm10.871,20.622,11.99-15.586H160.071Z" transform="translate(9.198 -85.587)"/><path class="b" d="M178.976,150.087V861.852h-5.435v-6.064H145.565v6.064h-5.4V150.087h5.4v29.783l13.428-24.393L146.564,132.3h-2.078V125.56h30.933V132.3H173.9l-12.869,23.247,12.509,23.314V150.087ZM145.605,744.808v47.168l13.388-24.191-12.429-23.18ZM160.033,766.1l11.99-21.293h-23.3Zm12.589-28.234-12.589-23.517L147,737.868Zm-13.628-25.4-12.429-23.18h-.959v47.168Zm1.039-1.82,11.99-21.36h-23.3Zm12.589-28.3L160.033,658.9,147,682.344Zm-13.628-25.336-12.429-23.18h-.959V681Zm1.039-1.887,11.63-21.225h-23.3Zm12.589-27.964-12.589-23.517L147,627.158Zm-13.628-25.4-12.429-23.18h-.959v47.168Zm1.039-1.819,11.99-21.36h-23.3Zm12.589-28.3-12.589-23.449L147,571.634ZM158.993,546.3l-12.429-23.18h-.959v47.168Zm1.039-1.887,11.99-21.36h-23.3Zm12.589-28.3-12.589-23.449L147,516.178Zm-13.628-25.336L146.564,467.6h-.959v47.168Zm1.039-1.819,11.99-21.36h-23.3Zm12.589-28.3-12.589-23.517L147,460.655Zm-13.628-25.336-12.429-23.18h-.959v47.168Zm1.039-1.887,11.63-21.9h-23.3Zm12.589-28.3-12.589-23.449L147,405.2ZM158.993,379.8l-12.429-23.18H145.6v47.168Zm1.039-1.819,11.99-21.36h-23.3Zm12.589-28.3-12.589-23.517L147,349.676ZM158.993,324.34l-12.429-23.18H145.6v47.168Zm1.039-1.887,11.99-21.36h-23.3Zm12.589-28.3L160.032,270.7,147,294.219Zm-13.628-25.336-12.429-23.18H145.6V292.8ZM160.032,267l11.99-21.36h-23.3Zm12.589,526.6-12.589-23.449L147,793.661Zm.919-2.021V745.685l-12.509,22.573Zm0-55.524v-45.82L161.031,712.8Zm0-55.456V634.7l-12.509,22.573Zm0-55.524v-45.82l-12.509,22.573Zm0-55.523v-45.82L161.031,546.3Zm0-55.456V468.2l-12.509,22.64Zm0-55.524v-45.82l-12.509,22.573Zm0-55.456V356.953l-12.509,22.573Zm0-55.523v-45.82L161.031,324.34Zm0-55.456V246.243l-12.509,22.573Zm-13.508-77.895L146.484,238.7h26.657Zm13.508,21.428v-45.82l-12.509,22.573Zm-14.547-23.315-12.429-23.112H145.6V236.4ZM145.6,847.971l13.388-24.258L146.564,800.6H145.6Zm14.427-26.077,11.99-21.36h-23.3Zm1,1.887,12.509,23.247v-45.82Zm10.631-634.612h-23.3l11.47,21.36ZM146.8,849.117h25.618L159.833,825.6Zm13.029-695.054,11.99-21.293h-23.3Zm0,3.774L146.285,182.3h26.657Z" transform="translate(27.901 34.194)"/><path class="b" d="M619.422,151.249v.52a3.277,3.277,0,0,1-3.277,3.237H38.05v-5.4h2.478V121.635H38.05v-5.4H570.584a11.549,11.549,0,0,1,6.874,2.278L618.1,148.652A3.277,3.277,0,0,1,619.422,151.249Zm-53.513-29.614H538.692l13.388,12.509ZM553.2,135.263l13.948,13.029V122.634Zm-14.867,11.43,12.629-11.43-12.629-11.99Zm-5.355-24.978H505.8l13.388,12.509Zm-12.709,13.548,13.948,13.029V122.634Zm-14.827,11.43,12.629-11.43L505.4,123.274Zm-5.355-24.978H472.87l13.388,12.509Zm-12.709,13.548,13.948,13.029V122.634Zm-14.867,11.43,12.629-11.43-12.629-11.99Zm-5.355-24.978H439.779l13.388,12.509Zm-12.709,13.548,13.948,13.029V122.634Zm-14.867,11.43,12.669-11.43-12.669-11.99Zm-5.315-24.978H407.047l13.388,12.509Zm-12.709,13.548,13.908,13.029V122.634Zm-14.867,11.43,12.629-11.43-12.629-11.99Zm-5.355-24.978H374.156l13.388,12.509Zm-12.709,13.548,13.948,13.029V122.634Zm-14.867,11.43,12.669-11.43-12.669-11.99Zm-5.315-24.978H341.225l13.388,12.509Zm-12.589,13.548,13.908,13.029V122.634Zm-14.867,11.43,12.509-11.43-12.669-11.99Zm-5.355-24.978H308.413l13.428,12.509Zm-12.709,13.548,13.948,13.029V122.634Zm-14.867,11.43,12.549-11.43-12.669-11.99Zm-4-23.979-13.948,12.629L303.9,148.292Zm4,27.056h27.976l-14.347-13.428-13.748,12.469Zm32.931,0h27.976l-14.347-13.428-13.748,12.469Zm32.891,0h27.976L387.5,136.342l-13.748,12.469Zm32.931,0h27.976l-14.347-13.428-13.748,12.469Zm32.891,0h28.056l-14.348-13.428-13.748,12.469Zm32.931,0h27.976l-14.347-13.428L472.51,148.812Zm32.931,0h27.976l-14.387-13.428-13.708,12.469Zm32.891,0h27.976L552.08,136.342l-13.748,12.469ZM301.5,121.8H275.522L288.91,134.3,302.7,121.8ZM44.764,146.773l12.509-11.51-12.629-11.99ZM58.512,134.3,72.1,121.715H44.884Zm211.3-12.509H242.591l13.348,12.429ZM257.1,135.343l13.948,13.029V122.714Zm-14.867,11.43,12.549-11.51-12.669-11.99ZM236.876,121.8H209.7L223.088,134.3Zm-12.909,13.468,13.948,13.029V122.634Zm-14.827,11.43,12.709-11.43-12.669-11.99Zm-5.355-24.978H176.569l13.388,12.509Zm-12.709,13.548,13.948,13.029V122.634Zm-14.867,11.43,12.749-11.43-12.669-11.99Zm-5.355-24.978H143.678l13.388,12.509Zm-12.709,13.548,13.868,13.029V122.634Zm-14.827,11.43,12.709-11.43-12.669-11.99Zm-5.355-24.978H110.746l13.308,12.509Zm-12.709,13.548L139.2,148.292V122.634Zm-14.867,11.43,12.709-11.43-12.629-11.99Zm-5.355-24.978H77.855l13.388,12.509ZM92.323,135.263l13.948,13.029V122.634ZM77.5,146.693,90.2,135.263l-12.669-11.99Zm-18.064-11.43,13.948,13.029V122.634ZM77.5,149.691h27.976L91.084,136.262,77.376,148.732Zm32.891,0h27.975l-14.347-13.428-13.748,12.469Zm32.931,0h27.976l-14.388-13.428L143.2,148.732Zm32.891,0h27.976l-14.347-13.428-13.748,12.469Zm32.931,0h27.976l-14.347-13.428-13.748,12.469Zm32.891,0h27.976L255.66,136.262l-13.748,12.469Zm32.931-3,12.709-11.43L275,123.274Zm-230.4,3H72.54L58.192,136.262,44.444,148.732Zm256.735,0h1.758l-14.347-13.428-13.748,12.469v.959Zm313.206,0-37.048-25.737a11.989,11.989,0,0,0-6.315-2.158v27.975Z" transform="translate(-4.422 6.266)"/><path class="b" d="M137.69,116.01v39.765h31.253l3.237-4.276L160.031,116.01Z" transform="translate(44.608 5.577)"/><path class="b" d="M575.771,204.747a6.357,6.357,0,0,0-1.4-.52l-4.236-1.319-16.346-4.956-60.227-17.744L294.616,122.419,170.725,86.73h-.52l-.36.36L50.27,199.352a28.42,28.42,0,0,0,2.438-1.838c1.519-1.319,3.8-3.277,6.674-5.835,5.795-5.2,14.227-12.829,24.818-22.58,21.261-19.5,51.315-47.4,86.924-80.65l-.919.24L294.1,124.657l198.826,56.99,60.427,17.105,16.466,4.556,4.276,1.119Z" transform="translate(-9.608 -82.161)"/><path class="b" d="M187.4,114.35a6.394,6.394,0,0,0-5,2.438c-3.037,3.757-7.593,10.671-7.993,11.35s0,23.979,0,35.289a6.434,6.434,0,0,0,6.394,6.354h57.749a6.434,6.434,0,0,0,6.434-6.434v-42.6a6.434,6.434,0,0,0-6.434-6.434Z" transform="translate(-174.23 0.483)"/><path class="b" d="M161.555,96.7a8.592,8.592,0,1,1-2.5-6.1,8.593,8.593,0,0,1,2.5,6.1Z" transform="translate(28.537 -78.146)"/><ellipse class="b" cx="4.796" cy="4.796" rx="4.796" ry="4.796" transform="translate(153.803 2.451)"/><path class="b" d="M137.06,120.485c.32,18.024-.28,72.377-.28,72.377h65.343l-1.758-10.711a9.235,9.235,0,0,1,0-3.317l4.8-23.7-11.71-36.448a5.6,5.6,0,0,0-5.315-4h-45.52a5.6,5.6,0,0,0-5.555,5.795Z" transform="translate(15.265 1.622)"/></g></svg>