<svg xmlns="http://www.w3.org/2000/svg" xmlns:xlink="http://www.w3.org/1999/xlink" width="757.474" height="862.083" viewBox="0 0 757.474 862.083"><defs><style>.a{fill:#5ea2f8;}.b{opacity:0.12;}.c{clip-path:url(#a);}</style><clipPath id="a"><path class="a" d="M610.951,340.495l5.593,50.564a4.716,4.716,0,0,0,.266,1.9,22.3,22.3,0,0,0,22.105,17.387h24.921a7.61,7.61,0,0,0,7.61-9.283L659.727,340.19a8.6,8.6,0,0,0-8.332-6.81H617.419a6.392,6.392,0,0,0-6.354,7.115Z" transform="translate(-610.951 -333.38)"/></clipPath></defs><g class="b"><path class="a" d="M540.551,204.787a14.8,14.8,0,0,1,26.9,0l23.133,1.9-23.4,45.922-14.648-26.975a14.724,14.724,0,0,1-11.985-20.888Z" transform="translate(14.359 -112.866)"/><path class="a" d="M519.681,197.423l-15.219-6.43,36.411-9.169a14.838,14.838,0,1,1,3.462,19.746l-34.622,21.154Z" transform="translate(168.773 -172.312)"/><path class="a" d="M582.85,645.507v-.3l250-465.957,1.408-2.625,39.378,17.958L684.967,691.429v.266L572.692,870.173l-2.245-.342-2.587-.381-2.055-.3,23.246-36.905-13.583-34.965-35.916,13.316L523.8,862.906l-1.9-.266-2.4-.381-2.093-.3Zm-16.17,75.485,44.857-11.414-26.024-50.792Zm48.814-12.555L670.7,694.283l-81.458-37.1Zm-20.812-71.642,57.3-15.827-23.513-47.178ZM655.9,619.864l50.488-13.925-74.267-33.823Zm-20.393-59.2,52.809-18.414-18.833-44.971Zm56.575-19.746,46.379-16.17L672.754,494.8Zm-15.218-57.565,48.091-20.773-14.229-42.346Zm51.781-22.372,41.166-17.768L714.225,417.76Zm-11.034-53.608h.266l43.183-23.246-9.626-39.949ZM760.3,328.008l37.742-25.339-5.022-35.688ZM801.694,300.2l30.437-20.355-35.459-16.17Zm32.15-109.308-32.035,59.733,32.948-27.774Zm6.125,74.457,23.209-61.217L838.79,224.673Zm-1.331-45.656,26.176-22.029-27.127-12.365Zm-3.8,8.37-31.693,26.633,32.872,14.99Zm-2.054,56.119-30.437,20.507,6.125,43.83Zm-34.242,22.828L761.86,331.66l42.879,19.518Zm-43.792,33.443L764.751,382.3,802,362.135Zm46.569,26.442-35.573,19.252L776.7,431.8Zm-39.226,21.192-39.644,21.458,50.336,22.828Zm8.827,58.934L729.9,464.747l16.246,48.129Zm-44.667,19.328-45.847,19.9,62.13,28.307Zm13.811,62.016-46.493,16.208L714.72,595.1Zm-50.3,17.5-50.3,17.54,71.262,32.492Zm19.632,63.31-51.782,14.306,26.442,53Zm-55.7,15.219L597.46,640.143l82.828,37.742ZM673.668,697.4l-56.423,14.5,21.23,41.433Zm-60.38,15.523-46.074,11.833,68.294,31.2Zm-21.649,114.9,30.133-47.9-42.613,15.751Zm-13.887-35.84,47.52-17.616,1.141-1.826L560.06,742.336l-.685,2.283Zm-3.8,1.37L557.473,750.82l-16.55,54.787Z" transform="translate(-185.909 -167.68)"/><path class="a" d="M1135.839,402.727V343.45c0-38.047,0-93.062.19-160.1v-.418h-.419l-70.12-7.381h-.266l-.19.19L882.41,379.785,616.73,677.2l-80.088,89.79L514.8,791.563l-5.631,6.392c-1.294,1.446-1.9,2.207-1.9,2.207s.685-.685,1.979-2.131l5.745-6.316,21.991-24.426c19.023-21.268,46.607-52.01,80.7-89.98L883.628,380.127l182.624-204.12h-.418l70.158,7.3-.418-.457c0,67.038,0,121.94.19,160.1v55.472C1135.763,400.938,1135.839,402.727,1135.839,402.727Z" transform="translate(-409.718 -170.681)"/><rect class="a" width="11.186" height="24.007" rx="0.38" transform="translate(721.251 169.497)"/><path class="a" d="M505.491,231.317h36.753a3.919,3.919,0,0,0,4.109-3.7h0a3.488,3.488,0,0,0-1.206-2.6,4.319,4.319,0,0,0-2.9-1.06H505.491a3.9,3.9,0,0,0-4.109,3.559h0a3.5,3.5,0,0,0,1.163,2.68,4.347,4.347,0,0,0,2.947,1.119Z" transform="translate(202.367 -34.907)"/><path class="a" d="M513.208,247.66l-.822-3.19,5.4,2.283c.171,1.937.994,1.862.822,3.8a1.863,1.863,0,0,1-.19.913,2.779,2.779,0,0,1-1.332.913,10.577,10.577,0,0,0-5.555,4.87,6.392,6.392,0,0,0,3.8,8.941,6.62,6.62,0,0,0,8.256-4.451c0-.875,0-2.169,1.256-2.283,1.826-.19,2.587,2.435,2.549,3.8a11.414,11.414,0,0,1-10.957,10.615,11.606,11.606,0,0,1-6.2-1.37,11.985,11.985,0,0,1-5.783-8.18C502.707,253.938,513.779,248.345,513.208,247.66Z" transform="translate(210.325 15.355)"/><path class="a" d="M7.608,72.414A7.61,7.61,0,0,1,.688,61.642L24.2,5.067a7.609,7.609,0,0,1,14.343,0L62.058,61.642a7.611,7.611,0,0,1-6.921,10.771c-.077,0-.155,0-.232,0H7.879C7.789,72.413,7.7,72.414,7.608,72.414Zm7.576-36.948-2.245,5.326L40.523,68.377h7.572ZM10.733,46.157,8.526,51.484,25.419,68.377H32.99ZM6.167,56.848,4.189,61.6v.685l6.088,6.088,7.3-.114ZM19.483,24.661l-2.207,5.326L55.323,68.034a4.759,4.759,0,0,0,2.7-1.826,4.849,4.849,0,0,0,.8-2.245Zm4.565-10.577L21.842,19.41,54.486,52.092,49.121,39.156,24.048,14.084ZM29.756,4.61h0a4.758,4.758,0,0,0-2.854,2.7l-.571,1.408L43.757,26.183,38.392,13.247,29.756,4.61Z" transform="translate(757.474 265.495) rotate(180)"/><path class="a" d="M706.029,336.55H674.945A10.045,10.045,0,0,0,664.9,346.594v13.849h51.173V346.594a10.044,10.044,0,0,0-10.044-10.044Z" transform="translate(-589.492 280.871)"/><path class="a" d="M641.549,392.62h8.37V342.7a22.088,22.088,0,0,0-.989-6.506l-4.223-13.05a.3.3,0,0,0-.571,0L639.19,331.9l1.294,4.071a21.01,21.01,0,0,1,1.065,6.658Z" transform="translate(-425.52 242.721)"/><path class="a" d="M590.241,383.785a18.376,18.376,0,0,1,13.7-11h209.9V337.824a8.484,8.484,0,0,1,8.522-8.485H923.758a8.561,8.561,0,0,1,8.1,5.9l3.006,9.626H923.454a8.864,8.864,0,0,0-6.772,3.12,8.369,8.369,0,0,0-1.788,7.115l10.843,51.439a8.751,8.751,0,0,0,8.561,6.81H955.87a32.76,32.76,0,0,1-.608,9.816l-1.18,5.136,55.548,10.957a2.283,2.283,0,0,1,1.788,1.75l5.25,14.039a8.944,8.944,0,0,1,.723,2.017h0c1.1,4.642.3,12.4-2.511,12.4H955.375L958,472.4l3.348,10.425H583.355C583.431,448.921,584.344,397.977,590.241,383.785Zm261.951-31.921,5.593,50.526a4.626,4.626,0,0,0,.266,1.9,22.257,22.257,0,0,0,22.105,17.387h24.921a7.609,7.609,0,0,0,7.609-9.321l-11.719-60.875a8.56,8.56,0,0,0-8.332-6.81H858.66a6.392,6.392,0,0,0-6.354,7.115Z" transform="translate(-581.034 260.649)"/><path class="a" d="M610.192,392.343l160.861,2.245c1.028,0,2.892-3.12,2.892-4.147V372.482a1.9,1.9,0,0,0-1.9-1.9H610.192a1.9,1.9,0,0,0-1.9,1.9V390.44a1.94,1.94,0,0,0,1.9,1.9Z" transform="translate(-431.982 376.313)"/><path class="a" d="M610.951,340.495l5.593,50.564a4.716,4.716,0,0,0,.266,1.9,22.3,22.3,0,0,0,22.105,17.387h24.921a7.61,7.61,0,0,0,7.61-9.283L659.727,340.19a8.6,8.6,0,0,0-8.332-6.81H617.419a6.392,6.392,0,0,0-6.354,7.115Z" transform="translate(-339.792 271.98)"/><g class="c" transform="translate(271.158 605.36)"><g transform="translate(-268.856 138.414)"><path class="a" d="M598.212,373.793a8.679,8.679,0,0,1,.495-4.033H975.825a8.671,8.671,0,0,1,.495,4.033Z" transform="translate(-598.155 -369.76)"/></g><path class="a" d="M717.524,335.207l22.828,70.5a33.861,33.861,0,0,1,.837,17.425l-9.7,45.085H599.58V337.795a8.485,8.485,0,0,1,8.523-8.484h101.47a8.484,8.484,0,0,1,7.952,5.9Z" transform="translate(-638.007 -344.795)"/></g><path class="a" d="M663.76,410.376a7.609,7.609,0,0,0,7.609-9.321L659.651,340.18a8.56,8.56,0,0,0-8.332-6.81H617.343a6.392,6.392,0,0,0-6.354,7.115l5.593,50.526a4.622,4.622,0,0,0,.266,1.9,22.257,22.257,0,0,0,22.1,17.387Z" transform="translate(-339.717 271.952)"/><path class="a" d="M641,401.932a31.992,31.992,0,0,0-1.522-7.305L619.766,333.41H608.352a8.75,8.75,0,0,0-6.772,3.158,8.257,8.257,0,0,0-1.788,7.076l10.881,51.477a8.675,8.675,0,0,0,8.523,6.81Z" transform="translate(-266.009 272.064)"/><path class="a" d="M599.889,380.013H977.73c2.892,0,2.892-10.463,0-10.463H599.889C597,369.55,597,380.013,599.889,380.013Z" transform="translate(-597.72 373.424)"/><path class="a" d="M602.28,341.44v8.408c0,5.555.419,13.431.723,23.132s.76,21.42,1.179,34.242c0,3.234.266,6.544.38,9.93a22.829,22.829,0,0,0,2.207,10.273,14.192,14.192,0,0,0,8.712,6.544,38.814,38.814,0,0,0,11.11,1.294l76.4-1.446,23.132-.571,6.278-.19h-6.278l-23.171.19-76.359,1.1a38.658,38.658,0,0,1-10.767-1.256,13.164,13.164,0,0,1-8.066-5.973,22.18,22.18,0,0,1-2.093-9.778c0-3.386-.266-6.7-.418-9.93-.533-12.9-1.028-24.5-1.446-34.242s-.8-17.54-1.065-23.094c0-2.663-.267-4.756-.343-6.316v-1.636C602.318,341.63,602.28,341.44,602.28,341.44Z" transform="translate(-369.777 294.585)"/><path class="a" d="M609.181,402.489c.343,0,.609-11.072.609-24.73s-.266-24.768-.609-24.768-.571,11.072-.571,24.768S608.877,402.489,609.181,402.489Z" transform="translate(-269.044 326.979)"/><path class="a" d="M608.78,329.42A22.531,22.531,0,0,0,609.2,333c.343,2.283.875,5.593,1.6,9.664,1.446,8.142,3.614,19.366,6.392,31.693s5.555,23.4,7.609,31.389c1.1,3.8,2.017,7.229,2.7,9.436a18.526,18.526,0,0,0,1.141,3.386,22.843,22.843,0,0,0-.723-3.5c-.608-2.473-1.369-5.669-2.32-9.512-1.979-8.028-4.642-19.023-7.381-31.464s-5.1-23.475-6.734-31.579c-.8-3.8-1.446-7.153-1.979-9.626a19.459,19.459,0,0,0-.723-3.462Z" transform="translate(-288.542 260.873)"/><path class="a" d="M623.839,365.512a6.129,6.129,0,0,1-2.055-.837,3.8,3.8,0,0,1-1.407-2.055,4.377,4.377,0,0,1,.38-3.2,3.8,3.8,0,0,1,3.31-1.712h16.4a3.386,3.386,0,0,1,3.386,3.12,3.462,3.462,0,0,1-2.245,3.8,3.8,3.8,0,0,1-1.1.228h-14.5a9.709,9.709,0,0,0-2.321.228,9.7,9.7,0,0,0,2.321.228c1.522,0,3.8,0,6.354.19l4.642.419h3.8a4.718,4.718,0,0,0,0-9.4h-16.4a4.3,4.3,0,0,0-3.995,2.283,3.8,3.8,0,0,0-.533,1.978,4.648,4.648,0,0,0,.229,1.788,4.186,4.186,0,0,0,1.75,2.245,3.8,3.8,0,0,0,1.712.533C623.649,365.626,623.839,365.55,623.839,365.512Z" transform="translate(-347.201 336.904)"/><path class="a" d="M672.93,345.069c0,.3,15.219.571,34.47.571s34.508-.266,34.508-.571-15.447-.609-34.508-.609S672.93,344.726,672.93,345.069Z" transform="translate(-645.879 303.055)"/><path class="a" d="M672.93,346.841c0,.3,15.219.571,34.47.571s34.508-.266,34.508-.571-15.447-.571-34.508-.571S672.93,346.536,672.93,346.841Z" transform="translate(-645.879 308.132)"/><path class="a" d="M672.93,348.641c0,.342,15.219.609,34.47.609s34.508-.266,34.508-.609-15.447-.571-34.508-.571S672.93,348.336,672.93,348.641Z" transform="translate(-645.879 313.18)"/><path class="a" d="M672.93,350.421c0,.3,15.219.571,34.47.571s34.508-.266,34.508-.571-15.447-.571-34.508-.571S672.93,350.192,672.93,350.421Z" transform="translate(-645.879 318.173)"/><path class="a" d="M672.93,352.251c0,.342,15.219.571,34.47.571s34.508-.228,34.508-.571-15.447-.571-34.508-.571S672.93,351.946,672.93,352.251Z" transform="translate(-645.879 323.305)"/><path class="a" d="M672.93,354.061c0,.3,15.219.571,34.47.571s34.508-.266,34.508-.571-15.447-.571-34.508-.571S672.93,353.718,672.93,354.061Z" transform="translate(-645.879 328.382)"/><path class="a" d="M672.93,355.861c0,.342,15.219.571,34.47.571s34.508-.228,34.508-.571-15.447-.571-34.508-.571S672.93,355.556,672.93,355.861Z" transform="translate(-645.879 333.43)"/><path class="a" d="M959.406,467.6c20.736,0,38.047-19.974,38.047-40.672a39.341,39.341,0,0,0-38.96-38.047L625.014,373.658a44.933,44.933,0,0,0-41.851,23.323,44.479,44.479,0,0,0-3.8,30.932c8.713,40.291,42.308,39.8,55.32,38.922S959.406,467.6,959.406,467.6Z" transform="translate(-540.741 384.763)"/><ellipse class="a" cx="31.074" cy="31.074" rx="31.074" ry="31.074" transform="translate(440.478 835.582) rotate(-158.839)"/><circle class="a" cx="40.292" cy="40.292" r="40.292" transform="translate(86.48 862.083) rotate(-135)"/><path class="a" d="M587.92,375.62h.837l2.549.267,9.816.989c8.484.837,20.812,1.94,36.068,3.2,30.438,2.511,72.631,5.4,119.239,7.609s88.877,2.853,119.466,3.044h36.221l-36.221-.342C845.458,390,803.112,389.05,756.5,387s-88.763-4.832-119.238-7.115l-36.106-2.853-9.816-.761h-2.549Z" transform="translate(-505.929 390.449)"/><path class="a" d="M588.11,395.891c0,.3,72.517.571,161.965.571s161.965-.266,161.965-.571-72.517-.571-161.965-.571S588.11,395.548,588.11,395.891Z" transform="translate(-493.298 445.701)"/><path class="a" d="M599.54,405.749a66.679,66.679,0,0,0,2.321-7.838c1.331-4.832,3.31-11.414,5.326-19.023a159.827,159.827,0,0,0,4.147-19.327,41.965,41.965,0,0,0,.342-5.973,7.332,7.332,0,0,0-.266-2.207,51.3,51.3,0,0,1-.875,8.066c-.875,4.946-2.473,11.718-4.489,19.023s-3.8,14.191-4.984,19.023c-.571,2.473-1.028,4.451-1.255,5.859a9.267,9.267,0,0,0-.267,2.4Z" transform="translate(-236.423 322.464)"/><path class="a" d="M676.682,432.639a9.771,9.771,0,0,0,2.32-1.522,27.159,27.159,0,0,0,5.175-5.479,31.348,31.348,0,0,0,4.87-10.121,30.423,30.423,0,0,0,.609-13.7,30.97,30.97,0,0,0-14-20.051,26.651,26.651,0,0,0-6.887-3.12,11.419,11.419,0,0,0-2.7-.571,45.657,45.657,0,0,1,9.131,4.375,32.111,32.111,0,0,1,7.914,7.609,30.7,30.7,0,0,1,5.4,12.061,30.089,30.089,0,0,1-.495,13.24,32.934,32.934,0,0,1-4.49,9.93,43.339,43.339,0,0,1-6.848,7.343Z" transform="translate(-568.021 397.348)"/><path class="a" d="M614.32,342.66a215.952,215.952,0,0,0,17.311,13.2,199.009,199.009,0,0,0,18,12.327,208.737,208.737,0,0,0-17.312-13.24A202.936,202.936,0,0,0,614.32,342.66Z" transform="translate(-330.606 298.007)"/><path class="a" d="M616.16,340.18a150.158,150.158,0,0,0,15.219,11.414A156.864,156.864,0,0,0,647.13,361.9a151.512,151.512,0,0,0-15.219-11.414A165.439,165.439,0,0,0,616.16,340.18Z" transform="translate(-335.109 291.051)"/><path class="a" d="M603.04,344a40.8,40.8,0,0,0,7.609,6.049,42.944,42.944,0,0,0,8.332,5.1,43.6,43.6,0,0,0-7.609-6.049,42.312,42.312,0,0,0-8.332-5.1Z" transform="translate(-257.043 301.765)"/><path class="a" d="M603.63,341.69a59.677,59.677,0,0,0,8.751,7.61,57.678,57.678,0,0,0,9.436,6.582,60.881,60.881,0,0,0-8.713-7.609,57.086,57.086,0,0,0-9.473-6.582Z" transform="translate(-262.123 295.287)"/><path class="a" d="M620.17,356.261a134.64,134.64,0,0,0,24.768,0,134.664,134.664,0,0,0-24.769,0Z" transform="translate(-348.175 334.552)"/><path class="a" d="M580.728,433.447a9.623,9.623,0,0,0,2.739-.571,25.411,25.411,0,0,0,6.772-3.348,28,28,0,0,0,7.876-8.066,27.546,27.546,0,0,0,4.528-13.012,27.893,27.893,0,0,0-2.625-13.545,29.1,29.1,0,0,0-6.7-9.093,24.543,24.543,0,0,0-6.24-4.261,8.334,8.334,0,0,0-2.625-.951,38.047,38.047,0,0,1,8.332,5.783,29.451,29.451,0,0,1,6.24,8.941,26.024,26.024,0,0,1-1.789,25.567,29.07,29.07,0,0,1-7.609,7.952,37.7,37.7,0,0,1-8.9,4.6Z" transform="translate(-155.861 404.416)"/><path class="a" d="M584.86,362.611c0,.3,11.985.571,26.633.571s26.823-.266,26.823-.571-12.023-.571-26.823-.571S584.86,362.268,584.86,362.611Z" transform="translate(-207.209 352.362)"/><path class="a" d="M516.7,233.166l20.355-43.373a26.633,26.633,0,0,1,35.574-12.974h0A26.632,26.632,0,0,1,585.6,212.43L565.4,255.8a1.636,1.636,0,0,1-2.131.8l-45.656-21.268a1.636,1.636,0,0,1-.913-2.169Z" transform="translate(102.778 -174.27)"/></g></svg>