<svg xmlns="http://www.w3.org/2000/svg" xmlns:xlink="http://www.w3.org/1999/xlink" width="914.036" height="1040.266" viewBox="0 0 914.036 1040.266"><defs><style>.a{fill:#5ea2f8;}.b{opacity:0.1;}.c{clip-path:url(#a);}</style><clipPath id="a"><path class="a" d="M684.174,341.965l-6.749,61.015a5.691,5.691,0,0,1-.321,2.3,26.9,26.9,0,0,1-26.674,20.981H620.359a9.182,9.182,0,0,1-9.182-11.2L625.317,341.6a10.376,10.376,0,0,1,10.055-8.218h41a7.713,7.713,0,0,1,7.667,8.585Z" transform="translate(-610.951 -333.38)"/></clipPath></defs><g class="b" transform="translate(0)"><path class="a" d="M599.542,206.569a17.859,17.859,0,0,0-32.458,0l-27.914,2.3,28.235,55.414,17.675-32.55a17.767,17.767,0,0,0,14.462-25.2Z" transform="translate(-355.111 -95.65)"/><path class="a" d="M563.033,202.064,581.4,194.3,537.461,183.24a17.905,17.905,0,1,0-4.178,23.828l41.778,25.526Z" transform="translate(-479.747 -171.764)"/><path class="a" d="M868.3,742.421v-.367L566.626,179.788l-1.7-3.168L517.41,198.29,745.08,797.835v.322l135.482,215.366,2.708-.413,3.122-.459,2.479-.367L860.82,967.749l16.39-42.192,43.339,16.069,19.007,63.127,2.3-.321,2.892-.459,2.525-.367Zm19.513,91.086-54.129-13.773,31.4-61.29Zm-58.9-15.15L762.3,801.278l98.294-44.763Zm25.113-86.449-69.141-19.1,28.373-56.929Zm-73.87-20.43-60.923-16.8,89.617-40.814Zm24.608-71.437L741.04,617.82l22.726-54.266Zm-68.269-23.828L680.53,596.7l79.287-36.131Zm18.364-69.463-58.03-25.067,17.17-51.1Zm-62.484-27L642.7,498.315,709.775,467.6Zm13.314-64.688h-.322l-52.109-28.051,11.616-48.206ZM654.177,359.3l-45.543-30.576,6.06-43.064Zm-49.95-33.561L567.5,301.175l42.789-19.512Zm-38.795-131.9,38.657,72.079L564.33,232.4Zm-7.391,89.847-28.006-73.87L559.464,234.6Zm1.606-55.093-31.586-26.582L560.8,187.088Zm4.591,10.1,38.243,32.137-39.667,18.089Zm2.479,67.718,36.729,24.746-7.391,52.889Zm41.32,27.546,44.258,29.75-51.741,23.552Zm52.843,40.355-12.075,50.5-44.946-24.333Zm-56.194,31.908,42.926,23.231-13.222,55.093Zm47.334,25.572,47.839,25.894-60.74,27.546Zm-10.652,71.115L690.86,524.3l-19.6,58.077Zm53.9,23.323,55.323,24.011L675.617,584.4ZM678.6,601.062l56.1,19.558-25.526,60.969ZM739.3,622.181l60.693,21.165L714,682.554Zm-23.69,76.4,62.484,17.262-31.908,63.953Zm67.213,18.364,67.856,19.007-99.947,45.543Zm-24.1,88.1L826.8,822.535l-25.618,50Zm72.86,18.731,55.6,14.278L804.763,875.7ZM857.7,962.424l-36.361-57.8,51.42,19.007Zm16.757-43.248L817.113,897.92l-1.377-2.2L895.8,859.263l.826,2.755Zm4.591,1.653L898.926,869.5,918.9,935.612Z" transform="translate(-433.252 -165.832)"/><path class="a" d="M507.5,449.681V378.153c0-45.911,0-112.3-.229-193.191v-.5h.505l84.613-8.907h.321l.229.23L813.309,422,1133.9,780.88l96.642,108.349,26.352,29.658,6.795,7.713c1.561,1.745,2.3,2.663,2.3,2.663s-.826-.826-2.387-2.571l-6.932-7.621L1230.13,889.6c-22.955-25.664-56.24-62.76-97.376-108.578L811.84,422.411,591.469,176.1h.5l-84.659,8.815.5-.551c0,80.894,0,147.143-.229,193.191v66.937C507.591,447.524,507.5,449.681,507.5,449.681Z" transform="translate(-469.665 -169.674)"/><rect class="a" width="13.498" height="28.97" rx="0.38" transform="translate(30.213 204.53)"/><path class="a" d="M550.688,232.838h-44.35a4.729,4.729,0,0,1-4.958-4.459h0a4.209,4.209,0,0,1,1.455-3.139,5.212,5.212,0,0,1,3.5-1.279h44.35a4.708,4.708,0,0,1,4.958,4.294h0a4.226,4.226,0,0,1-1.4,3.234,5.245,5.245,0,0,1-3.556,1.35Z" transform="translate(-490.816 4.168)"/><path class="a" d="M521.4,248.32l.992-3.849-6.519,2.755c-.207,2.337-1.2,2.247-.992,4.584a2.249,2.249,0,0,0,.229,1.1,3.353,3.353,0,0,0,1.607,1.1,12.763,12.763,0,0,1,6.7,5.876,7.713,7.713,0,0,1-4.591,10.789,7.988,7.988,0,0,1-9.962-5.371c0-1.056,0-2.617-1.515-2.755-2.2-.23-3.122,2.938-3.076,4.591a13.773,13.773,0,0,0,13.222,12.809,14,14,0,0,0,7.483-1.653,14.462,14.462,0,0,0,6.978-9.871C534.067,255.9,520.707,249.146,521.4,248.32Z" transform="translate(-480.44 69.059)"/><path class="a" d="M-4951.81-648.2a9.2,9.2,0,0,1-8.654-6.113l-28.374-68.269a9.2,9.2,0,0,1-.8-4.551,9.2,9.2,0,0,1,1.517-4.364,9.165,9.165,0,0,1,7.635-4.083c.107,0,.217,0,.326.006h56.746c.093,0,.187,0,.28,0a9.158,9.158,0,0,1,7.648,4.1,9.206,9.206,0,0,1,1.5,4.356,9.2,9.2,0,0,1-.8,4.539l-28.371,68.269A9.2,9.2,0,0,1-4951.81-648.2Zm14.943-31.593-21.026,21.072.688,1.7a5.745,5.745,0,0,0,3.444,3.26l10.422-10.422,6.472-15.609Zm12.947-31.265-39.391,39.437,2.663,6.428,30.255-30.256,6.473-15.609Zm1.011-19.237-45.911,45.911,2.663,6.427,47.472-47.425a5.861,5.861,0,0,0-.965-2.709,5.752,5.752,0,0,0-3.258-2.2h0Zm-17.86-.413-33.285,33.286,2.709,6.427,39.712-39.713h-9.137Zm-18.226,0-20.385,20.385,2.663,6.427,26.858-26.812h-9.135Zm-18.272,0-7.347,7.346v.825l2.387,5.74,13.773-13.773-8.814-.138Z" transform="translate(4989.667 968.569)"/><path class="a" d="M677.02,336.55h37.509a12.121,12.121,0,0,1,12.121,12.121v16.711H664.9V348.67a12.12,12.12,0,0,1,12.12-12.12Z" transform="translate(96.392 408.484)"/><path class="a" d="M649.29,407.02h-10.1V346.785a26.655,26.655,0,0,1,1.194-7.851l5.1-15.747a.367.367,0,0,1,.689,0l5.968,10.559-1.561,4.912a25.352,25.352,0,0,0-1.286,8.034Z" transform="translate(4.066 359.639)"/><path class="a" d="M1099.367,395.038a22.174,22.174,0,0,0-16.527-13.268H829.551V339.578a10.238,10.238,0,0,0-10.284-10.238H696.916a10.33,10.33,0,0,0-9.779,7.116l-3.627,11.615h13.773a10.7,10.7,0,0,1,8.172,3.765,10.1,10.1,0,0,1,2.158,8.585l-13.084,62.071a10.559,10.559,0,0,1-10.33,8.218H658.167a39.53,39.53,0,0,0,.734,11.845l1.423,6.2L593.3,461.976a2.755,2.755,0,0,0-2.158,2.112L584.8,481.028a10.792,10.792,0,0,0-.872,2.434h0c-1.331,5.6-.367,14.967,3.03,14.967h71.8l-3.168,3.535-4.04,12.58h456.121C1107.585,473.637,1106.483,412.163,1099.367,395.038ZM783.273,356.519l-6.749,60.969a5.582,5.582,0,0,1-.321,2.3,26.857,26.857,0,0,1-26.674,20.981H719.458a9.181,9.181,0,0,1-9.182-11.248l14.141-73.457a10.33,10.33,0,0,1,10.054-8.218h41a7.713,7.713,0,0,1,7.667,8.585Z" transform="translate(-196.441 382.593)"/><path class="a" d="M805.889,396.841,611.78,399.549c-1.24,0-3.49-3.765-3.49-5v-21.67a2.3,2.3,0,0,1,2.3-2.3h195.3a2.3,2.3,0,0,1,2.3,2.3v21.67a2.341,2.341,0,0,1-2.3,2.3Z" transform="translate(-106.897 530.688)"/><path class="a" d="M684.174,341.965l-6.749,61.015a5.691,5.691,0,0,1-.321,2.3,26.9,26.9,0,0,1-26.674,20.981H620.359a9.182,9.182,0,0,1-9.182-11.2L625.317,341.6a10.376,10.376,0,0,1,10.055-8.218h41a7.713,7.713,0,0,1,7.667,8.585Z" transform="translate(-97.342 397.101)"/><g class="c" transform="translate(513.609 730.481)"><g transform="translate(-58.746 167.022)"><path class="a" d="M1054.482,374.626a10.471,10.471,0,0,0-.6-4.866H598.82a10.465,10.465,0,0,0-.6,4.866Z" transform="translate(-598.155 -369.76)"/></g><path class="a" d="M629.055,336.426,601.509,421.5a40.86,40.86,0,0,0-1.01,21.027l11.707,54.4H771.378V339.548a10.239,10.239,0,0,0-10.284-10.238H638.651a10.238,10.238,0,0,0-9.6,7.116Z" transform="translate(-651.785 -347.996)"/></g><path class="a" d="M620.367,426.293a9.182,9.182,0,0,1-9.182-11.248l14.141-73.457a10.33,10.33,0,0,1,10.055-8.218h41a7.713,7.713,0,0,1,7.667,8.585L677.3,402.924a5.577,5.577,0,0,1-.321,2.3A26.857,26.857,0,0,1,650.3,426.2Z" transform="translate(-97.35 397.065)"/><path class="a" d="M599.61,416.1a38.606,38.606,0,0,1,1.837-8.815l23.782-73.87H639a10.558,10.558,0,0,1,8.172,3.811,9.963,9.963,0,0,1,2.158,8.539L636.2,407.877a10.468,10.468,0,0,1-10.284,8.218Z" transform="translate(-138.067 397.208)"/><path class="a" d="M1056.274,382.175H600.337c-3.489,0-3.489-12.625,0-12.625h455.937C1059.763,369.55,1059.763,382.175,1056.274,382.175Z" transform="translate(-144.855 526.989)"/><path class="a" d="M761.957,341.44v10.146c0,6.7-.505,16.206-.873,27.913s-.918,25.848-1.423,41.32c0,3.9-.321,7.9-.459,11.983a27.548,27.548,0,0,1-2.663,12.4,17.125,17.125,0,0,1-10.513,7.9,46.837,46.837,0,0,1-13.406,1.561l-92.189-1.745-27.914-.689-7.575-.229h7.575l27.96.229,92.142,1.331a46.65,46.65,0,0,0,12.993-1.515,15.885,15.885,0,0,0,9.733-7.208,26.765,26.765,0,0,0,2.525-11.8c0-4.086.321-8.08.5-11.983.643-15.564,1.24-29.566,1.745-41.319s.964-21.165,1.286-27.868c0-3.214.322-5.739.413-7.621v-1.974C761.911,341.669,761.957,341.44,761.957,341.44Z" transform="translate(-128.48 426.045)"/><path class="a" d="M609.344,412.72c-.413,0-.734-13.36-.734-29.842s.321-29.888.734-29.888.689,13.36.689,29.888S609.711,412.72,609.344,412.72Z" transform="translate(-105.748 467.521)"/><path class="a" d="M632.745,329.42a27.189,27.189,0,0,1-.5,4.316c-.413,2.755-1.056,6.749-1.928,11.661-1.745,9.825-4.361,23.369-7.713,38.243s-6.7,28.235-9.182,37.876c-1.331,4.591-2.434,8.723-3.26,11.386a22.359,22.359,0,0,1-1.377,4.086,27.566,27.566,0,0,1,.872-4.224c.734-2.984,1.653-6.841,2.8-11.478,2.388-9.687,5.6-22.955,8.907-37.968s6.152-28.327,8.126-38.106c.964-4.591,1.744-8.631,2.388-11.615a23.479,23.479,0,0,1,.872-4.178Z" transform="translate(-105.137 382.88)"/><path class="a" d="M645.53,367.369a7.4,7.4,0,0,0,2.479-1.01,4.588,4.588,0,0,0,1.7-2.479,5.281,5.281,0,0,0-.458-3.857,4.591,4.591,0,0,0-3.995-2.066H625.467a4.086,4.086,0,0,0-4.086,3.765,4.178,4.178,0,0,0,2.709,4.591,4.588,4.588,0,0,0,1.331.275h17.492a11.714,11.714,0,0,1,2.8.276,11.7,11.7,0,0,1-2.8.275c-1.836,0-4.591,0-7.667.23l-5.6.505h-4.591a5.693,5.693,0,0,1,0-11.34h19.788a5.188,5.188,0,0,1,4.821,2.755,4.591,4.591,0,0,1,.643,2.387,5.607,5.607,0,0,1-.276,2.158,5.051,5.051,0,0,1-2.112,2.709,4.59,4.59,0,0,1-2.066.643C645.759,367.507,645.53,367.415,645.53,367.369Z" transform="translate(-65.308 480.229)"/><path class="a" d="M756.166,345.194c0,.367-18.364.689-41.595.689s-41.641-.321-41.641-.689,18.64-.734,41.641-.734S756.166,344.781,756.166,345.194Z" transform="translate(125.228 436.89)"/><path class="a" d="M756.166,346.959c0,.367-18.364.689-41.595.689s-41.641-.321-41.641-.689,18.64-.689,41.641-.689S756.166,346.591,756.166,346.959Z" transform="translate(125.228 443.39)"/><path class="a" d="M756.166,348.759c0,.413-18.364.735-41.595.735s-41.641-.322-41.641-.735,18.64-.689,41.641-.689S756.166,348.391,756.166,348.759Z" transform="translate(125.228 449.853)"/><path class="a" d="M756.166,350.539c0,.367-18.364.689-41.595.689s-41.641-.321-41.641-.689,18.64-.689,41.641-.689S756.166,350.263,756.166,350.539Z" transform="translate(125.228 456.245)"/><path class="a" d="M756.166,352.369c0,.413-18.364.689-41.595.689s-41.641-.276-41.641-.689,18.64-.689,41.641-.689S756.166,352,756.166,352.369Z" transform="translate(125.228 462.817)"/><path class="a" d="M756.166,354.179c0,.367-18.364.689-41.595.689s-41.641-.321-41.641-.689,18.64-.689,41.641-.689S756.166,353.765,756.166,354.179Z" transform="translate(125.228 469.317)"/><path class="a" d="M756.166,355.979c0,.413-18.364.689-41.595.689s-41.641-.275-41.641-.689,18.64-.689,41.641-.689S756.166,355.611,756.166,355.979Z" transform="translate(125.228 475.781)"/><path class="a" d="M624.041,487.025c-25.021,0-45.911-24.1-45.911-49.078a47.472,47.472,0,0,1,47.012-45.911l402.406-18.364a54.22,54.22,0,0,1,50.5,28.143,53.672,53.672,0,0,1,4.591,37.326c-10.514,48.619-51.052,48.022-66.754,46.966S624.041,487.025,624.041,487.025Z" transform="translate(-215.203 541.507)"/><ellipse class="a" cx="37.497" cy="37.497" rx="37.497" ry="37.497" transform="translate(355.444 938.35) rotate(-21.161)"/><circle class="a" cx="48.619" cy="48.619" r="48.619" transform="translate(740.923 971.507) rotate(-45)"/><path class="a" d="M995.146,375.62h-1.01l-3.076.322-11.845,1.194c-10.238,1.01-25.113,2.341-43.523,3.856-36.729,3.03-87.643,6.519-143.884,9.182s-107.247,3.443-144.159,3.673H603.943l43.707-.413c36.728-.459,87.827-1.607,144.067-4.086s107.109-5.831,143.883-8.585l43.569-3.443,11.845-.918h3.076Z" transform="translate(-180.047 548.787)"/><path class="a" d="M978.992,396.009c0,.367-87.506.689-195.441.689s-195.441-.321-195.441-.689,87.505-.689,195.441-.689S978.992,395.6,978.992,396.009Z" transform="translate(-179.365 619.53)"/><path class="a" d="M614.189,416.986a80.471,80.471,0,0,1-2.8-9.458c-1.607-5.831-3.994-13.773-6.427-22.955a192.858,192.858,0,0,1-5-23.322,50.635,50.635,0,0,1-.413-7.208,8.847,8.847,0,0,1,.321-2.663,61.906,61.906,0,0,0,1.056,9.733c1.056,5.968,2.984,14.14,5.417,22.955s4.591,17.125,6.014,22.955c.689,2.984,1.24,5.372,1.515,7.07a11.183,11.183,0,0,1,.322,2.892Z" transform="translate(-138.323 461.74)"/><path class="a" d="M682.334,443.916a11.79,11.79,0,0,1-2.8-1.837,32.772,32.772,0,0,1-6.244-6.611,37.828,37.828,0,0,1-5.876-12.212,36.711,36.711,0,0,1-.735-16.528,37.371,37.371,0,0,1,16.895-24.195,32.16,32.16,0,0,1,8.31-3.765,13.779,13.779,0,0,1,3.26-.689,55.091,55.091,0,0,0-11.019,5.28,38.749,38.749,0,0,0-9.549,9.182,37.051,37.051,0,0,0-6.519,14.554,36.308,36.308,0,0,0,.6,15.977,39.74,39.74,0,0,0,5.417,11.983,52.294,52.294,0,0,0,8.263,8.861Z" transform="translate(100.582 557.621)"/><path class="a" d="M656.925,342.66a260.589,260.589,0,0,1-20.889,15.931,240.144,240.144,0,0,1-21.716,14.875,251.885,251.885,0,0,1,20.89-15.977A244.881,244.881,0,0,1,656.925,342.66Z" transform="translate(-85.243 430.426)"/><path class="a" d="M653.531,340.18a181.2,181.2,0,0,1-18.364,13.773,189.3,189.3,0,0,1-19.007,12.442,182.84,182.84,0,0,1,18.365-13.773,199.64,199.64,0,0,1,19.007-12.442Z" transform="translate(-78.636 421.52)"/><path class="a" d="M622.276,344a49.234,49.234,0,0,1-9.182,7.3,51.82,51.82,0,0,1-10.054,6.152,52.614,52.614,0,0,1,9.182-7.3A51.06,51.06,0,0,1,622.276,344Z" transform="translate(-125.75 435.238)"/><path class="a" d="M625.575,341.69a72.01,72.01,0,0,1-10.559,9.182,69.6,69.6,0,0,1-11.386,7.942,73.46,73.46,0,0,1,10.514-9.182,68.886,68.886,0,0,1,11.431-7.943Z" transform="translate(-123.632 426.943)"/><path class="a" d="M650.058,356.379a162.464,162.464,0,0,1-29.888,0,162.5,162.5,0,0,1,29.888,0Z" transform="translate(-64.236 477.217)"/><path class="a" d="M607.23,444.37a11.612,11.612,0,0,1-3.305-.689,30.665,30.665,0,0,1-8.172-4.04,33.787,33.787,0,0,1-9.5-9.733,33.241,33.241,0,0,1-5.463-15.7,33.658,33.658,0,0,1,3.167-16.344,35.116,35.116,0,0,1,8.08-10.972,29.616,29.616,0,0,1,7.53-5.142,10.057,10.057,0,0,1,3.168-1.148,45.912,45.912,0,0,0-10.054,6.978,35.537,35.537,0,0,0-7.53,10.789,31.4,31.4,0,0,0,2.158,30.852,35.079,35.079,0,0,0,9.182,9.6,45.493,45.493,0,0,0,10.743,5.556Z" transform="translate(-205.876 566.67)"/><path class="a" d="M649.364,362.729c0,.367-14.462.689-32.137.689s-32.367-.321-32.367-.689,14.508-.689,32.367-.689S649.364,362.316,649.364,362.729Z" transform="translate(-191.036 500.02)"/><path class="a" d="M602.8,245.339,578.241,193a32.137,32.137,0,0,0-42.926-15.655h0a32.137,32.137,0,0,0-15.655,42.972l24.378,52.338a1.975,1.975,0,0,0,2.571.964L601.7,247.956a1.974,1.974,0,0,0,1.1-2.617Z" transform="translate(-436.281 -174.27)"/></g></svg>