<svg xmlns="http://www.w3.org/2000/svg" width="804.103" height="779.852" viewBox="0 0 804.103 779.852"><defs><style>.a{opacity:0.15;}.b{fill:#5ea2f8;}</style></defs><g class="a"><path class="b" d="M142.36,244.508h3.867l1.515-23.514L163,240.536l-2.979,3.971h3.031l1.515-1.986,1.515,1.986h3.083l-3.083-3.971,14.736-19.491,1.463,23.462H186.1l-6.845-106.545h.732a.94.94,0,0,0,.575-.888v-.784h0V119.1l12.959-15.676a8.935,8.935,0,1,0-3.971-16.46,8.831,8.831,0,0,0-3.658,4.755l-12.541,2.769a16.251,16.251,0,0,0-25.134,13.482v28.06h0v.836a.941.941,0,0,0,.888.941h0Zm22.887-106.545,10.451,20.9h-21.79l9.928-20.9Zm-13.272,19.073,1.2-19.125h7.838Zm23.514-19.073,1.1,17.61-8.622-17.61h7.525Zm4.546,71.117-14.318-22.521,11.653-18.916Zm-15.676-24.768L152.393,165.5h23.514Zm-1.411,2.247-14.422,23.357,2.717-41.8Zm15.676,25.03H150.2l14-22.678Zm-14.213,26.963-15.676-20.379h31.352Z" transform="translate(402.698 -85.587)"/><path class="b" d="M140.17,144.58V696.536h7.107v-4.7h36.578v4.7h7.054V144.58h-7.054v23.1L166.3,148.761l16.251-17.975h2.717V125.56H144.821v5.225h1.986l16.826,18.028-16.355,18.08V144.58ZM183.8,605.772v36.578L166.3,623.59l16.251-17.975Zm-18.864,16.512-15.676-16.512h30.464Zm-16.46-21.894,16.46-18.237,17.035,18.237Zm17.819-19.7,16.251-17.975H183.8v36.578Zm-1.359-1.411-15.676-16.565h30.464Zm-16.46-21.947,16.46-18.184,17.035,18.184ZM166.3,537.685l16.251-17.975H183.8v36.578Zm-1.359-1.463-15.206-16.46H180.2Zm-16.46-21.685,16.46-18.237,17.035,18.237Zm17.818-19.7,16.251-17.975H183.8v36.578Zm-1.359-1.411-15.676-16.564h30.464Zm-16.46-21.946,16.46-18.184,17.035,18.184ZM166.3,451.832l16.251-17.975H183.8v36.578Zm-1.359-1.463L149.262,433.8h30.464Zm-16.46-21.946,16.46-18.184,17.035,18.237ZM166.3,408.775,182.548,390.8H183.8v36.578Zm-1.359-1.411L149.262,390.8h30.464Zm-16.46-21.947,16.46-18.237,17.035,18.237ZM166.3,365.77,182.548,347.8H183.8v36.578Zm-1.359-1.463-15.206-16.983H180.2Zm-16.46-21.947,16.46-18.184,17.035,18.237ZM166.3,322.713l16.251-17.975H183.8v36.578Zm-1.359-1.411-15.676-16.564h30.464Zm-16.46-21.946,16.46-18.237,17.035,18.237ZM166.3,279.709l16.251-17.975H183.8v36.578Zm-1.359-1.463-15.676-16.564h30.464ZM148.479,256.3l16.46-18.184,17.035,18.236ZM166.3,236.652l16.251-17.975H183.8v36.578Zm-1.359-1.411-15.676-16.564h30.464ZM148.479,643.6l16.46-18.184,17.035,18.237Zm-1.2-1.568V606.451l16.355,17.505Zm0-43.057V563.446l16.355,17.505Zm0-43V520.389l16.355,17.505Zm0-43.057V477.384l16.355,17.5Zm0-43.057V434.327l16.355,17.5Zm0-43V391.27l16.355,17.557Zm0-43.057V348.266l16.355,17.505Zm0-43V305L163.632,322.5Zm0-43.057V262.2l16.355,17.505Zm0-43V219.147l16.355,17.505Zm17.662-60.405,17.714,18.968H147.8Zm-17.662,16.617V175.41l16.355,17.505Zm19.02-18.08,16.251-17.923H183.8v36.578ZM183.8,685.772,166.3,666.961l16.251-17.923H183.8ZM164.939,665.55l-15.676-16.564h30.464Zm-1.306,1.463-16.355,18.028V649.508Zm-13.9-492.126H180.2l-15,16.564Zm32.5,511.773H148.74l16.46-18.237Zm-17.035-539-15.676-16.512h30.464Zm0,2.926,17.714,18.968H148.06Z" transform="translate(393.445 83.315)"/><path class="b" d="M38.05,162.014v.679a4.285,4.285,0,0,0,4.285,4.233h755.85v-7.054h-3.24V123.294h3.24V116.24H101.9a15.1,15.1,0,0,0-8.988,2.978l-53.142,39.4A4.285,4.285,0,0,0,38.05,162.014Zm69.968-38.72H143.6L126.1,139.65Zm16.617,17.819L106.4,158.148V124.6Zm19.438,14.945-16.512-14.945,16.512-15.676Zm7-32.659h35.533l-17.5,16.355Zm16.617,17.714-18.237,17.035V124.6Zm19.386,14.945-16.512-14.945,16.564-15.676Zm7-32.659h35.585l-17.505,16.355ZM210.7,141.113,192.46,158.148V124.6Zm19.438,14.945-16.512-14.945,16.512-15.676Zm7-32.659H272.93l-17.505,16.355Zm16.617,17.714-18.237,17.035V124.6Zm19.438,14.945-16.564-14.945,16.564-15.676Zm6.95-32.659h35.585l-17.5,16.355Zm16.617,17.714-18.184,17.035V124.6ZM316.2,156.057l-16.512-14.945L316.2,125.437Zm7-32.659h35.533l-17.5,16.355Zm16.617,17.714-18.236,17.035V124.6Zm19.438,14.945-16.564-14.945,16.564-15.676ZM366.2,123.4h35.585l-17.5,16.355Zm16.46,17.714-18.184,17.035V124.6ZM402.1,156.057l-16.355-14.945,16.564-15.676Zm7-32.659h35.585l-17.557,16.355Zm16.617,17.714-18.236,17.035V124.6Zm19.438,14.945-16.408-14.945,16.564-15.676Zm5.225-31.352,18.237,16.512-18.028,16.93Zm-5.225,35.376H408.581l18.759-17.557,17.975,16.3Zm-43.057,0H365.524l18.759-17.557,17.975,16.3Zm-43,0H322.519l18.759-17.557,17.975,16.3Zm-43.057,0H279.462l18.759-17.557,17.975,16.3Zm-43,0H236.353l18.759-17.557,17.975,16.3Zm-43.057,0H193.4l18.759-17.557,17.975,16.3Zm-43.057,0H150.343l18.811-17.557,17.923,16.3Zm-43,0H107.339L126.1,142.524l17.975,16.3ZM453.728,123.5h33.965l-17.5,16.355L452.161,123.5Zm335.678,32.658L773.05,141.113l16.512-15.676Zm-17.975-16.3L753.664,123.4h35.585ZM495.165,123.5H530.75L513.3,139.754Zm16.617,17.714-18.237,17.035V124.705Zm19.438,14.945-16.408-15.049,16.564-15.676Zm7-32.658h35.533L556.25,139.859ZM555.1,141.113l-18.237,17.035V124.6Zm19.386,14.945L557.87,141.113l16.564-15.676Zm7-32.659h35.585l-17.505,16.355ZM598.1,141.113l-18.237,17.035V124.6Zm19.438,14.945-16.669-14.945,16.564-15.676Zm7-32.659h35.533l-17.505,16.355Zm16.617,17.714L623.03,158.148V124.6Zm19.386,14.945-16.617-14.945L660.5,125.437Zm7-32.659h35.585l-17.4,16.355Zm16.617,17.714L665.93,158.148V124.6Zm19.438,14.945-16.617-14.945L703.5,125.437Zm7-32.659H746.14l-17.5,16.355Zm16.617,17.714-18.237,17.035V124.6Zm19.386,14.945-16.616-14.945,16.564-15.676Zm23.619-14.945-18.237,17.035V124.6ZM746.61,159.976H710.032l18.811-17.557,17.923,16.3Zm-43,0H667.028l18.759-17.557,17.975,16.3Zm-43.057,0H623.97l18.811-17.557,17.923,16.3Zm-43,0H580.966l18.759-17.557,17.975,16.3Zm-43.057,0H537.909l18.759-17.557,17.975,16.3Zm-43,0H494.9l18.759-17.557,17.975,16.3Zm-43.057-3.919-16.617-14.945,16.564-15.676Zm301.242,3.919H753.089l18.759-17.557,17.975,16.3Zm-335.678,0h-2.3l18.759-17.557,17.975,16.3v1.254Zm-409.512,0,48.439-33.651a15.676,15.676,0,0,1,8.256-2.822v36.577Z" transform="translate(-38.05 43.935)"/><path class="b" d="M182.785,116.01V168H141.923l-4.233-5.591,15.885-46.4Z" transform="translate(382.966 42.963)"/><path class="b" d="M50.27,241.035a8.31,8.31,0,0,1,1.829-.679l5.539-1.724,21.372-6.479,78.746-23.2,260.119-75.559L579.861,86.73h.679l.47.47L737.354,233.981a37.152,37.152,0,0,1-3.187-2.4c-1.986-1.724-4.964-4.285-8.726-7.629-7.577-6.793-18.6-16.773-32.45-29.523-27.8-25.5-67.094-61.973-113.652-105.448l1.2.314L418.554,136.319,158.592,210.833,79.584,233.2l-21.529,5.957-5.591,1.463Z" transform="translate(13.584 -80.756)"/><path class="b" d="M249.528,114.362a8.36,8.36,0,0,1,6.532,3.188c3.971,4.912,9.928,13.952,10.451,14.84s0,31.352,0,46.14a8.413,8.413,0,0,1-8.361,8.308H182.643a8.413,8.413,0,0,1-8.413-8.413v-55.7a8.413,8.413,0,0,1,8.413-8.413Z" transform="translate(537.361 35.78)"/><path class="b" d="M144.37,99.357a11.235,11.235,0,1,0,3.272-7.978,11.235,11.235,0,0,0-3.272,7.978Z" transform="translate(411.191 -75.094)"/><ellipse class="b" cx="6.27" cy="6.27" rx="6.27" ry="6.27" transform="translate(590.467 3.205)"/><path class="b" d="M225.82,122.267c-.418,23.566.366,94.632.366,94.632H140.751l2.3-14a12.074,12.074,0,0,0,0-4.337l-6.27-30.986,15.31-47.655a7.315,7.315,0,0,1,6.95-5.225h59.517a7.316,7.316,0,0,1,7.263,7.577Z" transform="translate(379.121 37.386)"/></g></svg>