<svg xmlns="http://www.w3.org/2000/svg" width="215.946" height="34.495" viewBox="0 0 215.946 34.495"><defs><style>.a{fill:#fff;}.b{fill:#fe9000;}</style></defs><path class="a" d="M91.667,159.574V127.957h24.176v6.188H98.532v6.414h12.3v6.189h-12.3v6.639H115.7v6.188Zm90.877-15.763a9.87,9.87,0,0,1-2.733,3.478,11.858,11.858,0,0,1-4.065,2.1,17.208,17.208,0,0,1-4.991.7h-5.285v9.486h-6.956V127.957h12.918a15.185,15.185,0,0,1,5.08.79,10.777,10.777,0,0,1,3.794,2.236,9.774,9.774,0,0,1,2.394,3.456,11.5,11.5,0,0,1,.835,4.449v.09A11.1,11.1,0,0,1,182.544,143.811Zm-6.052-4.788a4.313,4.313,0,0,0-1.514-3.568,6.408,6.408,0,0,0-4.133-1.22h-5.375V143.9h5.511a5.656,5.656,0,0,0,4.065-1.378,4.525,4.525,0,0,0,1.446-3.41Zm30.488,20.552L200.2,149.457h-5.465v10.118h-6.956V127.957h14.454q5.645,0,8.785,2.755a9.681,9.681,0,0,1,3.139,7.679v.09a9.914,9.914,0,0,1-1.875,6.256,10.859,10.859,0,0,1-4.9,3.545l7.723,11.292Zm.135-20.822a4.033,4.033,0,0,0-1.446-3.387,6.384,6.384,0,0,0-4.019-1.13h-6.911v9.079h7.046a5.775,5.775,0,0,0,3.952-1.22,4.127,4.127,0,0,0,1.377-3.252Zm12.421,20.822V127.957h23.8v6.188H226.4v6.414h14.906v6.189H226.4v6.639h17.164v6.188Zm51.536,0-15.312-20.1v20.1h-6.865V127.957h6.415l14.814,19.467V127.957h6.866v31.617Zm26.92-25.2v25.2h-6.955v-25.2h-9.621v-6.414h26.2v6.414Z" transform="translate(-91.667 -126.025)"/><g transform="translate(27.308)"><path class="a" d="M162.876,160.659a15.959,15.959,0,0,0,2.078-4.295,16.128,16.128,0,0,0,.583-2.62h-7.3a9.706,9.706,0,0,1-.28,1.172,10.733,10.733,0,0,1-.407,1.093,8.417,8.417,0,0,1-1.443,2.115,8.216,8.216,0,0,1-2.938,2.474c-.032.02-.059.041-.091.061l-.127.052a9.5,9.5,0,0,1-4.036.841,8.691,8.691,0,0,1-6.572-2.681c-.1-.1-.207-.189-.3-.291a9.627,9.627,0,0,1-1.989-3.162,9.887,9.887,0,0,1-.485-1.674H132.2a15.8,15.8,0,0,0,4.593,9.422,16.643,16.643,0,0,0,5.306,3.477,18.239,18.239,0,0,0,11.743.583,16.847,16.847,0,0,0,4.383-2.006l3.478,3.113,4.424-4.917Z" transform="translate(-131.256 -133.838)"/><path class="b" d="M166.186,138.892v2.962h-9.419a1.432,1.432,0,0,0-1.043.451c-.477.5-.936.991-1.391,1.472H142.8c-.466-.441-.917-.869-1.349-1.317a1.672,1.672,0,0,0-1.317-.64c-2.722.022-5.444.015-8.166.008-.326,0-.721.033-1.12.011v-2.948c.151-.015,1.449.037,1.975-.011a16.274,16.274,0,0,1,2.677-6.158,15.871,15.871,0,0,1,5.1-4.6v7.423h3.192V125.186h9.373c.022.222-.008,8.486-.029,10.341h3.277v-7.408a16.093,16.093,0,0,1,7.785,10.774C164.308,138.888,166.094,138.885,166.186,138.892Z" transform="translate(-130.846 -125.185)"/></g></svg>