<svg xmlns="http://www.w3.org/2000/svg" width="206.582" height="33" viewBox="0 0 206.582 33"><defs><style>.a{fill:#0b2545;}.b{fill:#fe9000;}</style></defs><g transform="translate(-91.667 -125.185)"><path class="a" d="M91.667,158.2V127.957h23.128v5.92H98.234v6.136H110v5.92H98.234v6.351h16.42v5.92Zm86.936-15.08a9.442,9.442,0,0,1-2.614,3.327,11.344,11.344,0,0,1-3.889,2.009,16.462,16.462,0,0,1-4.774.669H162.27V158.2h-6.654V127.957h12.358a14.527,14.527,0,0,1,4.86.756,10.309,10.309,0,0,1,3.63,2.139,9.35,9.35,0,0,1,2.29,3.306,11,11,0,0,1,.8,4.256v.086A10.615,10.615,0,0,1,178.6,143.124Zm-5.79-4.581a4.126,4.126,0,0,0-1.448-3.413,6.13,6.13,0,0,0-3.953-1.167H162.27v9.248h5.272a5.411,5.411,0,0,0,3.889-1.318,4.329,4.329,0,0,0,1.383-3.262ZM201.979,158.2l-6.481-9.679H190.27V158.2h-6.654V127.957h13.827q5.4,0,8.4,2.636a9.261,9.261,0,0,1,3,7.346v.086a9.484,9.484,0,0,1-1.794,5.985,10.389,10.389,0,0,1-4.687,3.391l7.389,10.8Zm.129-19.919a3.858,3.858,0,0,0-1.383-3.241,6.107,6.107,0,0,0-3.845-1.081H190.27v8.685h6.74a5.525,5.525,0,0,0,3.781-1.167,3.948,3.948,0,0,0,1.318-3.111ZM213.991,158.2V127.957h22.771v5.92h-16.2v6.136h14.26v5.92h-14.26v6.351h16.42v5.92Zm49.3,0-14.648-19.228V158.2h-6.568V127.957h6.136l14.172,18.623V127.957h6.568V158.2Zm25.753-24.111V158.2h-6.654V134.093h-9.2v-6.136h25.062v6.136Z" transform="translate(0 -0.924)"/><g transform="translate(117.791 125.185)"><path class="a" d="M161.546,160.359a15.267,15.267,0,0,0,1.988-4.109,15.428,15.428,0,0,0,.557-2.506H157.1a9.284,9.284,0,0,1-.268,1.121,10.268,10.268,0,0,1-.389,1.046,8.052,8.052,0,0,1-1.381,2.024,7.86,7.86,0,0,1-2.811,2.366c-.031.019-.056.039-.087.059l-.121.05a9.089,9.089,0,0,1-3.861.8,8.314,8.314,0,0,1-6.287-2.564c-.1-.093-.2-.181-.291-.279a9.21,9.21,0,0,1-1.9-3.025,9.458,9.458,0,0,1-.464-1.6H132.2a15.117,15.117,0,0,0,4.394,9.014,15.921,15.921,0,0,0,5.076,3.327,17.448,17.448,0,0,0,11.234.557,16.116,16.116,0,0,0,4.193-1.919l3.327,2.979,4.232-4.7Z" transform="translate(-131.297 -134.701)"/><path class="b" d="M164.654,138.3v2.834h-9.011a1.37,1.37,0,0,0-1,.431c-.457.481-.9.948-1.33,1.408H142.28c-.445-.421-.877-.831-1.291-1.26a1.6,1.6,0,0,0-1.26-.612c-2.6.021-5.208.014-7.812.007-.311,0-.689.031-1.072.011V138.3c.145-.015,1.386.035,1.889-.011A15.569,15.569,0,0,1,135.3,132.4a15.183,15.183,0,0,1,4.883-4.4v7.1h3.053v-9.906H152.2c.021.213-.007,8.118-.027,9.892h3.135v-7.087a15.4,15.4,0,0,1,7.447,10.306C162.857,138.294,164.566,138.291,164.654,138.3Z" transform="translate(-130.846 -125.185)"/></g></g></svg>