<svg xmlns="http://www.w3.org/2000/svg" width="58" height="58" viewBox="0 0 58 58"><defs><style>.a{fill:#3a88ec;}</style></defs><path class="a" d="M49.5,8.5a28.993,28.993,0,1,0,0,41A28.978,28.978,0,0,0,49.5,8.5ZM48.29,45.368a29.062,29.062,0,0,0-4.331-3.207,46.891,46.891,0,0,0,1.749-11.314h8.524A25.069,25.069,0,0,1,48.29,45.368ZM3.768,30.847h8.524a46.891,46.891,0,0,0,1.749,11.314A29.062,29.062,0,0,0,9.71,45.368,25.07,25.07,0,0,1,3.768,30.847ZM9.71,12.631a29.062,29.062,0,0,0,4.331,3.207,46.891,46.891,0,0,0-1.749,11.314H3.768A25.07,25.07,0,0,1,9.71,12.631ZM27.153,16.22a25.1,25.1,0,0,1-8.612-2.182C20.107,10,22.995,5.166,27.153,3.967Zm0,3.7v7.23H15.989a43.533,43.533,0,0,1,1.4-9.579A28.8,28.8,0,0,0,27.153,19.922Zm0,10.925v7.23a28.8,28.8,0,0,0-9.762,2.35,43.533,43.533,0,0,1-1.4-9.579Zm0,10.932V54.032c-4.158-1.2-7.046-6.037-8.612-10.071A25.1,25.1,0,0,1,27.153,41.779Zm3.7,0a25.1,25.1,0,0,1,8.612,2.182C37.893,48,35.006,52.833,30.848,54.032Zm0-3.7v-7.23H42.011a43.533,43.533,0,0,1-1.4,9.579A28.8,28.8,0,0,0,30.848,38.077Zm0-10.925v-7.23a28.8,28.8,0,0,0,9.762-2.35,43.533,43.533,0,0,1,1.4,9.579Zm0-10.932V3.967c4.158,1.2,7.046,6.037,8.612,10.071A25.1,25.1,0,0,1,30.848,16.22Zm8.3-10.409A25.187,25.187,0,0,1,45.7,9.994a25.4,25.4,0,0,1-2.972,2.256,27.818,27.818,0,0,0-3.577-6.438ZM15.276,12.25A25.4,25.4,0,0,1,12.3,9.994a25.187,25.187,0,0,1,6.55-4.182,27.827,27.827,0,0,0-3.577,6.438Zm0,33.5a27.82,27.82,0,0,0,3.577,6.438,25.187,25.187,0,0,1-6.55-4.182A25.393,25.393,0,0,1,15.276,45.749Zm27.448,0A25.405,25.405,0,0,1,45.7,48.005a25.187,25.187,0,0,1-6.55,4.182,27.816,27.816,0,0,0,3.577-6.438Zm2.984-18.6a46.89,46.89,0,0,0-1.749-11.314,29.068,29.068,0,0,0,4.331-3.207,25.07,25.07,0,0,1,5.942,14.521Z" transform="translate(0 0)"/></svg>