<svg xmlns="http://www.w3.org/2000/svg" width="605.984" height="389.605" viewBox="0 0 605.984 389.605"><defs><style>.a{fill:#2d85f5;opacity:0.1;}.b{fill:#f5f5f5;}.c{fill:#ebebeb;}.d{fill:#5ea2f8;opacity:0.3;}.e{fill:#e0e0e0;}.f{fill:#3a88ec;}.g{fill:#fff;}.h{fill:#455a64;}.i{fill:#263238;}.j{fill:#f8b257;}.k{fill:#bc6b1a;}.l{fill:#ffbe9d;}.m{fill:#eb996e;}.n{fill:#ce9985;}.o{fill:#a36957;}.p{fill:#b78876;}.q{opacity:0.2;}.r{fill:#fe9000;}.s{fill:#fafafa;}</style></defs><g transform="translate(13.159 -64.246)"><path class="a" d="M260.478-.716c138.965-1.544,360.15,131.545,322.4,254.525C572.7,286.931,441.6,281.758,318.331,303.18,192.7,325.011,119.83,358.23,87.822,358.586-51.143,360.13,14.79,180,14.79,180S121.513.828,260.478-.716Z" transform="matrix(-0.999, 0.052, -0.052, -0.999, 591.947, 422.395)"/><g transform="translate(68.666 72.681)"><path class="b" d="M638.809,144.876l-10.2-10.985,3.3-3.067,7.044,7.577,14.8-14.56,3.164,3.216Z" transform="translate(-242.027 -79.257)"/><path class="c" d="M467.927,215.146c0-7.507-7.865-12.235-15.923-8.495a9.141,9.141,0,0,0-4.23,4.055c-2.019,3.915-1.127,8.39.708,12.1l6.257,15.844a2.7,2.7,0,0,0,5.025,0l6.117-15.932C468.032,217.846,467.927,215.146,467.927,215.146Zm-7.533,6.5c-5.4,3.137-10.88-2.665-7.918-8.4a4.518,4.518,0,0,1,1.748-1.818c5.41-3.146,10.88,2.622,7.918,8.4a4.518,4.518,0,0,1-1.748,1.818Z" transform="translate(-182.418 -89.531)"/><path class="d" d="M575.078,324.207c-16.841-15.381-17.8-39.764-14.14-61.062.612-3.557.725-7.376,2.875-10.269s6.458-4.492,9.491-2.543c2.517,1.617,3.268,4.868,4.422,7.629a21.368,21.368,0,0,0,7.393,9.168c2.141,1.494,4.894,2.622,7.341,1.678,3.356-1.267,4.3-5.471,4.763-9.028l2.622-19.882c.463-3.557.944-7.184,2.526-10.4s4.483-6.013,8.04-6.485,7.516,2.054,7.769,5.628a33.532,33.532,0,0,1-.507,4.44c-.1,1.494.376,3.216,1.748,3.819s2.963-.192,4.177-1.084c4.2-3.076,7.358-7.35,10.347-11.623s5.908-8.661,9.814-12.113,8.993-5.908,14.184-5.488,10.26,4.317,10.88,9.491-3.033,9.858-6.808,13.476a80.488,80.488,0,0,1-18.886,13.432c-1.241.638-2.622,1.328-3.2,2.622-1.11,2.263.874,4.929,3.1,6.03,2.569,1.25,5.515,1.372,8.276,2.089s5.637,2.351,6.336,5.113c.979,3.837-2.622,7.219-5.986,9.29a69.53,69.53,0,0,1-21.953,8.809c-2.779.594-5.681,1.049-8.066,2.622s-4.107,4.553-3.164,7.236,4.151,3.933,6.991,3.81,5.532-1.276,8.3-1.9c5.2-1.162,11.545.052,14.131,4.711,1.748,3.059,1.363,6.948-.149,10.1a26.336,26.336,0,0,1-6.651,8.031A69.841,69.841,0,0,1,608.769,328c-11.99,2.351-22.792,1.949-33.629-3.732" transform="translate(-233.275 -89.683)"/><path class="e" d="M578.9,333.448c1.949-8.364,1.459-10.95,6.118-21.289a321.2,321.2,0,0,1,17.479-32.51l5.025-8.285c1.661-2.718,3.295-5.41,5.069-7.944a161.39,161.39,0,0,1,11.02-13.983c3.732-4.282,7.42-8.206,10.907-11.859s6.808-6.991,9.963-9.893a128.843,128.843,0,0,1,15.906-12.637c1.993-1.337,3.566-2.333,4.641-2.989l1.232-.743c.28-.166.428-.236.428-.236s-.131.1-.393.28l-1.206.787c-1.057.69-2.622,1.748-4.579,3.076a135.838,135.838,0,0,0-15.774,12.742c-3.129,2.928-6.423,6.275-9.893,9.928s-7.14,7.594-10.845,11.877a159.911,159.911,0,0,0-10.968,13.983c-1.748,2.526-3.391,5.2-5.043,7.918l-5.025,8.285a326.164,326.164,0,0,0-17.479,32.432c-4.7,10.312-4.23,12.847-6.222,21.175" transform="translate(-235.76 -90.255)"/><path class="e" d="M617.632,265.189a8.58,8.58,0,0,1-.114-1.564c-.052-1.005-.07-2.464-.079-4.265,0-3.609.131-8.591.306-14.079s.227-10.487.131-14.062c0-1.8-.087-3.26-.14-4.265a7.683,7.683,0,0,1,0-1.564,8.735,8.735,0,0,1,.218,1.547c.122,1.005.227,2.465.315,4.265.192,3.6.192,8.591,0,14.1s-.341,10.365-.463,14.062c0,1.748-.07,3.164-.1,4.265a7.994,7.994,0,0,1-.079,1.564Z" transform="translate(-240.618 -92.059)"/><path class="e" d="M665.156,268.31a1.7,1.7,0,0,1-.489,0l-1.39-.07c-1.2-.07-2.936-.175-5.086-.227-4.3-.14-10.251-.122-16.806.184s-12.488.874-16.753,1.4c-2.141.245-3.863.5-5.06.664l-1.372.184c-.315,0-.481.052-.489,0a1.827,1.827,0,0,1,.472-.131l1.355-.288c1.189-.227,2.9-.533,5.043-.83,4.265-.629,10.2-1.241,16.78-1.564a159.927,159.927,0,0,1,16.841,0c2.159.1,3.9.262,5.1.4l1.381.166A1.749,1.749,0,0,1,665.156,268.31Z" transform="translate(-240.652 -97.356)"/><path class="e" d="M584.455,316.967a3.684,3.684,0,0,1-.236-.6c-.14-.463-.323-1.049-.551-1.748-.481-1.538-1.11-3.767-1.861-6.537-1.5-5.549-3.356-13.258-5.244-21.8s-3.714-16.264-5.121-21.848c-.7-2.727-1.276-4.955-1.7-6.581-.184-.725-.332-1.32-.454-1.748a3.249,3.249,0,0,1-.122-.638,2.73,2.73,0,0,1,.227.6l.551,1.748c.481,1.529,1.119,3.767,1.862,6.537,1.512,5.541,3.356,13.258,5.244,21.8s3.714,16.255,5.121,21.848c.708,2.727,1.276,4.964,1.7,6.581.192.734.341,1.328.454,1.792A2.8,2.8,0,0,1,584.455,316.967Z" transform="translate(-229.804 -95.85)"/><path class="e" d="M650.815,313.125a2.894,2.894,0,0,1-.638.149l-1.87.332-6.878,1.154c-5.8,1.005-13.808,2.491-22.644,4.16s-16.849,3.085-22.679,3.994c-2.91.454-5.244.8-6.9,1.014l-1.888.236a3.354,3.354,0,0,1-.655,0,3.155,3.155,0,0,1,.647-.157l1.862-.332,6.878-1.18c5.8-1.005,13.808-2.491,22.644-4.151s16.849-3.094,22.722-4c2.91-.454,5.244-.8,6.9-1.014l1.888-.227A2.194,2.194,0,0,1,650.815,313.125Z" transform="translate(-236.738 -103.115)"/><path class="e" d="M70.46,231.84a2.119,2.119,0,0,1,.227.227l.647.69c.568.647,1.381,1.547,2.421,2.709l8.879,10L112.059,278.3c11.518,12.812,21.9,24.47,29.338,32.947l8.739,10.094L152.5,324.1l.6.725a2.265,2.265,0,0,1,.192.253s-.079-.07-.227-.227l-.638-.69-2.43-2.709-8.853-9.945c-7.5-8.442-17.907-20.048-29.434-32.86S89.87,254.178,82.4,245.7l-8.739-10.085c-1.014-1.189-1.809-2.115-2.36-2.77l-.612-.725a2.263,2.263,0,0,1-.227-.28Z" transform="translate(-70.46 -92.872)"/><path class="e" d="M108.865,250.81a22.88,22.88,0,0,1,.157,3.155c.061,2.071.149,4.693.236,7.6s.175,5.663.166,7.612c0,.979,0,1.748-.061,2.316a2.692,2.692,0,0,1-.1.874,29.556,29.556,0,0,1-.157-3.146c-.079-2.071-.184-4.7-.3-7.6s-.131-5.672-.1-7.621a21.209,21.209,0,0,1,.07-2.307,3.609,3.609,0,0,1,.1-.883Z" transform="translate(-75.279 -95.263)"/><path class="e" d="M104.628,275.932c0,.122-5.558.149-12.41.052S79.8,275.7,79.8,275.574s5.567-.149,12.419-.052S104.637,275.8,104.628,275.932Z" transform="translate(-71.637 -98.371)"/><path class="e" d="M129.593,300.76a2.961,2.961,0,0,1-.8.341c-.524.2-1.285.454-2.237.752-1.9.6-4.544,1.363-7.507,2.045s-5.681,1.18-7.647,1.477c-.988.149-1.748.245-2.342.306a2.848,2.848,0,0,1-.874.044,26.645,26.645,0,0,1,3.155-.673c1.949-.376,4.641-.874,7.594-1.6s5.6-1.39,7.525-1.905a26.088,26.088,0,0,1,3.129-.787Z" transform="translate(-75.217 -101.56)"/><path class="e" d="M137.574,278.12a19.619,19.619,0,0,1-.6,2.919c-.419,1.748-1.04,4.247-1.748,6.991s-1.372,5.165-1.879,6.93a19.225,19.225,0,0,1-.874,2.84,18.543,18.543,0,0,1,.594-2.919c.428-1.748,1.049-4.247,1.748-6.991s1.381-5.165,1.888-6.93A19.225,19.225,0,0,1,137.574,278.12Z" transform="translate(-78.277 -98.706)"/><path class="e" d="M161.7,297.23a4.6,4.6,0,0,1-.184,1.014c-.184.734-.4,1.643-.664,2.709-.577,2.29-1.407,5.436-2.351,8.905s-1.827,6.6-2.491,8.862c-.315,1.057-.586,1.949-.8,2.674a4.58,4.58,0,0,1-.358.961,4.684,4.684,0,0,1,.184-1.014c.184-.734.4-1.634.664-2.709.577-2.281,1.407-5.427,2.351-8.9s1.827-6.607,2.482-8.862c.323-1.057.586-1.949.8-2.674A4.484,4.484,0,0,1,161.7,297.23Z" transform="translate(-81.1 -101.115)"/><path class="e" d="M150.909,325.24a5.521,5.521,0,0,1-1.031.367c-.673.21-1.66.489-2.884.813-2.438.655-5.829,1.486-9.613,2.255s-7.219,1.337-9.727,1.687c-1.25.175-2.263.3-2.963.367a4.545,4.545,0,0,1-1.1.07,5.1,5.1,0,0,1,1.075-.245l2.945-.516c2.482-.428,5.908-1.04,9.683-1.809s7.158-1.547,9.613-2.115l2.91-.682A4.956,4.956,0,0,1,150.909,325.24Z" transform="translate(-77.158 -104.647)"/></g><g transform="translate(148.935 88.765)"><path class="f" d="M590.873,124.545a8.809,8.809,0,0,0,5.244-8.154c0-4.868-3.671-8.835-8.241-8.862a8.546,8.546,0,0,0-8.3,8.783,8.8,8.8,0,0,0,5.244,8.232c-12.724,1.923-12.148,15.731-12.148,15.731l30.089.14S603.493,126.486,590.873,124.545Z" transform="translate(-277.762 -93.285)"/><rect class="g" width="24.552" height="16.551" transform="translate(98.893 11.845) rotate(-5.42)"/><path class="h" d="M359.489,107.763a1.793,1.793,0,0,0-.039-.306l-.092-.875c-.079-.775-.193-1.891-.337-3.322-.285-2.863-.692-6.969-1.182-11.968l.1.083L333.5,93.756l.1-.123h0V93.9l.026.271.053.552.105,1.09.2,2.158q.2,2.141.4,4.211c.258,2.758.508,5.41.744,7.919l-.114-.092,17.6-1.62,5.038-.438,1.344-.118.35-.026h.035l-.337.035-1.313.14-5.008.5-17.654,1.725h-.105V110.1c-.241-2.513-.495-5.161-.762-7.919q-.2-2.066-.4-4.211c-.07-.714-.14-1.436-.206-2.158l-.105-1.09-.066-.53-.026-.271v-.267h0l.105-.127,24.443-2.3h.092v.092c.438,5.025.832,9.153,1.094,12.038.123,1.418.223,2.53.289,3.3.031.368.053.657.07.875S359.489,107.763,359.489,107.763Z" transform="translate(-234.594 -81.775)"/><path class="h" d="M358.054,91.4a1.344,1.344,0,0,1-.193.263l-.578.67c-.521.6-1.252,1.427-2.154,2.447l-7.231,8.089-.066.07-.079-.053-.652-.416-9.569-6.128-2.872-1.908-.779-.521a1.881,1.881,0,0,1-.263-.193,1.659,1.659,0,0,1,.289.153l.8.486,2.924,1.821,9.6,6.08.652.438h-.149l7.275-8.041,2.211-2.4.6-.643a2.346,2.346,0,0,1,.223-.214Z" transform="translate(-234.717 -81.871)"/><path class="i" d="M261.508,134.423a23.589,23.589,0,0,0-.5-3.164,12.305,12.305,0,0,0-1.46-3.426,12.875,12.875,0,0,0-15.442-5.453,12.934,12.934,0,0,0-5.943,4.466,12.742,12.742,0,0,0,0,15.136A12.847,12.847,0,0,0,259.55,141a12.3,12.3,0,0,0,1.459-3.426,23.876,23.876,0,0,0,.5-3.155.762.762,0,0,1,0,.21v.62a6.542,6.542,0,0,1-.079,1.005,9.445,9.445,0,0,1-.245,1.363,12.505,12.505,0,0,1-1.407,3.5,13.109,13.109,0,0,1-15.809,5.716,12.235,12.235,0,0,1-3.356-1.748,12.383,12.383,0,0,1-2.805-2.805,13.161,13.161,0,0,1,0-15.67,12.384,12.384,0,0,1,2.805-2.805,12.235,12.235,0,0,1,3.356-1.748,13.109,13.109,0,0,1,12.488,1.949,12.978,12.978,0,0,1,3.312,3.767,12.3,12.3,0,0,1,1.416,3.5,9.445,9.445,0,0,1,.245,1.363,6.542,6.542,0,0,1,.079,1.005v.62a.875.875,0,0,1,0,.166Z" transform="matrix(0.174, 0.985, -0.985, 0.174, 153.793, -254.785)"/><path class="i" d="M282.4,159.234c-.07.1-4.684-2.867-10.295-6.633s-10.111-6.913-10.041-6.991,4.676,2.867,10.295,6.642S282.466,159.13,282.4,159.234Z" transform="matrix(0.174, 0.985, -0.985, 0.174, 156.227, -258.65)"/><path class="f" d="M328.058,185.666,317.85,174.68l3.3-3.068,7.053,7.577L343,164.63l3.164,3.216Z" transform="translate(-231.638 -103.483)"/></g><g transform="translate(88.095 71.679)"><path class="i" d="M648.169,176.645h1.1l.874.114A11.222,11.222,0,0,1,655.257,179a11.475,11.475,0,0,1,4.291,7.647c.087.874.087,1.792.087,2.718v19.882a13.369,13.369,0,0,1-.385,3.872,11.475,11.475,0,0,1-8.626,8.3,20.151,20.151,0,0,1-4.37.271H607.243l.157-.061-8.8,8.8-.393.393V221.5l.227.227a20.157,20.157,0,0,1-2.893-.1,11.454,11.454,0,0,1-9.8-9.15,14.862,14.862,0,0,1-.227-2.77V191.239a40.416,40.416,0,0,1,.157-5.043,11.475,11.475,0,0,1,9.622-9.57,35.6,35.6,0,0,1,4.5-.14h16.29l23.526.079h0l-23.526.079H599.8a34.266,34.266,0,0,0-4.44.149,11.055,11.055,0,0,0-9.272,9.246,39,39,0,0,0-.14,4.981v15.748a32.634,32.634,0,0,0,.219,5.4,11.483,11.483,0,0,0,2.325,4.868,11.064,11.064,0,0,0,7.114,3.924,20.215,20.215,0,0,0,2.832.1h.227v9.185l-.385-.166,8.809-8.8.061-.061h39.108a19.594,19.594,0,0,0,4.326-.262,11.037,11.037,0,0,0,3.837-1.634,11.151,11.151,0,0,0,4.536-6.38,13.107,13.107,0,0,0,.393-3.671V189.387c0-.935,0-1.835-.061-2.692a11.3,11.3,0,0,0-4.169-7.542,11.151,11.151,0,0,0-5.025-2.281l-.83-.14h-.6Z" transform="translate(-256.021 -84.89)"/><path class="i" d="M616.8,203.609s-.052-.218-.166-.594a2.508,2.508,0,0,0-.926-1.276,2.36,2.36,0,0,0-2.2-.288,2.3,2.3,0,0,0,0,4.317,2.36,2.36,0,0,0,2.2-.288,2.508,2.508,0,0,0,.926-1.276c.114-.367.122-.594.166-.594a1.216,1.216,0,0,1,0,.638,2.412,2.412,0,0,1-.874,1.486,2.622,2.622,0,0,1-2.543.437,2.709,2.709,0,0,1,0-5.113,2.622,2.622,0,0,1,2.543.428,2.421,2.421,0,0,1,.874,1.494A1.189,1.189,0,0,1,616.8,203.609Z" transform="translate(-259.307 -87.97)"/><path class="i" d="M630.046,203.509a5,5,0,0,1-.157-.586,2.544,2.544,0,0,0-.926-1.285,2.368,2.368,0,0,0-2.211-.288,2.316,2.316,0,0,0,0,4.326,2.4,2.4,0,0,0,2.211-.3,2.561,2.561,0,0,0,.926-1.276,5.592,5.592,0,0,1,.157-.594,1.346,1.346,0,0,1,0,.638,2.49,2.49,0,0,1-.874,1.486,2.622,2.622,0,0,1-2.543.437,2.709,2.709,0,0,1,0-5.113,2.622,2.622,0,0,1,2.543.428,2.508,2.508,0,0,1,.874,1.494C630.124,203.282,630.072,203.509,630.046,203.509Z" transform="translate(-260.978 -87.957)"/><path class="i" d="M643.306,203.509a6.048,6.048,0,0,1-.166-.586,2.517,2.517,0,0,0-.874-1.285,2.368,2.368,0,0,0-2.211-.288,2.316,2.316,0,0,0,0,4.326,2.4,2.4,0,0,0,2.211-.3,2.534,2.534,0,0,0,.874-1.276c.122-.367.131-.594.166-.594s.079.227,0,.638a2.491,2.491,0,0,1-.874,1.486,2.622,2.622,0,0,1-2.543.437,2.709,2.709,0,0,1,0-5.113,2.622,2.622,0,0,1,2.543.428,2.507,2.507,0,0,1,.874,1.494C643.384,203.282,643.332,203.509,643.306,203.509Z" transform="translate(-262.649 -87.957)"/><path class="j" d="M152.377,133.826c0-7.5-7.865-12.235-15.914-8.495a9.15,9.15,0,0,0-4.23,4.055c-2.028,3.915-1.127,8.39.7,12.1l6.257,15.853a2.7,2.7,0,0,0,5.025,0l6.118-15.941C152.474,136.535,152.377,133.826,152.377,133.826Zm-7.551,6.537c-5.4,3.137-10.872-2.665-7.918-8.4a4.431,4.431,0,0,1,1.748-1.818c5.4-3.146,10.88,2.665,7.918,8.39A4.448,4.448,0,0,1,144.827,140.363Z" transform="translate(-97.531 -78.278)"/><path class="i" d="M175.321,155.448h0a.662.662,0,0,0,.114.288,5.94,5.94,0,0,1,.288.874l1.084,3.3c.953,2.91,2.342,7.184,4.125,12.663l.052.175h-.175l-17.618-3.225h-.114V169.4h0l.236.114a44.029,44.029,0,0,1-26.655,8.757,48.552,48.552,0,0,1-6.493-.542,47.133,47.133,0,0,1-6.581-1.477l-3.26-1.189a11.782,11.782,0,0,1-1.608-.7l-1.591-.76a45.287,45.287,0,0,1-11.763-8.53,43.391,43.391,0,0,1-8.643-12.585,44.074,44.074,0,1,1,84.055-21.149,41.7,41.7,0,0,1-1.2,13.441,42.552,42.552,0,0,1-2.9,8.04c-.428.874-.769,1.547-1.014,1.966l-.376.664.332-.664c.236-.463.568-1.127.979-2.01a43.8,43.8,0,0,0,2.814-8.04,41.853,41.853,0,0,0,1.11-13.38A43.71,43.71,0,1,0,97.156,152.3a43.138,43.138,0,0,0,8.547,12.471,44.947,44.947,0,0,0,11.641,8.451l1.582.76a10.715,10.715,0,0,0,1.591.7l3.216,1.18a46.434,46.434,0,0,0,6.528,1.477,49.158,49.158,0,0,0,6.432.551,43.7,43.7,0,0,0,26.436-8.687l.236-.175v.3h0l-.114-.149,17.592,3.3-.122.14-4.02-12.7-1.04-3.321c-.114-.367-.192-.655-.253-.874s-.087-.3-.087-.3Z" transform="translate(-92.692 -73.996)"/><path class="h" d="M504.3,119.22a6.422,6.422,0,0,1-.175-1.547,13.239,13.239,0,0,0-.218-1.87,18.106,18.106,0,0,0-.489-2.5,23.325,23.325,0,0,0-2.622-6.45,24.094,24.094,0,0,0-6-6.9,23.745,23.745,0,0,0-9.972-4.649,24,24,0,0,0-12.541.778,22.32,22.32,0,0,0-6.118,3.111,21.9,21.9,0,0,0-5.139,4.929,23.684,23.684,0,0,0-.682,28.088,26.269,26.269,0,0,0,2.307,2.823,26.9,26.9,0,0,0,2.622,2.368,22.433,22.433,0,0,0,5.934,3.4,24.024,24.024,0,0,0,12.48,1.39,23.779,23.779,0,0,0,10.19-4.169,24.068,24.068,0,0,0,6.327-6.6,23.6,23.6,0,0,0,2.91-6.319,18.425,18.425,0,0,0,.612-2.473,12.283,12.283,0,0,0,.3-1.853,6.631,6.631,0,0,1,.253-1.547,6.911,6.911,0,0,1,0,1.564,11.8,11.8,0,0,1-.175,1.9,17.821,17.821,0,0,1-.5,2.552,23.194,23.194,0,0,1-2.779,6.572,24.837,24.837,0,0,1-16.972,11.475,25.134,25.134,0,0,1-13.109-1.337,23.779,23.779,0,0,1-6.266-3.5,28.692,28.692,0,0,1-2.8-2.482,29.3,29.3,0,0,1-2.395-2.963,24.881,24.881,0,0,1,.725-29.644,27.089,27.089,0,0,1,2.534-2.84,26.22,26.22,0,0,1,2.9-2.386,23.29,23.29,0,0,1,6.432-3.234,24.8,24.8,0,0,1,29.556,11.536,23.01,23.01,0,0,1,2.465,6.738,16.678,16.678,0,0,1,.376,2.622,11.626,11.626,0,0,1,.087,1.9,6.99,6.99,0,0,1-.07,1.521Z" transform="translate(-208.683 -74.447)"/><path class="h" d="M500.325,105.315c.052.079-.393.463-1.241,1.092l-1.573,1.127c-.306.21-.638.454-1,.682l-1.206.629a27.564,27.564,0,0,1-14.359,3.618l-2.176-.1-2.08-.332c-.341-.052-.682-.1-1.014-.166l-.979-.262c-.638-.175-1.276-.323-1.879-.516a31.646,31.646,0,0,1-6.117-2.814c-3.269-1.975-4.868-3.775-4.745-3.889s1.914,1.355,5.244,3.068a36.9,36.9,0,0,0,6,2.447c.577.175,1.188.306,1.809.463l.935.227.97.149,1.993.3,2.071.079a29.714,29.714,0,0,0,13.9-3.12l1.224-.533c.367-.192.708-.393,1.031-.577l1.66-.874C499.722,105.482,500.263,105.246,500.325,105.315Z" transform="translate(-209.259 -75.802)"/><path class="h" d="M461.139,138.4c-.052-.07.393-.454,1.241-1.092l1.573-1.127c.306-.21.638-.454,1-.682l1.206-.629a27.564,27.564,0,0,1,14.359-3.609l2.176.1,2.08.323c.341.061.682.1,1.014.175l.979.253c.638.184,1.276.332,1.879.524a31.139,31.139,0,0,1,6.118,2.805c3.268,1.984,4.868,3.784,4.745,3.9s-1.914-1.355-5.244-3.068a36.111,36.111,0,0,0-6-2.456c-.586-.166-1.2-.3-1.809-.454l-.935-.236-.97-.149-1.993-.288-2.071-.087a29.714,29.714,0,0,0-13.913,3.129l-1.18.551c-.367.192-.708.4-1.031.577l-1.66.926C461.742,138.241,461.192,138.477,461.139,138.4Z" transform="translate(-209.001 -79.189)"/><path class="h" d="M504.38,123.344c0,.376-10.95.411-24.47.079s-24.409-.874-24.4-1.267,10.942-.4,24.47-.07S504.389,122.977,504.38,123.344Z" transform="translate(-208.808 -78.004)"/><path class="h" d="M482.157,143.107c-.367,0-.4-10.942-.079-24.426s.874-24.409,1.267-24.4.4,10.95.079,24.47S482.524,143.115,482.157,143.107Z" transform="translate(-210.176 -74.528)"/><path class="h" d="M480.447,143.071c-.087.14-2.779-1.687-5.89-5.812a32.965,32.965,0,0,1-4.37-7.927,29.32,29.32,0,0,1-1.888-10.942,27.966,27.966,0,0,1,2.465-10.837,33.374,33.374,0,0,1,4.772-7.682c3.286-3.976,6-5.733,6.118-5.593s-2.325,2.15-5.348,6.179a36.252,36.252,0,0,0-4.37,7.586,28.07,28.07,0,0,0-2.264,10.365,29.757,29.757,0,0,0,1.748,10.487,35.245,35.245,0,0,0,3.976,7.8C478.157,140.868,480.587,142.922,480.447,143.071Z" transform="translate(-207.636 -74.527)"/><path class="h" d="M484.005,94.289c.1-.14,2.788,1.687,5.89,5.812a32.965,32.965,0,0,1,4.37,7.927,29.714,29.714,0,0,1,1.888,10.95,28.079,28.079,0,0,1-2.465,10.828,33.98,33.98,0,0,1-4.772,7.682c-3.286,3.976-6,5.742-6.118,5.593s2.325-2.15,5.34-6.179a36.261,36.261,0,0,0,4.37-7.586,28.245,28.245,0,0,0,2.255-10.365,29.757,29.757,0,0,0-1.748-10.487,35.437,35.437,0,0,0-3.985-7.8C486.3,96.491,483.848,94.437,484.005,94.289Z" transform="translate(-212.074 -74.529)"/><path class="i" d="M452.759,152.239h0l-.3.079-.874.21-3.391.8-12.987,2.971-.175.044.052-.175,4.772-17.251v-.122h.166l-.14.227a43.863,43.863,0,0,1-6.563-21.044,45.64,45.64,0,0,1,.14-6.257,49.089,49.089,0,0,1,1.119-6.415,46.8,46.8,0,0,1,2.054-6.423c.489-1.04.979-2.089,1.477-3.137a11.36,11.36,0,0,1,.874-1.538c.3-.507.594-1.014.874-1.521a45.505,45.505,0,0,1,9.535-10.959,43.4,43.4,0,0,1,13.3-7.49,44.092,44.092,0,1,1,13.6,85.645,41.774,41.774,0,0,1-13.284-2.386,43.085,43.085,0,0,1-7.743-3.6,16.651,16.651,0,0,1-1.87-1.189l-.629-.437.629.393c.437.271,1.075.664,1.914,1.154a44.572,44.572,0,0,0,7.761,3.5,41.948,41.948,0,0,0,13.231,2.3,43.72,43.72,0,1,0-13.467-84.938,43.234,43.234,0,0,0-13.2,7.4A45.034,45.034,0,0,0,440.2,92.934c-.3.5-.594,1.005-.874,1.5a12.826,12.826,0,0,0-.83,1.521l-1.486,3.094a45.3,45.3,0,0,0-2.045,6.371,48.506,48.506,0,0,0-1.127,6.353,45,45,0,0,0-.149,6.214,43.566,43.566,0,0,0,6.45,20.9l.157.253H440l.157-.1c-1.879,6.651-3.5,12.471-4.859,17.234l-.122-.14,13-2.893,3.4-.734.874-.184a2.623,2.623,0,0,1,.306-.052h0Z" transform="translate(-207.934 -71.679)"/></g><g transform="translate(303.732 170.631)"><path class="k" d="M495.528,187.747c-4.274,1-6.991,5.322-7.927,9.613s-.463,8.739-.874,13.109-1.94,9.01-5.619,11.361l3.662,1.066a9.989,9.989,0,0,1-4.3,5.506,8.154,8.154,0,0,0,5,1.7c-2.15.568-2.744,3.644-1.556,5.523s3.452,2.77,5.611,3.321a14.708,14.708,0,0,0,7.778.236c3.5-1.057,6.187-4.169,7.542-7.612s1.608-7.2,1.748-10.9c.262-9.255-.28-18.606-2.622-27.564-.577-2.167-1.363-4.466-3.207-5.742s-4.99-.76-5.549,1.407" transform="translate(-451.802 -182.13)"/><path class="h" d="M587.988,331.255c-1.014-3.863-6.922-25.624-12.235-39.834-5.864-15.774-17.959-19.034-17.959-19.034-27.223-9.29-51.684-9.342-77.78-.288a22.607,22.607,0,0,0-2.43.874h-.079c-19.375,7.6-21.376,28.071-21.376,28.071l-8.171,49.648a11.22,11.22,0,0,0-.192,1.189l-.079.472h0a11.623,11.623,0,0,0,6.659,11.213c11.361,5.244,22.233,3.994,31.566.14l-6.782,9.875h80.743l-5.3-13.03,1.748-7.865,12.506,15.049a11.632,11.632,0,0,0,5.759,3.749c14.42,1.678,16.753-19.795,14.044-32.292h0" transform="translate(-447.666 -192.049)"/><path class="l" d="M543.392,266.86s-13.03,65.545-17.618,65.038-26.113-63.8-26.113-63.8S527.171,260.76,543.392,266.86Z" transform="translate(-454.221 -191.932)"/><path class="l" d="M505.54,262.292c-.07-7.542-.28-15.486-.28-15.486s-9.727-1.547-11.824-14.219c-1.993-12.078-.166-40.017-.166-40.017h0a36.443,36.443,0,0,1,40.585,9.045h0l-.446,61.28c-.052,7.114-6.214,12.733-13.826,12.62h0C511.884,275.4,505.6,269.51,505.54,262.292Z" transform="translate(-453.319 -182.53)"/><path class="i" d="M497.07,216.936a1.626,1.626,0,0,0,1.573,1.634,1.556,1.556,0,0,0,1.669-1.477,1.625,1.625,0,0,0-1.573-1.634,1.556,1.556,0,0,0-1.669,1.477Z" transform="translate(-453.894 -185.757)"/><path class="i" d="M494.616,215.581c.2.21,1.424-.708,3.172-.717s3.041.874,3.234.647-.122-.472-.682-.874a4.475,4.475,0,0,0-2.622-.778,4.37,4.37,0,0,0-2.526.874C494.695,215.1,494.511,215.485,494.616,215.581Z" transform="translate(-453.582 -185.556)"/><path class="i" d="M517.32,217.907a1.626,1.626,0,0,0,1.573,1.634,1.556,1.556,0,0,0,1.643-1.477,1.626,1.626,0,0,0-1.573-1.634,1.556,1.556,0,0,0-1.643,1.477Z" transform="translate(-456.447 -185.88)"/><path class="i" d="M515.506,216.181c.21.21,1.433-.708,3.181-.717s3.041.874,3.225.647-.114-.472-.673-.874a4.475,4.475,0,0,0-2.622-.778,4.265,4.265,0,0,0-2.526.874C515.594,215.7,515.41,216.085,515.506,216.181Z" transform="translate(-456.216 -185.631)"/><path class="i" d="M507.7,229.216a11.727,11.727,0,0,0-2.849-.489c-.446,0-.874-.131-.944-.437a2.255,2.255,0,0,1,.288-1.328l1.3-3.408c1.8-4.859,3.111-8.844,2.91-8.923s-1.818,3.81-3.627,8.669c-.428,1.2-.874,2.333-1.241,3.426a2.569,2.569,0,0,0-.219,1.748,1.1,1.1,0,0,0,.734.647,3.276,3.276,0,0,0,.76.1,11.361,11.361,0,0,0,2.884-.009Z" transform="translate(-454.674 -185.653)"/><path class="m" d="M507.1,254.332a32.274,32.274,0,0,0,16.954-4.632s-4.073,8.739-16.771,7.629Z" transform="translate(-455.159 -190.074)"/><path class="m" d="M509.185,235.966a3.2,3.2,0,0,1,2.823-1.189A2.893,2.893,0,0,1,514,235.835a1.826,1.826,0,0,1,.149,2.089,2.106,2.106,0,0,1-2.29.586,6.554,6.554,0,0,1-2.237-1.32,1.9,1.9,0,0,1-.507-.516.568.568,0,0,1,0-.647" transform="translate(-455.4 -188.191)"/><path class="i" d="M513.439,232.67c-.288,0-.28,1.888-1.9,3.242s-3.644,1.162-3.653,1.425c0,.122.454.367,1.311.385a4.728,4.728,0,0,0,3.05-1.084,4.047,4.047,0,0,0,1.459-2.718C513.78,233.133,513.571,232.661,513.439,232.67Z" transform="translate(-455.259 -187.927)"/><path class="k" d="M526.81,190.341c-4.518,6.694-16.683,13.721-25.449,15.451,1.005-1.372,6.353-4.8,7.35-6.161-3.933,3.041-9.613,7.123-14.857,7.49a3.208,3.208,0,0,1-1.827-.253,2.456,2.456,0,0,1-.961-1.975,53.183,53.183,0,0,1,.166-11.492,12.707,12.707,0,0,1,4.431-8.276c3.347-2.683,8.18-3.408,12.751-3.6a29.059,29.059,0,0,1,11.309,1.32c3.531,1.32,6.572,4,7.14,7.271" transform="translate(-453.108 -181.473)"/><path class="k" d="M546.383,221.445a70.354,70.354,0,0,0,1.119-8.495c.262-6.555,2.22-30.186-20.3-27.843l1.276,6.353s-4.2,14.717,5.471,24.645c0,0-2.753,20.73,3.976,27.424,0,0,7.219-15.014,8.46-22.084" transform="translate(-457.693 -181.911)"/><path class="l" d="M534.53,219.315a7.612,7.612,0,0,1,4.081.236,5.287,5.287,0,0,1,3.006,2.7,5.488,5.488,0,0,1,.061,4.046,9.342,9.342,0,0,1-2.29,3.426,6.4,6.4,0,0,1-2.456,1.652,3.059,3.059,0,0,1-2.823-.419" transform="translate(-458.564 -186.222)"/><path class="m" d="M535.5,227.8c-.149.052.446.874,1.678.533a2.683,2.683,0,0,0,1.529-1.346,6,6,0,0,0,.655-2.255,3.5,3.5,0,0,0-.585-2.386,2.333,2.333,0,0,0-1.748-1.04c-1.276,0-1.669.874-1.521.874a2.306,2.306,0,0,1,1.425-.166,2.281,2.281,0,0,1,1.433,2.622c-.14,1.4-.673,2.674-1.416,3S535.584,227.69,535.5,227.8Z" transform="translate(-458.736 -186.495)"/><path class="i" d="M483.717,339.273c-.122,0-.227-5.147-.227-11.5s.1-11.492.227-11.492.227,5.147.227,11.492S483.84,339.273,483.717,339.273Z" transform="translate(-452.182 -198.468)"/><path class="l" d="M519.509,315.708s-11.361.131-12.052,2.622c-1.189,4.16.935,27,.935,27l10.443,3.5s5.034-1.162,2.709-10.854a70.728,70.728,0,0,0-6.9-17.426s13.878.385,13.493-2.718S519.509,315.708,519.509,315.708Z" transform="translate(-455.158 -198.377)"/><path class="l" d="M516.14,323.382c.621-.122,14.49-1.267,13.625.953s-13.625,2.77-13.625,2.77Z" transform="translate(-456.299 -199.312)"/><path class="i" d="M560.136,285.02l-1.713,43.312L552.1,344.963l-38.872.8-1.573-53.651Z" transform="translate(-455.733 -194.527)"/><path class="i" d="M499.766,333.2a2.214,2.214,0,0,1-.472.245l-1.4.629-5.182,2.211-17.147,7.158-9.43,3.889a55.682,55.682,0,0,0-7.551,3.5,14.734,14.734,0,0,0-4.23,3.6,17.237,17.237,0,0,0-1.136,1.748,1.9,1.9,0,0,1,.21-.5,7.588,7.588,0,0,1,.787-1.32,14.035,14.035,0,0,1,4.195-3.767A52.328,52.328,0,0,1,465.979,347l9.447-3.915,17.2-7.035,5.244-2.08,1.433-.542a2.1,2.1,0,0,1,.463-.227Z" transform="translate(-448.366 -200.601)"/><path class="i" d="M517.446,352.62a7.289,7.289,0,0,1-.874,1.04c-.568.655-1.416,1.573-2.508,2.665-2.176,2.2-5.322,5.1-8.94,8.128s-6.991,5.628-9.508,7.446c-1.25.874-2.272,1.626-2.989,2.115a7.6,7.6,0,0,1-1.136.708,7.288,7.288,0,0,1,1.031-.874l2.9-2.228c2.447-1.879,5.794-4.509,9.412-7.533s6.782-5.864,9-8.005c1.119-1.057,2-1.949,2.622-2.552A7.774,7.774,0,0,1,517.446,352.62Z" transform="translate(-453.191 -203.049)"/><path class="i" d="M584.555,380.091c-.1.087-5.794-6.45-12.733-14.595s-12.488-14.8-12.392-14.857,5.794,6.432,12.733,14.56S584.651,380.013,584.555,380.091Z" transform="translate(-461.756 -202.799)"/><path class="i" d="M596.509,345.877a8.172,8.172,0,0,1-1.258-.446c-.8-.315-1.958-.8-3.365-1.433-2.814-1.267-6.642-3.155-10.714-5.514s-7.629-4.728-10.129-6.537c-1.25-.874-2.246-1.66-2.919-2.2a7.288,7.288,0,0,1-1.014-.874,7.4,7.4,0,0,1,1.119.725c.778.533,1.792,1.232,3,2.08,2.543,1.748,6.118,4.055,10.173,6.406s7.865,4.282,10.627,5.611l3.295,1.564A7.506,7.506,0,0,1,596.509,345.877Z" transform="translate(-462.724 -200.055)"/><path class="i" d="M577.353,334.463c-.122,0-.8-4.606-1.521-10.321s-1.2-10.374-1.075-10.382.813,4.606,1.529,10.321S577.484,334.455,577.353,334.463Z" transform="translate(-463.686 -198.15)"/><path class="i" d="M539.258,228.65a3.241,3.241,0,0,1-.358.551l-1.11,1.486-4.029,5.244v-.28l6.563,5.156.586.472h-.315l5.681-7.114v.262l-4.273-3.5-1.171-.988a2.367,2.367,0,0,1-.393-.385,3.712,3.712,0,0,1,.463.3l1.232.874,4.37,3.356.149.114-.122.149c-1.617,2.08-3.539,4.527-5.611,7.166l-.14.184-.184-.14-.559-.367c-2.368-1.888-4.6-3.671-6.528-5.2l-.157-.131.122-.149,4.16-5.121,1.189-1.425C539.083,228.8,539.24,228.632,539.258,228.65Z" transform="translate(-458.468 -187.42)"/><path class="l" d="M554.879,345.139a155.339,155.339,0,0,1-18.772-2.01c-7.35-1.171-7.271-1.844-6.991-2.683.7-2.255,13,1.573,10.793-.8s-15.539-2.928-14.708-5.244c1.084-3.033,13.9,1.215,15.005,1.494s1.5-1.32.489-1.521c-1.451-.288-16.683-3.653-15.652-6.642.577-1.66,3.443-.271,3.443-.271s14.044,4.212,14.49,2.779-7.717-4.2-10.54-4.929-3.6-2.351-2.29-3.33c.874-.664,9.613,1.372,12.331,2.167s10.33,3.085,7.446-1.092l-.122-.2c-2.954-4.038-3.889-8.128-3.356-9.5a1.748,1.748,0,0,1,3.111,0,1.81,1.81,0,0,1,.289.673,3.249,3.249,0,0,0,.1.358,24.881,24.881,0,0,0,2.552,4.448,13.562,13.562,0,0,0,3.181,3.295c1.433,1.04,5.06,4.868,6.118,5.549" transform="translate(-457.415 -197.98)"/></g><g transform="translate(83.222 171.537)"><path class="n" d="M257.342,278.311h0a15.338,15.338,0,0,1-15.049-14.857c-.21-6.808-.367-13.371-.367-13.371s-12.506-1.162-13.424-13.537-.524-40.944-.524-40.944h0a43.137,43.137,0,0,1,43.592,2.77l1.923,1.3-.533,63.447a15.337,15.337,0,0,1-15.617,15.189Z" transform="translate(-152.863 -183.577)"/><path class="i" d="M242.951,232.235a8.055,8.055,0,0,0-2.8-.419c-.454,0-.8-.1-.874-.332a2.482,2.482,0,0,1,.245-1.3l1.154-3.522c1.556-5.051,2.622-9.211,2.351-9.29s-1.748,3.95-3.286,9c-.367,1.232-.717,2.412-1.057,3.574a2.831,2.831,0,0,0-.131,1.87,1.189,1.189,0,0,0,.813.664,3.068,3.068,0,0,0,.769.052A8.857,8.857,0,0,0,242.951,232.235Z" transform="translate(-154.195 -186.904)"/><path class="g" d="M248.885,236.14a41.242,41.242,0,0,1-8.215,2.945,4.728,4.728,0,0,0,5.681,1.538C249.969,239.033,248.885,236.14,248.885,236.14Z" transform="translate(-154.474 -189.271)"/><path class="o" d="M243.92,257.584A28.84,28.84,0,0,0,259.782,252s-3.269,9.15-15.731,8.792Z" transform="translate(-154.884 -191.27)"/><path class="n" d="M279.267,218.149a1.87,1.87,0,0,1,1.748-1.879c2.316-.061,6.118.874,6.45,7.227.507,9.115-8.259,6.843-8.285,6.581S279.24,221.688,279.267,218.149Z" transform="translate(-159.328 -186.765)"/><path class="o" d="M281.519,226.952a2.338,2.338,0,0,0,.437.21,1.6,1.6,0,0,0,1.189,0c.944-.411,1.669-1.984,1.617-3.627a5.138,5.138,0,0,0-.568-2.246,1.827,1.827,0,0,0-1.258-1.154.813.813,0,0,0-.918.489c-.1.262,0,.437-.087.454s-.2-.14-.149-.524a1.023,1.023,0,0,1,.323-.586,1.189,1.189,0,0,1,.874-.28,2.237,2.237,0,0,1,1.748,1.32,5.383,5.383,0,0,1,.708,2.447c.044,1.835-.8,3.609-2.1,4.064a1.687,1.687,0,0,1-1.46-.166C281.545,227.144,281.484,226.952,281.519,226.952Z" transform="translate(-159.623 -187.196)"/><path class="i" d="M232.43,220.023a1.687,1.687,0,0,0,1.748,1.573,1.6,1.6,0,0,0,1.617-1.634,1.678,1.678,0,0,0-1.748-1.582,1.608,1.608,0,0,0-1.617,1.643Z" transform="translate(-153.435 -187.031)"/><path class="i" d="M229.154,218.039c.227.2,1.433-.874,3.234-.953s3.2.682,3.373.454-.149-.489-.752-.874a4.641,4.641,0,0,0-2.727-.629,4.37,4.37,0,0,0-2.552,1.023C229.206,217.541,229.014,217.943,229.154,218.039Z" transform="translate(-153.017 -186.734)"/><path class="i" d="M253,219.664a1.678,1.678,0,0,0,1.748,1.573,1.608,1.608,0,0,0,1.625-1.634,1.687,1.687,0,0,0-1.748-1.573A1.617,1.617,0,0,0,253,219.664Z" transform="translate(-156.028 -186.987)"/><path class="i" d="M250.125,218.039c.227.2,1.433-.874,3.234-.953s3.19.682,3.373.454-.149-.489-.76-.874a4.6,4.6,0,0,0-2.718-.629,4.37,4.37,0,0,0-2.552,1.023C250.178,217.541,250.011,217.943,250.125,218.039Z" transform="translate(-155.662 -186.734)"/><path class="i" d="M263.676,190.882a10.828,10.828,0,0,0,2.062,11.623c1.215,1.258,2.753,2.22,3.81,3.627,2.185,2.91,1.827,6.913,2.176,10.531a7.107,7.107,0,0,0,1.748,4.606c1.2,1.11,3.539,1.223,4.37-.218a4.51,4.51,0,0,0,.454-1.459q1.145-6.056,2.272-12.1c.568-3.033,1.145-6.118.62-9.176a12.934,12.934,0,0,0-16.177-10.277" transform="translate(-157.266 -183.147)"/><path class="i" d="M259.642,187.684c-4.2-.8-6.563-2.15-9.535-3.5a13.983,13.983,0,0,0-9.473-1.075c-2.115.594-4.116,1.87-6.292,1.844s-4.107-1.3-6.17-1.958a11.012,11.012,0,0,0-8.556.874,7.322,7.322,0,0,0-4.038,5.567c-.175,2.447,2.01,4.973,4.2,4.274-2.29.8-3.216,4.169-2.08,6.415a5.873,5.873,0,0,0,6.109,2.91,11.125,11.125,0,0,0,6.17-3.767c.052,2.727,2.788,4.641,5.322,4.562s4.824-1.6,6.913-3.164,4.2-3.269,6.686-3.819c1.748-.385,3.5-.175,5.244-.385a5.594,5.594,0,0,0,4.475-2.622c.848-1.652,4.2-3.592,2.447-3.644" transform="translate(-151.31 -182.509)"/><path class="i" d="M237.5,202.484a10.031,10.031,0,0,0,.935.5,4.448,4.448,0,0,0,2.805,0,7.471,7.471,0,0,0,1.8-.8c.612-.367,1.232-.874,1.9-1.32a15.731,15.731,0,0,1,2.194-1.4,6.31,6.31,0,0,1,2.744-.69c1.949,0,3.705.489,5.3.35a4.789,4.789,0,0,0,3.566-1.94,5.244,5.244,0,0,0,1.066-2.622c.07-.682,0-1.066.044-1.066s.044.087.079.271a3.846,3.846,0,0,1,.052.8,5.051,5.051,0,0,1-.979,2.8,5.191,5.191,0,0,1-1.512,1.433,5.1,5.1,0,0,1-2.272.734c-1.7.166-3.5-.35-5.322-.315a8.638,8.638,0,0,0-4.71,1.975c-.673.472-1.3.935-1.949,1.3a7.236,7.236,0,0,1-1.914.778,4.431,4.431,0,0,1-2.954-.131,2.745,2.745,0,0,1-.682-.454Q237.491,202.5,237.5,202.484Z" transform="translate(-154.074 -183.895)"/><path class="i" d="M264.462,183.49a18.608,18.608,0,0,0,.253,2.9,17.39,17.39,0,0,0,1.145,2.683,5.016,5.016,0,0,1-1.4-5.584Z" transform="translate(-157.432 -182.633)"/><path class="i" d="M269.394,183.27c.1.1-1.031,1.162-1.87,2.84s-1.075,3.2-1.206,3.172a5.672,5.672,0,0,1,.8-3.382A5.829,5.829,0,0,1,269.394,183.27Z" transform="translate(-157.705 -182.605)"/><path class="p" d="M333.3,331.55,352.322,380.5H323.2L309.63,345.647Z" transform="translate(-163.168 -201.299)"/><path class="n" d="M209.044,276.507s-25.091,25.825-35.927,25.825c-3.548,0-6.327-43.015-6.371-55.416h0a16.256,16.256,0,0,1,2.438-4.448,20.977,20.977,0,0,1,3.155-3.5,21.63,21.63,0,0,1,4.92-3.172c1.7-.594,1.835-2.91.288-3.373s-6.249,1.066-10.487,5.06-2.954-4.946-2.552-8.206,1.162-13.424.253-14.315c-1.328-1.311-3.015-.1-3.347,3.172s-1.931,13.039-3.679,12.786.577-16.849.577-16.849,1.057-3.5-.874-3.845c-3.566-.638-4.676,17.155-4.737,18.851,0,1.18-1.923.979-1.809-.288s2.622-16.517-.97-17.208c-2.77-.524-1.049,14.638-3.33,17.549s-.131-11.667-2.805-12.06c-1-.14-1.748-.114-1.748,8.4,0,4.579,1.748,11.492,1.066,20.3h0c1.154,26.008-.122,99.043,28.84,90.391,31.82-9.526,53.563-30.369,53.563-30.369Z" transform="translate(-142.04 -186.002)"/><path class="i" d="M299.089,312.55a5.075,5.075,0,0,1,.28,1.031c.157.664.358,1.634.586,2.84.446,2.412.979,5.759,1.39,9.473s.62,7.1.708,9.543c0,1.223.061,2.22.052,2.9a4.245,4.245,0,0,1-.052,1.066,5.578,5.578,0,0,1-.122-1.057c-.052-.778-.122-1.748-.2-2.893-.166-2.438-.428-5.8-.874-9.508s-.874-7.053-1.258-9.473c-.175-1.136-.315-2.089-.437-2.858a4.587,4.587,0,0,1-.07-1.066Z" transform="translate(-161.838 -198.903)"/><path class="h" d="M209.873,372.9l80.157.4-2.7-16.919a130.466,130.466,0,0,0-.114-24.129l4.064,11,33.131-16.6s-12.043-32.108-22.128-42.989c-12.733-13.747-35.656-12.375-35.656-12.375L251.14,281.772,236.886,271.73a69.276,69.276,0,0,0-22.023,6.406l-.734.21v.157c-8.407,4.37-20.406,15.093-31.829,25.484l13.188,12.838,14.6,13.607a11.9,11.9,0,0,1,2.5-.1C212.835,331.831,209.873,372.9,209.873,372.9Z" transform="translate(-147.115 -193.696)"/><path class="q" d="M299.482,306.68l10.9,38.855-4.37,2.185-4.055-11S298,313.68,299.482,306.68Z" transform="translate(-161.846 -198.163)"/><path class="h" d="M243.74,270.864V266.67s12.515-.97,15.049,13.817c0,0,4.081-13.817,16.229-15.206l1.748,6.458s-5.759,17.994-6.589,18.152-11.361,3.225-11.361,3.225l-6.118-1.381-6.773-7.717Z" transform="translate(-154.861 -192.944)"/><path class="i" d="M279.606,272.11a4.786,4.786,0,0,1-.7.725c-.454.463-1.119,1.11-1.905,1.958a44.981,44.981,0,0,0-5.427,7.131c-.385.629-.734,1.25-1.066,1.853l-.2.367-.192-.367c-1.39-2.622-2.622-4.894-3.566-6.668a2.945,2.945,0,0,0-.8-.874,1.748,1.748,0,0,0-.874-.306,2.1,2.1,0,0,0-.76.131.952.952,0,0,1,.769-.288,1.748,1.748,0,0,1,.961.271,3.086,3.086,0,0,1,.926.944c.988,1.652,2.246,3.968,3.705,6.616h-.35c.332-.612.682-1.25,1.075-1.879a38.12,38.12,0,0,1,5.584-7.123c.822-.821,1.521-1.442,2.019-1.861a3.546,3.546,0,0,1,.8-.629Z" transform="translate(-157.43 -193.805)"/><path class="i" d="M242.81,273a3.329,3.329,0,0,1,.594.629c.367.428.874,1.049,1.494,1.827,1.25,1.547,2.945,3.705,4.8,6.118l.3.385h-.385a14.87,14.87,0,0,0,1.031-3.9,4.667,4.667,0,0,1,1.748-2.919,2.569,2.569,0,0,1,2.255-.288,1.87,1.87,0,0,1,.533.341c.1.114.131.175.122.184a3.618,3.618,0,0,0-.708-.358,2.465,2.465,0,0,0-2.028.385,4.413,4.413,0,0,0-1.494,2.753,15.276,15.276,0,0,1-1.04,4.02l-.166.306-.21-.28-.3-.385c-1.853-2.4-3.5-4.6-4.693-6.2-.586-.8-1.057-1.451-1.381-1.905A3.364,3.364,0,0,1,242.81,273Z" transform="translate(-154.744 -193.917)"/><path class="i" d="M253,374.356a.874.874,0,0,1,0-.245v-.69c0-.647.079-1.538.14-2.674.149-2.351.367-5.7.62-9.814.577-8.32,1.363-19.751,2.229-32.379l2.351-32.336c.323-4.116.586-7.455.769-9.806.1-1.136.175-2.028.236-2.665a5.847,5.847,0,0,1,.07-.7.874.874,0,0,1,0-.227.613.613,0,0,1,0,.236v.69c0,.647-.087,1.538-.149,2.674-.149,2.351-.358,5.7-.62,9.814-.568,8.32-1.355,19.751-2.22,32.379s-1.748,24.059-2.36,32.335c-.323,4.116-.577,7.455-.76,9.806q-.157,1.7-.236,2.674a5.871,5.871,0,0,1-.07.69.734.734,0,0,1,0,.236Z" transform="translate(-156.027 -195.155)"/><path class="i" d="M219.68,298.6a7.867,7.867,0,0,1-.079,1.39c-.07.97-.175,2.237-.3,3.775-.236,3.181-.481,7.594-.752,12.471s-.568,9.281-.874,12.471c-.157,1.591-.315,2.884-.446,3.767a7.645,7.645,0,0,1-.253,1.372,7.869,7.869,0,0,1,.079-1.39c.079-.97.175-2.246.3-3.775.245-3.19.481-7.6.76-12.471s.559-9.29.874-12.48c.157-1.591.315-2.875.446-3.767a8.223,8.223,0,0,1,.245-1.363Z" transform="translate(-151.487 -197.145)"/><path class="f" d="M259.461,280.26s-4.3,5.619-3.671,6.458l3.671,4.9h2.622s2.447-6.869,1.818-7.743A38.385,38.385,0,0,0,259.461,280.26Z" transform="translate(-156.372 -194.833)"/><path class="f" d="M266.815,278.53l-4.745,3.705,1.818,3.487,4.877-3.6Z" transform="translate(-157.172 -194.615)"/><path class="f" d="M251.55,280.611l4.326,3.609,2.395-3.609-5.462-4.151Z" transform="translate(-155.846 -194.354)"/><path class="f" d="M258.988,293.149l-6.6,59.13,6.493,20.555,8.661-20.371-5.7-60.013Z" transform="translate(-155.952 -196.369)"/><path class="i" d="M310.893,280.505a5.775,5.775,0,0,0-.874-.586,3.706,3.706,0,0,0-2.718-.157,8.424,8.424,0,0,0-3.382,2.386,20.319,20.319,0,0,0-3.094,4.134,20.975,20.975,0,0,0-2.622,8.958c-.14,2.421.166,3.915.07,3.924a5.626,5.626,0,0,1-.227-1.04,17.089,17.089,0,0,1-.157-2.893,19.9,19.9,0,0,1,2.543-9.176,19.533,19.533,0,0,1,3.19-4.2,8.4,8.4,0,0,1,3.592-2.395,3.732,3.732,0,0,1,2.893.306,2.525,2.525,0,0,1,.62.507C310.858,280.409,310.9,280.5,310.893,280.505Z" transform="translate(-161.686 -194.711)"/></g><g transform="translate(196.47 180.591)"><path class="i" d="M381.687,197c-5.6,3.435-9.491,9.176-11.8,15.32s-3.181,12.733-3.863,19.227a374.791,374.791,0,0,0-1.809,51.973c21.175,2.674,42.517,5.366,63.8,3.915-3.7-24.322-6.039-48.617-3.076-73.043" transform="translate(-310.068 -193.39)"/><path class="r" d="M422,409.286,406.553,378.1l5.89-22.81c.69,4.833,1.3,9.028,1.3,9.028l33.078-1.748a2.1,2.1,0,0,0,1.966-2.395l-6.406-45.619s-2.071-21.167-22.11-29.032h-.1c-.8-.315-1.643-.594-2.508-.874-27.013-9.369-52.314-9.307-80.463.3,0,0-12.506,3.365-18.571,19.681s-12.235,40.3-12.235,40.3l28.053,9.937.184-4.745,6.2,23.736L327.235,408.43l47.5,1.171Z" transform="translate(-302.807 -203.562)"/><path class="r" d="M305.908,354.28l-3.155,14.857c-2.709,12.8,6.773,25.947,19.777,27.424l69.137,7.1a27.485,27.485,0,0,0,30.457-24.907h0l-87.166-8.3.542-8.372Z" transform="translate(-302.289 -213.218)"/><path class="l" d="M405.3,369.477l5.366-1s12.724-13.922,15.11-14.114c1.966-.166,12.794-.061,16.6,0a1.311,1.311,0,0,1,1.293,1.311h0a1.311,1.311,0,0,1-1.267,1.311l-12.786.5-.061,1.031,12.8.166c1.311.1,2.141,2.167-2.028,2.543l-10.714.376v.664l10.863,1.521c.551.079,1.993.358,2,.918,0,0,.664,1.355-2.438,1.748-1.057.131-10.487-.184-10.487-.184l.358.874,9.771,2.106a1.381,1.381,0,0,1,1.075,1.547h0a1.381,1.381,0,0,1-1.5,1.189l-10.426-.961L418.591,379.2H404.87Z" transform="translate(-315.221 -213.218)"/><path class="s" d="M366.48,277.969s13.467,68.866,18.213,68.368,27-66.008,27-66.008S383.251,271.668,366.48,277.969Z" transform="translate(-310.381 -203.308)"/><path class="i" d="M434.637,351.52c-.122,0-.227-4.754-.227-10.61s.1-10.6.227-10.6.227,4.745.227,10.6S434.768,351.52,434.637,351.52Z" transform="translate(-318.945 -210.196)"/><path class="i" d="M340.07,352.1a21.157,21.157,0,0,1,.28-3.05c.236-1.888.586-4.475,1.005-7.332s.813-5.453,1.127-7.315a20.7,20.7,0,0,1,.6-3.015,21.209,21.209,0,0,1-.28,3.059c-.236,1.879-.586,4.475-1.005,7.332s-.813,5.436-1.127,7.306A20.706,20.706,0,0,1,340.07,352.1Z" transform="translate(-307.052 -210.332)"/><path class="i" d="M384.587,419.532a2.781,2.781,0,0,1,0-.638v-1.827c0-1.591,0-3.889.061-6.729.1-5.681.411-13.52.8-22.172s.743-16.491.935-22.172c.079-2.8.149-5.078.2-6.721a18.1,18.1,0,0,1,.052-1.827,3.034,3.034,0,0,1,.052-.638,3.618,3.618,0,0,1,0,.638q0,.69,0,1.835c0,1.582,0,3.88-.052,6.721-.1,5.681-.419,13.52-.8,22.18s-.752,16.491-.935,22.163c-.087,2.805-.157,5.086-.2,6.721a15.365,15.365,0,0,1-.061,1.827A5.191,5.191,0,0,1,384.587,419.532Z" transform="translate(-312.662 -213.537)"/><path class="i" d="M414.125,280.87s.044.3.149.874a12.41,12.41,0,0,0,.69,2.377,25.478,25.478,0,0,0,1.748,3.5,49.55,49.55,0,0,1,2.473,4.614,11.116,11.116,0,0,1,1.049,6.257,8.066,8.066,0,0,1-1.407,3.295,22.042,22.042,0,0,1-2.464,2.849,44.575,44.575,0,0,0-5.244,6.013,14.324,14.324,0,0,0-2.7,7.918,9.762,9.762,0,0,0,.926,4.142,37.14,37.14,0,0,1,1.7,3.924,5.778,5.778,0,0,1,.271,2.115,4.37,4.37,0,0,1-.655,2.01,10.863,10.863,0,0,1-2.91,2.727l-10.95,8.075-7.4,5.4-2.028,1.459-.533.367-.192.114a1.594,1.594,0,0,1,.166-.157l.507-.4,1.975-1.521,7.28-5.532,10.889-8.145a10.357,10.357,0,0,0,2.788-2.622,3.9,3.9,0,0,0,.594-1.809,5.479,5.479,0,0,0-.262-1.966,35.767,35.767,0,0,0-1.687-3.863,10.129,10.129,0,0,1-.961-4.317,14.69,14.69,0,0,1,2.788-8.163,43.625,43.625,0,0,1,5.313-6.065c1.792-1.748,3.443-3.679,3.793-5.917a10.714,10.714,0,0,0-.97-6.056,48.609,48.609,0,0,0-2.4-4.623,25.638,25.638,0,0,1-1.687-3.574,11.04,11.04,0,0,1-.612-2.43,6.122,6.122,0,0,1-.061-.647.682.682,0,0,1,.035-.219Z" transform="translate(-312.923 -203.963)"/><path class="i" d="M383.4,345.976h-.21l-.62-.114a19.628,19.628,0,0,1-2.333-.638,23.282,23.282,0,0,1-7.682-4.37,22.8,22.8,0,0,1-7.053-11.012,23.385,23.385,0,0,1-.874-7.743,25.249,25.249,0,0,1,.551-4.09,9.518,9.518,0,0,0,.114-4.09,3.382,3.382,0,0,0-1.057-1.652,5.621,5.621,0,0,0-1.8-.874c-.647-.219-1.32-.393-1.975-.664a5.513,5.513,0,0,1-1.748-1.154,6.887,6.887,0,0,1-1.8-3.609,14.278,14.278,0,0,1-.21-3.837,52.183,52.183,0,0,1,2.866-12.856,53.579,53.579,0,0,1,3.671-8.084c.516-.874.935-1.608,1.241-2.062l.341-.524a.706.706,0,0,1,.131-.175.382.382,0,0,1-.087.192l-.306.551c-.28.472-.673,1.189-1.171,2.106a58.548,58.548,0,0,0-3.5,8.1,54.555,54.555,0,0,0-2.753,12.777,14.5,14.5,0,0,0,.227,3.723,6.572,6.572,0,0,0,1.678,3.382,5.244,5.244,0,0,0,1.634,1.049c.612.253,1.276.428,1.949.655a5.891,5.891,0,0,1,1.94.979,3.81,3.81,0,0,1,1.206,1.879,9.84,9.84,0,0,1-.1,4.291,26.221,26.221,0,0,0-.551,4.038,23.324,23.324,0,0,0,.874,7.6,22.653,22.653,0,0,0,6.86,10.88,24.078,24.078,0,0,0,7.533,4.483c.979.35,1.748.577,2.3.717l.6.157q.056-.012.114-.017Z" transform="translate(-309.143 -203.656)"/><path class="r" d="M420.526,371.51l-57.915-1.87.087,19.227,38.348,8.425,26.978,4.308c16.762,0,30.177-15.39,27.581-31.951h-.07Z" transform="translate(-309.893 -215.154)"/><path class="i" d="M436.47,371.147a4.255,4.255,0,0,1-.752.052l-2.15.061-7.918.14c-6.686.1-15.923.218-26.131.114s-19.445-.463-26.122-.874c-3.338-.227-6.03-.437-7.865-.629l-2.141-.218a4.47,4.47,0,0,1-.752-.1,4.465,4.465,0,0,1,.752,0l2.15.131c1.87.131,4.571.3,7.865.481,6.677.367,15.906.69,26.113.787s19.428,0,26.113,0h10.076A5.075,5.075,0,0,1,436.47,371.147Z" transform="translate(-309.897 -215.158)"/><path class="l" d="M356.519,369.477l-5.366-1s-12.724-13.922-15.119-14.114c-1.958-.166-12.786-.061-16.561,0a1.311,1.311,0,0,0-1.293,1.311h0a1.311,1.311,0,0,0,1.258,1.311l12.794.5.061,1.031-12.812.166c-1.3.1-2.141,2.167,2.036,2.543l10.714.376v.664l-10.863,1.521c-.551.079-1.993.358-2.01.918,0,0-.655,1.355,2.438,1.748,1.066.131,10.487-.184,10.487-.184l-.367.874-9.762,2.106a1.4,1.4,0,0,0-1.084,1.547h0a1.39,1.39,0,0,0,1.5,1.189l10.435-.961,10.242,8.171h13.686Z" transform="translate(-304.292 -213.218)"/><path class="i" d="M427.133,404.067a2.857,2.857,0,0,1-.655,0l-1.87-.2c-1.634-.184-3.976-.481-6.878-.874-5.8-.8-13.791-2.071-22.556-3.784s-16.6-3.566-22.32-5.016c-2.832-.717-5.121-1.328-6.694-1.748l-1.809-.524a4.482,4.482,0,0,1-.629-.21,3.146,3.146,0,0,1,.647.122l1.835.437,6.729,1.643c5.689,1.363,13.572,3.155,22.329,4.877S412,401.821,417.773,402.7l6.852,1.023,1.861.288a5.628,5.628,0,0,1,.647.052Z" transform="translate(-310.033 -217.937)"/><path class="i" d="M363.132,389a14.712,14.712,0,0,1-.507-2.735c-.227-1.748-.472-4.073-.612-6.686s-.131-5-.079-6.721a15.092,15.092,0,0,1,.218-2.77,18.782,18.782,0,0,1,.1,2.779c0,1.748.079,4.073.21,6.686s.332,4.964.481,6.668a20.977,20.977,0,0,1,.184,2.779Z" transform="translate(-309.804 -215.211)"/><path class="i" d="M370.3,389.791a2.964,2.964,0,0,1-.253-.734c-.131-.472-.306-1.171-.481-2.036a49.814,49.814,0,0,1-.874-13.791c.07-.874.157-1.6.236-2.089a2.552,2.552,0,0,1,.157-.752,24.348,24.348,0,0,1-.07,2.858c-.07,1.748-.1,4.195.07,6.878s.481,5.1.76,6.834A23.073,23.073,0,0,1,370.3,389.791Z" transform="translate(-310.642 -215.249)"/><path class="i" d="M364.342,373.566c.052.052-.28.288-.271.874a1.057,1.057,0,0,0,.35.787.95.95,0,0,0,1.433-.874,1.049,1.049,0,0,0-.5-.7c-.463-.28-.874-.114-.874-.183s.358-.376,1.014-.1a1.311,1.311,0,0,1,.769.874,1.328,1.328,0,0,1-2.124,1.215,1.3,1.3,0,0,1-.4-1.11C363.843,373.679,364.342,373.5,364.342,373.566Z" transform="translate(-310.034 -215.61)"/><path class="i" d="M368.368,395.817a2.419,2.419,0,0,1-.594,0h-1.7a46.139,46.139,0,0,0-6.214.586,91.675,91.675,0,0,0-9.045,2.01c-3.382.874-7.07,1.966-11.029,2.832a47.312,47.312,0,0,1-11.361,1.232,28.725,28.725,0,0,1-9.15-1.748,20.844,20.844,0,0,1-5.471-3.085,13.8,13.8,0,0,1-1.267-1.145,2.624,2.624,0,0,1-.4-.437s.6.559,1.748,1.442a21.569,21.569,0,0,0,5.471,2.919,28.779,28.779,0,0,0,9.106,1.652,48.069,48.069,0,0,0,11.23-1.259c3.933-.874,7.629-1.923,11.02-2.8a86.6,86.6,0,0,1,9.106-1.923,41.191,41.191,0,0,1,6.257-.437,9.975,9.975,0,0,1,1.7.079A3.173,3.173,0,0,1,368.368,395.817Z" transform="translate(-303.53 -218.434)"/><path class="l" d="M401.493,276.813c1.372-7.673,2.963-15.731,2.963-15.731s10.19.1,14.516-12.454c4.125-11.973,7.105-40.778,7.105-40.778h0a37.684,37.684,0,0,0-42.945,2.194h0L372.976,272.6c-1.18,7.262,4.125,14.062,11.912,15.259h0C392.745,289.074,400.182,284.171,401.493,276.813Z" transform="translate(-311.18 -194.042)"/><path class="i" d="M424.607,233.089a1.678,1.678,0,0,1-1.888,1.39,1.6,1.6,0,0,1-1.451-1.792,1.687,1.687,0,0,1,1.9-1.39,1.608,1.608,0,0,1,1.442,1.792Z" transform="translate(-317.287 -197.712)"/><path class="i" d="M427.6,231.427c-.245.184-1.337-.97-3.12-1.276s-3.242.35-3.4.1c-.079-.1.2-.463.874-.778a4.676,4.676,0,0,1,2.77-.35,4.483,4.483,0,0,1,2.438,1.293C427.6,230.928,427.711,231.348,427.6,231.427Z" transform="translate(-317.263 -197.43)"/><path class="i" d="M403.667,229.744a1.687,1.687,0,0,1-1.888,1.39,1.608,1.608,0,0,1-1.451-1.748,1.7,1.7,0,0,1,1.9-1.4,1.617,1.617,0,0,1,1.442,1.757Z" transform="translate(-314.648 -197.295)"/><path class="i" d="M406.188,228.426c-.245.175-1.337-.97-3.12-1.285s-3.242.358-3.4.1c-.079-.114.192-.472.874-.787a4.614,4.614,0,0,1,2.77-.341,4.422,4.422,0,0,1,2.438,1.285C406.188,227.919,406.3,228.347,406.188,228.426Z" transform="translate(-314.564 -197.051)"/><path class="i" d="M411.86,243.027a12.542,12.542,0,0,1,2.989,0c.463,0,.874,0,1.04-.28a2.36,2.36,0,0,0-.061-1.4c-.236-1.18-.481-2.412-.734-3.705-1.005-5.244-1.643-9.561-1.424-9.613s1.189,4.195,2.194,9.456c.236,1.3.463,2.534.673,3.714a2.7,2.7,0,0,1-.079,1.827,1.145,1.145,0,0,1-.874.533,2.909,2.909,0,0,1-.8,0,11.544,11.544,0,0,1-2.928-.533Z" transform="translate(-316.102 -197.302)"/><path class="m" d="M406.622,268.474a33.445,33.445,0,0,1-16.482-7.664s2.622,9.613,15.731,10.679Z" transform="translate(-313.364 -201.434)"/><path class="m" d="M409.342,249.746A3.286,3.286,0,0,0,406.668,248a2.954,2.954,0,0,0-2.211.734,1.87,1.87,0,0,0-.516,2.1,2.194,2.194,0,0,0,2.228,1.005,6.93,6.93,0,0,0,2.517-.961,2.018,2.018,0,0,0,.6-.437.594.594,0,0,0,.114-.664" transform="translate(-315.088 -199.818)"/><path class="i" d="M405.542,245.55c.288,0-.052,1.966,1.363,3.636s3.5,1.809,3.5,2.089c0,.122-.524.288-1.4.157a4.859,4.859,0,0,1-2.919-1.626A4.282,4.282,0,0,1,405,246.817C405.1,245.943,405.41,245.515,405.542,245.55Z" transform="translate(-315.237 -199.51)"/><path class="i" d="M394.61,199.643c3.452,7.612,14.638,16.876,23.273,20.162-.787-1.573-5.637-6-6.423-7.56,3.5,3.784,8.521,8.923,13.843,10.208a3.3,3.3,0,0,0,1.905.061,2.569,2.569,0,0,0,1.32-1.844,55.058,55.058,0,0,0,1.818-11.754,13.109,13.109,0,0,0-3.059-9.2c-2.945-3.312-7.752-4.894-12.375-5.882a30.111,30.111,0,0,0-11.763-.612c-3.828.734-7.393,2.936-8.538,6.179" transform="translate(-313.928 -192.869)"/><path class="i" d="M371.047,228.407a72.826,72.826,0,0,1,.332-8.853c.874-6.721,2.963-31.164,25.519-24.872l-2.395,6.266s1.748,15.731-9.849,24.173c0,0,.052,15.731-7.97,21.368,0,0-5.593-10.645-5.637-18.073" transform="translate(-310.955 -192.969)"/><path class="l" d="M385.934,228.348a7.865,7.865,0,0,0-4.2-.463,5.462,5.462,0,0,0-3.5,2.229,5.7,5.7,0,0,0-.76,4.116,9.613,9.613,0,0,0,1.748,3.889,6.554,6.554,0,0,0,2.194,2.089,3.129,3.129,0,0,0,2.954.061" transform="translate(-311.754 -197.271)"/><path class="m" d="M384.116,236.865c.149.079-.594.813-1.8.245a2.744,2.744,0,0,1-1.32-1.634,6.039,6.039,0,0,1-.28-2.412,3.662,3.662,0,0,1,1.005-2.333,2.447,2.447,0,0,1,2.01-.752c1.3.2,1.547,1.171,1.39,1.171a2.627,2.627,0,0,0-1.425-.411,2.36,2.36,0,0,0-1.914,2.412c-.1,1.451.219,2.849.918,3.3S384.055,236.734,384.116,236.865Z" transform="translate(-312.173 -197.546)"/><path class="i" d="M381.446,242.06c-3.5,20.9-.655,42.255,0,63.439a11.883,11.883,0,0,1-.874,5.96c-1.39,2.735-4.641,4.073-7.708,4.256s-6.118-.524-9.168-.778c-.332-2.028-.655-4.064-.988-6.118q-1.534,3.513-3.059,6.992,2.019-22.285,4.422-44.571" transform="translate(-309.52 -199.071)"/></g></g></svg>