<svg xmlns="http://www.w3.org/2000/svg" width="694.477" height="596.982" viewBox="0 0 694.477 596.982"><defs><style>.a,.f{fill:#2d85f5;}.a{opacity:0.1;}.b{fill:#e0e0e0;}.c{fill:#f5f5f5;}.d{fill:#fff;}.e{fill:#263238;}.g{fill:#ffbe9d;}.h{fill:#eb996e;}.i{opacity:0.3;}.j{fill:#fafafa;}.k{fill:#455a64;}.l{fill:#b78876;}.m{fill:#0b2545;}.n{fill:#7c5142;}.o{opacity:0.6;}.p{fill:#fe9000;}</style></defs><g transform="translate(125.862 15.823)"><path class="a" d="M390.661,17.417C611.512,56.386,632.876,128.4,591.7,269.951c-28.435,70.114-135.412,58.934-269.857,83.591C184.828,378.671,129.561,400.888,94.652,401.3c-136.5-10.193-60.3-196.662,62.159-303.149C199.434,61.086,333.46,7.324,390.661,17.417Z" transform="translate(418.998 605.137) rotate(-155)"/><g transform="translate(43.257 77.08)"><rect class="b" width="41.942" height="60.793" transform="translate(241.718 66.154)"/><rect class="c" width="41.942" height="60.793" transform="translate(239.618 66.154)"/><rect class="d" width="31.521" height="47.629" transform="translate(244.829 72.736)"/><path class="b" d="M349.808,197.05V183.719c0-8.363,0-20.289-.05-34.29l.1.1H318.346l.117-.117v47.621l-.092-.084h-.2V149.12h31.739v.109c0,14.034-.042,25.926-.05,34.365v13.038a2,2,0,0,1-.05.418Z" transform="translate(-73.467 -76.694)"/><path class="b" d="M361.262,141.62a7.364,7.364,0,0,1-.744,1.087c-.485.644-1.179,1.531-1.965,2.509s-1.53,1.806-2.074,2.409a8.006,8.006,0,0,1-.928.945,9,9,0,0,1,.836-1.045l2.024-2.45,2.016-2.45A7.409,7.409,0,0,1,361.262,141.62Z" transform="translate(-79.585 -75.466)"/><path class="d" d="M356.2,206.25a39.307,39.307,0,0,0,5.5,6.875" transform="translate(-79.691 -86.044)"/><path class="b" d="M361.7,213.136a5.856,5.856,0,0,1-.962-.836,30.829,30.829,0,0,1-2.074-2.342,29.156,29.156,0,0,1-1.823-2.509,6.147,6.147,0,0,1-.644-1.129,7.371,7.371,0,0,1,.778,1.037c.46.652,1.112,1.539,1.865,2.509s1.489,1.781,2.016,2.375A8.365,8.365,0,0,1,361.7,213.136Z" transform="translate(-79.691 -86.055)"/><path class="d" d="M312.09,212.924l5.486-6.774" transform="translate(-72.472 -86.028)"/><path class="b" d="M317.576,206.15a41.817,41.817,0,0,1-2.651,3.454c-1.522,1.873-2.793,3.345-2.835,3.345a40.963,40.963,0,0,1,2.651-3.462A43.35,43.35,0,0,1,317.576,206.15Z" transform="translate(-72.472 -86.028)"/><path class="b" d="M312.09,141.62a36.878,36.878,0,0,1,2.668,3.186,40.279,40.279,0,0,1,2.509,3.345,36.883,36.883,0,0,1-2.668-3.186,37.516,37.516,0,0,1-2.509-3.345Z" transform="translate(-72.472 -75.466)"/><rect class="b" width="10.555" height="29.966" transform="translate(255.977 82.404)"/><path class="c" d="M262.79,345a14.937,14.937,0,0,0-8.782,7.719A26.344,26.344,0,0,0,251.5,364.36c-.1,7.753,3.253,16.016,7.151,22.715,7.151-4.8,9.877-14.4,10.956-19.361,1.673-7.845,0-23.041-6.808-22.715" transform="translate(-62.554 -108.752)"/><path class="c" d="M245.009,405.747a12.737,12.737,0,0,0-2.559-12.545,16.885,16.885,0,0,0-11.876-5.436c-2.066-.109-4.357.209-5.746,1.748a5.445,5.445,0,0,0-.778,5.461,11.014,11.014,0,0,0,3.546,4.508c5.127,4.182,10.872,7.335,17.412,6.247" transform="translate(-57.996 -115.749)"/><path class="b" d="M252.33,425.956a25.181,25.181,0,0,0-.234-5.118,23.416,23.416,0,0,0-1.271-5.453,52.171,52.171,0,0,0-2.568-6.331,25.424,25.424,0,0,0-7.962-9.484,18.668,18.668,0,0,0-3.345-1.815,4.181,4.181,0,0,0-1.33-.385c-.067.142,1.8.836,4.282,2.693a27.324,27.324,0,0,1,7.527,9.384,61.581,61.581,0,0,1,2.584,6.206,26.488,26.488,0,0,1,1.422,5.269A41.143,41.143,0,0,0,252.33,425.956Z" transform="translate(-59.956 -117.324)"/><path class="b" d="M263.636,359a14.717,14.717,0,0,0-.585,2.509c-.318,1.673-.744,4.014-1.246,6.95-1.012,5.854-2.308,14-3.529,23.016s-2.082,17.2-2.584,23.15c-.251,2.969-.427,5.369-.519,7.034a13.615,13.615,0,0,0-.05,2.593,14.913,14.913,0,0,0,.385-2.559c.209-1.815.477-4.182.836-7.008.661-5.921,1.622-14.092,2.835-23.091s2.417-16.994,3.27-23.041c.4-2.827.728-5.185.979-6.983A14.988,14.988,0,0,0,263.636,359Z" transform="translate(-63.141 -111.044)"/><path class="c" d="M260.347,410.919a29.79,29.79,0,0,1,21.4-16.81c2.358-.435,5.269-.351,6.565,1.673s.159,4.717-1.271,6.691a25.441,25.441,0,0,1-26.712,9.074" transform="translate(-64 -116.756)"/><path class="b" d="M277.691,401.6a4.181,4.181,0,0,0-1.33.284c-.836.234-2.049.644-3.513,1.188a33.452,33.452,0,0,0-10.555,6.222,21.074,21.074,0,0,0-4.182,5.353,20.114,20.114,0,0,0-1.915,5.21,20.389,20.389,0,0,0-.468,3.7,4.047,4.047,0,0,0,0,1.363c.176,0,.243-1.932,1.02-4.909a20.808,20.808,0,0,1,6.105-10.078,37.693,37.693,0,0,1,10.2-6.289C275.943,402.395,277.758,401.734,277.691,401.6Z" transform="translate(-63.238 -118.016)"/><path class="c" d="M443.643,169.739s-8.765-2.584-12.311,17.563-3.83,31.245-3.83,31.245-1.229,4.374-4.474,2.752-8.756-7.335-12.645-4.809c-4.039,2.618-3.981,8-.912,15s9.2,22.581,9.768,23.986.368,3.722-2.016,2.977-17.563-9.894-21.494-2.367,7.828,25.558,9.074,27.6,1.1,3.061.234,3.914-5.687-2.7-10.12-5.127-9.994-4.458-11.884.042,1.673,19.671,23.267,39.5l10.588,8.531,12.821-4.717c26.821-11.776,35.126-24.956,34.808-29.832s-6.256-4.784-11.232-3.947-10.688,2.668-11.24,1.572-.335-2.141,1.5-3.63,18.8-14.8,17.521-23.141-18.625-4.6-21.126-4.667-1.9-2.333-.945-3.462,11.851-13.9,17.019-19.528,6.967-10.7,4-14.485c-2.86-3.655-9.936,0-13.523.452s-3.345-4.048-3.345-4.048,3.345-10.588,6.5-30.81-6.189-20.574-6.189-20.574" transform="translate(-84.011 -80.051)"/><path class="b" d="M446.39,191.35a3.307,3.307,0,0,1-.042.427l-.176,1.246c-.167,1.112-.41,2.726-.711,4.784-.627,4.182-1.572,10.17-2.768,17.563-2.392,14.845-5.854,35.318-9.777,57.924s-7.443,43.071-9.911,57.9c-1.229,7.4-2.225,13.381-2.91,17.563-.343,2.057-.611,3.663-.836,4.775-.092.527-.159.937-.217,1.238s-.092.418-.092.418a2.769,2.769,0,0,1,.05-.427c.05-.284.1-.711.167-1.246.167-1.112.41-2.726.711-4.784.627-4.182,1.572-10.17,2.768-17.563,2.392-14.845,5.854-35.327,9.785-57.933s7.468-43.063,9.977-57.924c1.221-7.4,2.216-13.381,2.91-17.563l.795-4.775.217-1.238A3.769,3.769,0,0,1,446.39,191.35Z" transform="translate(-89.961 -83.605)"/><path class="b" d="M424.66,235.62a4.391,4.391,0,0,1,.6.778c.368.519.836,1.28,1.489,2.225,1.229,1.9,2.86,4.558,4.6,7.527l4.424,7.636,1.346,2.3a3.48,3.48,0,0,1,.46.836,4.229,4.229,0,0,1-.611-.769c-.36-.519-.836-1.28-1.472-2.233-1.213-1.915-2.81-4.6-4.55-7.569l-4.474-7.6c-.535-.9-1-1.673-1.363-2.3a3.589,3.589,0,0,1-.452-.828Z" transform="translate(-90.896 -90.851)"/><path class="b" d="M441.63,257.926c-.075-.109,5.269-3.7,11.934-8.045s12.11-7.761,12.185-7.661-5.277,3.713-11.934,8.046S441.7,258.018,441.63,257.926Z" transform="translate(-93.673 -91.931)"/><path class="b" d="M432.57,300.523a4.573,4.573,0,0,1,.945-.343l2.609-.794c2.2-.677,5.244-1.614,8.556-2.777s6.289-2.292,8.439-3.136l2.509-1a3.79,3.79,0,0,1,.962-.318,4.673,4.673,0,0,1-.887.477c-.585.284-1.43.677-2.509,1.137-2.108.92-5.068,2.116-8.363,3.27s-6.39,2.057-8.614,2.651c-1.121.293-2.024.518-2.66.661a4.181,4.181,0,0,1-.987.167Z" transform="translate(-92.19 -100.105)"/><path class="b" d="M412.17,282.6a3.82,3.82,0,0,1,.736.569c.452.385,1.1.953,1.89,1.673,1.589,1.43,3.755,3.421,6.13,5.637s4.508,4.249,6.038,5.737c.761.736,1.372,1.346,1.79,1.773a4.288,4.288,0,0,1,.619.694,3.278,3.278,0,0,1-.736-.56c-.46-.385-1.1-.962-1.9-1.673-1.581-1.422-3.755-3.412-6.13-5.637s-4.508-4.249-6.03-5.729c-.769-.744-1.38-1.346-1.8-1.781a3.6,3.6,0,0,1-.611-.7Z" transform="translate(-88.852 -98.54)"/><path class="b" d="M399.55,317.94a5.512,5.512,0,0,1,.937.736l2.434,2.133c2.041,1.815,4.834,4.341,7.912,7.159s5.854,5.386,7.82,7.259l2.333,2.241a5.923,5.923,0,0,1,.836.836,6.684,6.684,0,0,1-.937-.736l-2.434-2.133c-2.041-1.815-4.834-4.349-7.912-7.159s-5.854-5.386-7.811-7.259l-2.358-2.191A5.757,5.757,0,0,1,399.55,317.94Z" transform="translate(-86.786 -104.324)"/><path class="b" d="M425.68,339.321a7.256,7.256,0,0,1,1.179-.46l3.278-1.129c2.76-.953,6.574-2.283,10.747-3.864s7.912-3.1,10.6-4.223l3.2-1.33a6.945,6.945,0,0,1,1.2-.435,6.031,6.031,0,0,1-1.121.6c-.736.36-1.806.836-3.145,1.455-2.668,1.2-6.4,2.777-10.58,4.357s-8.012,2.885-10.805,3.722c-1.4.435-2.509.769-3.345.987a6.378,6.378,0,0,1-1.213.318Z" transform="translate(-91.063 -105.951)"/><path class="c" d="M91.031,357.691c19.311-11.023,25.583-34.173,26.763-55.39.2-3.546.928-7.226-.468-10.479s-5.118-5.729-8.414-4.533c-2.735,1-4.182,3.939-5.854,6.331a20.775,20.775,0,0,1-9.007,7.151c-2.358.962-5.2,1.413-7.31,0-2.894-1.965-2.869-6.206-2.509-9.71q1-9.835,1.915-19.637c.343-3.5.686-7.092-.1-10.521s-2.919-6.758-6.172-8-7.569.3-8.589,3.68a32.767,32.767,0,0,0-.493,4.357c-.226,1.447-1.062,3-2.509,3.287s-2.752-.836-3.7-1.965c-3.345-3.881-5.344-8.673-7.226-13.431s-3.688-9.6-6.624-13.774-7.2-7.644-12.2-8.363-10.647,1.873-12.369,6.691.694,10.12,3.471,14.418a79.05,79.05,0,0,0,14.954,17.019,6.853,6.853,0,0,1,2.509,3.186c.544,2.409-1.89,4.533-4.265,5.093-2.7.627-5.52.092-8.28.167s-5.854,1-7.117,3.5c-1.773,3.454.887,7.527,3.613,10.228a67.257,67.257,0,0,0,18.826,13.289c2.509,1.179,5.135,2.258,7.05,4.265s2.885,5.277,1.405,7.636-4.792,2.86-7.452,2.108-4.943-2.442-7.435-3.646c-4.658-2.266-10.923-2.509-14.393,1.38-2.283,2.559-2.81,6.356-2.082,9.718a26.12,26.12,0,0,0,4.525,9.2,67.752,67.752,0,0,0,26.98,22.907c10.847,4.909,21.109,6.908,32.617,3.864" transform="translate(-25.579 -89.371)"/><path class="b" d="M91.075,373.873A155.557,155.557,0,0,0,87.989,344.4,317.122,317.122,0,0,0,78.6,309.366l-2.961-9.041c-.97-2.969-1.932-5.913-3.053-8.74a157.156,157.156,0,0,0-7.351-15.848c-2.584-4.926-5.21-9.509-7.7-13.774s-4.909-8.2-7.251-11.709A125.683,125.683,0,0,0,38,234.665c-1.589-1.723-2.86-3.019-3.738-3.889l-1-.979a2.942,2.942,0,0,0-.36-.318,3.235,3.235,0,0,0,.309.36l.962,1.029c.836.895,2.091,2.225,3.646,3.973A132.139,132.139,0,0,1,49.9,250.547c2.317,3.487,4.692,7.427,7.167,11.709s5.085,8.865,7.644,13.783A160.792,160.792,0,0,1,72.032,291.8c1.1,2.81,2.057,5.729,3.019,8.706s1.94,5.988,2.936,9.049A326,326,0,0,1,87.4,344.492a158.236,158.236,0,0,1,3.211,29.355" transform="translate(-26.777 -89.846)"/><path class="b" d="M80.17,296.222a6.19,6.19,0,0,0,.485-1.464c.276-.953.619-2.342,1.029-4.073.836-3.454,1.781-8.255,2.827-13.557s2.074-10.078,2.944-13.507c.427-1.673.786-3.1,1.054-4.056a7.453,7.453,0,0,0,.335-1.505,6.565,6.565,0,0,0-.577,1.43c-.335.937-.769,2.308-1.255,4.014-.987,3.4-2.091,8.188-3.136,13.5l-2.643,13.624c-.326,1.631-.6,3.011-.836,4.115A7.938,7.938,0,0,0,80.17,296.222Z" transform="translate(-34.514 -94.524)"/><path class="b" d="M27.11,288.658a10.541,10.541,0,0,0,1.781.376c1.154.209,2.818.5,4.859.937,4.1.836,9.71,2.158,15.84,3.906S61.2,297.465,65.13,298.9c1.965.7,3.546,1.313,4.633,1.731a9.335,9.335,0,0,0,1.723.594,9.248,9.248,0,0,0-1.622-.836c-1.062-.493-2.618-1.171-4.575-1.932-3.9-1.556-9.367-3.454-15.522-5.219a158.652,158.652,0,0,0-15.932-3.738c-2.057-.368-3.738-.594-4.9-.728A9,9,0,0,0,27.11,288.658Z" transform="translate(-25.83 -99.53)"/><path class="b" d="M98.19,354.961a2.149,2.149,0,0,0,.36-.527l.928-1.564c.836-1.355,1.89-3.345,3.212-5.854,2.651-4.968,6.105-11.951,9.8-19.712s7.075-14.77,9.626-19.788l3.028-5.938.836-1.622a2.768,2.768,0,0,0,.243-.585,2.511,2.511,0,0,0-.36.519l-.92,1.564c-.795,1.363-1.89,3.345-3.22,5.854-2.651,4.976-6.1,11.96-9.8,19.721s-7.075,14.761-9.618,19.788l-3.036,5.938-.836,1.622a2.292,2.292,0,0,0-.243.585Z" transform="translate(-37.463 -101.285)"/><path class="b" d="M28.57,336.14a2.259,2.259,0,0,0,.577.3l1.673.744,6.231,2.676c5.269,2.25,12.545,5.453,20.49,9s15.255,6.691,20.574,8.832c2.651,1.079,4.809,1.924,6.314,2.509l1.731.636a2.811,2.811,0,0,0,.619.176,2.083,2.083,0,0,0-.569-.3l-1.673-.744-6.264-2.7c-5.269-2.258-12.545-5.461-20.49-9.007s-15.263-6.691-20.574-8.832c-2.651-1.071-4.809-1.924-6.314-2.509l-1.731-.627A2.616,2.616,0,0,0,28.57,336.14Z" transform="translate(-26.069 -107.303)"/><path class="b" d="M154.738,81.7v69.031H55.6L52.02,82.185Z" transform="translate(-29.907 -65.659)"/><rect class="d" width="68.395" height="99.139" transform="translate(22.113 84.93) rotate(-90)"/><path class="b" d="M151.544,151.06H51.46V81.72H151.544Zm-99.139-.945H150.6V82.657H52.405Z" transform="translate(-29.815 -65.662)"/><rect class="d" width="77.662" height="51.401" transform="translate(32.852 25.023)"/><path class="b" d="M142.47,92.384h-5.712l-16.007.059-55.909.109.226-.226v51.4h0l-.251-.243,77.67.05-.2.192c.05-15.639.084-28.435.109-37.392,0-4.466,0-7.954.05-10.345v-.075c0,2.375,0,5.854.05,10.3,0,8.957.059,21.828.1,37.518v.2H142.4l-77.67.05H64.49v-.251h0V92.1h.217l56.034.117,15.957.059h5.261Z" transform="translate(-31.948 -67.361)"/><path class="b" d="M52,82.05a8.68,8.68,0,0,1,1.673,1.1c1.02.736,2.4,1.773,3.889,2.969s2.8,2.317,3.73,3.161A7.937,7.937,0,0,1,62.7,90.739a61.056,61.056,0,0,1-5.453-4.24A60.677,60.677,0,0,1,52,82.05Z" transform="translate(-29.903 -65.716)"/><path class="b" d="M168.469,82.28a47.786,47.786,0,0,1-5.219,4.441,47.579,47.579,0,0,1-5.52,4.056,49.02,49.02,0,0,1,5.244-4.441A47.957,47.957,0,0,1,168.469,82.28Z" transform="translate(-47.208 -65.754)"/><path class="d" d="M168.308,162.325,157.26,153.36" transform="translate(-47.131 -77.388)"/><path class="b" d="M157.26,153.36a54.187,54.187,0,0,1,5.679,4.29,51.132,51.132,0,0,1,5.369,4.675,52.8,52.8,0,0,1-5.679-4.29A46.272,46.272,0,0,1,157.26,153.36Z" transform="translate(-47.131 -77.388)"/><path class="b" d="M52,162.424a47.4,47.4,0,0,1,5.169-4.4,47.973,47.973,0,0,1,5.461-4.014,46.778,46.778,0,0,1-5.16,4.4A47.982,47.982,0,0,1,52,162.424Z" transform="translate(-29.903 -77.494)"/><rect class="b" width="17.212" height="48.867" transform="translate(48.625 58.259) rotate(-90)"/><rect class="b" width="53.007" height="76.834" transform="translate(300.746 0)"/><rect class="c" width="53.007" height="76.834" transform="translate(298.095 0)"/><rect class="d" width="39.835" height="60.191" transform="translate(304.677 8.321)"/><path class="b" d="M429.708,132.633V115.806c0-10.613-.042-25.65-.067-43.347l.134.134h-39.91l.151-.142v60.216l-.117-.117,29,.067h.075l-29.071.059h-.109V72.3h40.144v.134c0,17.739-.042,32.793-.059,43.431,0,5.294,0,9.492-.042,12.369v4.106A.662.662,0,0,0,429.708,132.633Z" transform="translate(-85.189 -64.121)"/><path class="b" d="M444.158,62.52a8.454,8.454,0,0,1-.945,1.372c-.619.836-1.489,1.949-2.509,3.161s-1.932,2.283-2.626,3.044a9.336,9.336,0,0,1-1.137,1.188,9.486,9.486,0,0,1,1.012-1.321l2.551-3.094c.962-1.179,1.84-2.241,2.551-3.1a9.788,9.788,0,0,1,1.1-1.246Z" transform="translate(-92.906 -62.52)"/><path class="d" d="M437.76,144.21a49.679,49.679,0,0,0,6.95,8.689" transform="translate(-93.04 -75.89)"/><path class="b" d="M444.705,152.9a7.978,7.978,0,0,1-1.213-1.1,36.53,36.53,0,0,1-2.626-2.952,39.436,39.436,0,0,1-2.3-3.212,8.1,8.1,0,0,1-.836-1.422,10.458,10.458,0,0,1,.978,1.313c.585.836,1.405,1.94,2.358,3.136s1.873,2.25,2.551,2.994A11.47,11.47,0,0,1,444.7,152.9Z" transform="translate(-93.035 -75.89)"/><path class="d" d="M382,152.644l6.942-8.564" transform="translate(-83.914 -75.869)"/><path class="b" d="M388.943,144.08a51.381,51.381,0,0,1-3.345,4.374,52.9,52.9,0,0,1-3.588,4.182,98.061,98.061,0,0,1,6.933-8.556Z" transform="translate(-83.915 -75.869)"/><path class="b" d="M382,62.52a48.7,48.7,0,0,1,3.345,4.031,49.2,49.2,0,0,1,3.145,4.182,46.836,46.836,0,0,1-3.345-4.031A49.188,49.188,0,0,1,382,62.52Z" transform="translate(-83.914 -62.52)"/><rect class="b" width="13.34" height="37.869" transform="translate(318.769 20.54)"/></g><g transform="translate(44.287 390.053)"><path class="e" d="M390.715,436.957c0,.125-81.475.217-181.944.217s-181.961-.059-181.961-.217,81.45-.217,181.961-.217S390.715,436.874,390.715,436.957Z" transform="translate(-26.81 -436.74)"/></g><g transform="translate(238.048 137.912)"><path class="e" d="M336.635,264a14.443,14.443,0,0,1-4.307,14.134c-2.551,2.258-5.854,3.563-8.2,6.047a12.721,12.721,0,0,0-2.551,12.277,16.233,16.233,0,0,0,8.556,9.484,18.993,18.993,0,0,0,17.228-.585c6.465-3.655,10.228-10.989,11.182-18.357s-.544-14.828-2.509-22" transform="translate(-268.716 -156.327)"/><path class="e" d="M437.19,416.557c6.691-1.1,12.963.945,19.587,2.409a11.708,11.708,0,0,0,5.428.293,7.791,7.791,0,0,0,5.352-6.456,10.571,10.571,0,0,0-1.673-7.326,7.034,7.034,0,0,0-2.292-2.283,7.97,7.97,0,0,0-3.2-.836A22.758,22.758,0,0,0,448.6,404.58a34.776,34.776,0,0,0-9.785,7.092c-1.405,1.405-.987,3.019-1.606,4.909" transform="translate(-287.737 -178.959)"/><path class="e" d="M274.859,284.263a51.853,51.853,0,0,1,.385-19.236,25.259,25.259,0,0,1,3.345-8.74,5.6,5.6,0,0,1,2.451-2.3,4.265,4.265,0,0,1,4.357,1.029,7.284,7.284,0,0,1,2.007,5.637,17.873,17.873,0,0,1-1.489,5.955c-2.584,6.607-6.691,12.093-11.081,17.647" transform="translate(-261.052 -154.653)"/><path class="f" d="M425.8,319.14c1.514,1.079,35.126,73.48,35.126,73.48h0a14.276,14.276,0,0,0-8.572-.836l-1.823.485a30.51,30.51,0,0,0-9.158,4.182l-9.593,6.49h0a2.743,2.743,0,0,1-1.363-2.116v-.276l-26.06-44.727Z" transform="translate(-282.364 -165.352)"/><path class="g" d="M275.95,181.32l8.965,50.958c2.885,6.858,36.531,48.407,36.531,48.407l-11.123,35.745L266.132,256a23.091,23.091,0,0,1-6.222-16.208l1.723-54.445Z" transform="translate(-258.721 -142.795)"/><path class="f" d="M333.54,290.58l23.074,1.748,20.122,3.12s35.3,9.275,35.3,13.139c0,1.288-9.635,31.973-15.054,50.356a127.8,127.8,0,0,0-3.245,13.582l18.3,40.512H325.2V375.894s-5.854-48.783-4.826-55.449S333.54,290.58,333.54,290.58Z" transform="translate(-268.599 -160.677)"/><path class="h" d="M266,153.343a102.147,102.147,0,0,1,1.589-15.472c.125-.728.427-1.606,1.154-1.673.9-.117,1.363,1.045,1.48,1.949a54.52,54.52,0,0,1-.761,18.491" transform="translate(-259.719 -135.409)"/><path class="f" d="M277.757,277.934c9.9-8.848,10.237-24.178,9.392-36.38a4.09,4.09,0,0,1,.385-2.618c.945-1.346,3.245-.836,4.182.519s.836,3.136.786,4.775c.51-1.388,2.685-1.38,3.7-.309s1.2,2.685,1.313,4.182l.326,4.081,28.929,27.6s.795-2.509,2.919-1.062a12.464,12.464,0,0,1,3.5,4.5L312.807,327.7l-37.827-46A15.362,15.362,0,0,1,277.757,277.934Z" transform="translate(-261.189 -152.095)"/><path class="f" d="M323.76,322.53a38.355,38.355,0,0,0-6.641,12.938,23.585,23.585,0,0,0,.427,14.4,19.972,19.972,0,0,0,15.33,12.361" transform="translate(-267.934 -165.906)"/><path class="g" d="M436.976,417.116l-1.1,14.761h21.435l5.018-26.135h0a27,27,0,0,0-18.123,5.679Z" transform="translate(-287.523 -179.519)"/><path class="e" d="M290.35,275.7a7.182,7.182,0,0,1,.468-1.179c.335-.736.786-1.823,1.3-3.178s1.054-2.994,1.564-4.834a57.825,57.825,0,0,0,1.263-6.1,56.707,56.707,0,0,0,.527-6.2c0-1.915,0-3.638-.117-5.085s-.226-2.609-.335-3.412a8.071,8.071,0,0,1-.117-1.263,6.34,6.34,0,0,1,.284,1.238,33.728,33.728,0,0,1,.477,3.412,46.7,46.7,0,0,1,.209,5.118,48.405,48.405,0,0,1-1.806,12.386,45.907,45.907,0,0,1-1.673,4.842c-.552,1.355-1.045,2.425-1.43,3.145A8.364,8.364,0,0,1,290.35,275.7Z" transform="translate(-263.704 -153.127)"/><path class="e" d="M297.88,269.561a20.678,20.678,0,0,1,.937-2.108,31.214,31.214,0,0,0,2.509-10.713,20.527,20.527,0,0,1,.125-2.3,8.659,8.659,0,0,1,.184,2.308,25.476,25.476,0,0,1-2.509,10.831A8.282,8.282,0,0,1,297.88,269.561Z" transform="translate(-264.937 -154.762)"/><path class="e" d="M338.155,298.083c-.067-.042.284-.585.485-1.572a8.3,8.3,0,0,0-.217-3.872,29.03,29.03,0,0,0-1.447-3.7,6.324,6.324,0,0,1-.585-1.572,7.524,7.524,0,0,1,.836,1.438,19.162,19.162,0,0,1,1.6,3.713,7.586,7.586,0,0,1,.092,4.065A2.986,2.986,0,0,1,338.155,298.083Z" transform="translate(-271.24 -160.152)"/><path class="e" d="M329.778,363.815a1.721,1.721,0,0,1-.368-.209l-.987-.652c-.836-.577-2.082-1.422-3.538-2.568a30.329,30.329,0,0,1-4.692-4.491,18,18,0,0,1-3.63-7.067,22.22,22.22,0,0,1-.485-7.945,31.372,31.372,0,0,1,1.43-6.331,41.368,41.368,0,0,1,1.6-4.073c.217-.468.385-.836.51-1.071a1.847,1.847,0,0,1,.209-.368,14.21,14.21,0,0,1-.56,1.505c-.376.953-.92,2.342-1.464,4.1a33.214,33.214,0,0,0-1.321,6.281,22.362,22.362,0,0,0,.5,7.795,17.848,17.848,0,0,0,3.521,6.925,31.784,31.784,0,0,0,4.575,4.5c1.422,1.171,2.618,2.049,3.446,2.676l.937.719C329.678,363.706,329.787,363.8,329.778,363.815Z" transform="translate(-267.89 -166.972)"/><path class="e" d="M383.48,376.931a1.43,1.43,0,0,1-.368.134c-.251.067-.611.192-1.087.284a22.08,22.08,0,0,1-4.1.493,23.024,23.024,0,0,1-21.8-13.791,21.652,21.652,0,0,1-1.313-3.914c-.117-.477-.159-.836-.209-1.1a1.746,1.746,0,0,1-.042-.393,11.412,11.412,0,0,1,.418,1.447,23.417,23.417,0,0,0,22.941,17.446,25.234,25.234,0,0,0,4.073-.351A14.333,14.333,0,0,1,383.48,376.931Z" transform="translate(-274.213 -171.816)"/><path class="e" d="M405.048,395.98c-.117,0,.987-4.658,2.509-10.329s2.777-10.245,2.885-10.212-.987,4.65-2.467,10.32S405.165,395.98,405.048,395.98Z" transform="translate(-282.475 -174.566)"/><path class="e" d="M416.13,383.362c-.1.059-3.462-5.436-7.527-12.277s-7.243-12.436-7.134-12.495,3.462,5.428,7.527,12.269S416.273,383.3,416.13,383.362Z" transform="translate(-281.891 -171.808)"/><path class="e" d="M453.9,404.395c0,.084-1.221.184-3.128.669a24.668,24.668,0,0,0-3.27,1.079,27.236,27.236,0,0,0-3.747,1.94,26.458,26.458,0,0,0-3.345,2.551,24.571,24.571,0,0,0-2.384,2.509c-1.254,1.514-1.873,2.576-1.949,2.509a3.72,3.72,0,0,1,.393-.769,15.538,15.538,0,0,1,1.313-1.957,22.386,22.386,0,0,1,2.35-2.593,24.205,24.205,0,0,1,3.4-2.626,24.642,24.642,0,0,1,3.83-1.94,21.265,21.265,0,0,1,3.345-1.012,15.141,15.141,0,0,1,2.325-.351A3.034,3.034,0,0,1,453.9,404.395Z" transform="translate(-287.556 -179.301)"/><path class="e" d="M458.313,398.337c0,.092-1.346-.075-3.5.109a22.349,22.349,0,0,0-14.653,7.343c-1.43,1.606-2.1,2.777-2.174,2.735a3.833,3.833,0,0,1,.443-.836,8.072,8.072,0,0,1,.6-.928,14.672,14.672,0,0,1,.895-1.171,20.321,20.321,0,0,1,2.727-2.693,23.419,23.419,0,0,1,3.947-2.559,23.051,23.051,0,0,1,4.4-1.622,20.189,20.189,0,0,1,3.8-.577,14.577,14.577,0,0,1,1.464,0,9.925,9.925,0,0,1,1.112.067,3.74,3.74,0,0,1,.937.134Z" transform="translate(-287.868 -178.278)"/><g class="i" transform="translate(80.349 188.605)"><path d="M355.455,360.77c-1.965,3.73-.326,8.28,1.472,12.1,1.4,2.961,2.952,5.963,5.495,8.029a11.709,11.709,0,0,0,17.019-2.375,26.42,26.42,0,0,1-24.388-17.254" transform="translate(-354.563 -360.77)"/></g><g class="i" transform="translate(118.931 186.782)"><path d="M401.4,358.59c-1.505,3.588-.368,8.5,1.2,12.052s3.245,7.527,1.982,11.215a4.716,4.716,0,0,0-.493,2.108c.084.719.836,1.413,1.514,1.079a1.673,1.673,0,0,0,.677-1.037q1.781-5.369,3.571-10.73" transform="translate(-400.695 -358.59)"/></g><path class="j" d="M306.94,299.5a52.371,52.371,0,0,1,.836-6.691,52,52,0,0,1,1.28-6.59,49.5,49.5,0,0,1-.836,6.691,51.068,51.068,0,0,1-1.28,6.59Z" transform="translate(-266.42 -159.964)"/><path class="j" d="M295,298.25c-.109.067-1.547-1.94-3.538-4.249s-3.747-4.039-3.663-4.132a20.639,20.639,0,0,1,4,3.847A21.417,21.417,0,0,1,295,298.25Z" transform="translate(-263.286 -160.561)"/><path class="j" d="M303.921,274.129a7.208,7.208,0,0,1-.945,1.505c-.636.895-1.564,2.091-2.643,3.345s-2.116,2.384-2.894,3.153a6.766,6.766,0,0,1-1.33,1.171c-.092-.084,1.74-2.066,3.889-4.608A57.673,57.673,0,0,1,303.921,274.129Z" transform="translate(-264.646 -157.984)"/><path class="j" d="M301.261,260.782c-.125.05-.6-1.012-1.522-2.074s-1.907-1.673-1.84-1.8a4.081,4.081,0,0,1,2.166,1.514A4.182,4.182,0,0,1,301.261,260.782Z" transform="translate(-264.939 -155.167)"/><path class="j" d="M291.936,269.3a6,6,0,0,1-2.174.56,5.771,5.771,0,0,1-2.241.134,11.709,11.709,0,0,1,4.416-.694Z" transform="translate(-263.241 -157.193)"/><path class="j" d="M315.489,278.934a22.84,22.84,0,0,0-.276-3.889,22.207,22.207,0,0,0-1.363-3.655,6.565,6.565,0,0,1,1.781,3.563A6.691,6.691,0,0,1,315.489,278.934Z" transform="translate(-267.551 -157.536)"/><path class="j" d="M326.913,292.434a19.588,19.588,0,0,0-6.063-6.114A10.571,10.571,0,0,1,326.913,292.434Z" transform="translate(-268.696 -159.98)"/><path class="j" d="M306.869,316.516a10.036,10.036,0,0,1-7.669-.259c.042-.125,1.673.4,3.822.46S306.836,316.39,306.869,316.516Z" transform="translate(-265.153 -164.876)"/><path class="j" d="M317.627,319.585c-.117-.05.535-1.974,1.079-4.416s.786-4.466.912-4.449a14.11,14.11,0,0,1-.485,4.541A14.269,14.269,0,0,1,317.627,319.585Z" transform="translate(-268.166 -163.973)"/><path class="j" d="M336.49,320.591a29.778,29.778,0,0,1-3.655-3.68,31.25,31.25,0,0,1-3.345-3.981,30.524,30.524,0,0,1,3.646,3.688A32.3,32.3,0,0,1,336.49,320.591Z" transform="translate(-270.11 -164.335)"/><path class="j" d="M346.275,344.419a15.982,15.982,0,0,1-2.726-2.509,16.344,16.344,0,0,1-2.409-2.81,15.987,15.987,0,0,1,2.727,2.509A15.155,15.155,0,0,1,346.275,344.419Z" transform="translate(-272.017 -168.618)"/><path class="j" d="M328.359,347.689a12.144,12.144,0,0,1-3.345,2.509,11.834,11.834,0,0,1-3.864,1.673c0-.117,1.673-.836,3.646-2.016S328.276,347.588,328.359,347.689Z" transform="translate(-268.745 -170.023)"/><path class="j" d="M337.826,367.964c-.125,0,.376-2.225.627-4.976s.176-5.018.3-5.018a16.067,16.067,0,0,1,.134,5.018,15.831,15.831,0,0,1-1.062,4.976Z" transform="translate(-271.471 -171.707)"/><path class="j" d="M366.909,350.442a14.059,14.059,0,0,1-3.621-3.186,13.707,13.707,0,0,1-2.668-4.006c.109-.075,1.254,1.74,2.994,3.722S366.993,350.333,366.909,350.442Z" transform="translate(-275.205 -169.297)"/><path class="j" d="M379.209,359.7c-.1-.075,1.171-1.815,2.593-4.048s2.467-4.106,2.576-4.048a17.939,17.939,0,0,1-2.216,4.282,17.447,17.447,0,0,1-2.952,3.814Z" transform="translate(-278.247 -170.664)"/><path class="j" d="M375.953,337.758a43.776,43.776,0,0,1-8.363-2.258,23.01,23.01,0,0,1,4.249.92,21.415,21.415,0,0,1,4.115,1.338Z" transform="translate(-276.346 -168.029)"/><path class="j" d="M369.5,377.273a17.733,17.733,0,0,1,0-3.964,18.737,18.737,0,0,1,.452-3.939,17.46,17.46,0,0,1,0,3.964A18.4,18.4,0,0,1,369.5,377.273Z" transform="translate(-276.64 -173.573)"/><path class="j" d="M376.5,391.09a33.6,33.6,0,0,0,1.054-4.123,32.36,32.36,0,0,0,.067-4.257,10.036,10.036,0,0,1-1.121,8.363Z" transform="translate(-277.804 -175.756)"/><path class="j" d="M358.383,388.023a12.9,12.9,0,0,1,1.606-8.363c.117.05-.652,1.815-1.087,4.131S358.508,388.015,358.383,388.023Z" transform="translate(-274.816 -175.257)"/><path class="j" d="M340.383,395.5a46.843,46.843,0,0,1-3.931-3.053,48.581,48.581,0,0,1-3.872-3.12,20.306,20.306,0,0,1,4.182,2.777,21.252,21.252,0,0,1,3.621,3.4Z" transform="translate(-270.616 -176.839)"/><path class="j" d="M351.116,377.09A72.221,72.221,0,0,1,341.08,382.4a37.557,37.557,0,0,1,4.951-2.877A36.518,36.518,0,0,1,351.116,377.09Z" transform="translate(-272.007 -174.836)"/><path class="e" d="M379.523,415.953a3.789,3.789,0,0,1-.544.134c-.36.067-.887.2-1.572.293a33.551,33.551,0,0,1-5.854.376,36.133,36.133,0,0,1-31.488-19.671,33.089,33.089,0,0,1-2.241-5.444c-.226-.661-.334-1.188-.435-1.539a2.645,2.645,0,0,1-.109-.552,3.062,3.062,0,0,1,.192.527c.125.343.259.836.51,1.514a37.887,37.887,0,0,0,7.276,12.47,36.732,36.732,0,0,0,26.3,12.386,38.046,38.046,0,0,0,5.854-.234c.694-.067,1.221-.176,1.581-.209a2.355,2.355,0,0,1,.527-.05Z" transform="translate(-271.385 -176.875)"/><path class="j" d="M357.882,414.532a6.5,6.5,0,0,1,.393-3.956,6.431,6.431,0,0,1,2.308-3.237,20.582,20.582,0,0,0-1.9,3.4A21.211,21.211,0,0,0,357.882,414.532Z" transform="translate(-274.733 -179.787)"/><path class="j" d="M348.986,412.5a14.6,14.6,0,0,0-2.174,2.074,15.288,15.288,0,0,0-1.372,2.668,5.127,5.127,0,0,1,3.546-4.742Z" transform="translate(-272.721 -180.632)"/><path class="j" d="M380.021,430.522a8.564,8.564,0,0,1-6.691-4.182,15.054,15.054,0,0,0,6.691,4.182Z" transform="translate(-277.285 -182.897)"/><path class="j" d="M385.361,403.64a6.59,6.59,0,0,1-4.541,5.353,17.859,17.859,0,0,0,2.71-2.3A17.288,17.288,0,0,0,385.361,403.64Z" transform="translate(-278.511 -179.182)"/><path class="j" d="M400.237,422.923c-.1-.084,1-1.48,2.024-3.4s1.564-3.621,1.673-3.579a12.862,12.862,0,0,1-3.713,6.983Z" transform="translate(-281.686 -181.195)"/><path class="j" d="M417.642,427c.05.125-1.472.728-3,1.99s-2.45,2.618-2.559,2.509a6.783,6.783,0,0,1,2.283-2.885A6.691,6.691,0,0,1,417.642,427Z" transform="translate(-283.628 -183.005)"/><path class="j" d="M403.547,401.41c-.134.042-.836-2.4-2.4-5.11s-3.237-4.617-3.128-4.7a5.218,5.218,0,0,1,1.2,1.171,20.766,20.766,0,0,1,3.948,7.008,5.539,5.539,0,0,1,.385,1.631Z" transform="translate(-281.325 -177.211)"/><path class="j" d="M405.819,373.56a38.837,38.837,0,0,1-8.029,1.848A39.175,39.175,0,0,1,405.819,373.56Z" transform="translate(-281.289 -174.258)"/><path class="j" d="M397.945,363.457a18.4,18.4,0,0,1-2.559-2.944,18.153,18.153,0,0,1-2.216-3.2,16.8,16.8,0,0,1,2.559,2.935,17.017,17.017,0,0,1,2.216,3.211Z" transform="translate(-280.533 -171.599)"/><path class="j" d="M418.468,358.957a19.478,19.478,0,0,1-7.828-1.857,34.084,34.084,0,0,1,3.922.912A33.088,33.088,0,0,1,418.468,358.957Z" transform="translate(-283.392 -171.564)"/><path class="j" d="M435,357.687a32.413,32.413,0,0,1,1.28-3.479,29.613,29.613,0,0,1,1.28-3.488,10.93,10.93,0,0,1-.836,3.638A10.653,10.653,0,0,1,435,357.687Z" transform="translate(-287.379 -170.52)"/><path class="j" d="M430.271,378.593a12.545,12.545,0,0,1-6.691-3.964c.084-.1,1.405,1.054,3.237,2.133S430.312,378.468,430.271,378.593Z" transform="translate(-285.51 -174.432)"/><path class="j" d="M441.315,376.827a30.308,30.308,0,0,1,.92-4.968A29.794,29.794,0,0,1,443.556,367a58.229,58.229,0,0,1-2.266,9.835Z" transform="translate(-288.408 -173.185)"/><path class="j" d="M432.1,399.979a51.117,51.117,0,0,1-5.57-7.619,26.118,26.118,0,0,1,2.961,3.68,25.633,25.633,0,0,1,2.609,3.939Z" transform="translate(-285.993 -177.335)"/><path class="j" d="M446.216,391.575c-.117.059-.878-1.455-2.082-3.145s-2.367-2.919-2.275-3.011a9.718,9.718,0,0,1,2.634,2.76A9.433,9.433,0,0,1,446.216,391.575Z" transform="translate(-288.501 -176.2)"/><path class="j" d="M459.043,389.46a41.544,41.544,0,0,1-2.676-3.5,43.554,43.554,0,0,1-2.676-3.5,22.663,22.663,0,0,1,5.353,7Z" transform="translate(-290.438 -175.715)"/><path class="j" d="M456.368,398.5a8.061,8.061,0,0,0-1-2.852,8.237,8.237,0,0,0-2.233-2.041c0-.05.385,0,.912.259a4.517,4.517,0,0,1,1.673,1.539,4.592,4.592,0,0,1,.744,2.158C456.552,398.114,456.444,398.5,456.368,398.5Z" transform="translate(-290.348 -177.537)"/><path class="j" d="M446.432,410.863c-.067,0-.042-.226-.109-.519a1.714,1.714,0,0,0-.577-.962,1.673,1.673,0,0,0-1.07-.326c-.3,0-.493.075-.527,0s.125-.226.485-.326a1.589,1.589,0,0,1,1.99,1.556C446.616,410.687,446.483,410.879,446.432,410.863Z" transform="translate(-288.876 -180.006)"/><path class="j" d="M341.491,428.858A12.051,12.051,0,0,1,334.6,422a20.374,20.374,0,0,0,6.891,6.891Z" transform="translate(-270.947 -182.186)"/><path class="g" d="M276.122,174.349c-1.346-12.721-3.78-24.689-4.441-37.158a2.258,2.258,0,0,0-.594-1.723,1.556,1.556,0,0,0-2.166.627,4.75,4.75,0,0,0-.418,2.509,57.557,57.557,0,0,1-3.345,19.461c-1.43,4.056-3.345,7.945-4.416,12.1s.945,5.57,2.818,9.442" transform="translate(-258.81 -135.256)"/><path class="g" d="M263.308,182.3a11.65,11.65,0,0,1-4.424-11.014c.427-2.509,1.673-4.784,2.66-7.126s1.748-4.943,1.146-7.41a12.48,12.48,0,0,1-.669-2.835c0-.97.627-2.057,1.6-2.1a2.375,2.375,0,0,1,1.815,1.1c1.631,2.016,2.936,7.9,2.116,12.3" transform="translate(-258.532 -137.967)"/><path class="h" d="M267.506,165.18s.084-.677.134-1.9a22.78,22.78,0,0,0-.427-5.135,18.6,18.6,0,0,0-1-3.4,6.892,6.892,0,0,0-.937-1.673,2.384,2.384,0,0,0-1.564-1.062,1.505,1.505,0,0,0-1.4,1.171,3.546,3.546,0,0,0,.134,2.149,11.138,11.138,0,0,1,.585,2.367,9.476,9.476,0,0,1-.092,2.509c-.585,3.4-2.392,6.139-3.345,8.857a12,12,0,0,0-.744,3.964,11.6,11.6,0,0,0,.518,3.479,11.935,11.935,0,0,0,2.509,4.441c.836.895,1.38,1.288,1.355,1.33a2.208,2.208,0,0,1-.418-.276,9.307,9.307,0,0,1-1.062-.945,11.441,11.441,0,0,1-2.676-4.458,11.575,11.575,0,0,1-.585-3.571,12.261,12.261,0,0,1,.728-4.1c.92-2.777,2.7-5.52,3.253-8.79a8.663,8.663,0,0,0,.092-2.409,10.615,10.615,0,0,0-.56-2.3,3.923,3.923,0,0,1-.117-2.4,2.325,2.325,0,0,1,.661-1.029,1.539,1.539,0,0,1,1.154-.41,2.735,2.735,0,0,1,1.907,1.179,7.312,7.312,0,0,1,.97,1.806,17.562,17.562,0,0,1,.97,3.479,20.657,20.657,0,0,1,.293,5.2,10.4,10.4,0,0,1-.184,1.405,1.9,1.9,0,0,1-.151.519Z" transform="translate(-258.49 -137.928)"/><path class="e" d="M398.892,246.337a5.771,5.771,0,0,0,5.16,4.466,7.243,7.243,0,0,0,6.3-3.094,9.76,9.76,0,0,0,1.564-6.992c-.477-3.521-2.818-6.908-6.214-7.954s-7.619.836-8.556,4.249l-3.914,5.461Z" transform="translate(-280.542 -151.167)"/><path class="g" d="M385.051,231.209A22.773,22.773,0,0,0,364.586,205.7c-12.135-1.154-22.932,7.887-24.747,19.947-1.6,10.571-2.969,21.243-2.919,25.09.151,11.709,6.983,16.242,9.76,17.563a15.34,15.34,0,0,0,3.078.761h0a.075.075,0,0,1,.059.092l-2.593,13.381c-1.179,8.79,3.73,16.635,12.5,17.914s15.69-5.47,17.036-14.268Z" transform="translate(-271.326 -146.769)"/><path class="e" d="M342.816,237.453c.192.276,1.731-.552,3.713-.259s3.278,1.5,3.529,1.28c.125-.092-.05-.552-.611-1.1a5.118,5.118,0,0,0-2.785-1.33,4.951,4.951,0,0,0-3,.51C342.966,236.926,342.716,237.328,342.816,237.453Z" transform="translate(-272.288 -151.742)"/><path class="e" d="M363.857,242.013c.192.276,1.74-.552,3.713-.259s3.287,1.5,3.538,1.28c.117-.092-.05-.552-.619-1.112a5.11,5.11,0,0,0-2.777-1.321,4.943,4.943,0,0,0-3,.51C364.032,241.486,363.765,241.888,363.857,242.013Z" transform="translate(-275.732 -152.489)"/><path class="e" d="M354.734,250.28a13.322,13.322,0,0,0-3.128-1.045c-.5-.125-.962-.3-1-.652a2.6,2.6,0,0,1,.552-1.447l2.057-3.63c2.869-5.177,5.018-9.459,4.817-9.576s-2.71,3.989-5.578,9.2l-2,3.655a3.053,3.053,0,0,0-.552,1.949,1.313,1.313,0,0,0,.728.836,3.613,3.613,0,0,0,.836.243,13.021,13.021,0,0,0,3.262.468Z" transform="translate(-273.451 -151.405)"/><path class="h" d="M352.224,281.069s7.527,1.74,17.939-2.609c0,0-4.483,9.66-18.633,6.222Z" transform="translate(-273.717 -158.694)"/><path class="h" d="M355.788,259.144a3.6,3.6,0,0,1,3.345-.836,3.345,3.345,0,0,1,2.074,1.539,2.066,2.066,0,0,1-.192,2.375,2.392,2.392,0,0,1-2.685.276,7.426,7.426,0,0,1-2.308-1.873,2.115,2.115,0,0,1-.485-.669.652.652,0,0,1,.117-.736" transform="translate(-274.363 -155.376)"/><path class="e" d="M361.016,256.13c-.318-.067-.636,2.082-2.693,3.345s-4.315.686-4.374.987c-.05.134.452.493,1.413.661a5.419,5.419,0,0,0,3.63-.7,4.717,4.717,0,0,0,2.124-2.818C361.326,256.707,361.167,256.138,361.016,256.13Z" transform="translate(-274.113 -155.039)"/><path class="e" d="M365.489,234.4c.117.569,2.133.6,4.407,1.221s4.073,1.522,4.449,1.087c.167-.209-.084-.761-.761-1.4a7.962,7.962,0,0,0-6.749-1.756C365.916,233.777,365.448,234.136,365.489,234.4Z" transform="translate(-276.002 -151.319)"/><path class="e" d="M345.2,230.136c.276.5,1.714.234,3.345.452s2.986.736,3.345.318c.176-.209,0-.694-.527-1.2a4.884,4.884,0,0,0-5.419-.619C345.338,229.459,345.079,229.894,345.2,230.136Z" transform="translate(-272.677 -150.522)"/><path class="e" d="M337.561,221.685c2.417,3.688,10.095,1.405,14.728-1.129a11.023,11.023,0,0,0,15.054-3.111c2.651,3.345,8.046,2.258,10.036-1.547s.836-9.049-1.84-12.378A17.172,17.172,0,0,0,365,197.791a24.5,24.5,0,0,0-24.831,10.228c-2.551,3.856-4.081,9.049-2.568,13.666" transform="translate(-271.34 -145.425)"/><path class="k" d="M363.62,199.36a40.188,40.188,0,0,0-5.612.318,20.406,20.406,0,0,0-11.608,6.247,25.29,25.29,0,0,0-5.537,12.093,33.456,33.456,0,0,0-.293,5.6,5.126,5.126,0,0,1-.309-1.505,17.364,17.364,0,0,1,.067-4.182,24.362,24.362,0,0,1,5.536-12.545,20.072,20.072,0,0,1,12.11-6.281,17.8,17.8,0,0,1,4.182-.067,4.909,4.909,0,0,1,1.464.318Z" transform="translate(-271.858 -145.68)"/><path class="k" d="M353.232,216.774a3.8,3.8,0,0,1-.184-1.313,12.971,12.971,0,0,1,.376-3.6,14.845,14.845,0,0,1,18.633-10.973,13.574,13.574,0,0,1,3.345,1.422,3.629,3.629,0,0,1,1.062.836,27.332,27.332,0,0,0-4.533-1.673,14.812,14.812,0,0,0-17.981,10.588A26.15,26.15,0,0,0,353.232,216.774Z" transform="translate(-273.965 -145.9)"/><path class="e" d="M379.474,213.626a43.715,43.715,0,0,0-1.556,10.036,14.778,14.778,0,0,0,3,9.484c3.228,3.889,8.614,5.077,13.582,6.022a39.308,39.308,0,0,0,2.317-20.908c-.569-3.421-1.673-6.908-4.081-9.4a11.366,11.366,0,0,0-13.8-1.673" transform="translate(-278.035 -146.766)"/><path class="e" d="M381.958,234.56c-1.3,2.827-1.213,6.1-.761,9.2s1.238,6.139,1.2,9.25-1.02,6.415-3.462,8.363a14.716,14.716,0,0,0-2.074,1.673,2.166,2.166,0,0,0-.435,2.45c.468.753,1.882.736,2.082-.125l-.125.217a1.38,1.38,0,0,0,1.171,2.082,6.264,6.264,0,0,0,4.466-2.191,13.684,13.684,0,0,0,2.651-6.691c1.288-7.385,1.037-15.054,3.078-22.255" transform="translate(-277.76 -151.509)"/><path class="f" d="M347.718,292.48a17.989,17.989,0,0,0,24.028,12.762c4.332-1.673,7.828-4.934,11.2-8.121a26.236,26.236,0,0,1-24.312,30.493c-5.545.335-11.5-1.355-14.987-5.679a16.813,16.813,0,0,1-3.345-10.872,39.607,39.607,0,0,1,2.191-11.374c.987-3.161,2.551-6.691,5.746-7.569" transform="translate(-271.879 -160.929)"/><path class="e" d="M393.862,245.108c3.345,1.8,5.135,5.562,5.779,9.275s.318,7.527.477,11.282.878,7.7,3.262,10.621c2.509,3.111,6.482,4.583,10.036,6.482,7.795,4.182,14.218,11.316,16.559,19.863s.217,18.4-6.181,24.546c-5.854,5.57-14.3,7.527-22.364,7.527-5.746,0-12.06-1.238-15.648-5.729s-3.345-10.789-2.091-16.325,3.554-10.914,3.646-16.593a29.566,29.566,0,0,1-4.416,9.819c-.594.836-1.606,1.756-2.509,1.271s-.627-2.049-.159-3.094c6.925-15.414,4.516-46.483,8.623-63.5" transform="translate(-278.347 -152.489)"/><path class="g" d="M389.481,243.879c.209-.067,8.3-1.6,7.251,6.4s-8.848,5.3-8.832,5.077S389.481,243.879,389.481,243.879Z" transform="translate(-279.67 -153.008)"/><path class="h" d="M391.288,253.185a3.144,3.144,0,0,0,.351.251,1.413,1.413,0,0,0,1.037.159c.887-.2,1.773-1.455,2-2.885a4.743,4.743,0,0,0-.134-2.049,1.614,1.614,0,0,0-.912-1.2.719.719,0,0,0-.836.276c-.134.209-.109.376-.151.385s-.151-.159-.05-.477a.9.9,0,0,1,.385-.46,1.054,1.054,0,0,1,.836-.109,1.982,1.982,0,0,1,1.3,1.43,4.834,4.834,0,0,1,.192,2.292c-.259,1.606-1.28,3-2.509,3.186a1.489,1.489,0,0,1-1.246-.376C391.28,253.378,391.263,253.194,391.288,253.185Z" transform="translate(-280.223 -153.55)"/><path class="e" d="M339.29,309.646a19.744,19.744,0,0,1,1.355-2.467,33.3,33.3,0,0,0,2.885-6.1,15.055,15.055,0,0,0,.719-6.624,25.874,25.874,0,0,0-.636-2.718,2.257,2.257,0,0,1,.36.677,8.879,8.879,0,0,1,.585,2,14.217,14.217,0,0,1-.611,6.8,28.084,28.084,0,0,1-3.036,6.122c-.468.736-.836,1.321-1.146,1.714A4.235,4.235,0,0,1,339.29,309.646Z" transform="translate(-271.714 -160.867)"/><path class="j" d="M343.667,301.745c-.117,0-.343-.686-1.062-1.163s-1.439-.477-1.455-.6.176-.142.5-.151a2.1,2.1,0,0,1,1.2.393,2.2,2.2,0,0,1,.786,1C343.751,301.528,343.726,301.728,343.667,301.745Z" transform="translate(-272.018 -162.191)"/><path class="j" d="M349.43,301.5a15.746,15.746,0,0,0-2.057-1.932,13.831,13.831,0,0,0-2.593-1.121,3.755,3.755,0,0,1,2.827.761,3.881,3.881,0,0,1,1.823,2.292Z" transform="translate(-272.613 -161.958)"/><path class="j" d="M354.22,321.068a13.891,13.891,0,0,1,.485-3.412,13.74,13.74,0,0,1,.912-3.345,13.936,13.936,0,0,1-.485,3.421A13.743,13.743,0,0,1,354.22,321.068Z" transform="translate(-274.158 -164.561)"/><path class="j" d="M369.8,324.041a30.527,30.527,0,0,1,.226-7.2A29.381,29.381,0,0,1,369.8,324.041Z" transform="translate(-276.688 -164.975)"/></g><g transform="translate(51.881 126.03)"><path class="l" d="M48.786,369.89l-12.9,56.16,27.273.084,12.6-49.385Z" transform="translate(-35.89 -161.776)"/><path class="e" d="M206.25,283.1c-2.593-3.471-5.57-6.808-6.933-10.922-.661-1.99-.92-4.1-1.622-6.072a7.378,7.378,0,0,0-3.939-4.642c-1.957-.744-3.446,0-4.717,1.405l-9.359,27.373,5.394,21.025c5.386-1.213,12.127-2.651,17.162-4.918s8.363-5.9,8.715-11.408C211.193,290.617,208.843,286.578,206.25,283.1Z" transform="translate(-59.424 -143.982)"/><path class="m" d="M99.044,281.2s-32.533,14.159-36.6,20.549S45,353.694,45,353.694L79.29,363.73,78.7,411.158h84.051l-.694-83.633-10.538-46.216s-18.558-1.2-20.281-2.041S99.044,281.2,99.044,281.2Z" transform="translate(-37.381 -146.918)"/><path class="l" d="M247.769,141.465c.268-1.915-1.079-4.023-.109-5.7a4.75,4.75,0,0,1,2.6-1.765,4.182,4.182,0,0,1,1.606-.376,1.413,1.413,0,0,1,1.313.836,1.79,1.79,0,0,1-.644,1.731,5.1,5.1,0,0,0-1.263,1.455,8.732,8.732,0,0,0,.309,4.115,72.7,72.7,0,0,1,2.768,8.949" transform="translate(-70.492 -123.106)"/><path class="l" d="M239.65,140.407c.117-2.9,2.509-14.335,2.593-17.237,1.965.6,3.1,2.693,3.471,4.717s.176,4.106.527,6.13a22.325,22.325,0,0,0,3.3,7.527,27.145,27.145,0,0,1,3.554,7.435c.644,2.676,3.069,9.635,1.179,11.642" transform="translate(-69.239 -121.396)"/><path class="l" d="M228.095,167.18l-11.633,55.265c-.41,2.509-44.091,40.6-44.091,40.6l8.623,34.449,56.871-55.641a23.116,23.116,0,0,0,6.231-16.216l-.97-51.853Z" transform="translate(-58.227 -128.599)"/><path class="l" d="M236.517,140.411l1.99,19.236,15.054,6.624s.184-1.363.836-8.029c.711-7.343-7.184-10.5-10.705-15.89-1.505-2.317-1.112-6.582-2.275-11.868-.134-.611-.97-4.307-1.422-6.289a4.466,4.466,0,0,0-1.807-2.718c-.686-.452-1.455-.677-2.016,0S236.517,140.411,236.517,140.411Z" transform="translate(-68.64 -121.049)"/><path class="l" d="M245.657,166.208a6.06,6.06,0,0,0,1.447-6.189,15.781,15.781,0,0,0-3.554-5.654,22.431,22.431,0,0,1-3.922-5.436c-.636-1.439-.937-3.028-1.673-4.441s-1.982-2.71-3.554-2.768c1.263,7.954,1.229,12.545,3.814,21.26" transform="translate(-68.38 -124.432)"/><path class="n" d="M235.892,150.828s-.059-.217-.151-.636-.251-1.112-.4-1.823c-.36-1.673-.836-3.805-1.33-6.256l-.05-.234h.243a3.9,3.9,0,0,1,2.81,1.054,8.439,8.439,0,0,1,2.358,4.023,20.857,20.857,0,0,0,1.313,3.471,10.706,10.706,0,0,0,1.472,2.032,3.035,3.035,0,0,1,.5.794,6.164,6.164,0,0,1-.636-.686,9.5,9.5,0,0,1-1.606-1.99,19.72,19.72,0,0,1-1.439-3.5,8.272,8.272,0,0,0-2.258-3.83,3.554,3.554,0,0,0-2.509-.962l.2-.251C235.424,147.065,236.076,150.837,235.892,150.828Z" transform="translate(-68.308 -124.458)"/><path class="n" d="M243.9,143.646a72.073,72.073,0,0,1-1.388-7.845,72.9,72.9,0,0,1-.962-7.912,70.124,70.124,0,0,1,1.388,7.853,72.9,72.9,0,0,1,.962,7.9Z" transform="translate(-69.55 -122.168)"/><path class="n" d="M249.606,145.336a.938.938,0,0,1,.109.293h-.125a45.024,45.024,0,0,1-1.522-5.47c-.36-1.614-.619-3.086-.778-4.182a6.481,6.481,0,0,1-.151-1.748c.125,0,.636,2.6,1.355,5.854.577,2.6,1.112,4.792,1.221,5.528h-.125C249.581,145.437,249.581,145.336,249.606,145.336Z" transform="translate(-70.463 -123.206)"/><path class="n" d="M251.98,159.334c-.067,0-.368-.435-.97-1.079a9.409,9.409,0,0,0-6.063-2.927,10.036,10.036,0,0,1-1.447-.092,3.345,3.345,0,0,1,1.455-.217,8.229,8.229,0,0,1,6.281,3.036,3.278,3.278,0,0,1,.744,1.28Z" transform="translate(-69.869 -126.607)"/><path class="n" d="M239.86,165.8a11.385,11.385,0,0,1-1-2.275,50.432,50.432,0,0,1-1.723-5.737,49.669,49.669,0,0,1-1.054-5.854,12.145,12.145,0,0,1-.151-2.509,16.908,16.908,0,0,1,.452,2.434c.251,1.5.636,3.571,1.171,5.854s1.137,4.282,1.6,5.737a17.629,17.629,0,0,1,.7,2.35Z" transform="translate(-68.629 -125.692)"/><path class="m" d="M160.16,279.761a5.3,5.3,0,0,1,7.126-1.673c6.139-5.018,12.42-9.885,18.558-14.878-2.007,10.036-3.345,24.028,1.146,33.211,0,0,5.662,10.521,14.678,8.915l-8.046,7.878-12.687,11.767" transform="translate(-56.229 -144.316)"/><path class="e" d="M157.78,287.315a6.774,6.774,0,0,1,1.179-3.772,6.85,6.85,0,0,1,2.81-2.793A14.661,14.661,0,0,0,157.78,287.315Z" transform="translate(-55.839 -147.187)"/><path class="e" d="M165.512,293.568a5.16,5.16,0,0,1-.7-1.823,11.792,11.792,0,0,1,1.614-9.124,5.235,5.235,0,0,1,1.288-1.48c.059.05-.427.619-1.02,1.673a13.3,13.3,0,0,0-1.581,4.307,13.516,13.516,0,0,0,0,4.591A18.376,18.376,0,0,1,165.512,293.568Z" transform="translate(-56.94 -147.251)"/><path class="j" d="M198.475,313.567a6.792,6.792,0,0,1-2,.836,11.114,11.114,0,0,1-5.854-.176,14.1,14.1,0,0,1-7.042-5.018,23.7,23.7,0,0,1-4.182-9.793,73.892,73.892,0,0,1-1-19.336c.192-2.509.468-4.466.7-5.854.109-.686.209-1.213.284-1.572a2.753,2.753,0,0,1,.134-.544,2.343,2.343,0,0,1-.05.56l-.2,1.581c-.176,1.372-.41,3.345-.56,5.854a77.519,77.519,0,0,0,1.121,19.236,23.618,23.618,0,0,0,4.056,9.559,13.816,13.816,0,0,0,6.816,5.018,11.257,11.257,0,0,0,5.729.309A16.058,16.058,0,0,0,198.475,313.567Z" transform="translate(-59.175 -145.773)"/><path class="e" d="M86.147,386.777c-.117,0-.217-11.893-.217-26.554s.1-26.554.217-26.554.217,11.884.217,26.554S86.273,386.777,86.147,386.777Z" transform="translate(-44.08 -155.848)"/><path class="e" d="M83.048,319.634c-.092,0-.067-1.188-.477-3.036a16.827,16.827,0,0,0-1.045-3.145,18.894,18.894,0,0,0-2.066-3.479,19.11,19.11,0,0,0-2.818-2.91,17.293,17.293,0,0,0-2.752-1.84c-1.673-.878-2.835-1.171-2.81-1.254a2.927,2.927,0,0,1,.836.167,6.31,6.31,0,0,1,.928.309,9.128,9.128,0,0,1,1.2.51,15.347,15.347,0,0,1,2.827,1.79,18.786,18.786,0,0,1,2.9,2.961A17.78,17.78,0,0,1,81.86,313.3a15.473,15.473,0,0,1,1.012,3.245,10.216,10.216,0,0,1,.176,1.288,7.141,7.141,0,0,1,.05.979A3.6,3.6,0,0,1,83.048,319.634Z" transform="translate(-41.649 -150.987)"/><path class="e" d="M145.628,281.17a3.89,3.89,0,0,1,.142.711,17.455,17.455,0,0,1,.217,2.049,21.327,21.327,0,0,1-1.045,7.485,21.963,21.963,0,0,1-6.063,9.384,21.586,21.586,0,0,1-25.767,1.974,21.945,21.945,0,0,1-7.393-8.363,21.4,21.4,0,0,1-2.149-7.243,18.944,18.944,0,0,1-.092-2.057,4.282,4.282,0,0,1,0-.719,4.281,4.281,0,0,1,.059.711,20.333,20.333,0,0,0,.167,2.041,22.1,22.1,0,0,0,2.258,7.126,21.829,21.829,0,0,0,7.335,8.188,21.326,21.326,0,0,0,25.274-1.9,21.82,21.82,0,0,0,6.038-9.2,22.389,22.389,0,0,0,1.171-7.385,14.246,14.246,0,0,0-.142-2.041A2.2,2.2,0,0,1,145.628,281.17Z" transform="translate(-46.949 -147.255)"/><path class="j" d="M79.318,365.942c0,.117-6.95-2.066-15.43-4.867s-15.33-5.169-15.288-5.286,6.942,2.066,15.43,4.867S79.352,365.825,79.318,365.942Z" transform="translate(-37.97 -159.467)"/><path class="j" d="M167.877,354.035c0,.125-18.441.3-41.189.393s-41.2.075-41.2,0,18.441-.3,41.2-.393S167.877,353.917,167.877,354.035Z" transform="translate(-44.008 -131.719)"/><path class="j" d="M168.3,362.717c0,.117-18.541.217-41.4.217s-41.407-.1-41.407-.217,18.533-.217,41.407-.217S168.3,362.592,168.3,362.717Z" transform="translate(-44.008 -133.117)"/><path class="e" d="M94.021,204.08c-3.529,2.768-3.763,7.945-3.588,12.428s.226,9.584-3.044,12.679c-2.676,2.551-7.36,3.5-8.129,7.117a4.182,4.182,0,0,0,6.758,4.14c-1.137,2.835-.619,6.465,1.8,8.363s6.64,1,7.527-1.915a3.7,3.7,0,1,0,7.192,1.673" transform="translate(-42.971 -134.638)"/><path class="e" d="M153.049,234.852a4.458,4.458,0,1,0,8.363-3.028c-.694-1.74-2.509-3.053-2.551-4.918-.109-2.258,2.266-3.755,4.349-4.633s4.525-2.049,4.851-4.282-1.539-3.947-3.094-5.478-3.053-3.855-1.957-5.746c.56-.962,1.673-1.48,2.392-2.325,1.622-1.873.97-5.018-.9-6.615a9.142,9.142,0,0,0-7.008-1.673,60.309,60.309,0,0,0-7.192,1.806,29.6,29.6,0,0,1-23.417-4.182" transform="translate(-50.782 -132.952)"/><path class="l" d="M99.724,219.262l8.606,49.879a16.049,16.049,0,0,0,18.642,13.1h0a16.058,16.058,0,0,0,13.164-17.228c-.393-4.424-.728-8.087-.728-8.087s12.495-3.211,11.416-15.89c-.527-6.139-2.626-18.692-4.667-30.033a23.735,23.735,0,0,0-25.675-19.411l-1.221.117a23.576,23.576,0,0,0-19.537,27.557Z" transform="translate(-46.274 -132.575)"/><path class="e" d="M151.426,224.321a1.806,1.806,0,0,1-1.564,2,1.731,1.731,0,0,1-2.024-1.447,1.806,1.806,0,0,1,1.564-2,1.731,1.731,0,0,1,2.024,1.447Z" transform="translate(-54.21 -137.71)"/><path class="e" d="M151.386,222.229c-.2.251-1.673-.627-3.621-.435s-3.287,1.313-3.521,1.1c-.109-.1.075-.544.652-1.062a4.968,4.968,0,0,1,2.793-1.163,4.817,4.817,0,0,1,2.91.636C151.244,221.7,151.487,222.112,151.386,222.229Z" transform="translate(-53.619 -137.349)"/><path class="e" d="M128.624,226.99a1.823,1.823,0,0,1-1.572,1.99,1.74,1.74,0,0,1-2.024-1.447,1.823,1.823,0,0,1,1.564-2,1.748,1.748,0,0,1,2.032,1.455Z" transform="translate(-50.477 -138.145)"/><path class="e" d="M128.516,224.891c-.2.259-1.673-.619-3.621-.427s-3.278,1.313-3.521,1.1c-.109-.1.075-.544.652-1.062a5.018,5.018,0,0,1,2.793-1.162,4.759,4.759,0,0,1,2.91.636C128.374,224.372,128.583,224.782,128.516,224.891Z" transform="translate(-49.876 -137.786)"/><path class="e" d="M139.582,238.508a12.776,12.776,0,0,1,3.1-.887c.493-.1.962-.243,1.012-.594a2.626,2.626,0,0,0-.477-1.438l-1.848-3.646c-2.568-5.2-4.474-9.492-4.265-9.593s2.459,4.031,5.018,9.2l1.781,3.68a2.869,2.869,0,0,1,.443,1.924,1.246,1.246,0,0,1-.744.836,3.748,3.748,0,0,1-.836.2,13.19,13.19,0,0,1-3.186.318Z" transform="translate(-52.453 -137.628)"/><path class="e" d="M127.906,215.775c-.142.552-2.108.485-4.366.987s-4.056,1.3-4.4.836c-.159-.209.109-.744.836-1.33a7.527,7.527,0,0,1,3.178-1.472,7.427,7.427,0,0,1,3.5.075C127.5,215.147,127.965,215.524,127.906,215.775Z" transform="translate(-49.508 -136.364)"/><path class="e" d="M149.959,215.535c-.3.477-1.673.151-3.345.284s-2.952.594-3.345.159c-.159-.209,0-.677.569-1.154a4.608,4.608,0,0,1,2.618-.987,4.558,4.558,0,0,1,2.718.636C149.851,214.874,150.085,215.309,149.959,215.535Z" transform="translate(-53.455 -136.233)"/><path class="e" d="M111.39,205.116l-.067.067a10.036,10.036,0,0,0-3.078,6.808v.259c-.142,3.672.3,7.343.125,11.006s-1.071,7.46-3.5,10.212c-1,1.129-2.869,2.024-3.889.912a3.1,3.1,0,0,1-.619-1.614c-1.522-8.664-4.667-16.183-5.537-25.324a7.7,7.7,0,0,1,2.584-6.574c1.773-1.564,3.973-3.212,6.2-2.409s5.361,4.508,7.176,6.03" transform="translate(-45.529 -133.684)"/><path class="l" d="M104.025,231.027c-.226-.067-8.965-1.723-7.845,6.916s9.568,5.737,9.551,5.486S104.025,231.027,104.025,231.027Z" transform="translate(-45.741 -139.021)"/><path class="n" d="M103.159,241.09a2.292,2.292,0,0,1-.376.268,1.48,1.48,0,0,1-1.121.176c-.953-.217-1.915-1.572-2.158-3.12a5.018,5.018,0,0,1,.142-2.216,1.773,1.773,0,0,1,.987-1.3.778.778,0,0,1,.937.3c.151.226.117.41.167.418s.167-.167.05-.519a.979.979,0,0,0-.41-.5,1.154,1.154,0,0,0-.836-.109,2.149,2.149,0,0,0-1.405,1.547,5.261,5.261,0,0,0-.209,2.509c.284,1.731,1.388,3.245,2.685,3.446a1.6,1.6,0,0,0,1.346-.41A.892.892,0,0,0,103.159,241.09Z" transform="translate(-46.196 -139.609)"/><path class="e" d="M104.995,197.749c-2.509-3.262,2.894-8.815,7.042-10.58s9.994-.234,14.393.761c2.768.636,5.57,1.614,8.363,1.221a19.235,19.235,0,0,0,5.361-1.932,14.075,14.075,0,0,1,5.436-1.673,5.252,5.252,0,0,1,4.851,2.45c.887,1.673.092,4.182-1.765,4.642a4.282,4.282,0,1,1,1.907,7.778c1.146-1.054,3.186.309,3.186,1.857s-1.3,2.818-2.651,3.579c-3.462,1.94-7.728,1.84-11.592.945s-7.527-2.509-11.374-3.513-10.3-2.81-13.891-1.129c-2.643,1.229-4.232,4.717-5.854,4.182a5.311,5.311,0,0,1-3.12-3.63,15.355,15.355,0,0,1-.318-4.951" transform="translate(-47.096 -131.603)"/><path class="e" d="M105.71,231.877a75.611,75.611,0,0,0,1.572,13.666,25.55,25.55,0,0,0,6.2,12.085c4.182,4.29,9.668,8.363,15.606,9.375,6.482,1.071,14.41-.284,19.687-4.182,2.509-1.848,4.324-5.854,3.546-8.882a6.59,6.59,0,0,0,3.763-5.52c.134-2.342-1.3-5.269-3.145-5.578,1.388-.234,1.79-2.442,1.263-3.688s-2.358-1.622-3.747-1.355a9.668,9.668,0,0,0-3.738,1.924,13.188,13.188,0,0,1-3.621,2.158c-4.483,1.455-9.024-2.509-13.733-2.317-4.257.167-8.046,3.7-12.269,3.111a8.505,8.505,0,0,1-5.687-3.956c-1.3-2-.736-9.384-1.246-11.709" transform="translate(-47.317 -138.391)"/><g class="o" transform="translate(85.85 112.524)"><path class="k" d="M145.247,256.469a7.992,7.992,0,0,1-1.037-.318,5.553,5.553,0,0,0-4.834.878c-.535.385-.836.694-.836.652a2.078,2.078,0,0,1,.677-.836,5.018,5.018,0,0,1,5.11-.92C144.946,256.134,145.272,256.427,145.247,256.469Z" transform="translate(-138.54 -255.593)"/></g><path class="d" d="M135.568,245.15c.318-.05.527,2.066,2.509,3.345s4.182.878,4.232,1.171c.042.125-.46.46-1.413.577a5.277,5.277,0,0,1-3.521-.836,4.592,4.592,0,0,1-1.94-2.86C135.241,245.693,135.425,245.15,135.568,245.15Z" transform="translate(-52.169 -141.36)"/><path class="k" d="M128.09,267.677a2.241,2.241,0,0,1,.544.2c.36.134.887.318,1.581.51a28.192,28.192,0,0,0,6.022.945,26.562,26.562,0,0,0,4.182-.084,23.416,23.416,0,0,0,4.725-.92,19.236,19.236,0,0,0,4.817-2.2,14.619,14.619,0,0,0,4.182-3.8,8.689,8.689,0,0,0,1.673-6.272v-.176l.151-.067a6.783,6.783,0,0,0,2.618-2.149,7.638,7.638,0,0,0,.836-1.405,5.078,5.078,0,0,0,.368-1.514,5.963,5.963,0,0,0-2.007-5.06l-.125-.1.1-.125a3.513,3.513,0,0,0,.518-3.437,3.345,3.345,0,0,0-1.924-1.89,3.68,3.68,0,0,0-1.748-.243c-.41.05-.611.125-.619.1a2.116,2.116,0,0,1,.611-.184,3.646,3.646,0,0,1,3.914,2.116,3.814,3.814,0,0,1-.5,3.738v-.226a6.314,6.314,0,0,1,2.191,5.344,5.512,5.512,0,0,1-.393,1.673,8.691,8.691,0,0,1-.878,1.489,7.092,7.092,0,0,1-2.777,2.3l.125-.251a8.991,8.991,0,0,1-1.673,6.624,15,15,0,0,1-4.307,3.906,18.825,18.825,0,0,1-4.926,2.216,23.066,23.066,0,0,1-4.809.9,26.957,26.957,0,0,1-4.257,0,26.369,26.369,0,0,1-6.047-1.1,13.611,13.611,0,0,1-1.564-.594,3.1,3.1,0,0,1-.6-.276Z" transform="translate(-50.98 -140.479)"/><path class="k" d="M82.457,239.563a1.321,1.321,0,0,1-.443-.217,2.509,2.509,0,0,1-.836-1.1A3.755,3.755,0,0,1,81,236.017a4.491,4.491,0,0,1,1.673-2.45,11.173,11.173,0,0,1,3.178-1.673,20.6,20.6,0,0,0,3.7-1.572,7.226,7.226,0,0,0,2.785-3.278,11.985,11.985,0,0,0,.987-4.6c.067-3.27-.686-6.373-.769-9.258s.418-5.578,1.731-7.385a6.958,6.958,0,0,1,4.182-2.869,4.733,4.733,0,0,1,1.405-.067,3.431,3.431,0,0,1,.485.092,7.468,7.468,0,0,0-1.848.142,6.917,6.917,0,0,0-4.006,2.877,11.749,11.749,0,0,0-1.581,7.192c.151,2.827.836,5.93.836,9.292a12.411,12.411,0,0,1-1.062,4.767,7.6,7.6,0,0,1-2.969,3.446,19.771,19.771,0,0,1-3.805,1.572,11,11,0,0,0-3.1,1.556,4.232,4.232,0,0,0-1.614,2.258,3.571,3.571,0,0,0,.092,2.108,2.785,2.785,0,0,0,1.162,1.4Z" transform="translate(-43.258 -134.435)"/><path class="k" d="M149.2,193.759a1.906,1.906,0,0,1,.376-.176,2.8,2.8,0,0,1,.493-.167,4.182,4.182,0,0,1,.694-.142,5.177,5.177,0,0,1,4.265,1.531h0a6.933,6.933,0,0,1,1.3,5.185,8.505,8.505,0,0,1-3.429,5.662,13.139,13.139,0,0,1-7.276,2.509,29.171,29.171,0,0,1-8.439-.9,38.27,38.27,0,0,1-12.261-5.428,38.526,38.526,0,0,0-5.018-2.919,13.716,13.716,0,0,0-4.851-1.238,14.485,14.485,0,0,0-7.117,1.321c-1.564.736-2.308,1.372-2.342,1.321a10.27,10.27,0,0,1,2.266-1.48,14.427,14.427,0,0,1,7.209-1.472,13.966,13.966,0,0,1,5.018,1.213,38.915,38.915,0,0,1,5.093,2.919,38.546,38.546,0,0,0,12.144,5.336,29.054,29.054,0,0,0,8.313.937,12.9,12.9,0,0,0,7.067-2.409,8.246,8.246,0,0,0,3.345-5.4,6.691,6.691,0,0,0-1.163-5.018h0a5.093,5.093,0,0,0-4.056-1.564,10.873,10.873,0,0,0-1.631.385Z" transform="translate(-47.298 -132.865)"/><path class="k" d="M144.561,185.05a4.893,4.893,0,0,1-.393,1.915,8.154,8.154,0,0,1-3.58,3.906,10.253,10.253,0,0,1-3.488,1.255,14.727,14.727,0,0,1-4.249,0c-2.986-.376-6.072-1.547-9.317-2.559s-6.515-1.614-9.392-1a12.411,12.411,0,0,0-6.6,3.847,12.888,12.888,0,0,0-2.668,4.483c-.385,1.188-.46,1.882-.51,1.873a2.057,2.057,0,0,1,0-.5,9.576,9.576,0,0,1,.309-1.422,12.353,12.353,0,0,1,2.6-4.642,12.545,12.545,0,0,1,6.741-4.031c2.977-.661,6.339-.05,9.6.97s6.323,2.191,9.241,2.576a14.327,14.327,0,0,0,4.14,0,10.036,10.036,0,0,0,3.4-1.163,8.163,8.163,0,0,0,3.571-3.7A11.922,11.922,0,0,0,144.561,185.05Z" transform="translate(-47.095 -131.524)"/><g transform="translate(71.31 176.68)"><path class="d" d="M153.029,158.439a10.837,10.837,0,0,0,1.411-2.916,10.95,10.95,0,0,0,.4-1.779h-4.959a6.589,6.589,0,0,1-.19.8,7.291,7.291,0,0,1-.276.742,5.715,5.715,0,0,1-.98,1.436,5.579,5.579,0,0,1-1.995,1.68c-.022.014-.04.028-.062.042l-.086.035a6.451,6.451,0,0,1-2.741.571,5.9,5.9,0,0,1-4.463-1.82c-.069-.066-.141-.128-.207-.2a6.537,6.537,0,0,1-1.351-2.147,6.713,6.713,0,0,1-.329-1.137h-5a10.73,10.73,0,0,0,3.119,6.4,11.3,11.3,0,0,0,3.6,2.361,12.384,12.384,0,0,0,7.974.4,11.439,11.439,0,0,0,2.976-1.362l2.362,2.114,3-3.339Z" transform="translate(-131.559 -140.228)"/><path class="p" d="M154.842,134.492V136.5h-6.4a.972.972,0,0,0-.708.306c-.324.342-.636.673-.944,1h-7.833c-.316-.3-.622-.59-.916-.894a1.135,1.135,0,0,0-.894-.434c-1.848.015-3.7.01-5.545.005-.221,0-.489.022-.761.008v-2c.1-.01.984.025,1.341-.008A11.05,11.05,0,0,1,134,130.3a10.777,10.777,0,0,1,3.466-3.126v5.04h2.167v-7.031H146c.015.151-.005,5.762-.019,7.022h2.225v-5.03a10.927,10.927,0,0,1,5.286,7.315C153.567,134.49,154.78,134.487,154.842,134.492Z" transform="translate(-130.846 -125.185)"/></g></g><g transform="translate(182.733 87.668)"><path class="e" d="M224.064,118.351c-.075.092-4.775-3.73-10.5-8.539s-10.3-8.823-10.22-8.882,4.775,3.73,10.5,8.547S224.148,118.259,224.064,118.351Z" transform="translate(-194.148 -79.394)"/><path class="e" d="M256.306,108.407c-.117,0-.594-7.427-1.054-16.6s-.744-16.618-.627-16.626.594,7.427,1.062,16.61S256.423,108.407,256.306,108.407Z" transform="translate(-202.538 -75.18)"/><path class="e" d="M237.277,104.827c-.117,0-1.581-4.182-3.278-9.476s-2.977-9.568-2.86-9.6,1.581,4.182,3.278,9.467S237.386,104.793,237.277,104.827Z" transform="translate(-198.697 -76.91)"/><path class="e" d="M219.8,130a57.7,57.7,0,0,1-6.448-2.718,56.034,56.034,0,0,1-6.273-3.12,57.705,57.705,0,0,1,6.448,2.718A56.868,56.868,0,0,1,219.8,130Z" transform="translate(-194.761 -83.196)"/><path class="e" d="M195.4,119.553c0,.117-.711.134-1.556,0s-1.514-.284-1.5-.4.711-.134,1.547,0S195.4,119.436,195.4,119.553Z" transform="translate(-192.35 -82.361)"/><path class="e" d="M231.747,78.693c-.125,0-.217-.677-.217-1.522s.092-1.53.217-1.53.217.686.217,1.53S231.865,78.693,231.747,78.693Z" transform="translate(-198.762 -75.255)"/><path class="e" d="M288.563,93.41c.092.084-3.772,4.508-8.614,9.885s-8.84,9.676-8.949,9.593,3.772-4.5,8.614-9.885S288.479,93.335,288.563,93.41Z" transform="translate(-205.222 -78.164)"/><path class="e" d="M298.9,86.137c.084.084-.36.669-1,1.3s-1.213,1.07-1.3.987.36-.669,1-1.3S298.816,86.019,298.9,86.137Z" transform="translate(-209.412 -76.97)"/><path class="e" d="M311.109,111.74a7.63,7.63,0,0,1-1.137.677c-.744.41-1.832.987-3.186,1.673-2.718,1.372-6.523,3.161-10.805,4.943s-8.238,3.2-11.132,4.182c-1.438.477-2.609.836-3.429,1.079a6.69,6.69,0,0,1-1.28.326,7.91,7.91,0,0,1,1.229-.485l3.345-1.213c2.86-1.029,6.783-2.509,11.065-4.265s8.087-3.521,10.872-4.817L309.9,112.3a9.03,9.03,0,0,1,1.213-.56Z" transform="translate(-206.718 -81.164)"/><path class="e" d="M299.486,136.36a11.392,11.392,0,0,1-2.225.728c-1.388.385-3.345.836-5.5,1.213s-4.182.585-5.6.686a10.755,10.755,0,0,1-2.333.042,15.479,15.479,0,0,1,2.308-.351c1.422-.176,3.387-.443,5.545-.836s4.106-.769,5.511-1.071A12.628,12.628,0,0,1,299.486,136.36Z" transform="translate(-207.322 -85.193)"/><path class="e" d="M314.9,133.857a13.449,13.449,0,0,1-4.817,0A13.448,13.448,0,0,1,314.9,133.857Z" transform="translate(-211.618 -84.748)"/></g><g transform="translate(213.112 344.272)"><path class="f" d="M240.054,382a8.907,8.907,0,0,1,5.854,3.747,15.664,15.664,0,0,1,2.509,6.632c.761,4.55-.468,9.718-2.158,14.017-4.642-2.183-7.117-7.586-8.2-10.412-1.673-4.458-2.1-13.565,1.949-13.983" transform="translate(-230.013 -382)"/><path class="f" d="M256.112,416.39a7.569,7.569,0,0,1-.176-7.611,10.036,10.036,0,0,1,6.172-4.734,4.248,4.248,0,0,1,3.571.251,3.245,3.245,0,0,1,1.171,3.069,6.624,6.624,0,0,1-1.455,3.086c-2.425,3.128-5.336,5.7-9.283,5.938" transform="translate(-232.982 -385.562)"/><path class="e" d="M254.843,431.766a3.513,3.513,0,0,1-.159-.953c-.059-.619-.142-1.522-.2-2.634a32.86,32.86,0,0,1,.527-8.7,16.484,16.484,0,0,1,3.956-7.753,10.67,10.67,0,0,1,2.057-1.673,2.727,2.727,0,0,1,.836-.435,21.38,21.38,0,0,0-2.659,2.367,17.128,17.128,0,0,0-3.713,7.611,37.275,37.275,0,0,0-.669,8.581A29.81,29.81,0,0,1,254.843,431.766Z" transform="translate(-232.884 -386.521)"/><path class="e" d="M242,390.29a10.034,10.034,0,0,1,.585,1.489c.343.97.836,2.375,1.388,4.123,1.146,3.5,2.643,8.363,4.182,13.758s2.777,10.329,3.63,13.908c.427,1.79.753,3.237.962,4.249a9.4,9.4,0,0,1,.284,1.572,8.849,8.849,0,0,1-.477-1.522c-.293-1.087-.669-2.509-1.121-4.182-.945-3.554-2.258-8.464-3.78-13.858s-2.961-10.27-4.014-13.791l-1.229-4.182a9.738,9.738,0,0,1-.41-1.564Z" transform="translate(-230.855 -383.357)"/><path class="f" d="M245.623,422.009a17.747,17.747,0,0,0-12.679-10.036c-1.405-.268-3.136-.234-3.922.97s-.109,2.81.736,3.964a15.146,15.146,0,0,0,15.89,5.553" transform="translate(-228.674 -386.883)"/><path class="e" d="M235.62,416.79a3.21,3.21,0,0,1,.928.1,7.408,7.408,0,0,1,1.062.226,12.854,12.854,0,0,1,1.388.41,18.714,18.714,0,0,1,3.412,1.6A19.7,19.7,0,0,1,249,425.5a18.6,18.6,0,0,1,1.673,3.345,12,12,0,0,1,.46,1.372,7.292,7.292,0,0,1,.268,1.062,2.911,2.911,0,0,1,.117.92c-.092,0-.351-1.28-1.179-3.212a20.908,20.908,0,0,0-1.765-3.237,22.691,22.691,0,0,0-2.885-3.462,23.065,23.065,0,0,0-3.546-2.777,21.268,21.268,0,0,0-3.3-1.673C236.908,417.107,235.6,416.89,235.62,416.79Z" transform="translate(-229.811 -387.694)"/></g></g></svg>